<?xml version='1.0' encoding='utf-8'?>
<score-partwise version="3.1">
  <work>
    <work-title>页面_song_504</work-title>
  </work>
  <part-list>
    <score-part id="P1">
      <part-name>简谱旋律</part-name>
    </score-part>
  </part-list>
  <part id="P1">
    <measure number="1">
      <attributes>
        <divisions>4</divisions>
        <key>
          <fifths>0</fifths>
        </key>
        <time>
          <beats>4</beats>
          <beat-type>4</beat-type>
        </time>
      </attributes>
      <note>
        <pitch>
          <step>G</step>
          <octave>4</octave>
        </pitch>
        <duration>2</duration>
        <type>eighth</type>
        <lyric number="1">
          <text>五</text>
        </lyric>
        <lyric number="2">
          <text>花</text>
        </lyric>
        <lyric number="3">
          <text>五</text>
        </lyric>
        <lyric number="4">
          <text>大</text>
        </lyric>
        <lyric number="5">
          <text>十</text>
        </lyric>
        <lyric number="6">
          <text>长</text>
        </lyric>
      </note>
      <note>
        <pitch>
          <step>E</step>
          <octave>4</octave>
        </pitch>
        <duration>2</duration>
        <type>eighth</type>
        <lyric number="1">
          <text>月</text>
        </lyric>
        <lyric number="2">
          <text>鞋</text>
        </lyric>
        <lyric number="3">
          <text>月</text>
        </lyric>
        <lyric number="4">
          <text>秧</text>
        </lyric>
        <lyric number="5">
          <text>nan双</text>
        </lyric>
        <lyric number="6">
          <text>秧</text>
        </lyric>
      </note>
      <note>
        <pitch>
          <step>E</step>
          <octave>4</octave>
        </pitch>
        <duration>2</duration>
        <type>eighth</type>
        <lyric number="1">
          <text>里</text>
        </lyric>
        <lyric number="2">
          <text>脱</text>
        </lyric>
        <lyric number="3">
          <text>里</text>
        </lyric>
        <lyric number="4">
          <text>要</text>
        </lyric>
        <lyric number="5">
          <text>秧</text>
        </lyric>
        <lyric number="6">
          <text>打</text>
        </lyric>
      </note>
      <note>
        <pitch>
          <step>C</step>
          <octave>5</octave>
        </pitch>
        <duration>2</duration>
        <type>eighth</type>
        <lyric number="1">
          <text>拔</text>
        </lyric>
        <lyric number="2">
          <text>篮</text>
        </lyric>
        <lyric number="3">
          <text>在</text>
        </lyric>
      </note>
    </measure>
    <measure number="2">
      <attributes>
        <time>
          <beats>4</beats>
          <beat-type>4</beat-type>
        </time>
      </attributes>
      <note>
        <pitch>
          <step>A</step>
          <octave>4</octave>
        </pitch>
        <duration>3</duration>
        <type>eighth</type>
        <dot />
        <lyric number="1">
          <text>来</text>
        </lyric>
        <lyric number="2">
          <text>在</text>
        </lyric>
        <lyric number="3">
          <text>来</text>
        </lyric>
        <lyric number="4">
          <text>来</text>
        </lyric>
        <lyric number="5">
          <text>呀</text>
        </lyric>
        <lyric number="6">
          <text>呀</text>
        </lyric>
      </note>
      <note>
        <pitch>
          <step>G</step>
          <octave>4</octave>
        </pitch>
        <duration>1</duration>
        <type>16th</type>
      </note>
      <note>
        <pitch>
          <step>E</step>
          <octave>4</octave>
        </pitch>
        <duration>4</duration>
        <type>quarter</type>
      </note>
    </measure>
    <measure number="3">
      <attributes>
        <time>
          <beats>4</beats>
          <beat-type>4</beat-type>
        </time>
      </attributes>
      <note>
        <pitch>
          <step>G</step>
          <octave>4</octave>
        </pitch>
        <duration>2</duration>
        <type>eighth</type>
        <lyric number="1">
          <text>是</text>
        </lyric>
        <lyric number="2">
          <text>田</text>
        </lyric>
        <lyric number="3">
          <text>是</text>
        </lyric>
        <lyric number="4">
          <text>五</text>
        </lyric>
        <lyric number="5">
          <text>满</text>
        </lyric>
        <lyric number="6">
          <text>深</text>
        </lyric>
      </note>
      <note>
        <pitch>
          <step>E</step>
          <octave>4</octave>
        </pitch>
        <duration>2</duration>
        <type>eighth</type>
        <lyric number="1">
          <text>秧</text>
        </lyric>
        <lyric number="2">
          <text>埂</text>
        </lyric>
        <lyric number="3">
          <text>秧</text>
        </lyric>
        <lyric number="4">
          <text>百</text>
        </lyric>
        <lyric number="5">
          <text>满</text>
        </lyric>
        <lyric number="6">
          <text>水</text>
        </lyric>
      </note>
      <note>
        <pitch>
          <step>E</step>
          <octave>4</octave>
        </pitch>
        <duration>2</duration>
        <type>eighth</type>
        <lyric number="1">
          <text>场</text>
        </lyric>
        <lyric number="2">
          <text>上</text>
        </lyric>
        <lyric number="3">
          <text>场</text>
        </lyric>
        <lyric number="4">
          <text>个</text>
        </lyric>
        <lyric number="5">
          <text>装</text>
        </lyric>
        <lyric number="6">
          <text>里</text>
        </lyric>
      </note>
      <note>
        <pitch>
          <step>C</step>
          <octave>5</octave>
        </pitch>
        <duration>2</duration>
        <type>eighth</type>
      </note>
    </measure>
    <measure number="4">
      <attributes>
        <time>
          <beats>4</beats>
          <beat-type>4</beat-type>
        </time>
      </attributes>
      <note>
        <pitch>
          <step>A</step>
          <octave>4</octave>
        </pitch>
        <duration>3</duration>
        <type>eighth</type>
        <dot />
      </note>
      <note>
        <pitch>
          <step>G</step>
          <octave>4</octave>
        </pitch>
        <duration>1</duration>
        <type>16th</type>
      </note>
      <note>
        <pitch>
          <step>E</step>
          <octave>4</octave>
        </pitch>
        <duration>2</duration>
        <type>eighth</type>
      </note>
      <note>
        <pitch>
          <step>C</step>
          <octave>4</octave>
        </pitch>
        <duration>2</duration>
        <type>eighth</type>
      </note>
    </measure>
    <measure number="5">
      <attributes>
        <time>
          <beats>4</beats>
          <beat-type>4</beat-type>
        </time>
      </attributes>
      <note>
        <pitch>
          <step>E</step>
          <octave>4</octave>
        </pitch>
        <duration>2</duration>
        <type>eighth</type>
        <lyric number="1">
          <text>村</text>
        </lyric>
        <lyric number="2">
          <text>脚</text>
        </lyric>
        <lyric number="3">
          <text>日</text>
        </lyric>
        <lyric number="4">
          <text>小</text>
        </lyric>
        <lyric number="5">
          <text>十</text>
        </lyric>
        <lyric number="6">
          <text>短</text>
        </lyric>
      </note>
      <note>
        <pitch>
          <step>D</step>
          <octave>4</octave>
        </pitch>
        <duration>2</duration>
        <type>eighth</type>
        <lyric number="1">
          <text>里</text>
        </lyric>
        <lyric number="2">
          <text>踩</text>
        </lyric>
        <lyric number="3">
          <text>耕</text>
        </lyric>
        <lyric number="4">
          <text>秧</text>
        </lyric>
        <lyric number="5">
          <text>nan个</text>
        </lyric>
        <lyric number="6">
          <text>秧</text>
        </lyric>
      </note>
      <note>
        <pitch>
          <step>D</step>
          <octave>4</octave>
        </pitch>
        <duration>2</duration>
        <type>eighth</type>
        <lyric number="1">
          <text>姑</text>
        </lyric>
        <lyric number="2">
          <text>泥</text>
        </lyric>
        <lyric number="3">
          <text>田</text>
        </lyric>
        <lyric number="4">
          <text>要</text>
        </lyric>
        <lyric number="5">
          <text>哥</text>
        </lyric>
        <lyric number="6">
          <text>打</text>
        </lyric>
      </note>
      <note>
        <pitch>
          <step>C</step>
          <octave>4</octave>
        </pitch>
        <duration>1</duration>
        <type>16th</type>
        <lyric number="1">
          <text>娘</text>
        </lyric>
        <lyric number="2">
          <text>浆</text>
        </lyric>
        <lyric number="3">
          <text>来</text>
        </lyric>
        <lyric number="4">
          <text>拔</text>
        </lyric>
        <lyric number="5">
          <text>哥</text>
        </lyric>
        <lyric number="6">
          <text>在</text>
        </lyric>
      </note>
      <note>
        <pitch>
          <step>A</step>
          <octave>3</octave>
        </pitch>
        <duration>1</duration>
        <type>16th</type>
      </note>
    </measure>
    <measure number="6">
      <attributes>
        <time>
          <beats>4</beats>
          <beat-type>4</beat-type>
        </time>
      </attributes>
      <note>
        <pitch>
          <step>A</step>
          <octave>3</octave>
        </pitch>
        <duration>6</duration>
        <type>quarter</type>
        <dot />
        <lyric number="1">
          <text>啊</text>
        </lyric>
        <lyric number="2">
          <text>呀</text>
        </lyric>
        <lyric number="3">
          <text>嘛</text>
        </lyric>
        <lyric number="4">
          <text>呀</text>
        </lyric>
        <lyric number="5">
          <text>呀</text>
        </lyric>
        <lyric number="6">
          <text>呀</text>
        </lyric>
      </note>
      <note>
        <pitch>
          <step>C</step>
          <octave>4</octave>
        </pitch>
        <duration>2</duration>
        <type>eighth</type>
      </note>
    </measure>
    <measure number="7">
      <attributes>
        <time>
          <beats>4</beats>
          <beat-type>4</beat-type>
        </time>
      </attributes>
      <note>
        <pitch>
          <step>D</step>
          <octave>4</octave>
        </pitch>
        <duration>2</duration>
        <type>eighth</type>
        <lyric number="1">
          <text>栽</text>
        </lyric>
        <lyric number="2">
          <text>手</text>
        </lyric>
        <lyric number="3">
          <text>夜</text>
        </lyric>
        <lyric number="4">
          <text>nan</text>
        </lyric>
        <lyric number="5">
          <text>来</text>
        </lyric>
        <lyric number="6">
          <text>高</text>
        </lyric>
      </note>
      <note>
        <pitch>
          <step>C</step>
          <octave>4</octave>
        </pitch>
        <duration>2</duration>
        <type>eighth</type>
        <lyric number="1">
          <text>nannan</text>
        </lyric>
      </note>
      <note>
        <pitch>
          <step>E</step>
          <octave>4</octave>
        </pitch>
        <duration>4</duration>
        <type>quarter</type>
        <lyric number="1">
          <text>秧</text>
        </lyric>
        <lyric number="2">
          <text>栽</text>
        </lyric>
        <lyric number="3">
          <text>拔</text>
        </lyric>
        <lyric number="4">
          <text>百</text>
        </lyric>
        <lyric number="5">
          <text>挑</text>
        </lyric>
        <lyric number="6">
          <text>田</text>
        </lyric>
        <lyric number="7">
          <text>nannannannan</text>
        </lyric>
      </note>
    </measure>
    <measure number="8">
      <attributes>
        <time>
          <beats>4</beats>
          <beat-type>4</beat-type>
        </time>
      </attributes>
      <note>
        <pitch>
          <step>D</step>
          <octave>4</octave>
        </pitch>
        <duration>3</duration>
        <type>eighth</type>
        <dot />
        <lyric number="1">
          <text>忙</text>
        </lyric>
        <lyric number="2">
          <text>秧</text>
        </lyric>
        <lyric number="3">
          <text>秧</text>
        </lyric>
        <lyric number="4">
          <text>双</text>
        </lyric>
        <lyric number="5">
          <text>秧</text>
        </lyric>
        <lyric number="6">
          <text>上</text>
        </lyric>
        <lyric number="7">
          <text>nannan</text>
        </lyric>
      </note>
      <note>
        <pitch>
          <step>C</step>
          <octave>4</octave>
        </pitch>
        <duration>1</duration>
        <type>16th</type>
        <lyric number="1">
          <text>nannannannan</text>
        </lyric>
      </note>
      <note>
        <pitch>
          <step>A</step>
          <octave>3</octave>
        </pitch>
        <duration>4</duration>
        <type>quarter</type>
        <lyric number="1">
          <text>啊nan</text>
        </lyric>
        <lyric number="2">
          <text>啊</text>
        </lyric>
        <lyric number="3">
          <text>啊nan</text>
        </lyric>
        <lyric number="4">
          <text>啊nan</text>
        </lyric>
        <lyric number="5">
          <text>啊nan</text>
        </lyric>
        <lyric number="6">
          <text>啊nan</text>
        </lyric>
        <lyric number="7">
          <text>nan</text>
        </lyric>
      </note>
    </measure>
  </part>
</score-partwise>
