<?xml version='1.0' encoding='utf-8'?>
<score-partwise version="3.1">
  <work>
    <work-title>页面_song_667</work-title>
  </work>
  <part-list>
    <score-part id="P1">
      <part-name>简谱旋律</part-name>
    </score-part>
  </part-list>
  <part id="P1">
    <measure number="1">
      <attributes>
        <divisions>4</divisions>
        <key>
          <fifths>0</fifths>
        </key>
        <time>
          <beats>4</beats>
          <beat-type>4</beat-type>
        </time>
      </attributes>
      <note>
        <pitch>
          <step>C</step>
          <octave>4</octave>
        </pitch>
        <duration>2</duration>
        <type>eighth</type>
        <lyric number="1">
          <text>啥</text>
        </lyric>
        <lyric number="2">
          <text>牛</text>
        </lyric>
        <lyric number="3">
          <text>啥</text>
        </lyric>
        <lyric number="4">
          <text>武大</text>
        </lyric>
      </note>
      <note>
        <pitch>
          <step>D</step>
          <octave>4</octave>
        </pitch>
        <duration>2</duration>
        <type>eighth</type>
        <lyric number="1">
          <text>车</text>
        </lyric>
        <lyric number="2">
          <text>车</text>
        </lyric>
        <lyric number="3">
          <text>人</text>
        </lyric>
        <lyric number="4">
          <text>郎</text>
        </lyric>
      </note>
      <note>
        <pitch>
          <step>E</step>
          <octave>4</octave>
        </pitch>
        <duration>1</duration>
        <type>16th</type>
        <lyric number="1">
          <text>団</text>
        </lyric>
        <lyric number="2">
          <text>团</text>
        </lyric>
        <lyric number="3">
          <text>团</text>
        </lyric>
        <lyric number="4">
          <text>团</text>
        </lyric>
      </note>
      <note>
        <pitch>
          <step>G</step>
          <octave>5</octave>
        </pitch>
        <duration>12</duration>
        <type>half</type>
        <dot />
        <tie type="start" />
        <tie type="stop" />
        <lyric number="1">
          <text>团</text>
        </lyric>
        <lyric number="2">
          <text>团</text>
        </lyric>
        <lyric number="3">
          <text>团</text>
        </lyric>
        <lyric number="4">
          <text>团</text>
        </lyric>
      </note>
    </measure>
    <measure number="2">
      <attributes>
        <time>
          <beats>4</beats>
          <beat-type>4</beat-type>
        </time>
      </attributes>
      <note>
        <pitch>
          <step>A</step>
          <octave>4</octave>
        </pitch>
        <duration>2</duration>
        <type>eighth</type>
        <lyric number="1">
          <text>啥</text>
        </lyric>
        <lyric number="2">
          <text>人</text>
        </lyric>
        <lyric number="3">
          <text>啥</text>
        </lyric>
        <lyric number="4">
          <text>武</text>
        </lyric>
      </note>
      <note>
        <pitch>
          <step>C</step>
          <octave>5</octave>
        </pitch>
        <duration>2</duration>
        <type>eighth</type>
        <lyric number="1">
          <text>车</text>
        </lyric>
        <lyric number="2">
          <text>车</text>
        </lyric>
        <lyric number="3">
          <text>人</text>
        </lyric>
        <lyric number="4">
          <text>松</text>
        </lyric>
      </note>
      <note>
        <pitch>
          <step>G</step>
          <octave>4</octave>
        </pitch>
        <duration>6</duration>
        <type>quarter</type>
        <dot />
        <lyric number="1">
          <text>长</text>
        </lyric>
        <lyric number="2">
          <text>长</text>
        </lyric>
        <lyric number="3">
          <text>长</text>
        </lyric>
        <lyric number="4">
          <text>长</text>
        </lyric>
      </note>
      <note>
        <pitch>
          <step>G</step>
          <octave>4</octave>
        </pitch>
        <duration>1</duration>
        <type>16th</type>
        <lyric number="1">
          <text>啊</text>
        </lyric>
        <lyric number="2">
          <text>啊</text>
        </lyric>
        <lyric number="3">
          <text>啊</text>
        </lyric>
        <lyric number="4">
          <text>啊</text>
        </lyric>
      </note>
    </measure>
    <measure number="3">
      <attributes>
        <time>
          <beats>4</beats>
          <beat-type>4</beat-type>
        </time>
      </attributes>
      <note>
        <pitch>
          <step>G</step>
          <octave>4</octave>
        </pitch>
        <duration>1</duration>
        <type>16th</type>
        <lyric number="1">
          <text>啥</text>
        </lyric>
        <lyric number="2">
          <text>鱼</text>
        </lyric>
        <lyric number="3">
          <text>啥</text>
        </lyric>
        <lyric number="4">
          <text>捉</text>
        </lyric>
      </note>
      <note>
        <pitch>
          <step>A</step>
          <octave>4</octave>
        </pitch>
        <duration>1</duration>
        <type>16th</type>
        <lyric number="1">
          <text>车</text>
        </lyric>
        <lyric number="2">
          <text>车</text>
        </lyric>
        <lyric number="3">
          <text>人</text>
        </lyric>
        <lyric number="4">
          <text>鱼</text>
        </lyric>
      </note>
      <note>
        <pitch>
          <step>G</step>
          <octave>4</octave>
        </pitch>
        <duration>1</duration>
        <type>16th</type>
        <lyric number="1">
          <text>nan</text>
        </lyric>
        <lyric number="2">
          <text>nan</text>
        </lyric>
        <lyric number="3">
          <text>nan</text>
        </lyric>
        <lyric number="4">
          <text>郎</text>
        </lyric>
      </note>
      <note>
        <pitch>
          <step>E</step>
          <octave>4</octave>
        </pitch>
        <duration>1</duration>
        <type>16th</type>
      </note>
      <note>
        <pitch>
          <step>G</step>
          <octave>4</octave>
        </pitch>
        <duration>1</duration>
        <type>16th</type>
        <lyric number="1">
          <text>落</text>
        </lyric>
        <lyric number="2">
          <text>落</text>
        </lyric>
        <lyric number="3">
          <text>落</text>
        </lyric>
        <lyric number="4">
          <text>落</text>
        </lyric>
      </note>
      <note>
        <pitch>
          <step>C</step>
          <octave>4</octave>
        </pitch>
        <duration>3</duration>
        <type>eighth</type>
        <dot />
        <lyric number="1">
          <text>在</text>
        </lyric>
        <lyric number="2">
          <text>在</text>
        </lyric>
        <lyric number="3">
          <text>在</text>
        </lyric>
        <lyric number="4">
          <text>在</text>
        </lyric>
      </note>
    </measure>
    <measure number="4">
      <attributes>
        <time>
          <beats>4</beats>
          <beat-type>4</beat-type>
        </time>
      </attributes>
      <note>
        <pitch>
          <step>E</step>
          <octave>4</octave>
        </pitch>
        <duration>2</duration>
        <type>eighth</type>
        <lyric number="1">
          <text>水</text>
        </lyric>
        <lyric number="2">
          <text>水</text>
        </lyric>
        <lyric number="3">
          <text>水</text>
        </lyric>
        <lyric number="4">
          <text>水</text>
        </lyric>
      </note>
      <note>
        <pitch>
          <step>G</step>
          <octave>4</octave>
        </pitch>
        <duration>2</duration>
        <type>eighth</type>
        <lyric number="1">
          <text>中</text>
        </lyric>
        <lyric number="2">
          <text>中</text>
        </lyric>
        <lyric number="3">
          <text>中</text>
        </lyric>
        <lyric number="4">
          <text>中</text>
        </lyric>
      </note>
      <note>
        <pitch>
          <step>E</step>
          <octave>4</octave>
        </pitch>
        <duration>3</duration>
        <type>eighth</type>
        <dot />
      </note>
      <note>
        <pitch>
          <step>D</step>
          <octave>4</octave>
        </pitch>
        <duration>1</duration>
        <type>16th</type>
      </note>
    </measure>
    <measure number="5">
      <attributes>
        <time>
          <beats>4</beats>
          <beat-type>4</beat-type>
        </time>
      </attributes>
      <note>
        <pitch>
          <step>D</step>
          <octave>4</octave>
        </pitch>
        <duration>6</duration>
        <type>quarter</type>
        <dot />
        <lyric number="1">
          <text>央nan</text>
        </lyric>
        <lyric number="2">
          <text>央</text>
        </lyric>
        <lyric number="3">
          <text>央</text>
        </lyric>
        <lyric number="4">
          <text>央</text>
        </lyric>
      </note>
      <note>
        <rest />
        <duration>1</duration>
        <type>16th</type>
      </note>
      <note>
        <pitch>
          <step>G</step>
          <octave>4</octave>
        </pitch>
        <duration>1</duration>
        <type>16th</type>
        <lyric number="1">
          <text>啊</text>
        </lyric>
        <lyric number="2">
          <text>啊</text>
        </lyric>
        <lyric number="3">
          <text>啊</text>
        </lyric>
        <lyric number="4">
          <text>啊</text>
        </lyric>
      </note>
    </measure>
    <measure number="6">
      <attributes>
        <time>
          <beats>4</beats>
          <beat-type>4</beat-type>
        </time>
      </attributes>
      <note>
        <pitch>
          <step>G</step>
          <octave>4</octave>
        </pitch>
        <duration>2</duration>
        <type>eighth</type>
        <lyric number="1">
          <text>啥</text>
        </lyric>
        <lyric number="2">
          <text>坐</text>
        </lyric>
        <lyric number="3">
          <text>啥</text>
        </lyric>
        <lyric number="4">
          <text>惠山</text>
        </lyric>
      </note>
      <note>
        <pitch>
          <step>A</step>
          <octave>4</octave>
        </pitch>
        <duration>1</duration>
        <type>16th</type>
        <lyric number="1">
          <text>车</text>
        </lyric>
        <lyric number="2">
          <text>车</text>
        </lyric>
        <lyric number="3">
          <text>人</text>
        </lyric>
        <lyric number="4">
          <text>人</text>
        </lyric>
      </note>
      <note>
        <pitch>
          <step>E</step>
          <octave>4</octave>
        </pitch>
        <duration>1</duration>
        <type>16th</type>
        <lyric number="1">
          <text>人</text>
        </lyric>
      </note>
      <note>
        <pitch>
          <step>G</step>
          <octave>4</octave>
        </pitch>
        <duration>2</duration>
        <type>eighth</type>
        <lyric number="1">
          <text>放</text>
        </lyric>
        <lyric number="2">
          <text>放</text>
        </lyric>
        <lyric number="3">
          <text>放</text>
        </lyric>
        <lyric number="4">
          <text>放</text>
        </lyric>
      </note>
      <note>
        <pitch>
          <step>A</step>
          <octave>4</octave>
        </pitch>
        <duration>1</duration>
        <type>16th</type>
        <lyric number="1">
          <text>在</text>
        </lyric>
        <lyric number="2">
          <text>在</text>
        </lyric>
        <lyric number="3">
          <text>在</text>
        </lyric>
        <lyric number="4">
          <text>在</text>
        </lyric>
      </note>
      <note>
        <pitch>
          <step>C</step>
          <octave>5</octave>
        </pitch>
        <duration>1</duration>
        <type>16th</type>
      </note>
    </measure>
    <measure number="7">
      <attributes>
        <time>
          <beats>4</beats>
          <beat-type>4</beat-type>
        </time>
      </attributes>
      <note>
        <pitch>
          <step>A</step>
          <octave>4</octave>
        </pitch>
        <duration>1</duration>
        <type>16th</type>
        <lyric number="1">
          <text>街</text>
        </lyric>
        <lyric number="2">
          <text>街</text>
        </lyric>
        <lyric number="3">
          <text>街</text>
        </lyric>
        <lyric number="4">
          <text>街</text>
        </lyric>
      </note>
      <note>
        <pitch>
          <step>G</step>
          <octave>4</octave>
        </pitch>
        <duration>1</duration>
        <type>16th</type>
      </note>
      <note>
        <pitch>
          <step>E</step>
          <octave>4</octave>
        </pitch>
        <duration>2</duration>
        <type>eighth</type>
        <lyric number="1">
          <text>上</text>
        </lyric>
        <lyric number="2">
          <text>上</text>
        </lyric>
        <lyric number="3">
          <text>上</text>
        </lyric>
        <lyric number="4">
          <text>上</text>
        </lyric>
      </note>
      <note>
        <pitch>
          <step>E</step>
          <octave>4</octave>
        </pitch>
        <duration>2</duration>
        <type>eighth</type>
        <lyric number="1">
          <text>卖</text>
        </lyric>
        <lyric number="2">
          <text>卖</text>
        </lyric>
        <lyric number="3">
          <text>卖</text>
        </lyric>
        <lyric number="4">
          <text>卖</text>
        </lyric>
      </note>
      <note>
        <rest />
        <duration>1</duration>
        <type>16th</type>
      </note>
      <note>
        <pitch>
          <step>E</step>
          <octave>4</octave>
        </pitch>
        <duration>1</duration>
        <type>16th</type>
        <lyric number="1">
          <text>啊</text>
        </lyric>
        <lyric number="2">
          <text>啊</text>
        </lyric>
        <lyric number="3">
          <text>啊</text>
        </lyric>
      </note>
    </measure>
    <measure number="8">
      <attributes>
        <time>
          <beats>4</beats>
          <beat-type>4</beat-type>
        </time>
      </attributes>
      <note>
        <pitch>
          <step>E</step>
          <octave>4</octave>
        </pitch>
        <duration>1</duration>
        <type>16th</type>
        <lyric number="1">
          <text>啥</text>
        </lyric>
        <lyric number="2">
          <text>摇</text>
        </lyric>
        <lyric number="3">
          <text>啥</text>
        </lyric>
        <lyric number="4">
          <text>新</text>
        </lyric>
      </note>
      <note>
        <pitch>
          <step>E</step>
          <octave>4</octave>
        </pitch>
        <duration>1</duration>
        <type>16th</type>
        <lyric number="1">
          <text>车</text>
        </lyric>
        <lyric number="2">
          <text>车</text>
        </lyric>
        <lyric number="3">
          <text>人</text>
        </lyric>
        <lyric number="4">
          <text>郎nan</text>
        </lyric>
      </note>
      <note>
        <pitch>
          <step>E</step>
          <octave>4</octave>
        </pitch>
        <duration>1</duration>
        <type>16th</type>
        <lyric number="1">
          <text>nan</text>
        </lyric>
        <lyric number="2">
          <text>nan</text>
        </lyric>
        <lyric number="3">
          <text>nan</text>
        </lyric>
        <lyric number="4">
          <text>nan</text>
        </lyric>
      </note>
      <note>
        <pitch>
          <step>G</step>
          <octave>4</octave>
        </pitch>
        <duration>1</duration>
        <type>16th</type>
      </note>
      <note>
        <pitch>
          <step>C</step>
          <octave>5</octave>
        </pitch>
        <duration>2</duration>
        <type>eighth</type>
        <lyric number="1">
          <text>陪</text>
        </lyric>
        <lyric number="2">
          <text>陪</text>
        </lyric>
        <lyric number="3">
          <text>陪</text>
        </lyric>
        <lyric number="4">
          <text>陪</text>
        </lyric>
      </note>
      <note>
        <pitch>
          <step>A</step>
          <octave>4</octave>
        </pitch>
        <duration>1</duration>
        <type>16th</type>
        <lyric number="1">
          <text>伴</text>
        </lyric>
        <lyric number="2">
          <text>伴</text>
        </lyric>
        <lyric number="3">
          <text>伴</text>
        </lyric>
        <lyric number="4">
          <text>伴</text>
        </lyric>
      </note>
      <note>
        <pitch>
          <step>G</step>
          <octave>4</octave>
        </pitch>
        <duration>1</duration>
        <type>16th</type>
      </note>
    </measure>
    <measure number="9">
      <attributes>
        <time>
          <beats>4</beats>
          <beat-type>4</beat-type>
        </time>
      </attributes>
      <note>
        <pitch>
          <step>D</step>
          <octave>4</octave>
        </pitch>
        <duration>2</duration>
        <type>eighth</type>
      </note>
      <note>
        <pitch>
          <step>G</step>
          <octave>4</octave>
        </pitch>
        <duration>2</duration>
        <type>eighth</type>
      </note>
      <note>
        <pitch>
          <step>G</step>
          <octave>4</octave>
        </pitch>
        <duration>1</duration>
        <type>16th</type>
      </note>
      <note>
        <pitch>
          <step>E</step>
          <octave>4</octave>
        </pitch>
        <duration>1</duration>
        <type>16th</type>
      </note>
      <note>
        <pitch>
          <step>D</step>
          <octave>4</octave>
        </pitch>
        <duration>2</duration>
        <type>eighth</type>
      </note>
    </measure>
    <measure number="10">
      <attributes>
        <time>
          <beats>4</beats>
          <beat-type>4</beat-type>
        </time>
      </attributes>
      <note>
        <pitch>
          <step>D</step>
          <octave>4</octave>
        </pitch>
        <duration>4</duration>
        <type>quarter</type>
      </note>
      <note>
        <pitch>
          <step>E</step>
          <octave>4</octave>
        </pitch>
        <duration>3</duration>
        <type>eighth</type>
        <dot />
      </note>
      <note>
        <pitch>
          <step>D</step>
          <octave>4</octave>
        </pitch>
        <duration>1</duration>
        <type>16th</type>
      </note>
    </measure>
    <measure number="11">
      <attributes>
        <time>
          <beats>4</beats>
          <beat-type>4</beat-type>
        </time>
      </attributes>
      <note>
        <pitch>
          <step>D</step>
          <octave>4</octave>
        </pitch>
        <duration>8</duration>
        <type>half</type>
      </note>
    </measure>
  </part>
</score-partwise>
