<?xml version='1.0' encoding='utf-8'?>
<score-partwise version="3.1">
  <work>
    <work-title>页面_song_1043</work-title>
  </work>
  <part-list>
    <score-part id="P1">
      <part-name>简谱旋律</part-name>
    </score-part>
  </part-list>
  <part id="P1">
    <measure number="1">
      <attributes>
        <divisions>4</divisions>
        <key>
          <fifths>0</fifths>
        </key>
        <time>
          <beats>4</beats>
          <beat-type>4</beat-type>
        </time>
      </attributes>
      <note>
        <pitch>
          <step>E</step>
          <octave>4</octave>
        </pitch>
        <duration>2</duration>
        <type>eighth</type>
        <lyric number="1">
          <text>穷</text>
        </lyric>
        <lyric number="2">
          <text>门</text>
        </lyric>
        <lyric number="3">
          <text>风</text>
        </lyric>
        <lyric number="4">
          <text>秋</text>
        </lyric>
      </note>
      <note>
        <pitch>
          <step>E</step>
          <octave>4</octave>
        </pitch>
        <duration>2</duration>
        <type>eighth</type>
        <lyric number="1">
          <text>人</text>
        </lyric>
        <lyric number="2">
          <text>闩</text>
        </lyric>
        <lyric number="3">
          <text>扫</text>
        </lyric>
        <lyric number="4">
          <text>季</text>
        </lyric>
      </note>
      <note>
        <pitch>
          <step>E</step>
          <octave>4</octave>
        </pitch>
        <duration>1</duration>
        <type>16th</type>
        <lyric number="1">
          <text>苦</text>
        </lyric>
        <lyric number="2">
          <text>用</text>
        </lyric>
        <lyric number="3">
          <text>地</text>
        </lyric>
        <lyric number="4">
          <text>丰</text>
        </lyric>
      </note>
      <note>
        <pitch>
          <step>D</step>
          <octave>4</octave>
        </pitch>
        <duration>1</duration>
        <type>16th</type>
      </note>
      <note>
        <pitch>
          <step>C</step>
          <octave>4</octave>
        </pitch>
        <duration>2</duration>
        <type>eighth</type>
        <lyric number="1">
          <text>处</text>
        </lyric>
        <lyric number="2">
          <text>的</text>
        </lyric>
        <lyric number="3">
          <text>来</text>
        </lyric>
        <lyric number="4">
          <text>收</text>
        </lyric>
      </note>
    </measure>
    <measure number="2">
      <attributes>
        <time>
          <beats>4</beats>
          <beat-type>4</beat-type>
        </time>
      </attributes>
      <note>
        <pitch>
          <step>D</step>
          <octave>4</octave>
        </pitch>
        <duration>4</duration>
        <type>quarter</type>
        <lyric number="1">
          <text>说</text>
        </lyric>
        <lyric number="2">
          <text>茅</text>
        </lyric>
        <lyric number="3">
          <text>月</text>
        </lyric>
        <lyric number="4">
          <text>五</text>
        </lyric>
      </note>
      <note>
        <pitch>
          <step>E</step>
          <octave>4</octave>
        </pitch>
        <duration>2</duration>
        <type>eighth</type>
        <lyric number="1">
          <text>不</text>
        </lyric>
        <lyric number="2">
          <text>草</text>
        </lyric>
        <lyric number="3">
          <text>点</text>
        </lyric>
        <lyric number="4">
          <text>谷</text>
        </lyric>
      </note>
      <note>
        <pitch>
          <step>D</step>
          <octave>4</octave>
        </pitch>
        <duration>2</duration>
        <type>eighth</type>
      </note>
    </measure>
    <measure number="3">
      <attributes>
        <time>
          <beats>4</beats>
          <beat-type>4</beat-type>
        </time>
      </attributes>
      <note>
        <pitch>
          <step>A</step>
          <octave>3</octave>
        </pitch>
        <duration>4</duration>
        <type>quarter</type>
        <lyric number="1">
          <text>尽</text>
        </lyric>
        <lyric number="2">
          <text>绳</text>
        </lyric>
        <lyric number="3">
          <text>灯</text>
        </lyric>
        <lyric number="4">
          <text>登</text>
        </lyric>
      </note>
      <note>
        <rest />
        <duration>4</duration>
        <type>quarter</type>
      </note>
    </measure>
    <measure number="4">
      <attributes>
        <time>
          <beats>4</beats>
          <beat-type>4</beat-type>
        </time>
      </attributes>
      <note>
        <pitch>
          <step>C</step>
          <octave>4</octave>
        </pitch>
        <duration>1</duration>
        <type>16th</type>
        <lyric number="1">
          <text>佃</text>
        </lyric>
        <lyric number="2">
          <text>门</text>
        </lyric>
        <lyric number="3">
          <text>一</text>
        </lyric>
        <lyric number="4">
          <text>缴</text>
        </lyric>
      </note>
      <note>
        <pitch>
          <step>C</step>
          <octave>4</octave>
        </pitch>
        <duration>1</duration>
        <type>16th</type>
        <lyric number="1">
          <text>啊</text>
        </lyric>
      </note>
      <note>
        <pitch>
          <step>C</step>
          <octave>4</octave>
        </pitch>
        <duration>1</duration>
        <type>16th</type>
        <lyric number="1">
          <text>户</text>
        </lyric>
        <lyric number="2">
          <text>搭</text>
        </lyric>
        <lyric number="3">
          <text>条</text>
        </lyric>
        <lyric number="4">
          <text>租</text>
        </lyric>
      </note>
      <note>
        <pitch>
          <step>C</step>
          <octave>4</octave>
        </pitch>
        <duration>1</duration>
        <type>16th</type>
        <lyric number="1">
          <text>的</text>
        </lyric>
      </note>
      <note>
        <pitch>
          <step>C</step>
          <octave>4</octave>
        </pitch>
        <duration>2</duration>
        <type>eighth</type>
        <lyric number="1">
          <text>苦</text>
        </lyric>
        <lyric number="2">
          <text>用</text>
        </lyric>
        <lyric number="3">
          <text>被</text>
        </lyric>
        <lyric number="4">
          <text>送</text>
        </lyric>
      </note>
      <note>
        <pitch>
          <step>A</step>
          <octave>3</octave>
        </pitch>
        <duration>2</duration>
        <type>eighth</type>
        <lyric number="1">
          <text>头</text>
        </lyric>
        <lyric number="2">
          <text>的</text>
        </lyric>
        <lyric number="3">
          <text>头</text>
        </lyric>
        <lyric number="4">
          <text>上</text>
        </lyric>
      </note>
    </measure>
    <measure number="5">
      <attributes>
        <time>
          <beats>4</beats>
          <beat-type>4</beat-type>
        </time>
      </attributes>
      <note>
        <pitch>
          <step>G</step>
          <octave>3</octave>
        </pitch>
        <duration>3</duration>
        <type>eighth</type>
        <dot />
        <lyric number="1">
          <text>海</text>
        </lyric>
        <lyric number="2">
          <text>布</text>
        </lyric>
        <lyric number="3">
          <text>短</text>
        </lyric>
        <lyric number="4">
          <text>粮</text>
        </lyric>
      </note>
      <note>
        <pitch>
          <step>A</step>
          <octave>3</octave>
        </pitch>
        <duration>1</duration>
        <type>16th</type>
      </note>
      <note>
        <pitch>
          <step>C</step>
          <octave>4</octave>
        </pitch>
        <duration>4</duration>
        <type>quarter</type>
        <lyric number="1">
          <text>样</text>
        </lyric>
        <lyric number="2">
          <text>条</text>
        </lyric>
        <lyric number="3">
          <text>又</text>
        </lyric>
        <lyric number="4">
          <text>户</text>
        </lyric>
      </note>
    </measure>
    <measure number="6">
      <attributes>
        <time>
          <beats>4</beats>
          <beat-type>4</beat-type>
        </time>
      </attributes>
      <note>
        <pitch>
          <step>A</step>
          <octave>3</octave>
        </pitch>
        <duration>4</duration>
        <type>quarter</type>
        <lyric number="1">
          <text>深</text>
        </lyric>
        <lyric number="2">
          <text>筋</text>
        </lyric>
        <lyric number="3">
          <text>冷</text>
        </lyric>
        <lyric number="4">
          <text>门</text>
        </lyric>
      </note>
      <note>
        <rest />
        <duration>4</duration>
        <type>quarter</type>
      </note>
    </measure>
    <measure number="7">
      <attributes>
        <time>
          <beats>4</beats>
          <beat-type>4</beat-type>
        </time>
      </attributes>
      <note>
        <pitch>
          <step>G</step>
          <octave>4</octave>
        </pitch>
        <duration>2</duration>
        <type>eighth</type>
        <lyric number="1">
          <text>住</text>
        </lyric>
        <lyric number="2">
          <text>一</text>
        </lyric>
        <lyric number="3">
          <text>拉</text>
        </lyric>
        <lyric number="4">
          <text>一</text>
        </lyric>
      </note>
      <note>
        <pitch>
          <step>G</step>
          <octave>4</octave>
        </pitch>
        <duration>2</duration>
        <type>eighth</type>
        <lyric number="1">
          <text>来</text>
        </lyric>
        <lyric number="2">
          <text>只</text>
        </lyric>
        <lyric number="3">
          <text>了</text>
        </lyric>
        <lyric number="4">
          <text>年</text>
        </lyric>
      </note>
      <note>
        <pitch>
          <step>A</step>
          <octave>4</octave>
        </pitch>
        <duration>2</duration>
        <type>eighth</type>
        <lyric number="1">
          <text>住</text>
        </lyric>
        <lyric number="2">
          <text>锅</text>
        </lyric>
        <lyric number="3">
          <text>上</text>
        </lyric>
        <lyric number="4">
          <text>辛</text>
        </lyric>
      </note>
      <note>
        <pitch>
          <step>G</step>
          <octave>4</octave>
        </pitch>
        <duration>2</duration>
        <type>eighth</type>
        <lyric number="1">
          <text>个</text>
        </lyric>
        <lyric number="2">
          <text>子</text>
        </lyric>
        <lyric number="3">
          <text>身</text>
        </lyric>
        <lyric number="4">
          <text>苦</text>
        </lyric>
      </note>
    </measure>
    <measure number="8">
      <attributes>
        <time>
          <beats>4</beats>
          <beat-type>4</beat-type>
        </time>
      </attributes>
      <note>
        <pitch>
          <step>D</step>
          <octave>4</octave>
        </pitch>
        <duration>3</duration>
        <type>eighth</type>
        <dot />
        <lyric number="1">
          <text>滚</text>
        </lyric>
        <lyric number="2">
          <text>破</text>
        </lyric>
        <lyric number="3">
          <text>脱</text>
        </lyric>
        <lyric number="4">
          <text>两</text>
        </lyric>
      </note>
      <note>
        <pitch>
          <step>E</step>
          <octave>4</octave>
        </pitch>
        <duration>1</duration>
        <type>16th</type>
      </note>
      <note>
        <pitch>
          <step>G</step>
          <octave>4</octave>
        </pitch>
        <duration>4</duration>
        <type>quarter</type>
        <lyric number="1">
          <text>龙</text>
        </lyric>
        <lyric number="2">
          <text>零</text>
        </lyric>
        <lyric number="3">
          <text>下</text>
        </lyric>
        <lyric number="4">
          <text>手</text>
        </lyric>
      </note>
    </measure>
    <measure number="9">
      <attributes>
        <time>
          <beats>4</beats>
          <beat-type>4</beat-type>
        </time>
      </attributes>
      <note>
        <pitch>
          <step>C</step>
          <octave>4</octave>
        </pitch>
        <duration>6</duration>
        <type>quarter</type>
        <dot />
        <lyric number="1">
          <text>厅</text>
        </lyric>
        <lyric number="2">
          <text>丁</text>
        </lyric>
        <lyric number="3">
          <text>身</text>
        </lyric>
        <lyric number="4">
          <text>nan</text>
        </lyric>
      </note>
      <note>
        <pitch>
          <step>A</step>
          <octave>3</octave>
        </pitch>
        <duration>2</duration>
        <type>eighth</type>
      </note>
    </measure>
    <measure number="10">
      <attributes>
        <time>
          <beats>4</beats>
          <beat-type>4</beat-type>
        </time>
      </attributes>
      <note>
        <pitch>
          <step>A</step>
          <octave>3</octave>
        </pitch>
        <duration>2</duration>
        <type>eighth</type>
        <lyric number="1">
          <text>关</text>
        </lyric>
        <lyric number="2">
          <text>百</text>
        </lyric>
        <lyric number="3">
          <text>盖</text>
        </lyric>
        <lyric number="4">
          <text>你</text>
        </lyric>
      </note>
      <note>
        <pitch>
          <step>E</step>
          <octave>4</octave>
        </pitch>
        <duration>2</duration>
        <type>eighth</type>
        <lyric number="1">
          <text>来</text>
        </lyric>
        <lyric number="2">
          <text>十</text>
        </lyric>
        <lyric number="3">
          <text>了</text>
        </lyric>
        <lyric number="4">
          <text>说</text>
        </lyric>
      </note>
      <note>
        <pitch>
          <step>D</step>
          <octave>4</octave>
        </pitch>
        <duration>2</duration>
        <type>eighth</type>
        <lyric number="1">
          <text>关</text>
        </lyric>
        <lyric number="2">
          <text>念</text>
        </lyric>
        <lyric number="3">
          <text>下</text>
        </lyric>
        <lyric number="4">
          <text>痛</text>
        </lyric>
      </note>
      <note>
        <pitch>
          <step>C</step>
          <octave>4</octave>
        </pitch>
        <duration>2</duration>
        <type>eighth</type>
        <lyric number="1">
          <text>个</text>
        </lyric>
        <lyric number="2">
          <text>个</text>
        </lyric>
        <lyric number="3">
          <text>身</text>
        </lyric>
        <lyric number="4">
          <text>恨</text>
        </lyric>
      </note>
    </measure>
    <measure number="11">
      <attributes>
        <time>
          <beats>4</beats>
          <beat-type>4</beat-type>
        </time>
      </attributes>
      <note>
        <pitch>
          <step>A</step>
          <octave>3</octave>
        </pitch>
        <duration>3</duration>
        <type>eighth</type>
        <dot />
        <lyric number="1">
          <text>芦</text>
        </lyric>
        <lyric number="2">
          <text>大</text>
        </lyric>
        <lyric number="3">
          <text>脱</text>
        </lyric>
        <lyric number="4">
          <text>不</text>
        </lyric>
      </note>
      <note>
        <pitch>
          <step>C</step>
          <octave>4</octave>
        </pitch>
        <duration>1</duration>
        <type>16th</type>
      </note>
      <note>
        <pitch>
          <step>D</step>
          <octave>4</octave>
        </pitch>
        <duration>2</duration>
        <type>eighth</type>
        <lyric number="1">
          <text>笆</text>
        </lyric>
        <lyric number="2">
          <text>补</text>
        </lyric>
        <lyric number="3">
          <text>上</text>
        </lyric>
        <lyric number="4">
          <text>痛</text>
        </lyric>
      </note>
      <note>
        <pitch>
          <step>E</step>
          <octave>4</octave>
        </pitch>
        <duration>2</duration>
        <type>eighth</type>
      </note>
    </measure>
    <measure number="12">
      <attributes>
        <time>
          <beats>4</beats>
          <beat-type>4</beat-type>
        </time>
      </attributes>
      <note>
        <pitch>
          <step>A</step>
          <octave>3</octave>
        </pitch>
        <duration>8</duration>
        <type>half</type>
        <lyric number="1">
          <text>门</text>
        </lyric>
        <lyric number="2">
          <text>钉</text>
        </lyric>
        <lyric number="3">
          <text>身</text>
        </lyric>
        <lyric number="4">
          <text>恨</text>
        </lyric>
      </note>
    </measure>
  </part>
</score-partwise>
