<?xml version='1.0' encoding='utf-8'?>
<score-partwise version="3.1">
  <work>
    <work-title>页面_song_1030</work-title>
  </work>
  <part-list>
    <score-part id="P1">
      <part-name>简谱旋律</part-name>
    </score-part>
  </part-list>
  <part id="P1">
    <measure number="1">
      <attributes>
        <divisions>4</divisions>
        <key>
          <fifths>0</fifths>
        </key>
        <time>
          <beats>4</beats>
          <beat-type>4</beat-type>
        </time>
      </attributes>
      <note>
        <pitch>
          <step>G</step>
          <octave>4</octave>
        </pitch>
        <duration>2</duration>
        <type>eighth</type>
        <lyric number="1">
          <text>拜</text>
        </lyric>
      </note>
      <note>
        <pitch>
          <step>E</step>
          <octave>4</octave>
        </pitch>
        <duration>1</duration>
        <type>16th</type>
        <lyric number="1">
          <text>神</text>
        </lyric>
      </note>
      <note>
        <pitch>
          <step>G</step>
          <octave>4</octave>
        </pitch>
        <duration>1</duration>
        <type>16th</type>
      </note>
      <note>
        <pitch>
          <step>G</step>
          <octave>4</octave>
        </pitch>
        <duration>6</duration>
        <type>quarter</type>
        <dot />
        <lyric number="1">
          <text>哪呵</text>
        </lyric>
      </note>
      <note>
        <pitch>
          <step>E</step>
          <octave>4</octave>
        </pitch>
        <duration>4</duration>
        <type>quarter</type>
        <tie type="start" />
        <lyric number="1">
          <text>咿</text>
        </lyric>
      </note>
      <note>
        <pitch>
          <step>G</step>
          <octave>4</octave>
        </pitch>
        <duration>2</duration>
        <type>eighth</type>
        <lyric number="1">
          <text>哟</text>
        </lyric>
      </note>
      <note>
        <pitch>
          <step>E</step>
          <octave>4</octave>
        </pitch>
        <duration>2</duration>
        <type>eighth</type>
        <tie type="stop" />
      </note>
    </measure>
    <measure number="2">
      <attributes>
        <time>
          <beats>4</beats>
          <beat-type>4</beat-type>
        </time>
      </attributes>
      <note>
        <pitch>
          <step>C</step>
          <octave>4</octave>
        </pitch>
        <duration>4</duration>
        <type>quarter</type>
        <lyric number="1">
          <text>噢</text>
        </lyric>
      </note>
      <note>
        <rest />
        <duration>2</duration>
        <type>eighth</type>
      </note>
      <note>
        <pitch>
          <step>E</step>
          <octave>4</octave>
        </pitch>
        <duration>2</duration>
        <type>eighth</type>
        <lyric number="1">
          <text>啊</text>
        </lyric>
      </note>
    </measure>
    <measure number="3">
      <attributes>
        <time>
          <beats>4</beats>
          <beat-type>4</beat-type>
        </time>
      </attributes>
      <note>
        <pitch>
          <step>G</step>
          <octave>4</octave>
        </pitch>
        <duration>2</duration>
        <type>eighth</type>
        <lyric number="1">
          <text>圣</text>
        </lyric>
      </note>
      <note>
        <pitch>
          <step>G</step>
          <octave>4</octave>
        </pitch>
        <duration>6</duration>
        <type>quarter</type>
        <dot />
        <lyric number="1">
          <text>哪</text>
        </lyric>
      </note>
      <note>
        <pitch>
          <step>G</step>
          <octave>4</octave>
        </pitch>
        <duration>1</duration>
        <type>16th</type>
        <lyric number="1">
          <text>拜</text>
        </lyric>
      </note>
      <note>
        <pitch>
          <step>E</step>
          <octave>4</octave>
        </pitch>
        <duration>1</duration>
        <type>16th</type>
      </note>
      <note>
        <pitch>
          <step>G</step>
          <octave>4</octave>
        </pitch>
        <duration>1</duration>
        <type>16th</type>
      </note>
      <note>
        <pitch>
          <step>E</step>
          <octave>4</octave>
        </pitch>
        <duration>1</duration>
        <type>16th</type>
      </note>
    </measure>
    <measure number="4">
      <attributes>
        <time>
          <beats>4</beats>
          <beat-type>4</beat-type>
        </time>
      </attributes>
      <note>
        <pitch>
          <step>C</step>
          <octave>4</octave>
        </pitch>
        <duration>4</duration>
        <type>quarter</type>
        <lyric number="1">
          <text>神</text>
        </lyric>
      </note>
      <note>
        <rest />
        <duration>2</duration>
        <type>eighth</type>
      </note>
      <note>
        <pitch>
          <step>E</step>
          <octave>4</octave>
        </pitch>
        <duration>2</duration>
        <type>eighth</type>
        <lyric number="1">
          <text>啊</text>
        </lyric>
      </note>
    </measure>
    <measure number="5">
      <attributes>
        <time>
          <beats>4</beats>
          <beat-type>4</beat-type>
        </time>
      </attributes>
      <note>
        <pitch>
          <step>G</step>
          <octave>4</octave>
        </pitch>
        <duration>4</duration>
        <type>quarter</type>
        <lyric number="1">
          <text>[未击中:巾]</text>
        </lyric>
        <lyric number="2">
          <text>圣</text>
        </lyric>
      </note>
      <note>
        <pitch>
          <step>G</step>
          <octave>4</octave>
        </pitch>
        <duration>1</duration>
        <type>16th</type>
        <lyric number="1">
          <text>[未击中:[未击中:[未击中:[未击中:艹]]]]</text>
        </lyric>
        <lyric number="2">
          <text>圣</text>
        </lyric>
      </note>
      <note>
        <pitch>
          <step>E</step>
          <octave>4</octave>
        </pitch>
        <duration>1</duration>
        <type>16th</type>
        <lyric number="1">
          <text>nan</text>
        </lyric>
        <lyric number="2">
          <text>无</text>
        </lyric>
      </note>
      <note>
        <pitch>
          <step>E</step>
          <octave>4</octave>
        </pitch>
        <duration>4</duration>
        <type>quarter</type>
        <lyric number="1">
          <text>哪</text>
        </lyric>
      </note>
      <note>
        <pitch>
          <step>D</step>
          <octave>4</octave>
        </pitch>
        <duration>1</duration>
        <type>16th</type>
        <lyric number="1">
          <text>呵</text>
        </lyric>
      </note>
      <note>
        <pitch>
          <step>C</step>
          <octave>4</octave>
        </pitch>
        <duration>1</duration>
        <type>16th</type>
      </note>
    </measure>
    <measure number="6">
      <attributes>
        <time>
          <beats>4</beats>
          <beat-type>4</beat-type>
        </time>
      </attributes>
      <note>
        <pitch>
          <step>C</step>
          <octave>4</octave>
        </pitch>
        <duration>2</duration>
        <type>eighth</type>
        <lyric number="1">
          <text>nan</text>
        </lyric>
        <lyric number="2">
          <text>难</text>
        </lyric>
      </note>
      <note>
        <pitch>
          <step>C</step>
          <octave>4</octave>
        </pitch>
        <duration>6</duration>
        <type>quarter</type>
        <dot />
        <lyric number="1">
          <text>[未击中:[未击中:[未击中:[未击中:圹]]]]</text>
        </lyric>
        <lyric number="2">
          <text>哪</text>
        </lyric>
      </note>
    </measure>
    <measure number="7">
      <attributes>
        <time>
          <beats>4</beats>
          <beat-type>4</beat-type>
        </time>
      </attributes>
      <note>
        <pitch>
          <step>G</step>
          <octave>4</octave>
        </pitch>
        <duration>1</duration>
        <type>16th</type>
        <lyric number="1">
          <text>[未击中:[未击中:[未击中:[未击中:艹]]]]</text>
        </lyric>
        <lyric number="2">
          <text>圣</text>
        </lyric>
      </note>
      <note>
        <pitch>
          <step>E</step>
          <octave>4</octave>
        </pitch>
        <duration>1</duration>
        <type>16th</type>
      </note>
      <note>
        <pitch>
          <step>C</step>
          <octave>4</octave>
        </pitch>
        <duration>2</duration>
        <type>eighth</type>
        <lyric number="1">
          <text>[未击中:[未击中:[未击中:[未击中:[未击中:[未击中:[未击中:[未击中:巾]]]]]]]]</text>
        </lyric>
        <lyric number="2">
          <text>咿</text>
        </lyric>
      </note>
      <note>
        <pitch>
          <step>C</step>
          <octave>4</octave>
        </pitch>
        <duration>2</duration>
        <type>eighth</type>
        <lyric number="1">
          <text>nan[未击中:[未击中:[未击中:艹]]][未击中:[未击中:[未击中:[未击中:艹]]]]</text>
        </lyric>
        <lyric number="2">
          <text>拜</text>
        </lyric>
      </note>
      <note>
        <pitch>
          <step>E</step>
          <octave>4</octave>
        </pitch>
        <duration>2</duration>
        <type>eighth</type>
        <lyric number="1">
          <text>[未击中:[未击中:[未击中:[未击中:[未击中:[未击中:[未击中:巾]]]]]]]</text>
        </lyric>
        <lyric number="2">
          <text>神</text>
        </lyric>
      </note>
    </measure>
    <measure number="8">
      <attributes>
        <time>
          <beats>4</beats>
          <beat-type>4</beat-type>
        </time>
      </attributes>
      <note>
        <pitch>
          <step>G</step>
          <octave>4</octave>
        </pitch>
        <duration>2</duration>
        <type>eighth</type>
        <lyric number="1">
          <text>[未击中:[未击中:[未击中:[未击中:艹]]]][未击中:巾]</text>
        </lyric>
        <lyric number="2">
          <text>圣</text>
        </lyric>
      </note>
      <note>
        <pitch>
          <step>G</step>
          <octave>4</octave>
        </pitch>
        <duration>6</duration>
        <type>quarter</type>
        <dot />
        <lyric number="1">
          <text>[未击中:[未击中:[未击中:[未击中:圹]]]]</text>
        </lyric>
        <lyric number="2">
          <text>哪呵</text>
        </lyric>
      </note>
    </measure>
    <measure number="9">
      <attributes>
        <time>
          <beats>4</beats>
          <beat-type>4</beat-type>
        </time>
      </attributes>
      <note>
        <pitch>
          <step>E</step>
          <octave>4</octave>
        </pitch>
        <duration>1</duration>
        <type>16th</type>
        <lyric number="1">
          <text>一</text>
        </lyric>
      </note>
      <note>
        <pitch>
          <step>G</step>
          <octave>4</octave>
        </pitch>
        <duration>1</duration>
        <type>16th</type>
      </note>
      <note>
        <pitch>
          <step>E</step>
          <octave>4</octave>
        </pitch>
        <duration>1</duration>
        <type>16th</type>
        <lyric number="1">
          <text>[未击中:[未击中:[未击中:[未击中:[未击中:圹]]]]]</text>
        </lyric>
        <lyric number="2">
          <text>拜</text>
        </lyric>
      </note>
      <note>
        <pitch>
          <step>C</step>
          <octave>4</octave>
        </pitch>
        <duration>1</duration>
        <type>16th</type>
        <lyric number="1">
          <text>[未击中:[未击中:[未击中:艹]]]</text>
        </lyric>
      </note>
      <note>
        <pitch>
          <step>C</step>
          <octave>4</octave>
        </pitch>
        <duration>2</duration>
        <type>eighth</type>
      </note>
      <note>
        <rest />
        <duration>1</duration>
        <type>16th</type>
        <lyric number="1">
          <text>[未击中:[未击中:[未击中:[未击中:圹]]]]</text>
        </lyric>
      </note>
      <note>
        <pitch>
          <step>C</step>
          <octave>4</octave>
        </pitch>
        <duration>1</duration>
        <type>16th</type>
        <lyric number="1">
          <text>[未击中:[未击中:[未击中:艹]]]</text>
        </lyric>
        <lyric number="2">
          <text>拜</text>
        </lyric>
      </note>
    </measure>
    <measure number="10">
      <attributes>
        <time>
          <beats>4</beats>
          <beat-type>4</beat-type>
        </time>
      </attributes>
      <note>
        <pitch>
          <step>E</step>
          <octave>4</octave>
        </pitch>
        <duration>4</duration>
        <type>quarter</type>
        <lyric number="1">
          <text>神</text>
        </lyric>
      </note>
      <note>
        <pitch>
          <step>E</step>
          <octave>4</octave>
        </pitch>
        <duration>2</duration>
        <type>eighth</type>
        <lyric number="1">
          <text>无</text>
        </lyric>
      </note>
      <note>
        <pitch>
          <step>G</step>
          <octave>4</octave>
        </pitch>
        <duration>2</duration>
        <type>eighth</type>
        <lyric number="1">
          <text>圣</text>
        </lyric>
      </note>
    </measure>
    <measure number="11">
      <attributes>
        <time>
          <beats>4</beats>
          <beat-type>4</beat-type>
        </time>
      </attributes>
      <note>
        <pitch>
          <step>G</step>
          <octave>4</octave>
        </pitch>
        <duration>2</duration>
        <type>eighth</type>
      </note>
      <note>
        <pitch>
          <step>E</step>
          <octave>4</octave>
        </pitch>
        <duration>2</duration>
        <type>eighth</type>
        <tie type="start" />
        <lyric number="1">
          <text>圣</text>
        </lyric>
      </note>
      <note>
        <pitch>
          <step>G</step>
          <octave>4</octave>
        </pitch>
        <duration>1</duration>
        <type>16th</type>
      </note>
      <note>
        <pitch>
          <step>E</step>
          <octave>4</octave>
        </pitch>
        <duration>1</duration>
        <type>16th</type>
        <tie type="stop" />
      </note>
      <note>
        <pitch>
          <step>C</step>
          <octave>4</octave>
        </pitch>
        <duration>6</duration>
        <type>quarter</type>
        <dot />
        <lyric number="1">
          <text>哎</text>
        </lyric>
      </note>
      <note>
        <pitch>
          <step>C</step>
          <octave>4</octave>
        </pitch>
        <duration>2</duration>
        <type>eighth</type>
        <lyric number="1">
          <text>无</text>
        </lyric>
      </note>
    </measure>
    <measure number="12">
      <attributes>
        <time>
          <beats>4</beats>
          <beat-type>4</beat-type>
        </time>
      </attributes>
      <note>
        <pitch>
          <step>E</step>
          <octave>4</octave>
        </pitch>
        <duration>2</duration>
        <type>eighth</type>
        <lyric number="1">
          <text>难</text>
        </lyric>
      </note>
      <note>
        <pitch>
          <step>G</step>
          <octave>4</octave>
        </pitch>
        <duration>4</duration>
        <type>quarter</type>
        <lyric number="1">
          <text>噢</text>
        </lyric>
      </note>
      <note>
        <pitch>
          <step>G</step>
          <octave>4</octave>
        </pitch>
        <duration>1</duration>
        <type>16th</type>
        <lyric number="1">
          <text>圣</text>
        </lyric>
      </note>
      <note>
        <pitch>
          <step>E</step>
          <octave>4</octave>
        </pitch>
        <duration>1</duration>
        <type>16th</type>
        <lyric number="1">
          <text>无</text>
        </lyric>
      </note>
    </measure>
    <measure number="13">
      <attributes>
        <time>
          <beats>4</beats>
          <beat-type>4</beat-type>
        </time>
      </attributes>
      <note>
        <pitch>
          <step>E</step>
          <octave>4</octave>
        </pitch>
        <duration>6</duration>
        <type>quarter</type>
        <dot />
        <lyric number="1">
          <text>噢</text>
        </lyric>
      </note>
      <note>
        <pitch>
          <step>D</step>
          <octave>4</octave>
        </pitch>
        <duration>1</duration>
        <type>16th</type>
      </note>
      <note>
        <pitch>
          <step>C</step>
          <octave>4</octave>
        </pitch>
        <duration>1</duration>
        <type>16th</type>
      </note>
    </measure>
    <measure number="14">
      <attributes>
        <time>
          <beats>4</beats>
          <beat-type>4</beat-type>
        </time>
      </attributes>
      <note>
        <pitch>
          <step>C</step>
          <octave>4</octave>
        </pitch>
        <duration>2</duration>
        <type>eighth</type>
        <lyric number="1">
          <text>难</text>
        </lyric>
      </note>
      <note>
        <pitch>
          <step>C</step>
          <octave>4</octave>
        </pitch>
        <duration>4</duration>
        <type>quarter</type>
        <lyric number="1">
          <text>哪</text>
        </lyric>
      </note>
      <note>
        <rest />
        <duration>2</duration>
        <type>eighth</type>
      </note>
    </measure>
    <measure number="15">
      <attributes>
        <time>
          <beats>4</beats>
          <beat-type>4</beat-type>
        </time>
      </attributes>
      <note>
        <pitch>
          <step>E</step>
          <octave>4</octave>
        </pitch>
        <duration>2</duration>
        <type>eighth</type>
        <tie type="stop" />
        <lyric number="1">
          <text>nan</text>
        </lyric>
        <lyric number="2">
          <text>大</text>
        </lyric>
      </note>
      <note>
        <pitch>
          <step>G</step>
          <octave>4</octave>
        </pitch>
        <duration>1</duration>
        <type>16th</type>
        <lyric number="1">
          <text>nan</text>
        </lyric>
      </note>
      <note>
        <pitch>
          <step>E</step>
          <octave>4</octave>
        </pitch>
        <duration>3</duration>
        <type>eighth</type>
        <tie type="start" />
      </note>
      <note>
        <pitch>
          <step>C</step>
          <octave>4</octave>
        </pitch>
        <duration>8</duration>
        <type>half</type>
        <lyric number="1">
          <text>nannannannan</text>
        </lyric>
        <lyric number="2">
          <text>州</text>
        </lyric>
      </note>
    </measure>
    <measure number="16">
      <attributes>
        <time>
          <beats>4</beats>
          <beat-type>4</beat-type>
        </time>
      </attributes>
      <note>
        <pitch>
          <step>C</step>
          <octave>4</octave>
        </pitch>
        <duration>4</duration>
        <type>quarter</type>
        <lyric number="1">
          <text>买</text>
        </lyric>
      </note>
      <note>
        <pitch>
          <step>E</step>
          <octave>4</octave>
        </pitch>
        <duration>4</duration>
        <type>quarter</type>
        <lyric number="1">
          <text>nan</text>
        </lyric>
        <lyric number="2">
          <text>到</text>
        </lyric>
      </note>
      <note>
        <pitch>
          <step>A</step>
          <octave>4</octave>
        </pitch>
        <duration>4</duration>
        <type>quarter</type>
        <lyric number="1">
          <text>[未击中:[未击中:甲]]</text>
        </lyric>
        <lyric number="2">
          <text>嘛</text>
        </lyric>
      </note>
      <note>
        <pitch>
          <step>G</step>
          <octave>4</octave>
        </pitch>
        <duration>6</duration>
        <type>quarter</type>
        <dot />
        <lyric number="1">
          <text>呵</text>
        </lyric>
      </note>
      <note>
        <pitch>
          <step>E</step>
          <octave>4</octave>
        </pitch>
        <duration>1</duration>
        <type>16th</type>
        <lyric number="1">
          <text>[未击中:[未击中:[未击中:[未击中:[未击中:甲]]]]]</text>
        </lyric>
        <lyric number="2">
          <text>嘟</text>
        </lyric>
      </note>
      <note>
        <pitch>
          <step>E</step>
          <octave>4</octave>
        </pitch>
        <duration>1</duration>
        <type>16th</type>
        <lyric number="1">
          <text>nan</text>
        </lyric>
        <lyric number="2">
          <text>红</text>
        </lyric>
      </note>
    </measure>
    <measure number="17">
      <attributes>
        <time>
          <beats>4</beats>
          <beat-type>4</beat-type>
        </time>
      </attributes>
      <note>
        <pitch>
          <step>G</step>
          <octave>4</octave>
        </pitch>
        <duration>2</duration>
        <type>eighth</type>
        <lyric number="1">
          <text>nannan</text>
        </lyric>
        <lyric number="2">
          <text>丝</text>
        </lyric>
      </note>
      <note>
        <pitch>
          <step>D</step>
          <octave>4</octave>
        </pitch>
        <duration>2</duration>
        <type>eighth</type>
        <lyric number="1">
          <text>咿</text>
        </lyric>
      </note>
      <note>
        <pitch>
          <step>C</step>
          <octave>4</octave>
        </pitch>
        <duration>8</duration>
        <type>half</type>
        <lyric number="1">
          <text>[未击中:[未击中:[未击中:甲]]]nan</text>
        </lyric>
        <lyric number="2">
          <text>哎</text>
        </lyric>
      </note>
    </measure>
    <measure number="18">
      <attributes>
        <time>
          <beats>4</beats>
          <beat-type>4</beat-type>
        </time>
      </attributes>
      <note>
        <pitch>
          <step>G</step>
          <octave>4</octave>
        </pitch>
        <duration>4</duration>
        <type>quarter</type>
        <tie type="start" />
        <lyric number="1">
          <text>[未击中:[未击中:甲]]</text>
        </lyric>
        <lyric number="2">
          <text>线nan</text>
        </lyric>
      </note>
      <note>
        <pitch>
          <step>G</step>
          <octave>4</octave>
        </pitch>
        <duration>2</duration>
        <type>eighth</type>
        <tie type="stop" />
        <lyric number="1">
          <text>呀</text>
        </lyric>
      </note>
      <note>
        <pitch>
          <step>G</step>
          <octave>4</octave>
        </pitch>
        <duration>4</duration>
        <type>quarter</type>
        <tie type="start" />
        <tie type="stop" />
        <lyric number="1">
          <text>nan</text>
        </lyric>
      </note>
      <note>
        <pitch>
          <step>E</step>
          <octave>4</octave>
        </pitch>
        <duration>2</duration>
        <type>eighth</type>
        <lyric number="1">
          <text>nan</text>
        </lyric>
        <lyric number="2">
          <text>丝</text>
        </lyric>
      </note>
      <note>
        <pitch>
          <step>G</step>
          <octave>4</octave>
        </pitch>
        <duration>2</duration>
        <type>eighth</type>
        <tie type="stop" />
        <lyric number="1">
          <text>[未击中:[未击中:[未击中:甲]]]</text>
        </lyric>
        <lyric number="2">
          <text>线</text>
        </lyric>
      </note>
      <note>
        <pitch>
          <step>G</step>
          <octave>4</octave>
        </pitch>
        <duration>4</duration>
        <type>quarter</type>
        <tie type="start" />
        <lyric number="1">
          <text>[未击中:[未击中:甲]]</text>
        </lyric>
      </note>
    </measure>
    <measure number="19">
      <attributes>
        <time>
          <beats>4</beats>
          <beat-type>4</beat-type>
        </time>
      </attributes>
      <note>
        <pitch>
          <step>E</step>
          <octave>4</octave>
        </pitch>
        <duration>2</duration>
        <type>eighth</type>
        <tie type="stop" />
        <lyric number="1">
          <text>nannan</text>
        </lyric>
        <lyric number="2">
          <text>缠</text>
        </lyric>
      </note>
      <note>
        <pitch>
          <step>G</step>
          <octave>4</octave>
        </pitch>
        <duration>1</duration>
        <type>16th</type>
      </note>
      <note>
        <pitch>
          <step>E</step>
          <octave>4</octave>
        </pitch>
        <duration>3</duration>
        <type>eighth</type>
        <tie type="start" />
      </note>
      <note>
        <pitch>
          <step>C</step>
          <octave>4</octave>
        </pitch>
        <duration>8</duration>
        <type>half</type>
        <lyric number="1">
          <text>nan</text>
        </lyric>
        <lyric number="2">
          <text>缠</text>
        </lyric>
      </note>
    </measure>
    <measure number="20">
      <attributes>
        <time>
          <beats>4</beats>
          <beat-type>4</beat-type>
        </time>
      </attributes>
      <note>
        <pitch>
          <step>E</step>
          <octave>4</octave>
        </pitch>
        <duration>2</duration>
        <type>eighth</type>
        <lyric number="1">
          <text>nannan</text>
        </lyric>
        <lyric number="2">
          <text>起</text>
        </lyric>
      </note>
      <note>
        <pitch>
          <step>G</step>
          <octave>4</octave>
        </pitch>
        <duration>2</duration>
        <type>eighth</type>
        <lyric number="1">
          <text>nan</text>
        </lyric>
        <lyric number="2">
          <text>愿</text>
        </lyric>
      </note>
      <note>
        <pitch>
          <step>G</step>
          <octave>4</octave>
        </pitch>
        <duration>2</duration>
        <type>eighth</type>
        <lyric number="1">
          <text>nan</text>
        </lyric>
        <lyric number="2">
          <text>哪</text>
        </lyric>
      </note>
      <note>
        <pitch>
          <step>E</step>
          <octave>4</octave>
        </pitch>
        <duration>3</duration>
        <type>eighth</type>
        <dot />
        <lyric number="1">
          <text>噢</text>
        </lyric>
      </note>
      <note>
        <pitch>
          <step>D</step>
          <octave>4</octave>
        </pitch>
        <duration>1</duration>
        <type>16th</type>
      </note>
      <note>
        <pitch>
          <step>C</step>
          <octave>4</octave>
        </pitch>
        <duration>4</duration>
        <type>quarter</type>
      </note>
    </measure>
    <measure number="21">
      <attributes>
        <time>
          <beats>4</beats>
          <beat-type>4</beat-type>
        </time>
      </attributes>
      <note>
        <pitch>
          <step>C</step>
          <octave>4</octave>
        </pitch>
        <duration>2</duration>
        <type>eighth</type>
        <lyric number="1">
          <text>[未击中:[未击中:[未击中:甲]]][未击中:[未击中:[未击中:[未击中:甲]]]]</text>
        </lyric>
        <lyric number="2">
          <text>头</text>
        </lyric>
      </note>
      <note>
        <pitch>
          <step>C</step>
          <octave>4</octave>
        </pitch>
        <duration>4</duration>
        <type>quarter</type>
        <lyric number="1">
          <text>nan</text>
        </lyric>
        <lyric number="2">
          <text>哇</text>
        </lyric>
      </note>
      <note>
        <rest />
        <duration>2</duration>
        <type>eighth</type>
        <lyric number="1">
          <text>[未击中:玎]</text>
        </lyric>
        <lyric number="2">
          <text>nan</text>
        </lyric>
      </note>
    </measure>
    <measure number="22">
      <attributes>
        <time>
          <beats>4</beats>
          <beat-type>4</beat-type>
        </time>
      </attributes>
      <note>
        <pitch>
          <step>G</step>
          <octave>4</octave>
        </pitch>
        <duration>2</duration>
        <type>eighth</type>
        <lyric number="1">
          <text>[未击中:[未击中:[未击中:甲]]]</text>
        </lyric>
        <lyric number="2">
          <text>丝</text>
        </lyric>
      </note>
      <note>
        <pitch>
          <step>C</step>
          <octave>4</octave>
        </pitch>
        <duration>2</duration>
        <type>eighth</type>
        <lyric number="1">
          <text>nan</text>
        </lyric>
        <lyric number="2">
          <text>呀</text>
        </lyric>
      </note>
      <note>
        <pitch>
          <step>C</step>
          <octave>4</octave>
        </pitch>
        <duration>1</duration>
        <type>16th</type>
        <lyric number="1">
          <text>[未击中:[未击中:[未击中:[未击中:甲]]]]</text>
        </lyric>
        <lyric number="2">
          <text>红</text>
        </lyric>
      </note>
      <note>
        <pitch>
          <step>E</step>
          <octave>4</octave>
        </pitch>
        <duration>1</duration>
        <type>16th</type>
        <lyric number="1">
          <text>nan</text>
        </lyric>
        <lyric number="2">
          <text>丝[未击中:[未击中:覀]]</text>
        </lyric>
      </note>
      <note>
        <pitch>
          <step>G</step>
          <octave>4</octave>
        </pitch>
        <duration>1</duration>
        <type>16th</type>
        <lyric number="1">
          <text>[未击中:[未击中:[未击中:[未击中:甲]]]]</text>
        </lyric>
        <lyric number="2">
          <text>呀</text>
        </lyric>
      </note>
      <note>
        <pitch>
          <step>G</step>
          <octave>4</octave>
        </pitch>
        <duration>1</duration>
        <type>16th</type>
        <lyric number="1">
          <text>[未击中:[未击中:甲]][未击中:[未击中:[未击中:[未击中:[未击中:甲]]]]]</text>
        </lyric>
        <lyric number="2">
          <text>线</text>
        </lyric>
      </note>
    </measure>
    <measure number="23">
      <attributes>
        <time>
          <beats>4</beats>
          <beat-type>4</beat-type>
        </time>
      </attributes>
      <note>
        <pitch>
          <step>G</step>
          <octave>4</octave>
        </pitch>
        <duration>6</duration>
        <type>quarter</type>
        <dot />
        <lyric number="1">
          <text>咿哪</text>
        </lyric>
      </note>
      <note>
        <pitch>
          <step>E</step>
          <octave>4</octave>
        </pitch>
        <duration>2</duration>
        <type>eighth</type>
        <lyric number="1">
          <text>咿</text>
        </lyric>
      </note>
    </measure>
    <measure number="24">
      <attributes>
        <time>
          <beats>4</beats>
          <beat-type>4</beat-type>
        </time>
      </attributes>
      <note>
        <pitch>
          <step>G</step>
          <octave>4</octave>
        </pitch>
        <duration>2</duration>
        <type>eighth</type>
        <lyric number="1">
          <text>nannan</text>
        </lyric>
        <lyric number="2">
          <text>怀</text>
        </lyric>
      </note>
      <note>
        <pitch>
          <step>C</step>
          <octave>4</octave>
        </pitch>
        <duration>4</duration>
        <type>quarter</type>
      </note>
      <note>
        <pitch>
          <step>E</step>
          <octave>4</octave>
        </pitch>
        <duration>2</duration>
        <type>eighth</type>
        <lyric number="1">
          <text>[未击中:[未击中:覀]]</text>
        </lyric>
        <lyric number="2">
          <text>丝</text>
        </lyric>
      </note>
    </measure>
    <measure number="25">
      <attributes>
        <time>
          <beats>4</beats>
          <beat-type>4</beat-type>
        </time>
      </attributes>
      <note>
        <pitch>
          <step>G</step>
          <octave>4</octave>
        </pitch>
        <duration>4</duration>
        <type>quarter</type>
        <lyric number="1">
          <text>[未击中:[未击中:[未击中:甲]]][未击中:么]</text>
        </lyric>
        <lyric number="2">
          <text>线</text>
        </lyric>
      </note>
      <note>
        <pitch>
          <step>G</step>
          <octave>4</octave>
        </pitch>
        <duration>2</duration>
        <type>eighth</type>
        <lyric number="1">
          <text>nan</text>
        </lyric>
        <lyric number="2">
          <text>缠</text>
        </lyric>
      </note>
      <note>
        <pitch>
          <step>E</step>
          <octave>4</octave>
        </pitch>
        <duration>2</duration>
        <type>eighth</type>
        <tie type="start" />
        <lyric number="1">
          <text>[未击中:[未击中:[未击中:[未击中:[未击中:甲]]]]]</text>
        </lyric>
        <lyric number="2">
          <text>哪nan</text>
        </lyric>
      </note>
      <note>
        <pitch>
          <step>G</step>
          <octave>4</octave>
        </pitch>
        <duration>1</duration>
        <type>16th</type>
      </note>
      <note>
        <pitch>
          <step>E</step>
          <octave>4</octave>
        </pitch>
        <duration>1</duration>
        <type>16th</type>
        <tie type="stop" />
      </note>
    </measure>
    <measure number="26">
      <attributes>
        <time>
          <beats>4</beats>
          <beat-type>4</beat-type>
        </time>
      </attributes>
      <note>
        <pitch>
          <step>C</step>
          <octave>4</octave>
        </pitch>
        <duration>6</duration>
        <type>quarter</type>
        <dot />
        <lyric number="1">
          <text>缠</text>
        </lyric>
      </note>
      <note>
        <pitch>
          <step>E</step>
          <octave>4</octave>
        </pitch>
        <duration>2</duration>
        <type>eighth</type>
        <lyric number="1">
          <text>[未击中:[未击中:[未击中:[未击中:甲]]]][未击中:[未击中:么]][未击中:[未击中:[未击中:[未击中:[未击中:甲]]]]]nan[未击中:[未击中:[未击中:[未击中:甲]]]]</text>
        </lyric>
        <lyric number="2">
          <text>起愿头</text>
        </lyric>
      </note>
    </measure>
    <measure number="27">
      <attributes>
        <time>
          <beats>4</beats>
          <beat-type>4</beat-type>
        </time>
      </attributes>
      <note>
        <pitch>
          <step>E</step>
          <octave>4</octave>
        </pitch>
        <duration>4</duration>
        <type>quarter</type>
      </note>
      <note>
        <pitch>
          <step>E</step>
          <octave>4</octave>
        </pitch>
        <duration>1</duration>
        <type>16th</type>
        <lyric number="1">
          <text>nan</text>
        </lyric>
        <lyric number="2">
          <text>啰</text>
        </lyric>
      </note>
      <note>
        <pitch>
          <step>G</step>
          <octave>4</octave>
        </pitch>
        <duration>1</duration>
        <type>16th</type>
      </note>
      <note>
        <pitch>
          <step>E</step>
          <octave>4</octave>
        </pitch>
        <duration>2</duration>
        <type>eighth</type>
        <tie type="stop" />
        <lyric number="1">
          <text>呵</text>
        </lyric>
      </note>
      <note>
        <pitch>
          <step>E</step>
          <octave>4</octave>
        </pitch>
        <duration>4</duration>
        <type>quarter</type>
        <tie type="start" />
      </note>
      <note>
        <pitch>
          <step>D</step>
          <octave>4</octave>
        </pitch>
        <duration>1</duration>
        <type>16th</type>
      </note>
      <note>
        <pitch>
          <step>C</step>
          <octave>4</octave>
        </pitch>
        <duration>1</duration>
        <type>16th</type>
      </note>
    </measure>
    <measure number="28">
      <attributes>
        <time>
          <beats>4</beats>
          <beat-type>4</beat-type>
        </time>
      </attributes>
      <note>
        <pitch>
          <step>C</step>
          <octave>4</octave>
        </pitch>
        <duration>2</duration>
        <type>eighth</type>
        <lyric number="1">
          <text>[未击中:[未击中:甲]]</text>
        </lyric>
        <lyric number="2">
          <text>边</text>
        </lyric>
      </note>
      <note>
        <pitch>
          <step>C</step>
          <octave>4</octave>
        </pitch>
        <duration>2</duration>
        <type>eighth</type>
        <tie type="stop" />
        <lyric number="1">
          <text>哪[未击中:[未击中:[未击中:[未击中:甲]]]]</text>
        </lyric>
      </note>
      <note>
        <pitch>
          <step>C</step>
          <octave>4</octave>
        </pitch>
        <duration>6</duration>
        <type>quarter</type>
        <tie type="start" />
      </note>
      <note>
        <rest />
        <duration>4</duration>
        <type>quarter</type>
      </note>
    </measure>
  </part>
</score-partwise>
