<?xml version='1.0' encoding='utf-8'?>
<score-partwise version="3.1">
  <work>
    <work-title>页面_song_121</work-title>
  </work>
  <part-list>
    <score-part id="P1">
      <part-name>简谱旋律</part-name>
    </score-part>
  </part-list>
  <part id="P1">
    <measure number="1">
      <attributes>
        <divisions>4</divisions>
        <key>
          <fifths>0</fifths>
        </key>
        <time>
          <beats>4</beats>
          <beat-type>4</beat-type>
        </time>
      </attributes>
      <note>
        <pitch>
          <step>C</step>
          <octave>4</octave>
        </pitch>
        <duration>3</duration>
        <type>eighth</type>
        <dot />
        <lyric number="1">
          <text>单</text>
        </lyric>
        <lyric number="2">
          <text>闻</text>
        </lyric>
      </note>
      <note>
        <pitch>
          <step>D</step>
          <octave>4</octave>
        </pitch>
        <duration>1</duration>
        <type>16th</type>
      </note>
      <note>
        <pitch>
          <step>G</step>
          <octave>3</octave>
        </pitch>
        <duration>2</duration>
        <type>eighth</type>
        <lyric number="1">
          <text>竹</text>
        </lyric>
        <lyric number="2">
          <text>nan</text>
        </lyric>
      </note>
      <note>
        <pitch>
          <step>A</step>
          <octave>3</octave>
        </pitch>
        <duration>2</duration>
        <type>eighth</type>
      </note>
    </measure>
    <measure number="2">
      <attributes>
        <time>
          <beats>4</beats>
          <beat-type>4</beat-type>
        </time>
      </attributes>
      <note>
        <pitch>
          <step>D</step>
          <octave>4</octave>
        </pitch>
        <duration>8</duration>
        <type>half</type>
        <lyric number="1">
          <text>单</text>
        </lyric>
        <lyric number="2">
          <text>声</text>
        </lyric>
      </note>
    </measure>
    <measure number="3">
      <attributes>
        <time>
          <beats>4</beats>
          <beat-type>4</beat-type>
        </time>
      </attributes>
      <note>
        <pitch>
          <step>C</step>
          <octave>4</octave>
        </pitch>
        <duration>4</duration>
        <type>quarter</type>
        <lyric number="1">
          <text>单</text>
        </lyric>
        <lyric number="2">
          <text>心</text>
        </lyric>
      </note>
      <note>
        <pitch>
          <step>G</step>
          <octave>3</octave>
        </pitch>
        <duration>3</duration>
        <type>eighth</type>
        <dot />
        <lyric number="1">
          <text>竹</text>
        </lyric>
        <lyric number="2">
          <text>思</text>
        </lyric>
      </note>
      <note>
        <pitch>
          <step>A</step>
          <octave>3</octave>
        </pitch>
        <duration>1</duration>
        <type>16th</type>
      </note>
    </measure>
    <measure number="4">
      <attributes>
        <time>
          <beats>4</beats>
          <beat-type>4</beat-type>
        </time>
      </attributes>
      <note>
        <pitch>
          <step>D</step>
          <octave>4</octave>
        </pitch>
        <duration>8</duration>
        <type>half</type>
        <lyric number="1">
          <text>单</text>
        </lyric>
        <lyric number="2">
          <text>思</text>
        </lyric>
      </note>
    </measure>
    <measure number="5">
      <attributes>
        <time>
          <beats>4</beats>
          <beat-type>4</beat-type>
        </time>
      </attributes>
      <note>
        <pitch>
          <step>C</step>
          <octave>4</octave>
        </pitch>
        <duration>4</duration>
        <type>quarter</type>
        <lyric number="1">
          <text>单</text>
        </lyric>
        <lyric number="2">
          <text>竹</text>
        </lyric>
      </note>
      <note>
        <pitch>
          <step>D</step>
          <octave>4</octave>
        </pitch>
        <duration>2</duration>
        <type>eighth</type>
        <lyric number="1">
          <text>竹</text>
        </lyric>
        <lyric number="2">
          <text>叶</text>
        </lyric>
      </note>
      <note>
        <pitch>
          <step>C</step>
          <octave>4</octave>
        </pitch>
        <duration>2</duration>
        <type>eighth</type>
      </note>
    </measure>
    <measure number="6">
      <attributes>
        <time>
          <beats>4</beats>
          <beat-type>4</beat-type>
        </time>
      </attributes>
      <note>
        <pitch>
          <step>A</step>
          <octave>3</octave>
        </pitch>
        <duration>3</duration>
        <type>eighth</type>
        <dot />
        <lyric number="1">
          <text>架</text>
        </lyric>
        <lyric number="2">
          <text>难</text>
        </lyric>
      </note>
      <note>
        <pitch>
          <step>G</step>
          <octave>4</octave>
        </pitch>
        <duration>1</duration>
        <type>16th</type>
      </note>
      <note>
        <pitch>
          <step>E</step>
          <octave>3</octave>
        </pitch>
        <duration>4</duration>
        <type>quarter</type>
        <lyric number="1">
          <text>桥</text>
        </lyric>
        <lyric number="2">
          <text>舍</text>
        </lyric>
      </note>
    </measure>
    <measure number="7">
      <attributes>
        <time>
          <beats>4</beats>
          <beat-type>4</beat-type>
        </time>
      </attributes>
      <note>
        <pitch>
          <step>G</step>
          <octave>3</octave>
        </pitch>
        <duration>2</duration>
        <type>eighth</type>
        <lyric number="1">
          <text>过</text>
        </lyric>
        <lyric number="2">
          <text>离</text>
        </lyric>
      </note>
      <note>
        <pitch>
          <step>A</step>
          <octave>3</octave>
        </pitch>
        <duration>2</duration>
        <type>eighth</type>
      </note>
      <note>
        <pitch>
          <step>D</step>
          <octave>4</octave>
        </pitch>
        <duration>2</duration>
        <type>eighth</type>
        <lyric number="1">
          <text>石</text>
        </lyric>
        <lyric number="2">
          <text>竹</text>
        </lyric>
      </note>
      <note>
        <pitch>
          <step>C</step>
          <octave>4</octave>
        </pitch>
        <duration>2</duration>
        <type>eighth</type>
      </note>
    </measure>
    <measure number="8">
      <attributes>
        <time>
          <beats>4</beats>
          <beat-type>4</beat-type>
        </time>
      </attributes>
      <note>
        <pitch>
          <step>G</step>
          <octave>3</octave>
        </pitch>
        <duration>8</duration>
        <type>half</type>
        <lyric number="1">
          <text>山</text>
        </lyric>
        <lyric number="2">
          <text>枝</text>
        </lyric>
      </note>
    </measure>
    <measure number="9">
      <attributes>
        <time>
          <beats>4</beats>
          <beat-type>4</beat-type>
        </time>
      </attributes>
      <note>
        <pitch>
          <step>D</step>
          <octave>4</octave>
        </pitch>
        <duration>4</duration>
        <type>quarter</type>
        <lyric number="1">
          <text>单</text>
        </lyric>
        <lyric number="2">
          <text>丈</text>
        </lyric>
      </note>
      <note>
        <pitch>
          <step>D</step>
          <octave>4</octave>
        </pitch>
        <duration>4</duration>
        <type>quarter</type>
        <lyric number="1">
          <text>竹</text>
        </lyric>
        <lyric number="2">
          <text>夫</text>
        </lyric>
      </note>
    </measure>
    <measure number="10">
      <attributes>
        <time>
          <beats>4</beats>
          <beat-type>4</beat-type>
        </time>
      </attributes>
      <note>
        <pitch>
          <step>C</step>
          <octave>4</octave>
        </pitch>
        <duration>4</duration>
        <type>quarter</type>
        <lyric number="1">
          <text>架</text>
        </lyric>
        <lyric number="2">
          <text>焉</text>
        </lyric>
      </note>
      <note>
        <pitch>
          <step>A</step>
          <octave>3</octave>
        </pitch>
        <duration>4</duration>
        <type>quarter</type>
        <lyric number="1">
          <text>桥</text>
        </lyric>
        <lyric number="2">
          <text>能</text>
        </lyric>
      </note>
    </measure>
    <measure number="11">
      <attributes>
        <time>
          <beats>4</beats>
          <beat-type>4</beat-type>
        </time>
      </attributes>
      <note>
        <pitch>
          <step>G</step>
          <octave>3</octave>
        </pitch>
        <duration>4</duration>
        <type>quarter</type>
        <lyric number="1">
          <text>郎</text>
        </lyric>
        <lyric number="2">
          <text>离</text>
        </lyric>
      </note>
      <note>
        <pitch>
          <step>G</step>
          <octave>3</octave>
        </pitch>
        <duration>4</duration>
        <type>quarter</type>
        <lyric number="1">
          <text>过</text>
        </lyric>
        <lyric number="2">
          <text>得</text>
        </lyric>
      </note>
    </measure>
    <measure number="12">
      <attributes>
        <time>
          <beats>4</beats>
          <beat-type>4</beat-type>
        </time>
      </attributes>
      <note>
        <pitch>
          <step>A</step>
          <octave>3</octave>
        </pitch>
        <duration>2</duration>
        <type>eighth</type>
        <lyric number="1">
          <text>了</text>
        </lyric>
        <lyric number="2">
          <text>妹</text>
        </lyric>
      </note>
      <note>
        <pitch>
          <step>C</step>
          <octave>4</octave>
        </pitch>
        <duration>2</duration>
        <type>eighth</type>
      </note>
      <note>
        <pitch>
          <step>D</step>
          <octave>4</octave>
        </pitch>
        <duration>4</duration>
        <type>quarter</type>
      </note>
    </measure>
    <measure number="13">
      <attributes>
        <time>
          <beats>4</beats>
          <beat-type>4</beat-type>
        </time>
      </attributes>
      <note>
        <pitch>
          <step>C</step>
          <octave>4</octave>
        </pitch>
        <duration>4</duration>
        <type>quarter</type>
        <lyric number="1">
          <text>问</text>
        </lyric>
        <lyric number="2">
          <text>铜</text>
        </lyric>
      </note>
      <note>
        <pitch>
          <step>D</step>
          <octave>4</octave>
        </pitch>
        <duration>2</duration>
        <type>eighth</type>
        <lyric number="1">
          <text>郎</text>
        </lyric>
        <lyric number="2">
          <text>锁</text>
        </lyric>
      </note>
      <note>
        <pitch>
          <step>C</step>
          <octave>4</octave>
        </pitch>
        <duration>2</duration>
        <type>eighth</type>
      </note>
    </measure>
    <measure number="14">
      <attributes>
        <time>
          <beats>4</beats>
          <beat-type>4</beat-type>
        </time>
      </attributes>
      <note>
        <pitch>
          <step>A</step>
          <octave>3</octave>
        </pitch>
        <duration>2</duration>
        <type>eighth</type>
        <lyric number="1">
          <text>过</text>
        </lyric>
        <lyric number="2">
          <text>焉</text>
        </lyric>
      </note>
      <note>
        <pitch>
          <step>G</step>
          <octave>3</octave>
        </pitch>
        <duration>2</duration>
        <type>eighth</type>
      </note>
      <note>
        <pitch>
          <step>E</step>
          <octave>3</octave>
        </pitch>
        <duration>4</duration>
        <type>quarter</type>
        <lyric number="1">
          <text>了</text>
        </lyric>
        <lyric number="2">
          <text>能</text>
        </lyric>
      </note>
    </measure>
    <measure number="15">
      <attributes>
        <time>
          <beats>4</beats>
          <beat-type>4</beat-type>
        </time>
      </attributes>
      <note>
        <pitch>
          <step>G</step>
          <octave>3</octave>
        </pitch>
        <duration>2</duration>
        <type>eighth</type>
        <lyric number="1">
          <text>几</text>
        </lyric>
        <lyric number="2">
          <text>离</text>
        </lyric>
      </note>
      <note>
        <pitch>
          <step>A</step>
          <octave>3</octave>
        </pitch>
        <duration>2</duration>
        <type>eighth</type>
        <lyric number="1">
          <text>nannan</text>
        </lyric>
      </note>
      <note>
        <pitch>
          <step>D</step>
          <octave>4</octave>
        </pitch>
        <duration>2</duration>
        <type>eighth</type>
        <lyric number="1">
          <text>时</text>
        </lyric>
        <lyric number="2">
          <text>得</text>
        </lyric>
        <lyric number="3">
          <text>nan</text>
        </lyric>
      </note>
      <note>
        <pitch>
          <step>C</step>
          <octave>4</octave>
        </pitch>
        <duration>2</duration>
        <type>eighth</type>
        <lyric number="1">
          <text>nannannan</text>
        </lyric>
      </note>
    </measure>
    <measure number="16">
      <attributes>
        <time>
          <beats>4</beats>
          <beat-type>4</beat-type>
        </time>
      </attributes>
      <note>
        <pitch>
          <step>G</step>
          <octave>3</octave>
        </pitch>
        <duration>8</duration>
        <type>half</type>
        <lyric number="1">
          <text>返</text>
        </lyric>
        <lyric number="2">
          <text>匙</text>
        </lyric>
        <lyric number="3">
          <text>nannannannan</text>
        </lyric>
      </note>
    </measure>
    <measure number="17">
      <attributes>
        <time>
          <beats>4</beats>
          <beat-type>4</beat-type>
        </time>
      </attributes>
      <note>
        <pitch>
          <step>G</step>
          <octave>3</octave>
        </pitch>
        <duration>4</duration>
        <type>quarter</type>
        <lyric number="1">
          <text>nannannan</text>
        </lyric>
      </note>
      <note>
        <rest />
        <duration>4</duration>
        <type>quarter</type>
      </note>
    </measure>
  </part>
</score-partwise>
