<?xml version='1.0' encoding='utf-8'?>
<score-partwise version="3.1">
  <work>
    <work-title>页面_song_187</work-title>
  </work>
  <part-list>
    <score-part id="P1">
      <part-name>简谱旋律</part-name>
    </score-part>
  </part-list>
  <part id="P1">
    <measure number="1">
      <attributes>
        <divisions>4</divisions>
        <key>
          <fifths>0</fifths>
        </key>
        <time>
          <beats>4</beats>
          <beat-type>4</beat-type>
        </time>
      </attributes>
      <note>
        <pitch>
          <step>G</step>
          <octave>4</octave>
        </pitch>
        <duration>2</duration>
        <type>eighth</type>
        <lyric number="1">
          <text>自</text>
        </lyric>
        <lyric number="2">
          <text>鸡</text>
        </lyric>
        <lyric number="3">
          <text>天</text>
        </lyric>
        <lyric number="4">
          <text>并</text>
        </lyric>
      </note>
      <note>
        <pitch>
          <step>D</step>
          <octave>5</octave>
        </pitch>
        <duration>2</duration>
        <type>eighth</type>
        <lyric number="1">
          <text>小</text>
        </lyric>
        <lyric number="2">
          <text>乸</text>
        </lyric>
        <lyric number="3">
          <text>地</text>
        </lyric>
        <lyric number="4">
          <text>头</text>
        </lyric>
      </note>
      <note>
        <pitch>
          <step>D</step>
          <octave>5</octave>
        </pitch>
        <duration>2</duration>
        <type>eighth</type>
        <lyric number="1">
          <text>生</text>
        </lyric>
        <lyric number="2">
          <text>丢</text>
        </lyric>
        <lyric number="3">
          <text>生</text>
        </lyric>
        <lyric number="4">
          <text>牡</text>
        </lyric>
      </note>
      <note>
        <pitch>
          <step>D</step>
          <octave>5</octave>
        </pitch>
        <duration>2</duration>
        <type>eighth</type>
        <lyric number="1">
          <text>身</text>
        </lyric>
        <lyric number="2">
          <text>儿</text>
        </lyric>
        <lyric number="3">
          <text>成</text>
        </lyric>
        <lyric number="4">
          <text>丹</text>
        </lyric>
      </note>
    </measure>
    <measure number="2">
      <attributes>
        <time>
          <beats>4</beats>
          <beat-type>4</beat-type>
        </time>
      </attributes>
      <note>
        <pitch>
          <step>D</step>
          <octave>5</octave>
        </pitch>
        <duration>4</duration>
        <type>quarter</type>
      </note>
      <note>
        <pitch>
          <step>C</step>
          <octave>5</octave>
        </pitch>
        <duration>2</duration>
        <type>eighth</type>
        <lyric number="1">
          <text>在</text>
        </lyric>
        <lyric number="2">
          <text>好</text>
        </lyric>
        <lyric number="3">
          <text>兄</text>
        </lyric>
        <lyric number="4">
          <text>唔</text>
        </lyric>
      </note>
      <note>
        <pitch>
          <step>G</step>
          <octave>4</octave>
        </pitch>
        <duration>2</duration>
        <type>eighth</type>
        <lyric number="1">
          <text>地</text>
        </lyric>
        <lyric number="2">
          <text>唱</text>
        </lyric>
        <lyric number="3">
          <text>弟</text>
        </lyric>
        <lyric number="4">
          <text>真</text>
        </lyric>
      </note>
    </measure>
    <measure number="3">
      <attributes>
        <time>
          <beats>4</beats>
          <beat-type>4</beat-type>
        </time>
      </attributes>
      <note>
        <pitch>
          <step>A</step>
          <octave>4</octave>
        </pitch>
        <duration>4</duration>
        <type>quarter</type>
        <lyric number="1">
          <text>坪</text>
        </lyric>
        <lyric number="2">
          <text>声</text>
        </lyric>
        <lyric number="3">
          <text>多</text>
        </lyric>
        <lyric number="4">
          <text>多</text>
        </lyric>
      </note>
      <note>
        <rest />
        <duration>4</duration>
        <type>quarter</type>
      </note>
    </measure>
    <measure number="4">
      <attributes>
        <time>
          <beats>4</beats>
          <beat-type>4</beat-type>
        </time>
      </attributes>
      <note>
        <pitch>
          <step>C</step>
          <octave>5</octave>
        </pitch>
        <duration>2</duration>
        <type>eighth</type>
        <lyric number="1">
          <text>爷</text>
        </lyric>
        <lyric number="2">
          <text>临</text>
        </lyric>
        <lyric number="3">
          <text>忽</text>
        </lyric>
        <lyric number="4">
          <text>白</text>
        </lyric>
      </note>
      <note>
        <pitch>
          <step>D</step>
          <octave>5</octave>
        </pitch>
        <duration>2</duration>
        <type>eighth</type>
        <lyric number="1">
          <text>娘</text>
        </lyric>
        <lyric number="2">
          <text>别</text>
        </lyric>
        <lyric number="3">
          <text>然</text>
        </lyric>
        <lyric number="4">
          <text>云</text>
        </lyric>
      </note>
      <note>
        <pitch>
          <step>D</step>
          <octave>5</octave>
        </pitch>
        <duration>2</duration>
        <type>eighth</type>
        <lyric number="1">
          <text>饮</text>
        </lyric>
        <lyric number="2">
          <text>分</text>
        </lyric>
        <lyric number="3">
          <text>跌</text>
        </lyric>
        <lyric number="4">
          <text>飞</text>
        </lyric>
      </note>
      <note>
        <pitch>
          <step>G</step>
          <octave>4</octave>
        </pitch>
        <duration>1</duration>
        <type>16th</type>
        <lyric number="1">
          <text>食</text>
        </lyric>
        <lyric number="2">
          <text>离</text>
        </lyric>
        <lyric number="3">
          <text>落</text>
        </lyric>
        <lyric number="4">
          <text>岀</text>
        </lyric>
      </note>
      <note>
        <pitch>
          <step>A</step>
          <octave>4</octave>
        </pitch>
        <duration>1</duration>
        <type>16th</type>
      </note>
    </measure>
    <measure number="5">
      <attributes>
        <time>
          <beats>4</beats>
          <beat-type>4</beat-type>
        </time>
      </attributes>
      <note>
        <pitch>
          <step>G</step>
          <octave>4</octave>
        </pitch>
        <duration>2</duration>
        <type>eighth</type>
        <lyric number="1">
          <text>就</text>
        </lyric>
        <lyric number="2">
          <text>太nan</text>
        </lyric>
        <lyric number="3">
          <text>在深</text>
        </lyric>
        <lyric number="4">
          <text>满江</text>
        </lyric>
      </note>
      <note>
        <pitch>
          <step>C</step>
          <octave>5</octave>
        </pitch>
        <duration>1</duration>
        <type>16th</type>
        <lyric number="1">
          <text>开</text>
        </lyric>
      </note>
      <note>
        <pitch>
          <step>A</step>
          <octave>4</octave>
        </pitch>
        <duration>1</duration>
        <type>16th</type>
      </note>
      <note>
        <pitch>
          <step>G</step>
          <octave>5</octave>
        </pitch>
        <duration>8</duration>
        <type>half</type>
        <tie type="start" />
        <tie type="stop" />
        <lyric number="1">
          <text>声</text>
        </lyric>
        <lyric number="2">
          <text>情</text>
        </lyric>
        <lyric number="3">
          <text>窝</text>
        </lyric>
        <lyric number="4">
          <text>河</text>
        </lyric>
      </note>
    </measure>
    <measure number="6">
      <attributes>
        <time>
          <beats>4</beats>
          <beat-type>4</beat-type>
        </time>
      </attributes>
      <note>
        <pitch>
          <step>G</step>
          <octave>4</octave>
        </pitch>
        <duration>2</duration>
        <type>eighth</type>
        <lyric number="1">
          <text>nan</text>
        </lyric>
        <lyric number="2">
          <text>养</text>
        </lyric>
        <lyric number="3">
          <text>可</text>
        </lyric>
        <lyric number="4">
          <text>总</text>
        </lyric>
      </note>
      <note>
        <pitch>
          <step>G</step>
          <octave>4</octave>
        </pitch>
        <duration>1</duration>
        <type>16th</type>
        <lyric number="1">
          <text>母</text>
        </lyric>
        <lyric number="2">
          <text>大</text>
        </lyric>
        <lyric number="3">
          <text>走</text>
        </lyric>
        <lyric number="4">
          <text>要</text>
        </lyric>
      </note>
      <note>
        <pitch>
          <step>A</step>
          <octave>4</octave>
        </pitch>
        <duration>1</duration>
        <type>16th</type>
      </note>
      <note>
        <pitch>
          <step>C</step>
          <octave>5</octave>
        </pitch>
        <duration>2</duration>
        <type>eighth</type>
        <lyric number="1">
          <text>作</text>
        </lyric>
        <lyric number="2">
          <text>添</text>
        </lyric>
        <lyric number="3">
          <text>石</text>
        </lyric>
        <lyric number="4">
          <text>你</text>
        </lyric>
      </note>
      <note>
        <pitch>
          <step>D</step>
          <octave>5</octave>
        </pitch>
        <duration>1</duration>
        <type>16th</type>
        <lyric number="1">
          <text>nan</text>
        </lyric>
        <lyric number="2">
          <text>春</text>
        </lyric>
        <lyric number="3">
          <text>山</text>
        </lyric>
        <lyric number="4">
          <text>姑</text>
        </lyric>
      </note>
      <note>
        <pitch>
          <step>A</step>
          <octave>4</octave>
        </pitch>
        <duration>1</duration>
        <type>16th</type>
      </note>
    </measure>
    <measure number="7">
      <attributes>
        <time>
          <beats>4</beats>
          <beat-type>4</beat-type>
        </time>
      </attributes>
      <note>
        <pitch>
          <step>B</step>
          <octave>4</octave>
        </pitch>
        <duration>1</duration>
        <type>16th</type>
        <lyric number="1">
          <text>心</text>
        </lyric>
        <lyric number="2">
          <text>天</text>
        </lyric>
        <lyric number="3">
          <text>请</text>
        </lyric>
        <lyric number="4">
          <text>落</text>
        </lyric>
      </note>
      <note>
        <pitch>
          <step>A</step>
          <octave>4</octave>
        </pitch>
        <duration>1</duration>
        <type>16th</type>
        <lyric number="1">
          <text>肝</text>
        </lyric>
        <lyric number="2">
          <text>注</text>
        </lyric>
        <lyric number="3">
          <text>上</text>
        </lyric>
        <lyric number="4">
          <text>力</text>
        </lyric>
        <lyric number="5">
          <text>nan就</text>
        </lyric>
        <lyric number="6">
          <text>[未击中:[未击中:[未击中:灪]]]心</text>
        </lyric>
        <lyric number="7">
          <text>[未击中:[未击中:[未击中:灪]]]会</text>
        </lyric>
      </note>
      <note>
        <pitch>
          <step>G</step>
          <octave>4</octave>
        </pitch>
        <duration>2</duration>
        <type>eighth</type>
      </note>
      <note>
        <pitch>
          <step>G</step>
          <octave>4</octave>
        </pitch>
        <duration>2</duration>
        <type>eighth</type>
        <lyric number="1">
          <text>椗</text>
        </lyric>
        <lyric number="2">
          <text>定</text>
        </lyric>
        <lyric number="3">
          <text>座</text>
        </lyric>
        <lyric number="4">
          <text>磨</text>
        </lyric>
        <lyric number="5">
          <text>开</text>
        </lyric>
        <lyric number="6">
          <text>肝</text>
        </lyric>
        <lyric number="7">
          <text>发</text>
        </lyric>
      </note>
      <note>
        <rest />
        <duration>2</duration>
        <type>eighth</type>
        <lyric number="1">
          <text>声</text>
        </lyric>
        <lyric number="2">
          <text>椗</text>
        </lyric>
        <lyric number="3">
          <text>性</text>
        </lyric>
      </note>
      <note>
        <pitch>
          <step>C</step>
          <octave>5</octave>
        </pitch>
        <duration>1</duration>
        <type>16th</type>
        <lyric number="1">
          <text>当</text>
        </lyric>
        <lyric number="2">
          <text>咁</text>
        </lyric>
        <lyric number="3">
          <text>便</text>
        </lyric>
        <lyric number="4">
          <text>帮</text>
        </lyric>
        <lyric number="5">
          <text>就</text>
        </lyric>
        <lyric number="6">
          <text>心</text>
        </lyric>
        <lyric number="7">
          <text>会</text>
        </lyric>
      </note>
      <note>
        <pitch>
          <step>A</step>
          <octave>4</octave>
        </pitch>
        <duration>1</duration>
        <type>16th</type>
        <lyric number="1">
          <text>讲</text>
        </lyric>
        <lyric number="2">
          <text>肝宝</text>
        </lyric>
        <lyric number="3">
          <text>发牌</text>
        </lyric>
      </note>
      <note>
        <pitch>
          <step>G</step>
          <octave>4</octave>
        </pitch>
        <duration>2</duration>
        <type>eighth</type>
        <lyric number="1">
          <text>从</text>
        </lyric>
        <lyric number="2">
          <text>橑</text>
        </lyric>
        <lyric number="3">
          <text>山</text>
        </lyric>
        <lyric number="4">
          <text>烧</text>
        </lyric>
        <lyric number="5">
          <text>话nan</text>
        </lyric>
        <lyric number="6">
          <text>贝[未击中:[未击中:[未击中:灪]]]</text>
        </lyric>
        <lyric number="7">
          <text>气nan</text>
        </lyric>
      </note>
      <note>
        <pitch>
          <step>G</step>
          <octave>4</octave>
        </pitch>
        <duration>4</duration>
        <type>quarter</type>
        <lyric number="1">
          <text>命</text>
        </lyric>
        <lyric number="2">
          <text>性</text>
        </lyric>
        <lyric number="3">
          <text>过</text>
        </lyric>
        <lyric number="4">
          <text>火</text>
        </lyric>
      </note>
    </measure>
    <measure number="8">
      <attributes>
        <time>
          <beats>4</beats>
          <beat-type>4</beat-type>
        </time>
      </attributes>
      <note>
        <pitch>
          <step>G</step>
          <octave>4</octave>
        </pitch>
        <duration>2</duration>
        <type>eighth</type>
        <lyric number="1">
          <text>渐</text>
        </lyric>
        <lyric number="2">
          <text>冬</text>
        </lyric>
        <lyric number="3">
          <text>虽</text>
        </lyric>
        <lyric number="4">
          <text>生</text>
        </lyric>
      </note>
      <note>
        <pitch>
          <step>G</step>
          <octave>4</octave>
        </pitch>
        <duration>1</duration>
        <type>16th</type>
        <lyric number="1">
          <text>渐</text>
        </lyric>
        <lyric number="2">
          <text>年</text>
        </lyric>
        <lyric number="3">
          <text>身</text>
        </lyric>
        <lyric number="4">
          <text>涯</text>
        </lyric>
      </note>
      <note>
        <pitch>
          <step>A</step>
          <octave>4</octave>
        </pitch>
        <duration>1</duration>
        <type>16th</type>
      </note>
      <note>
        <pitch>
          <step>D</step>
          <octave>5</octave>
        </pitch>
        <duration>2</duration>
        <type>eighth</type>
        <lyric number="1">
          <text>会</text>
        </lyric>
        <lyric number="2">
          <text>之</text>
        </lyric>
        <lyric number="3">
          <text>来</text>
        </lyric>
        <lyric number="4">
          <text>都</text>
        </lyric>
      </note>
      <note>
        <pitch>
          <step>B</step>
          <octave>4</octave>
        </pitch>
        <duration>1</duration>
        <type>16th</type>
        <lyric number="1">
          <text>发</text>
        </lyric>
        <lyric number="2">
          <text>nan</text>
        </lyric>
        <lyric number="3">
          <text>辅</text>
        </lyric>
        <lyric number="4">
          <text>不</text>
        </lyric>
      </note>
      <note>
        <pitch>
          <step>A</step>
          <octave>4</octave>
        </pitch>
        <duration>1</duration>
        <type>16th</type>
        <lyric number="1">
          <text>有</text>
        </lyric>
      </note>
      <note>
        <pitch>
          <step>G</step>
          <octave>4</octave>
        </pitch>
        <duration>2</duration>
        <type>eighth</type>
        <lyric number="1">
          <text>性</text>
        </lyric>
        <lyric number="2">
          <text>剩</text>
        </lyric>
        <lyric number="3">
          <text>助</text>
        </lyric>
        <lyric number="4">
          <text>错</text>
        </lyric>
        <lyric number="5">
          <text>添</text>
        </lyric>
        <lyric number="6">
          <text>撩</text>
        </lyric>
        <lyric number="7">
          <text>冬</text>
        </lyric>
      </note>
      <note>
        <rest />
        <duration>1</duration>
        <type>16th</type>
        <lyric number="1">
          <text>nan</text>
        </lyric>
        <lyric number="2">
          <text>春生</text>
        </lyric>
        <lyric number="3">
          <text>性调</text>
        </lyric>
        <lyric number="4">
          <text>年</text>
        </lyric>
      </note>
      <note>
        <pitch>
          <step>A</step>
          <octave>4</octave>
        </pitch>
        <duration>1</duration>
        <type>16th</type>
        <lyric number="1">
          <text>就</text>
        </lyric>
        <lyric number="2">
          <text>留</text>
        </lyric>
        <lyric number="3">
          <text>白</text>
        </lyric>
        <lyric number="4">
          <text>开</text>
        </lyric>
        <lyric number="5">
          <text>之[未击中:蜊]</text>
        </lyric>
      </note>
      <note>
        <pitch>
          <step>G</step>
          <octave>4</octave>
        </pitch>
        <duration>1</duration>
        <type>16th</type>
        <lyric number="1">
          <text>临</text>
        </lyric>
        <lyric number="2">
          <text>得</text>
        </lyric>
        <lyric number="3">
          <text>云</text>
        </lyric>
        <lyric number="4">
          <text>间</text>
        </lyric>
        <lyric number="5">
          <text>nan</text>
        </lyric>
        <lyric number="6">
          <text>蛋</text>
        </lyric>
        <lyric number="7">
          <text>皮</text>
        </lyric>
        <lyric number="8">
          <text>nan</text>
        </lyric>
      </note>
      <note>
        <pitch>
          <step>A</step>
          <octave>4</octave>
        </pitch>
        <duration>1</duration>
        <type>16th</type>
        <lyric number="1">
          <text>別</text>
        </lyric>
        <lyric number="2">
          <text>nan</text>
        </lyric>
        <lyric number="3">
          <text>剩冬至</text>
        </lyric>
      </note>
      <note>
        <pitch>
          <step>D</step>
          <octave>5</octave>
        </pitch>
        <duration>2</duration>
        <type>eighth</type>
        <lyric number="1">
          <text>分</text>
        </lyric>
        <lyric number="2">
          <text>二</text>
        </lyric>
        <lyric number="3">
          <text>nan</text>
        </lyric>
        <lyric number="4">
          <text>春蛋</text>
        </lyric>
      </note>
    </measure>
    <measure number="9">
      <attributes>
        <time>
          <beats>4</beats>
          <beat-type>4</beat-type>
        </time>
      </attributes>
      <note>
        <pitch>
          <step>A</step>
          <octave>4</octave>
        </pitch>
        <duration>4</duration>
        <type>quarter</type>
        <lyric number="1">
          <text>离</text>
        </lyric>
        <lyric number="2">
          <text>娘</text>
        </lyric>
        <lyric number="3">
          <text>飞岀</text>
        </lyric>
        <lyric number="4">
          <text>小店</text>
        </lyric>
        <lyric number="5">
          <text>nannannan</text>
        </lyric>
        <lyric number="6">
          <text>也</text>
        </lyric>
        <lyric number="7">
          <text>过年杀剩</text>
        </lyric>
      </note>
      <note>
        <pitch>
          <step>D</step>
          <octave>5</octave>
        </pitch>
        <duration>1</duration>
        <type>16th</type>
        <lyric number="1">
          <text>太</text>
        </lyric>
        <lyric number="2">
          <text>担</text>
        </lyric>
        <lyric number="3">
          <text>满</text>
        </lyric>
        <lyric number="4">
          <text>养</text>
        </lyric>
        <lyric number="5">
          <text>nan</text>
        </lyric>
        <lyric number="6">
          <text>的</text>
        </lyric>
      </note>
      <note>
        <pitch>
          <step>C</step>
          <octave>5</octave>
        </pitch>
        <duration>1</duration>
        <type>16th</type>
        <lyric number="1">
          <text>江</text>
        </lyric>
        <lyric number="2">
          <text>猪</text>
        </lyric>
        <lyric number="3">
          <text>nannannannan</text>
        </lyric>
        <lyric number="4">
          <text>[未击中:蜊]nannan</text>
        </lyric>
      </note>
      <note>
        <pitch>
          <step>A</step>
          <octave>4</octave>
        </pitch>
        <duration>2</duration>
        <type>eighth</type>
        <lyric number="1">
          <text>[未击中:元]</text>
        </lyric>
        <lyric number="2">
          <text>酒</text>
        </lyric>
      </note>
      <note>
        <pitch>
          <step>G</step>
          <octave>4</octave>
        </pitch>
        <duration>6</duration>
        <type>quarter</type>
        <dot />
        <lyric number="1">
          <text>情</text>
        </lyric>
        <lyric number="2">
          <text>瓶</text>
        </lyric>
        <lyric number="3">
          <text>河</text>
        </lyric>
        <lyric number="4">
          <text>婆</text>
        </lyric>
        <lyric number="5">
          <text>nannan</text>
        </lyric>
        <lyric number="6">
          <text>nan宰</text>
        </lyric>
      </note>
      <note>
        <rest />
        <duration>4</duration>
        <type>quarter</type>
        <lyric number="1">
          <text>杀</text>
        </lyric>
      </note>
    </measure>
  </part>
</score-partwise>
