<?xml version='1.0' encoding='utf-8'?>
<score-partwise version="3.1">
  <work>
    <work-title>页面_song_22</work-title>
  </work>
  <part-list>
    <score-part id="P1">
      <part-name>简谱旋律</part-name>
    </score-part>
  </part-list>
  <part id="P1">
    <measure number="1">
      <attributes>
        <divisions>4</divisions>
        <key>
          <fifths>0</fifths>
        </key>
        <time>
          <beats>4</beats>
          <beat-type>4</beat-type>
        </time>
      </attributes>
      <note>
        <pitch>
          <step>E</step>
          <octave>5</octave>
        </pitch>
        <duration>2</duration>
        <type>eighth</type>
        <lyric number="1">
          <text>有</text>
        </lyric>
        <lyric number="2">
          <text>有</text>
        </lyric>
        <lyric number="3">
          <text>有</text>
        </lyric>
        <lyric number="4">
          <text>有</text>
        </lyric>
      </note>
      <note>
        <pitch>
          <step>D</step>
          <octave>5</octave>
        </pitch>
        <duration>1</duration>
        <type>16th</type>
        <lyric number="1">
          <text>情</text>
        </lyric>
        <lyric number="2">
          <text>情</text>
        </lyric>
        <lyric number="3">
          <text>情</text>
        </lyric>
        <lyric number="4">
          <text>情</text>
        </lyric>
      </note>
      <note>
        <pitch>
          <step>E</step>
          <octave>5</octave>
        </pitch>
        <duration>1</duration>
        <type>16th</type>
        <lyric number="1">
          <text>阿</text>
        </lyric>
        <lyric number="2">
          <text>阿</text>
        </lyric>
        <lyric number="3">
          <text>阿</text>
        </lyric>
        <lyric number="4">
          <text>阿</text>
        </lyric>
      </note>
      <note>
        <pitch>
          <step>D</step>
          <octave>5</octave>
        </pitch>
        <duration>6</duration>
        <type>quarter</type>
        <dot />
        <lyric number="1">
          <text>妺</text>
        </lyric>
        <lyric number="2">
          <text>哥</text>
        </lyric>
        <lyric number="3">
          <text>妺</text>
        </lyric>
        <lyric number="4">
          <text>哥</text>
        </lyric>
      </note>
      <note>
        <pitch>
          <step>E</step>
          <octave>5</octave>
        </pitch>
        <duration>2</duration>
        <type>eighth</type>
      </note>
    </measure>
    <measure number="2">
      <attributes>
        <time>
          <beats>4</beats>
          <beat-type>4</beat-type>
        </time>
      </attributes>
      <note>
        <pitch>
          <step>D</step>
          <octave>5</octave>
        </pitch>
        <duration>2</duration>
        <type>eighth</type>
        <lyric number="1">
          <text>虾</text>
        </lyric>
        <lyric number="2">
          <text>吓</text>
        </lyric>
        <lyric number="3">
          <text>头</text>
        </lyric>
        <lyric number="4">
          <text>马</text>
        </lyric>
      </note>
      <note>
        <pitch>
          <step>D</step>
          <octave>5</octave>
        </pitch>
        <duration>2</duration>
        <type>eighth</type>
        <lyric number="1">
          <text>仔</text>
        </lyric>
        <lyric number="2">
          <text>仔</text>
        </lyric>
        <lyric number="3">
          <text>桨</text>
        </lyric>
        <lyric number="4">
          <text>蹄</text>
        </lyric>
      </note>
      <note>
        <pitch>
          <step>C</step>
          <octave>5</octave>
        </pitch>
        <duration>2</duration>
        <type>eighth</type>
        <lyric number="1">
          <text>冇</text>
        </lyric>
        <lyric number="2">
          <text>冇</text>
        </lyric>
        <lyric number="3">
          <text>好</text>
        </lyric>
        <lyric number="4">
          <text>nan</text>
        </lyric>
      </note>
      <note>
        <pitch>
          <step>A</step>
          <octave>6</octave>
        </pitch>
        <duration>4</duration>
        <type>quarter</type>
        <tie type="start" />
        <tie type="stop" />
        <lyric number="1">
          <text>肠</text>
        </lyric>
        <lyric number="2">
          <text>肠</text>
        </lyric>
        <lyric number="3">
          <text>扳桨</text>
        </lyric>
        <lyric number="4">
          <text>皮</text>
        </lyric>
      </note>
    </measure>
    <measure number="3">
      <attributes>
        <time>
          <beats>4</beats>
          <beat-type>4</beat-type>
        </time>
      </attributes>
      <note>
        <pitch>
          <step>G</step>
          <octave>4</octave>
        </pitch>
        <duration>3</duration>
        <type>eighth</type>
        <dot />
        <lyric number="1">
          <text>鱼</text>
        </lyric>
        <lyric number="2">
          <text>白饭</text>
        </lyric>
        <lyric number="3">
          <text>还</text>
        </lyric>
      </note>
      <note>
        <pitch>
          <step>C</step>
          <octave>5</octave>
        </pitch>
        <duration>1</duration>
        <type>16th</type>
        <lyric number="1">
          <text>冇</text>
        </lyric>
        <lyric number="2">
          <text>好</text>
        </lyric>
        <lyric number="3">
          <text>有</text>
        </lyric>
      </note>
      <note>
        <pitch>
          <step>A</step>
          <octave>4</octave>
        </pitch>
        <duration>2</duration>
        <type>eighth</type>
        <lyric number="1">
          <text>脏</text>
        </lyric>
        <lyric number="2">
          <text>肚</text>
        </lyric>
        <lyric number="3">
          <text>棹</text>
        </lyric>
      </note>
      <note>
        <pitch>
          <step>E</step>
          <octave>6</octave>
        </pitch>
        <duration>8</duration>
        <type>half</type>
        <tie type="start" />
        <tie type="stop" />
        <lyric number="1">
          <text>咧</text>
        </lyric>
        <lyric number="2">
          <text>咧</text>
        </lyric>
        <lyric number="3">
          <text>咧</text>
        </lyric>
        <lyric number="4">
          <text>咧</text>
        </lyric>
      </note>
      <note>
        <pitch>
          <step>D</step>
          <octave>5</octave>
        </pitch>
        <duration>1</duration>
        <type>16th</type>
        <lyric number="1">
          <text>姑</text>
        </lyric>
        <lyric number="2">
          <text>兄</text>
        </lyric>
        <lyric number="3">
          <text>姑</text>
        </lyric>
        <lyric number="4">
          <text>兄</text>
        </lyric>
      </note>
      <note>
        <pitch>
          <step>E</step>
          <octave>5</octave>
        </pitch>
        <duration>1</duration>
        <type>16th</type>
      </note>
    </measure>
    <measure number="4">
      <attributes>
        <time>
          <beats>4</beats>
          <beat-type>4</beat-type>
        </time>
      </attributes>
      <note>
        <pitch>
          <step>C</step>
          <octave>5</octave>
        </pitch>
        <duration>6</duration>
        <type>quarter</type>
        <dot />
        <lyric number="1">
          <text>妹</text>
        </lyric>
        <lyric number="2">
          <text>哥nan</text>
        </lyric>
        <lyric number="3">
          <text>妹[未击中:万]</text>
        </lyric>
        <lyric number="4">
          <text>哥</text>
        </lyric>
      </note>
      <note>
        <pitch>
          <step>D</step>
          <octave>5</octave>
        </pitch>
        <duration>1</duration>
        <type>16th</type>
      </note>
      <note>
        <pitch>
          <step>C</step>
          <octave>5</octave>
        </pitch>
        <duration>1</duration>
        <type>16th</type>
      </note>
    </measure>
    <measure number="5">
      <attributes>
        <time>
          <beats>4</beats>
          <beat-type>4</beat-type>
        </time>
      </attributes>
      <note>
        <pitch>
          <step>A</step>
          <octave>4</octave>
        </pitch>
        <duration>4</duration>
        <type>quarter</type>
      </note>
      <note>
        <rest />
        <duration>4</duration>
        <type>quarter</type>
      </note>
    </measure>
    <measure number="6">
      <attributes>
        <time>
          <beats>4</beats>
          <beat-type>4</beat-type>
        </time>
      </attributes>
      <note>
        <pitch>
          <step>D</step>
          <octave>6</octave>
        </pitch>
        <duration>2</duration>
        <type>eighth</type>
        <tie type="start" />
        <tie type="stop" />
        <lyric number="1">
          <text>冇</text>
        </lyric>
        <lyric number="2">
          <text>有</text>
        </lyric>
        <lyric number="3">
          <text>丢</text>
        </lyric>
        <lyric number="4">
          <text>哥</text>
        </lyric>
        <lyric number="5">
          <text>nannan</text>
        </lyric>
        <lyric number="6">
          <text>样[未击中:[未击中:巾]]剌nan</text>
        </lyric>
        <lyric number="7">
          <text>一</text>
        </lyric>
      </note>
      <note>
        <pitch>
          <step>C</step>
          <octave>5</octave>
        </pitch>
        <duration>1</duration>
        <type>16th</type>
        <lyric number="1">
          <text>nan</text>
        </lyric>
        <lyric number="2">
          <text>种鱼</text>
        </lyric>
      </note>
      <note>
        <pitch>
          <step>A</step>
          <octave>4</octave>
        </pitch>
        <duration>2</duration>
        <type>eighth</type>
        <lyric number="1">
          <text>肠</text>
        </lyric>
        <lyric number="2">
          <text>情</text>
        </lyric>
        <lyric number="3">
          <text>低</text>
        </lyric>
        <lyric number="4">
          <text>哥</text>
        </lyric>
        <lyric number="5">
          <text>nan没</text>
        </lyric>
        <lyric number="6">
          <text>的名称俗称</text>
        </lyric>
      </note>
      <note>
        <pitch>
          <step>G</step>
          <octave>5</octave>
        </pitch>
        <duration>6</duration>
        <type>quarter</type>
        <dot />
        <tie type="start" />
        <tie type="stop" />
        <lyric number="1">
          <text>冇</text>
        </lyric>
        <lyric number="2">
          <text>有</text>
        </lyric>
        <lyric number="3">
          <text>两</text>
        </lyric>
        <lyric number="4">
          <text>留</text>
        </lyric>
        <lyric number="5">
          <text>nan不[未击中:巾]马</text>
        </lyric>
      </note>
      <note>
        <pitch>
          <step>A</step>
          <octave>4</octave>
        </pitch>
        <duration>1</duration>
        <type>16th</type>
        <lyric number="1">
          <text>脏</text>
        </lyric>
        <lyric number="2">
          <text>义</text>
        </lyric>
        <lyric number="3">
          <text>义</text>
        </lyric>
        <lyric number="4">
          <text>白饭鱼[未击中:[未击中:巾]]</text>
        </lyric>
      </note>
    </measure>
    <measure number="7">
      <attributes>
        <time>
          <beats>4</beats>
          <beat-type>4</beat-type>
        </time>
      </attributes>
      <note>
        <pitch>
          <step>D</step>
          <octave>5</octave>
        </pitch>
        <duration>2</duration>
        <type>eighth</type>
        <lyric number="1">
          <text>点</text>
        </lyric>
        <lyric number="2">
          <text>唱</text>
        </lyric>
        <lyric number="3">
          <text>桨</text>
        </lyric>
        <lyric number="4">
          <text>妹</text>
        </lyric>
      </note>
      <note>
        <pitch>
          <step>C</step>
          <octave>5</octave>
        </pitch>
        <duration>1</duration>
        <type>16th</type>
        <lyric number="1">
          <text>唱</text>
        </lyric>
        <lyric number="2">
          <text>得</text>
        </lyric>
      </note>
      <note>
        <pitch>
          <step>D</step>
          <octave>5</octave>
        </pitch>
        <duration>1</duration>
        <type>16th</type>
        <lyric number="1">
          <text>得</text>
        </lyric>
      </note>
      <note>
        <pitch>
          <step>D</step>
          <octave>5</octave>
        </pitch>
        <duration>2</duration>
        <type>eighth</type>
        <lyric number="1">
          <text>姑</text>
        </lyric>
        <lyric number="2">
          <text>姑</text>
        </lyric>
        <lyric number="3">
          <text>同</text>
        </lyric>
        <lyric number="4">
          <text>妹</text>
        </lyric>
      </note>
      <note>
        <pitch>
          <step>D</step>
          <octave>5</octave>
        </pitch>
        <duration>1</duration>
        <type>16th</type>
        <lyric number="1">
          <text>妹</text>
        </lyric>
        <lyric number="2">
          <text>妹</text>
        </lyric>
        <lyric number="3">
          <text>妺</text>
        </lyric>
      </note>
      <note>
        <pitch>
          <step>C</step>
          <octave>5</octave>
        </pitch>
        <duration>1</duration>
        <type>16th</type>
        <lyric number="1">
          <text>你</text>
        </lyric>
        <lyric number="2">
          <text>你</text>
        </lyric>
      </note>
    </measure>
    <measure number="8">
      <attributes>
        <time>
          <beats>4</beats>
          <beat-type>4</beat-type>
        </time>
      </attributes>
      <note>
        <pitch>
          <step>D</step>
          <octave>5</octave>
        </pitch>
        <duration>3</duration>
        <type>eighth</type>
        <dot />
        <lyric number="1">
          <text>开</text>
        </lyric>
        <lyric number="2">
          <text>开</text>
        </lyric>
        <lyric number="3">
          <text>倾</text>
        </lyric>
        <lyric number="4">
          <text>留</text>
        </lyric>
        <lyric number="5">
          <text>蹄</text>
        </lyric>
        <lyric number="6">
          <text>椗nan</text>
        </lyric>
      </note>
      <note>
        <pitch>
          <step>C</step>
          <octave>5</octave>
        </pitch>
        <duration>1</duration>
        <type>16th</type>
        <lyric number="1">
          <text>荸荠</text>
        </lyric>
        <lyric number="2">
          <text>nan</text>
        </lyric>
        <lyric number="3">
          <text>nannan</text>
        </lyric>
      </note>
      <note>
        <pitch>
          <step>G</step>
          <octave>4</octave>
        </pitch>
        <duration>2</duration>
        <type>eighth</type>
        <lyric number="1">
          <text>喉</text>
        </lyric>
        <lyric number="2">
          <text>喉</text>
        </lyric>
        <lyric number="3">
          <text>谈</text>
        </lyric>
        <lyric number="4">
          <text>情</text>
        </lyric>
        <lyric number="5">
          <text>削nan</text>
        </lyric>
        <lyric number="6">
          <text>蒂</text>
        </lyric>
      </note>
      <note>
        <pitch>
          <step>A</step>
          <octave>4</octave>
        </pitch>
        <duration>2</duration>
        <type>eighth</type>
        <lyric number="1">
          <text>啊</text>
        </lyric>
      </note>
    </measure>
    <measure number="9">
      <attributes>
        <time>
          <beats>4</beats>
          <beat-type>4</beat-type>
        </time>
      </attributes>
      <note>
        <pitch>
          <step>G</step>
          <octave>4</octave>
        </pitch>
        <duration>8</duration>
        <type>half</type>
        <lyric number="1">
          <text>哩nan</text>
        </lyric>
        <lyric number="2">
          <text>哩[未击中:[未击中:万]]</text>
        </lyric>
        <lyric number="3">
          <text>哩[未击中:[未击中:万]]</text>
        </lyric>
        <lyric number="4">
          <text>哩[未击中:[未击中:万]]</text>
        </lyric>
      </note>
    </measure>
  </part>
</score-partwise>
