<?xml version='1.0' encoding='utf-8'?>
<score-partwise version="3.1">
  <work>
    <work-title>页面_song_27</work-title>
  </work>
  <part-list>
    <score-part id="P1">
      <part-name>简谱旋律</part-name>
    </score-part>
  </part-list>
  <part id="P1">
    <measure number="1">
      <attributes>
        <divisions>4</divisions>
        <key>
          <fifths>0</fifths>
        </key>
        <time>
          <beats>4</beats>
          <beat-type>4</beat-type>
        </time>
      </attributes>
      <note>
        <pitch>
          <step>G</step>
          <octave>4</octave>
        </pitch>
        <duration>2</duration>
        <type>eighth</type>
        <lyric number="1">
          <text>正</text>
        </lyric>
      </note>
      <note>
        <pitch>
          <step>E</step>
          <octave>4</octave>
        </pitch>
        <duration>2</duration>
        <type>eighth</type>
        <lyric number="1">
          <text>月</text>
        </lyric>
      </note>
      <note>
        <pitch>
          <step>G</step>
          <octave>4</octave>
        </pitch>
        <duration>2</duration>
        <type>eighth</type>
        <lyric number="1">
          <text>采</text>
        </lyric>
      </note>
      <note>
        <pitch>
          <step>E</step>
          <octave>4</octave>
        </pitch>
        <duration>1</duration>
        <type>16th</type>
        <lyric number="1">
          <text>茶</text>
        </lyric>
      </note>
      <note>
        <pitch>
          <step>D</step>
          <octave>4</octave>
        </pitch>
        <duration>1</duration>
        <type>16th</type>
      </note>
    </measure>
    <measure number="2">
      <attributes>
        <time>
          <beats>4</beats>
          <beat-type>4</beat-type>
        </time>
      </attributes>
      <note>
        <pitch>
          <step>C</step>
          <octave>4</octave>
        </pitch>
        <duration>2</duration>
        <type>eighth</type>
        <lyric number="1">
          <text>未</text>
        </lyric>
      </note>
      <note>
        <pitch>
          <step>D</step>
          <octave>4</octave>
        </pitch>
        <duration>2</duration>
        <type>eighth</type>
        <lyric number="1">
          <text>有</text>
        </lyric>
      </note>
      <note>
        <pitch>
          <step>E</step>
          <octave>4</octave>
        </pitch>
        <duration>3</duration>
        <type>eighth</type>
        <dot />
        <tie type="stop" />
        <lyric number="1">
          <text>茶</text>
        </lyric>
      </note>
      <note>
        <pitch>
          <step>D</step>
          <octave>4</octave>
        </pitch>
        <duration>6</duration>
        <type>quarter</type>
        <dot />
      </note>
      <note>
        <pitch>
          <step>E</step>
          <octave>4</octave>
        </pitch>
        <duration>5</duration>
        <type>quarter</type>
        <tie type="start" />
      </note>
      <note>
        <pitch>
          <step>D</step>
          <octave>4</octave>
        </pitch>
        <duration>2</duration>
        <type>eighth</type>
        <lyric number="1">
          <text>茶</text>
        </lyric>
      </note>
    </measure>
    <measure number="3">
      <attributes>
        <time>
          <beats>4</beats>
          <beat-type>4</beat-type>
        </time>
      </attributes>
      <note>
        <pitch>
          <step>D</step>
          <octave>4</octave>
        </pitch>
        <duration>4</duration>
        <type>quarter</type>
        <lyric number="1">
          <text>园</text>
        </lyric>
      </note>
      <note>
        <pitch>
          <step>A</step>
          <octave>3</octave>
        </pitch>
        <duration>2</duration>
        <type>eighth</type>
        <lyric number="1">
          <text>树</text>
        </lyric>
      </note>
      <note>
        <pitch>
          <step>A</step>
          <octave>3</octave>
        </pitch>
        <duration>1</duration>
        <type>16th</type>
        <lyric number="1">
          <text>上</text>
        </lyric>
      </note>
      <note>
        <pitch>
          <step>A</step>
          <octave>3</octave>
        </pitch>
        <duration>1</duration>
        <type>16th</type>
        <lyric number="1">
          <text>nan</text>
        </lyric>
      </note>
    </measure>
    <measure number="4">
      <attributes>
        <time>
          <beats>4</beats>
          <beat-type>4</beat-type>
        </time>
      </attributes>
      <note>
        <pitch>
          <step>C</step>
          <octave>4</octave>
        </pitch>
        <duration>4</duration>
        <type>quarter</type>
        <lyric number="1">
          <text>正</text>
        </lyric>
      </note>
      <note>
        <pitch>
          <step>D</step>
          <octave>4</octave>
        </pitch>
        <duration>2</duration>
        <type>eighth</type>
        <lyric number="1">
          <text>开</text>
        </lyric>
      </note>
      <note>
        <pitch>
          <step>E</step>
          <octave>4</octave>
        </pitch>
        <duration>2</duration>
        <type>eighth</type>
      </note>
    </measure>
    <measure number="5">
      <attributes>
        <time>
          <beats>4</beats>
          <beat-type>4</beat-type>
        </time>
      </attributes>
      <note>
        <pitch>
          <step>D</step>
          <octave>4</octave>
        </pitch>
        <duration>1</duration>
        <type>16th</type>
        <lyric number="1">
          <text>花</text>
        </lyric>
      </note>
      <note>
        <pitch>
          <step>B</step>
          <octave>3</octave>
        </pitch>
        <duration>2</duration>
        <type>eighth</type>
      </note>
      <note>
        <pitch>
          <step>A</step>
          <octave>3</octave>
        </pitch>
        <duration>4</duration>
        <type>quarter</type>
      </note>
      <note>
        <pitch>
          <step>G</step>
          <octave>3</octave>
        </pitch>
        <duration>4</duration>
        <type>quarter</type>
      </note>
    </measure>
    <measure number="6">
      <attributes>
        <time>
          <beats>4</beats>
          <beat-type>4</beat-type>
        </time>
      </attributes>
      <note>
        <pitch>
          <step>A</step>
          <octave>3</octave>
        </pitch>
        <duration>2</duration>
        <type>eighth</type>
        <lyric number="1">
          <text>花</text>
        </lyric>
      </note>
      <note>
        <pitch>
          <step>E</step>
          <octave>3</octave>
        </pitch>
        <duration>2</duration>
        <type>eighth</type>
        <lyric number="1">
          <text>嫩</text>
        </lyric>
      </note>
      <note>
        <pitch>
          <step>E</step>
          <octave>3</octave>
        </pitch>
        <duration>2</duration>
        <type>eighth</type>
        <lyric number="1">
          <text>细</text>
        </lyric>
      </note>
      <note>
        <pitch>
          <step>C</step>
          <octave>4</octave>
        </pitch>
        <duration>2</duration>
        <type>eighth</type>
        <lyric number="1">
          <text>时</text>
        </lyric>
      </note>
      <note>
        <pitch>
          <step>A</step>
          <octave>3</octave>
        </pitch>
        <duration>2</duration>
        <type>eighth</type>
      </note>
      <note>
        <pitch>
          <step>D</step>
          <octave>4</octave>
        </pitch>
        <duration>1</duration>
        <type>16th</type>
        <lyric number="1">
          <text>唔</text>
        </lyric>
      </note>
      <note>
        <pitch>
          <step>D</step>
          <octave>4</octave>
        </pitch>
        <duration>1</duration>
        <type>16th</type>
        <lyric number="1">
          <text>舍</text>
        </lyric>
      </note>
    </measure>
    <measure number="7">
      <attributes>
        <time>
          <beats>4</beats>
          <beat-type>4</beat-type>
        </time>
      </attributes>
      <note>
        <pitch>
          <step>G</step>
          <octave>3</octave>
        </pitch>
        <duration>3</duration>
        <type>eighth</type>
        <dot />
        <lyric number="1">
          <text>摘</text>
        </lyric>
      </note>
      <note>
        <pitch>
          <step>A</step>
          <octave>3</octave>
        </pitch>
        <duration>1</duration>
        <type>16th</type>
      </note>
      <note>
        <pitch>
          <step>C</step>
          <octave>4</octave>
        </pitch>
        <duration>4</duration>
        <type>quarter</type>
        <lyric number="1">
          <text>呀</text>
        </lyric>
      </note>
    </measure>
    <measure number="8">
      <attributes>
        <time>
          <beats>4</beats>
          <beat-type>4</beat-type>
        </time>
      </attributes>
      <note>
        <pitch>
          <step>D</step>
          <octave>4</octave>
        </pitch>
        <duration>3</duration>
        <type>eighth</type>
        <dot />
        <lyric number="1">
          <text>同</text>
        </lyric>
      </note>
      <note>
        <pitch>
          <step>D</step>
          <octave>4</octave>
        </pitch>
        <duration>6</duration>
        <type>quarter</type>
        <dot />
        <tie type="stop" />
        <lyric number="1">
          <text>群</text>
        </lyric>
      </note>
      <note>
        <pitch>
          <step>D</step>
          <octave>4</octave>
        </pitch>
        <duration>8</duration>
        <type>half</type>
        <tie type="start" />
      </note>
      <note>
        <pitch>
          <step>D</step>
          <octave>4</octave>
        </pitch>
        <duration>1</duration>
        <type>16th</type>
        <lyric number="1">
          <text>姐</text>
        </lyric>
      </note>
      <note>
        <pitch>
          <step>A</step>
          <octave>3</octave>
        </pitch>
        <duration>1</duration>
        <type>16th</type>
        <lyric number="1">
          <text>妹</text>
        </lyric>
      </note>
    </measure>
    <measure number="9">
      <attributes>
        <time>
          <beats>4</beats>
          <beat-type>4</beat-type>
        </time>
      </attributes>
      <note>
        <pitch>
          <step>C</step>
          <octave>4</octave>
        </pitch>
        <duration>4</duration>
        <type>quarter</type>
        <lyric number="1">
          <text>各</text>
        </lyric>
      </note>
      <note>
        <pitch>
          <step>D</step>
          <octave>4</octave>
        </pitch>
        <duration>4</duration>
        <type>quarter</type>
        <lyric number="1">
          <text>回</text>
        </lyric>
      </note>
    </measure>
    <measure number="10">
      <attributes>
        <time>
          <beats>4</beats>
          <beat-type>4</beat-type>
        </time>
      </attributes>
      <note>
        <pitch>
          <step>B</step>
          <octave>3</octave>
        </pitch>
        <duration>2</duration>
        <type>eighth</type>
        <lyric number="1">
          <text>冢</text>
        </lyric>
      </note>
      <note>
        <pitch>
          <step>A</step>
          <octave>3</octave>
        </pitch>
        <duration>2</duration>
        <type>eighth</type>
      </note>
      <note>
        <pitch>
          <step>G</step>
          <octave>3</octave>
        </pitch>
        <duration>4</duration>
        <type>quarter</type>
      </note>
      <note>
        <rest />
        <duration>4</duration>
        <type>quarter</type>
      </note>
    </measure>
    <measure number="11">
      <attributes>
        <time>
          <beats>4</beats>
          <beat-type>4</beat-type>
        </time>
      </attributes>
      <note>
        <pitch>
          <step>E</step>
          <octave>4</octave>
        </pitch>
        <duration>1</duration>
        <type>16th</type>
        <lyric number="1">
          <text>二</text>
        </lyric>
      </note>
      <note>
        <pitch>
          <step>E</step>
          <octave>4</octave>
        </pitch>
        <duration>2</duration>
        <type>eighth</type>
        <lyric number="1">
          <text>月</text>
        </lyric>
      </note>
      <note>
        <pitch>
          <step>G</step>
          <octave>4</octave>
        </pitch>
        <duration>2</duration>
        <type>eighth</type>
        <lyric number="1">
          <text>采</text>
        </lyric>
      </note>
      <note>
        <pitch>
          <step>E</step>
          <octave>4</octave>
        </pitch>
        <duration>2</duration>
        <type>eighth</type>
        <lyric number="1">
          <text>茶</text>
        </lyric>
      </note>
    </measure>
    <measure number="12">
      <attributes>
        <time>
          <beats>4</beats>
          <beat-type>4</beat-type>
        </time>
      </attributes>
      <note>
        <pitch>
          <step>E</step>
          <octave>4</octave>
        </pitch>
        <duration>2</duration>
        <type>eighth</type>
        <lyric number="1">
          <text>正</text>
        </lyric>
      </note>
      <note>
        <pitch>
          <step>C</step>
          <octave>4</octave>
        </pitch>
        <duration>2</duration>
        <type>eighth</type>
        <lyric number="1">
          <text>合</text>
        </lyric>
      </note>
      <note>
        <pitch>
          <step>E</step>
          <octave>4</octave>
        </pitch>
        <duration>2</duration>
        <type>eighth</type>
        <tie type="stop" />
        <lyric number="1">
          <text>时</text>
        </lyric>
      </note>
      <note>
        <pitch>
          <step>D</step>
          <octave>4</octave>
        </pitch>
        <duration>4</duration>
        <type>quarter</type>
      </note>
      <note>
        <pitch>
          <step>E</step>
          <octave>4</octave>
        </pitch>
        <duration>4</duration>
        <type>quarter</type>
        <tie type="start" />
      </note>
    </measure>
    <measure number="13">
      <attributes>
        <time>
          <beats>4</beats>
          <beat-type>4</beat-type>
        </time>
      </attributes>
      <note>
        <pitch>
          <step>D</step>
          <octave>4</octave>
        </pitch>
        <duration>2</duration>
        <type>eighth</type>
        <lyric number="1">
          <text>双</text>
        </lyric>
      </note>
      <note>
        <pitch>
          <step>D</step>
          <octave>4</octave>
        </pitch>
        <duration>1</duration>
        <type>16th</type>
        <lyric number="1">
          <text>手</text>
        </lyric>
      </note>
      <note>
        <pitch>
          <step>C</step>
          <octave>4</octave>
        </pitch>
        <duration>1</duration>
        <type>16th</type>
      </note>
      <note>
        <pitch>
          <step>C</step>
          <octave>4</octave>
        </pitch>
        <duration>2</duration>
        <type>eighth</type>
        <lyric number="1">
          <text>携</text>
        </lyric>
      </note>
      <note>
        <pitch>
          <step>D</step>
          <octave>4</octave>
        </pitch>
        <duration>2</duration>
        <type>eighth</type>
        <lyric number="1">
          <text>篮</text>
        </lyric>
      </note>
    </measure>
    <measure number="14">
      <attributes>
        <time>
          <beats>4</beats>
          <beat-type>4</beat-type>
        </time>
      </attributes>
      <note>
        <pitch>
          <step>D</step>
          <octave>4</octave>
        </pitch>
        <duration>2</duration>
        <type>eighth</type>
        <lyric number="1">
          <text>挂</text>
        </lyric>
      </note>
      <note>
        <pitch>
          <step>C</step>
          <octave>4</octave>
        </pitch>
        <duration>2</duration>
        <type>eighth</type>
      </note>
      <note>
        <pitch>
          <step>G</step>
          <octave>3</octave>
        </pitch>
        <duration>2</duration>
        <type>eighth</type>
        <lyric number="1">
          <text>树</text>
        </lyric>
      </note>
      <note>
        <pitch>
          <step>A</step>
          <octave>3</octave>
        </pitch>
        <duration>2</duration>
        <type>eighth</type>
      </note>
    </measure>
    <measure number="15">
      <attributes>
        <time>
          <beats>4</beats>
          <beat-type>4</beat-type>
        </time>
      </attributes>
      <note>
        <pitch>
          <step>B</step>
          <octave>3</octave>
        </pitch>
        <duration>2</duration>
        <type>eighth</type>
        <lyric number="1">
          <text>枝</text>
        </lyric>
      </note>
      <note>
        <pitch>
          <step>A</step>
          <octave>3</octave>
        </pitch>
        <duration>2</duration>
        <type>eighth</type>
      </note>
      <note>
        <pitch>
          <step>G</step>
          <octave>3</octave>
        </pitch>
        <duration>4</duration>
        <type>quarter</type>
      </note>
      <note>
        <rest />
        <duration>4</duration>
        <type>quarter</type>
      </note>
    </measure>
    <measure number="16">
      <attributes>
        <time>
          <beats>4</beats>
          <beat-type>4</beat-type>
        </time>
      </attributes>
      <note>
        <pitch>
          <step>G</step>
          <octave>4</octave>
        </pitch>
        <duration>2</duration>
        <type>eighth</type>
        <lyric number="1">
          <text>左</text>
        </lyric>
        <lyric number="2">
          <text>唔</text>
        </lyric>
        <lyric number="3">
          <text>不</text>
        </lyric>
      </note>
      <note>
        <pitch>
          <step>G</step>
          <octave>4</octave>
        </pitch>
        <duration>2</duration>
        <type>eighth</type>
        <lyric number="1">
          <text>手</text>
        </lyric>
        <lyric number="2">
          <text>舍舍</text>
        </lyric>
        <lyric number="3">
          <text>脱离</text>
        </lyric>
      </note>
      <note>
        <pitch>
          <step>E</step>
          <octave>4</octave>
        </pitch>
        <duration>1</duration>
        <type>16th</type>
        <lyric number="1">
          <text>攀</text>
        </lyric>
        <lyric number="2">
          <text>三</text>
        </lyric>
        <lyric number="3">
          <text>茶</text>
        </lyric>
        <lyric number="4">
          <text>哥</text>
        </lyric>
        <lyric number="5">
          <text>二</text>
        </lyric>
        <lyric number="6">
          <text>四</text>
        </lyric>
        <lyric number="7">
          <text>雨</text>
        </lyric>
        <lyric number="8">
          <text>两</text>
        </lyric>
        <lyric number="9">
          <text>nan</text>
        </lyric>
        <lyric number="10">
          <text>五</text>
        </lyric>
        <lyric number="11">
          <text>对nan</text>
        </lyric>
        <lyric number="12">
          <text>男</text>
        </lyric>
        <lyric number="13">
          <text>茶</text>
        </lyric>
        <lyric number="14">
          <text>六</text>
        </lyric>
        <lyric number="15">
          <text>茶</text>
        </lyric>
        <lyric number="16">
          <text>园</text>
        </lyric>
        <lyric number="17">
          <text>有</text>
        </lyric>
        <lyric number="18">
          <text>十</text>
        </lyric>
        <lyric number="19">
          <text>十</text>
        </lyric>
        <lyric number="20">
          <text>等</text>
        </lyric>
        <lyric number="21">
          <text>茶</text>
        </lyric>
        <lyric number="22">
          <text>nan</text>
        </lyric>
        <lyric number="23">
          <text>不</text>
        </lyric>
      </note>
      <note>
        <pitch>
          <step>E</step>
          <octave>4</octave>
        </pitch>
        <duration>1</duration>
        <type>16th</type>
        <lyric number="1">
          <text>枝</text>
        </lyric>
        <lyric number="2">
          <text>月</text>
        </lyric>
        <lyric number="3">
          <text>园</text>
        </lyric>
        <lyric number="4">
          <text>递</text>
        </lyric>
        <lyric number="5">
          <text>人</text>
        </lyric>
        <lyric number="6">
          <text>月</text>
        </lyric>
        <lyric number="7">
          <text>水</text>
        </lyric>
        <lyric number="8">
          <text>头</text>
        </lyric>
        <lyric number="9">
          <text>间</text>
        </lyric>
        <lyric number="10">
          <text>月</text>
        </lyric>
        <lyric number="11">
          <text>对</text>
        </lyric>
        <lyric number="12">
          <text>男</text>
        </lyric>
        <lyric number="13">
          <text>花</text>
        </lyric>
        <lyric number="14">
          <text>月</text>
        </lyric>
        <lyric number="15">
          <text>园</text>
        </lyric>
        <lyric number="16">
          <text>內</text>
        </lyric>
        <lyric number="17">
          <text>人</text>
        </lyric>
        <lyric number="18">
          <text>一</text>
        </lyric>
        <lyric number="19">
          <text>个</text>
        </lyric>
        <lyric number="20">
          <text>待</text>
        </lyric>
        <lyric number="21">
          <text>园</text>
        </lyric>
        <lyric number="22">
          <text>得nan</text>
        </lyric>
        <lyric number="23">
          <text>开[未击中:礟]</text>
        </lyric>
      </note>
      <note>
        <pitch>
          <step>D</step>
          <octave>4</octave>
        </pitch>
        <duration>1</duration>
        <type>16th</type>
        <lyric number="1">
          <text>采</text>
        </lyric>
        <lyric number="2">
          <text>树</text>
        </lyric>
        <lyric number="3">
          <text>茶</text>
        </lyric>
        <lyric number="4">
          <text>递</text>
        </lyric>
        <lyric number="5">
          <text>采茶</text>
        </lyric>
        <lyric number="6">
          <text>淋淋</text>
        </lyric>
        <lyric number="7">
          <text>织岀</text>
        </lyric>
        <lyric number="8">
          <text>织岀</text>
        </lyric>
        <lyric number="9">
          <text>采茶</text>
        </lyric>
        <lyric number="10">
          <text>金龙</text>
        </lyric>
        <lyric number="11">
          <text>女女</text>
        </lyric>
        <lyric number="12">
          <text>递上</text>
        </lyric>
        <lyric number="13">
          <text>采茶</text>
        </lyric>
        <lyric number="14">
          <text>不脱</text>
        </lyric>
        <lyric number="15">
          <text>采茶</text>
        </lyric>
        <lyric number="16">
          <text>活我</text>
        </lyric>
        <lyric number="17">
          <text>月</text>
        </lyric>
        <lyric number="18">
          <text>茶</text>
        </lyric>
        <lyric number="19">
          <text>明</text>
        </lyric>
        <lyric number="20">
          <text>姐</text>
        </lyric>
      </note>
      <note>
        <pitch>
          <step>C</step>
          <octave>4</octave>
        </pitch>
        <duration>1</duration>
        <type>16th</type>
        <lyric number="1">
          <text>茶是清明七</text>
        </lyric>
        <lyric number="2">
          <text>上挂银瓶两</text>
        </lyric>
        <lyric number="3">
          <text>时妹递酒姑</text>
        </lyric>
        <lyric number="4">
          <text>酒贺清明手</text>
        </lyric>
        <lyric number="5">
          <text>雨水深</text>
        </lyric>
        <lyric number="6">
          <text>织手巾茶</text>
        </lyric>
        <lyric number="7">
          <text>茶花朵一</text>
        </lyric>
        <lyric number="8">
          <text>采茶人细</text>
        </lyric>
        <lyric number="9">
          <text>是龙舟</text>
        </lyric>
        <lyric number="10">
          <text>岀海游茶</text>
        </lyric>
        <lyric number="11">
          <text>多快活菊</text>
        </lyric>
        <lyric number="12">
          <text>贺龙舟勿</text>
        </lyric>
        <lyric number="13">
          <text>茶叶乌</text>
        </lyric>
        <lyric number="14">
          <text>[未击中:麤]采茶</text>
        </lyric>
        <lyric number="15">
          <text>园外卖仙</text>
        </lyric>
        <lyric number="16">
          <text>采茶粗未</text>
        </lyric>
        <lyric number="17">
          <text>采茶是立</text>
        </lyric>
        <lyric number="18">
          <text>园九个</text>
        </lyric>
        <lyric number="19">
          <text>年二三月</text>
        </lyric>
        <lyric number="20">
          <text>妺正nan相</text>
        </lyric>
      </note>
    </measure>
    <measure number="17">
      <attributes>
        <time>
          <beats>4</beats>
          <beat-type>4</beat-type>
        </time>
      </attributes>
      <note>
        <pitch>
          <step>A</step>
          <octave>3</octave>
        </pitch>
        <duration>2</duration>
        <type>eighth</type>
        <lyric number="1">
          <text>右</text>
        </lyric>
        <lyric number="2">
          <text>姑茶</text>
        </lyric>
        <lyric number="3">
          <text>冬</text>
        </lyric>
        <lyric number="4">
          <text>nan</text>
        </lyric>
        <lyric number="5">
          <text>逢</text>
        </lyric>
      </note>
      <note>
        <pitch>
          <step>D</step>
          <octave>4</octave>
        </pitch>
        <duration>2</duration>
        <type>eighth</type>
        <lyric number="1">
          <text>手</text>
        </lyric>
      </note>
      <note>
        <pitch>
          <step>G</step>
          <octave>3</octave>
        </pitch>
        <duration>2</duration>
        <type>eighth</type>
        <lyric number="1">
          <text>摘</text>
        </lyric>
      </note>
      <note>
        <pitch>
          <step>A</step>
          <octave>3</octave>
        </pitch>
        <duration>2</duration>
        <type>eighth</type>
      </note>
      <note>
        <pitch>
          <step>C</step>
          <octave>4</octave>
        </pitch>
        <duration>4</duration>
        <type>quarter</type>
        <lyric number="1">
          <text>啦</text>
        </lyric>
      </note>
    </measure>
    <measure number="18">
      <attributes>
        <time>
          <beats>4</beats>
          <beat-type>4</beat-type>
        </time>
      </attributes>
      <note>
        <pitch>
          <step>C</step>
          <octave>4</octave>
        </pitch>
        <duration>2</duration>
        <type>eighth</type>
        <lyric number="1">
          <text>讲</text>
        </lyric>
      </note>
      <note>
        <pitch>
          <step>D</step>
          <octave>4</octave>
        </pitch>
        <duration>2</duration>
        <type>eighth</type>
        <lyric number="1">
          <text>笑</text>
        </lyric>
      </note>
      <note>
        <pitch>
          <step>D</step>
          <octave>4</octave>
        </pitch>
        <duration>2</duration>
        <type>eighth</type>
        <lyric number="1">
          <text>不</text>
        </lyric>
      </note>
      <note>
        <pitch>
          <step>D</step>
          <octave>4</octave>
        </pitch>
        <duration>2</duration>
        <type>eighth</type>
        <lyric number="1">
          <text>知</text>
        </lyric>
        <lyric number="2">
          <text>nannan</text>
        </lyric>
        <lyric number="3">
          <text>nan九</text>
        </lyric>
        <lyric number="4">
          <text>nan十</text>
        </lyric>
        <lyric number="5">
          <text>nan</text>
        </lyric>
        <lyric number="6">
          <text>圩nan</text>
        </lyric>
        <lyric number="7">
          <text>正才</text>
        </lyric>
      </note>
    </measure>
    <measure number="19">
      <attributes>
        <time>
          <beats>4</beats>
          <beat-type>4</beat-type>
        </time>
      </attributes>
      <note>
        <pitch>
          <step>D</step>
          <octave>4</octave>
        </pitch>
        <duration>2</duration>
        <type>eighth</type>
        <lyric number="1">
          <text>茶</text>
        </lyric>
        <lyric number="2">
          <text>月</text>
        </lyric>
        <lyric number="3">
          <text>个</text>
        </lyric>
        <lyric number="4">
          <text>nan嫂</text>
        </lyric>
        <lyric number="5">
          <text>抓</text>
        </lyric>
        <lyric number="6">
          <text>月</text>
        </lyric>
        <lyric number="7">
          <text>园</text>
        </lyric>
        <lyric number="8">
          <text>日</text>
        </lyric>
        <lyric number="9">
          <text>茶</text>
        </lyric>
        <lyric number="10">
          <text>月</text>
        </lyric>
        <lyric number="11">
          <text>园</text>
        </lyric>
        <lyric number="12">
          <text>花</text>
        </lyric>
        <lyric number="13">
          <text>来</text>
        </lyric>
        <lyric number="14">
          <text>月</text>
        </lyric>
        <lyric number="15">
          <text>园</text>
        </lyric>
        <lyric number="16">
          <text>冢</text>
        </lyric>
        <lyric number="17">
          <text>知</text>
        </lyric>
        <lyric number="18">
          <text>十二</text>
        </lyric>
        <lyric number="19">
          <text>冢家</text>
        </lyric>
        <lyric number="20">
          <text>哥递</text>
        </lyric>
        <lyric number="21">
          <text>二人</text>
        </lyric>
        <lyric number="22">
          <text>nan集</text>
        </lyric>
        <lyric number="23">
          <text>再</text>
        </lyric>
      </note>
      <note>
        <pitch>
          <step>B</step>
          <octave>3</octave>
        </pitch>
        <duration>2</duration>
        <type>eighth</type>
        <lyric number="1">
          <text>采茶</text>
        </lyric>
        <lyric number="2">
          <text>茶园</text>
        </lyric>
        <lyric number="3">
          <text>相携</text>
        </lyric>
        <lyric number="4">
          <text>茶叶</text>
        </lyric>
        <lyric number="5">
          <text>采茶</text>
        </lyric>
        <lyric number="6">
          <text>不脱</text>
        </lyric>
        <lyric number="7">
          <text>采茶</text>
        </lyric>
        <lyric number="8">
          <text>到手</text>
        </lyric>
        <lyric number="9">
          <text>采茶</text>
        </lyric>
        <lyric number="10">
          <text>内外</text>
        </lyric>
        <lyric number="11">
          <text>美酒</text>
        </lyric>
        <lyric number="12">
          <text>搅乱</text>
        </lyric>
        <lyric number="13">
          <text>采茶</text>
        </lyric>
        <lyric number="14">
          <text>內外</text>
        </lyric>
        <lyric number="15">
          <text>归去</text>
        </lyric>
        <lyric number="16">
          <text>nannan</text>
        </lyric>
        <lyric number="17">
          <text>月采</text>
        </lyric>
        <lyric number="18">
          <text>户户</text>
        </lyric>
        <lyric number="19">
          <text>茶时</text>
        </lyric>
        <lyric number="20">
          <text>递酒</text>
        </lyric>
        <lyric number="21">
          <text>市</text>
        </lyric>
      </note>
      <note>
        <pitch>
          <step>G</step>
          <octave>3</octave>
        </pitch>
        <duration>2</duration>
        <type>eighth</type>
        <lyric number="1">
          <text>满</text>
        </lyric>
        <lyric number="2">
          <text>是</text>
        </lyric>
        <lyric number="3">
          <text>一</text>
        </lyric>
        <lyric number="4">
          <text>圩</text>
        </lyric>
        <lyric number="5">
          <text>乐</text>
        </lyric>
        <lyric number="6">
          <text>茶</text>
        </lyric>
        <lyric number="7">
          <text>采</text>
        </lyric>
        <lyric number="8">
          <text>三</text>
        </lyric>
        <lyric number="9">
          <text>转</text>
        </lyric>
        <lyric number="10">
          <text>是</text>
        </lyric>
        <lyric number="11">
          <text>好</text>
        </lyric>
        <lyric number="12">
          <text>同</text>
        </lyric>
        <lyric number="13">
          <text>我</text>
        </lyric>
        <lyric number="14">
          <text>是</text>
        </lyric>
        <lyric number="15">
          <text>会</text>
        </lyric>
        <lyric number="16">
          <text>挑</text>
        </lyric>
        <lyric number="17">
          <text>得</text>
        </lyric>
        <lyric number="18">
          <text>茶</text>
        </lyric>
        <lyric number="19">
          <text>喜</text>
        </lyric>
        <lyric number="20">
          <text>妺</text>
        </lyric>
        <lyric number="21">
          <text>贺</text>
        </lyric>
      </note>
      <note>
        <pitch>
          <step>A</step>
          <octave>3</octave>
        </pitch>
        <duration>2</duration>
        <type>eighth</type>
        <lyric number="1">
          <text>立nan</text>
        </lyric>
        <lyric number="2">
          <text>个收</text>
        </lyric>
        <lyric number="3">
          <text>nan上卖</text>
        </lyric>
        <lyric number="4">
          <text>悠悠</text>
        </lyric>
        <lyric number="5">
          <text>叶黄</text>
        </lyric>
        <lyric number="6">
          <text>茶娘</text>
        </lyric>
        <lyric number="7">
          <text>五两</text>
        </lyric>
        <lyric number="8">
          <text>回乡</text>
        </lyric>
        <lyric number="9">
          <text>重阳</text>
        </lyric>
        <lyric number="10">
          <text>清凉</text>
        </lyric>
        <lyric number="11">
          <text>妹饮</text>
        </lyric>
        <lyric number="12">
          <text>心肠</text>
        </lyric>
        <lyric number="13">
          <text>冷天</text>
        </lyric>
        <lyric number="14">
          <text>神仙</text>
        </lyric>
        <lyric number="15">
          <text>源洞</text>
        </lyric>
        <lyric number="16">
          <text>相逄</text>
        </lyric>
        <lyric number="17">
          <text>又一年</text>
        </lyric>
        <lyric number="18">
          <text>欢天</text>
        </lyric>
        <lyric number="19">
          <text>递酒</text>
        </lyric>
        <lyric number="20">
          <text>新年</text>
        </lyric>
      </note>
    </measure>
    <measure number="20">
      <attributes>
        <time>
          <beats>4</beats>
          <beat-type>4</beat-type>
        </time>
      </attributes>
      <note>
        <pitch>
          <step>B</step>
          <octave>3</octave>
        </pitch>
        <duration>2</duration>
        <type>eighth</type>
        <lyric number="1">
          <text>时</text>
        </lyric>
      </note>
      <note>
        <pitch>
          <step>A</step>
          <octave>3</octave>
        </pitch>
        <duration>2</duration>
        <type>eighth</type>
      </note>
      <note>
        <pitch>
          <step>G</step>
          <octave>3</octave>
        </pitch>
        <duration>4</duration>
        <type>quarter</type>
      </note>
      <note>
        <rest />
        <duration>4</duration>
        <type>quarter</type>
      </note>
    </measure>
  </part>
</score-partwise>
