<?xml version='1.0' encoding='utf-8'?>
<score-partwise version="3.1">
  <work>
    <work-title>页面_song_483</work-title>
  </work>
  <part-list>
    <score-part id="P1">
      <part-name>简谱旋律</part-name>
    </score-part>
  </part-list>
  <part id="P1">
    <measure number="1">
      <attributes>
        <divisions>4</divisions>
        <key>
          <fifths>0</fifths>
        </key>
        <time>
          <beats>4</beats>
          <beat-type>4</beat-type>
        </time>
      </attributes>
      <note>
        <pitch>
          <step>E</step>
          <octave>4</octave>
        </pitch>
        <duration>2</duration>
        <type>eighth</type>
        <lyric number="1">
          <text>睡</text>
        </lyric>
        <lyric number="2">
          <text>看</text>
        </lyric>
      </note>
      <note>
        <pitch>
          <step>B</step>
          <octave>3</octave>
        </pitch>
        <duration>2</duration>
        <type>eighth</type>
        <lyric number="1">
          <text>眼</text>
        </lyric>
        <lyric number="2">
          <text>天</text>
        </lyric>
      </note>
      <note>
        <pitch>
          <step>D</step>
          <octave>4</octave>
        </pitch>
        <duration>2</duration>
        <type>eighth</type>
        <lyric number="1">
          <text>唔</text>
        </lyric>
        <lyric number="2">
          <text>唔</text>
        </lyric>
      </note>
      <note>
        <pitch>
          <step>E</step>
          <octave>4</octave>
        </pitch>
        <duration>2</duration>
        <type>eighth</type>
        <lyric number="1">
          <text>着</text>
        </lyric>
        <lyric number="2">
          <text>象[未击中:亻]</text>
        </lyric>
      </note>
      <note>
        <pitch>
          <step>D</step>
          <octave>4</octave>
        </pitch>
        <duration>2</duration>
        <type>eighth</type>
        <lyric number="1">
          <text>就</text>
        </lyric>
        <lyric number="2">
          <text>就</text>
        </lyric>
      </note>
    </measure>
    <measure number="2">
      <attributes>
        <time>
          <beats>4</beats>
          <beat-type>4</beat-type>
        </time>
      </attributes>
      <note>
        <pitch>
          <step>C</step>
          <octave>4</octave>
        </pitch>
        <duration>2</duration>
        <type>eighth</type>
        <lyric number="1">
          <text>起</text>
        </lyric>
        <lyric number="2">
          <text>落</text>
        </lyric>
      </note>
      <note>
        <pitch>
          <step>D</step>
          <octave>4</octave>
        </pitch>
        <duration>2</duration>
        <type>eighth</type>
        <lyric number="1">
          <text>身</text>
        </lyric>
        <lyric number="2">
          <text>水nan</text>
        </lyric>
      </note>
      <note>
        <pitch>
          <step>D</step>
          <octave>4</octave>
        </pitch>
        <duration>1</duration>
        <type>16th</type>
        <lyric number="1">
          <text>啊</text>
        </lyric>
      </note>
      <note>
        <pitch>
          <step>C</step>
          <octave>4</octave>
        </pitch>
        <duration>1</duration>
        <type>16th</type>
      </note>
      <note>
        <pitch>
          <step>A</step>
          <octave>3</octave>
        </pitch>
        <duration>2</duration>
        <type>eighth</type>
      </note>
    </measure>
    <measure number="3">
      <attributes>
        <time>
          <beats>4</beats>
          <beat-type>4</beat-type>
        </time>
      </attributes>
      <note>
        <pitch>
          <step>A</step>
          <octave>3</octave>
        </pitch>
        <duration>4</duration>
        <type>quarter</type>
        <lyric number="1">
          <text>坐</text>
        </lyric>
        <lyric number="2">
          <text>天</text>
        </lyric>
      </note>
      <note>
        <pitch>
          <step>D</step>
          <octave>4</octave>
        </pitch>
        <duration>2</duration>
        <type>eighth</type>
      </note>
      <note>
        <pitch>
          <step>E</step>
          <octave>4</octave>
        </pitch>
        <duration>2</duration>
        <type>eighth</type>
      </note>
    </measure>
    <measure number="4">
      <attributes>
        <time>
          <beats>4</beats>
          <beat-type>4</beat-type>
        </time>
      </attributes>
      <note>
        <pitch>
          <step>B</step>
          <octave>3</octave>
        </pitch>
        <duration>2</duration>
        <type>eighth</type>
        <lyric number="1">
          <text>打</text>
        </lyric>
        <lyric number="2">
          <text>看</text>
        </lyric>
      </note>
      <note>
        <pitch>
          <step>D</step>
          <octave>4</octave>
        </pitch>
        <duration>2</duration>
        <type>eighth</type>
        <lyric number="1">
          <text>开</text>
        </lyric>
        <lyric number="2">
          <text>妺</text>
        </lyric>
      </note>
      <note>
        <pitch>
          <step>E</step>
          <octave>4</octave>
        </pitch>
        <duration>2</duration>
        <type>eighth</type>
        <lyric number="1">
          <text>大</text>
        </lyric>
        <lyric number="2">
          <text>唔</text>
        </lyric>
      </note>
      <note>
        <pitch>
          <step>D</step>
          <octave>4</octave>
        </pitch>
        <duration>2</duration>
        <type>eighth</type>
        <lyric number="1">
          <text>门</text>
        </lyric>
        <lyric number="2">
          <text>系</text>
        </lyric>
      </note>
    </measure>
    <measure number="5">
      <attributes>
        <time>
          <beats>4</beats>
          <beat-type>4</beat-type>
        </time>
      </attributes>
      <note>
        <pitch>
          <step>D</step>
          <octave>4</octave>
        </pitch>
        <duration>2</duration>
        <type>eighth</type>
        <lyric number="1">
          <text>哪</text>
        </lyric>
        <lyric number="2">
          <text>哪</text>
        </lyric>
      </note>
      <note>
        <pitch>
          <step>C</step>
          <octave>4</octave>
        </pitch>
        <duration>2</duration>
        <type>eighth</type>
      </note>
      <note>
        <pitch>
          <step>A</step>
          <octave>3</octave>
        </pitch>
        <duration>4</duration>
        <type>quarter</type>
      </note>
      <note>
        <rest />
        <duration>2</duration>
        <type>eighth</type>
      </note>
      <note>
        <pitch>
          <step>A</step>
          <octave>3</octave>
        </pitch>
        <duration>2</duration>
        <type>eighth</type>
        <lyric number="1">
          <text>个</text>
        </lyric>
        <lyric number="2">
          <text>个</text>
        </lyric>
      </note>
    </measure>
    <measure number="6">
      <attributes>
        <time>
          <beats>4</beats>
          <beat-type>4</beat-type>
        </time>
      </attributes>
      <note>
        <pitch>
          <step>A</step>
          <octave>3</octave>
        </pitch>
        <duration>4</duration>
        <type>quarter</type>
        <lyric number="1">
          <text>等</text>
        </lyric>
        <lyric number="2">
          <text>哥</text>
        </lyric>
      </note>
      <note>
        <pitch>
          <step>D</step>
          <octave>4</octave>
        </pitch>
        <duration>2</duration>
        <type>eighth</type>
      </note>
      <note>
        <pitch>
          <step>E</step>
          <octave>4</octave>
        </pitch>
        <duration>2</duration>
        <type>eighth</type>
      </note>
    </measure>
    <measure number="7">
      <attributes>
        <time>
          <beats>4</beats>
          <beat-type>4</beat-type>
        </time>
      </attributes>
      <note>
        <pitch>
          <step>D</step>
          <octave>4</octave>
        </pitch>
        <duration>2</duration>
        <type>eighth</type>
        <lyric number="1">
          <text>阿</text>
        </lyric>
        <lyric number="2">
          <text>姻</text>
        </lyric>
      </note>
      <note>
        <pitch>
          <step>E</step>
          <octave>4</octave>
        </pitch>
        <duration>2</duration>
        <type>eighth</type>
      </note>
      <note>
        <pitch>
          <step>D</step>
          <octave>4</octave>
        </pitch>
        <duration>1</duration>
        <type>16th</type>
        <lyric number="1">
          <text>nan</text>
        </lyric>
        <lyric number="2">
          <text>[未击中:呀]</text>
        </lyric>
      </note>
      <note>
        <pitch>
          <step>C</step>
          <octave>4</octave>
        </pitch>
        <duration>1</duration>
        <type>16th</type>
      </note>
      <note>
        <pitch>
          <step>A</step>
          <octave>3</octave>
        </pitch>
        <duration>2</duration>
        <type>eighth</type>
      </note>
    </measure>
    <measure number="8">
      <attributes>
        <time>
          <beats>4</beats>
          <beat-type>4</beat-type>
        </time>
      </attributes>
      <note>
        <pitch>
          <step>A</step>
          <octave>3</octave>
        </pitch>
        <duration>8</duration>
        <type>half</type>
        <lyric number="1">
          <text>哥</text>
        </lyric>
        <lyric number="2">
          <text>缘</text>
        </lyric>
      </note>
    </measure>
    <measure number="9">
      <attributes>
        <time>
          <beats>4</beats>
          <beat-type>4</beat-type>
        </time>
      </attributes>
      <note>
        <pitch>
          <step>B</step>
          <octave>3</octave>
        </pitch>
        <duration>2</duration>
        <type>eighth</type>
        <lyric number="1">
          <text>等</text>
        </lyric>
        <lyric number="2">
          <text>系</text>
        </lyric>
      </note>
      <note>
        <pitch>
          <step>D</step>
          <octave>4</octave>
        </pitch>
        <duration>2</duration>
        <type>eighth</type>
        <lyric number="1">
          <text>来</text>
        </lyric>
        <lyric number="2">
          <text>哥</text>
        </lyric>
      </note>
      <note>
        <pitch>
          <step>E</step>
          <octave>4</octave>
        </pitch>
        <duration>2</duration>
        <type>eighth</type>
        <lyric number="1">
          <text>就</text>
        </lyric>
        <lyric number="2">
          <text>姻</text>
        </lyric>
      </note>
      <note>
        <pitch>
          <step>B</step>
          <octave>3</octave>
        </pitch>
        <duration>2</duration>
        <type>eighth</type>
        <lyric number="1">
          <text>等</text>
        </lyric>
        <lyric number="2">
          <text>缘</text>
        </lyric>
      </note>
      <note>
        <pitch>
          <step>D</step>
          <octave>4</octave>
        </pitch>
        <duration>2</duration>
        <type>eighth</type>
        <lyric number="1">
          <text>去</text>
        </lyric>
        <lyric number="2">
          <text>就</text>
        </lyric>
      </note>
    </measure>
    <measure number="10">
      <attributes>
        <time>
          <beats>4</beats>
          <beat-type>4</beat-type>
        </time>
      </attributes>
      <note>
        <pitch>
          <step>E</step>
          <octave>4</octave>
        </pitch>
        <duration>2</duration>
        <type>eighth</type>
        <lyric number="1">
          <text>哥</text>
        </lyric>
        <lyric number="2">
          <text>看</text>
        </lyric>
      </note>
      <note>
        <pitch>
          <step>D</step>
          <octave>4</octave>
        </pitch>
        <duration>2</duration>
        <type>eighth</type>
        <lyric number="1">
          <text>没</text>
        </lyric>
        <lyric number="2">
          <text>得</text>
        </lyric>
      </note>
      <note>
        <pitch>
          <step>D</step>
          <octave>4</octave>
        </pitch>
        <duration>1</duration>
        <type>16th</type>
      </note>
      <note>
        <pitch>
          <step>C</step>
          <octave>4</octave>
        </pitch>
        <duration>1</duration>
        <type>16th</type>
      </note>
      <note>
        <pitch>
          <step>A</step>
          <octave>3</octave>
        </pitch>
        <duration>2</duration>
        <type>eighth</type>
      </note>
    </measure>
    <measure number="11">
      <attributes>
        <time>
          <beats>4</beats>
          <beat-type>4</beat-type>
        </time>
      </attributes>
      <note>
        <pitch>
          <step>A</step>
          <octave>3</octave>
        </pitch>
        <duration>4</duration>
        <type>quarter</type>
        <lyric number="1">
          <text>来</text>
        </lyric>
        <lyric number="2">
          <text>岀</text>
        </lyric>
      </note>
      <note>
        <pitch>
          <step>D</step>
          <octave>4</octave>
        </pitch>
        <duration>2</duration>
        <type>eighth</type>
      </note>
      <note>
        <pitch>
          <step>E</step>
          <octave>4</octave>
        </pitch>
        <duration>2</duration>
        <type>eighth</type>
      </note>
    </measure>
    <measure number="12">
      <attributes>
        <time>
          <beats>4</beats>
          <beat-type>4</beat-type>
        </time>
      </attributes>
      <note>
        <pitch>
          <step>E</step>
          <octave>4</octave>
        </pitch>
        <duration>2</duration>
        <type>eighth</type>
        <lyric number="1">
          <text>闩</text>
        </lyric>
        <lyric number="2">
          <text>转头</text>
        </lyric>
      </note>
      <note>
        <pitch>
          <step>D</step>
          <octave>4</octave>
        </pitch>
        <duration>2</duration>
        <type>eighth</type>
        <lyric number="1">
          <text>紧</text>
        </lyric>
        <lyric number="2">
          <text>就</text>
        </lyric>
      </note>
      <note>
        <pitch>
          <step>D</step>
          <octave>4</octave>
        </pitch>
        <duration>2</duration>
        <type>eighth</type>
        <lyric number="1">
          <text>大</text>
        </lyric>
        <lyric number="2">
          <text>转</text>
        </lyric>
      </note>
      <note>
        <pitch>
          <step>D</step>
          <octave>4</octave>
        </pitch>
        <duration>2</duration>
        <type>eighth</type>
        <lyric number="1">
          <text>门</text>
        </lyric>
        <lyric number="2">
          <text>角</text>
        </lyric>
      </note>
    </measure>
    <measure number="13">
      <attributes>
        <time>
          <beats>4</beats>
          <beat-type>4</beat-type>
        </time>
      </attributes>
      <note>
        <pitch>
          <step>A</step>
          <octave>3</octave>
        </pitch>
        <duration>4</duration>
        <type>quarter</type>
        <lyric number="1">
          <text>喏</text>
        </lyric>
        <lyric number="2">
          <text>哇</text>
        </lyric>
      </note>
      <note>
        <rest />
        <duration>2</duration>
        <type>eighth</type>
        <lyric number="1">
          <text>眼唔</text>
        </lyric>
        <lyric number="2">
          <text>叫哭相见</text>
        </lyric>
      </note>
      <note>
        <pitch>
          <step>D</step>
          <octave>4</octave>
        </pitch>
        <duration>2</duration>
        <type>eighth</type>
        <lyric number="1">
          <text>个</text>
        </lyric>
        <lyric number="2">
          <text>个</text>
        </lyric>
        <lyric number="3">
          <text>着睡不着觉</text>
        </lyric>
      </note>
    </measure>
    <measure number="14">
      <attributes>
        <time>
          <beats>4</beats>
          <beat-type>4</beat-type>
        </time>
      </attributes>
      <note>
        <pitch>
          <step>C</step>
          <octave>4</octave>
        </pitch>
        <duration>4</duration>
        <type>quarter</type>
        <lyric number="1">
          <text>叫</text>
        </lyric>
        <lyric number="2">
          <text>笑</text>
        </lyric>
      </note>
      <note>
        <pitch>
          <step>D</step>
          <octave>4</octave>
        </pitch>
        <duration>2</duration>
        <type>eighth</type>
      </note>
      <note>
        <pitch>
          <step>E</step>
          <octave>4</octave>
        </pitch>
        <duration>2</duration>
        <type>eighth</type>
      </note>
    </measure>
    <measure number="15">
      <attributes>
        <time>
          <beats>4</beats>
          <beat-type>4</beat-type>
        </time>
      </attributes>
      <note>
        <pitch>
          <step>C</step>
          <octave>4</octave>
        </pitch>
        <duration>4</duration>
        <type>quarter</type>
        <lyric number="1">
          <text>几</text>
        </lyric>
        <lyric number="2">
          <text>连</text>
        </lyric>
        <lyric number="3">
          <text>nan转头</text>
        </lyric>
      </note>
      <note>
        <pitch>
          <step>D</step>
          <octave>4</octave>
        </pitch>
        <duration>1</duration>
        <type>16th</type>
        <lyric number="1">
          <text>转角</text>
        </lyric>
        <lyric number="2">
          <text>时满</text>
        </lyric>
      </note>
      <note>
        <pitch>
          <step>C</step>
          <octave>4</octave>
        </pitch>
        <duration>1</duration>
        <type>16th</type>
        <lyric number="1">
          <text>笑连连nan果有姻</text>
        </lyric>
        <lyric number="2">
          <text>脸笑容</text>
        </lyric>
      </note>
      <note>
        <pitch>
          <step>A</step>
          <octave>3</octave>
        </pitch>
        <duration>2</duration>
        <type>eighth</type>
      </note>
    </measure>
    <measure number="16">
      <attributes>
        <time>
          <beats>4</beats>
          <beat-type>4</beat-type>
        </time>
      </attributes>
      <note>
        <pitch>
          <step>A</step>
          <octave>3</octave>
        </pitch>
        <duration>8</duration>
        <type>half</type>
        <lyric number="1">
          <text>多</text>
        </lyric>
        <lyric number="2">
          <text>连</text>
        </lyric>
        <lyric number="3">
          <text>缘就会在僻静处</text>
        </lyric>
      </note>
    </measure>
  </part>
</score-partwise>
