<?xml version='1.0' encoding='utf-8'?>
<score-partwise version="3.1">
  <work>
    <work-title>页面_song_569</work-title>
  </work>
  <part-list>
    <score-part id="P1">
      <part-name>简谱旋律</part-name>
    </score-part>
  </part-list>
  <part id="P1">
    <measure number="1">
      <attributes>
        <divisions>4</divisions>
        <key>
          <fifths>0</fifths>
        </key>
        <time>
          <beats>4</beats>
          <beat-type>4</beat-type>
        </time>
      </attributes>
      <note>
        <pitch>
          <step>A</step>
          <octave>4</octave>
        </pitch>
        <duration>4</duration>
        <type>quarter</type>
        <lyric number="1">
          <text>知</text>
        </lyric>
      </note>
    </measure>
    <measure number="2">
      <attributes>
        <time>
          <beats>4</beats>
          <beat-type>4</beat-type>
        </time>
      </attributes>
      <note>
        <pitch>
          <step>E</step>
          <octave>4</octave>
        </pitch>
        <duration>2</duration>
        <type>eighth</type>
        <lyric number="1">
          <text>乜</text>
        </lyric>
      </note>
      <note>
        <pitch>
          <step>G</step>
          <octave>4</octave>
        </pitch>
        <duration>2</duration>
        <type>eighth</type>
        <lyric number="1">
          <text>字</text>
        </lyric>
      </note>
    </measure>
    <measure number="3">
      <attributes>
        <time>
          <beats>4</beats>
          <beat-type>4</beat-type>
        </time>
      </attributes>
      <note>
        <pitch>
          <step>E</step>
          <octave>4</octave>
        </pitch>
        <duration>2</duration>
        <type>eighth</type>
        <lyric number="1">
          <text>写</text>
        </lyric>
      </note>
      <note>
        <pitch>
          <step>G</step>
          <octave>4</octave>
        </pitch>
        <duration>2</duration>
        <type>eighth</type>
        <lyric number="1">
          <text>来</text>
        </lyric>
      </note>
    </measure>
    <measure number="4">
      <attributes>
        <time>
          <beats>4</beats>
          <beat-type>4</beat-type>
        </time>
      </attributes>
      <note>
        <pitch>
          <step>E</step>
          <octave>4</octave>
        </pitch>
        <duration>4</duration>
        <type>quarter</type>
        <lyric number="1">
          <text>哎</text>
        </lyric>
      </note>
    </measure>
    <measure number="5">
      <attributes>
        <time>
          <beats>4</beats>
          <beat-type>4</beat-type>
        </time>
      </attributes>
      <note>
        <pitch>
          <step>E</step>
          <octave>4</octave>
        </pitch>
        <duration>4</duration>
        <type>quarter</type>
      </note>
    </measure>
    <measure number="6">
      <attributes>
        <time>
          <beats>4</beats>
          <beat-type>4</beat-type>
        </time>
      </attributes>
      <note>
        <pitch>
          <step>E</step>
          <octave>4</octave>
        </pitch>
        <duration>2</duration>
        <type>eighth</type>
        <lyric number="1">
          <text>两</text>
        </lyric>
      </note>
      <note>
        <pitch>
          <step>G</step>
          <octave>4</octave>
        </pitch>
        <duration>2</duration>
        <type>eighth</type>
        <lyric number="1">
          <text>人</text>
        </lyric>
      </note>
    </measure>
    <measure number="7">
      <attributes>
        <time>
          <beats>4</beats>
          <beat-type>4</beat-type>
        </time>
      </attributes>
      <note>
        <pitch>
          <step>A</step>
          <octave>4</octave>
        </pitch>
        <duration>2</duration>
        <type>eighth</type>
        <lyric number="1">
          <text>力</text>
        </lyric>
      </note>
      <note>
        <pitch>
          <step>A</step>
          <octave>4</octave>
        </pitch>
        <duration>1</duration>
        <type>16th</type>
        <lyric number="1">
          <text>大</text>
        </lyric>
      </note>
      <note>
        <pitch>
          <step>G</step>
          <octave>4</octave>
        </pitch>
        <duration>1</duration>
        <type>16th</type>
      </note>
    </measure>
    <measure number="8">
      <attributes>
        <time>
          <beats>4</beats>
          <beat-type>4</beat-type>
        </time>
      </attributes>
      <note>
        <pitch>
          <step>A</step>
          <octave>4</octave>
        </pitch>
        <duration>2</duration>
        <type>eighth</type>
        <lyric number="1">
          <text>打</text>
        </lyric>
      </note>
      <note>
        <pitch>
          <step>E</step>
          <octave>4</octave>
        </pitch>
        <duration>2</duration>
        <type>eighth</type>
        <lyric number="1">
          <text>穿</text>
        </lyric>
      </note>
    </measure>
    <measure number="9">
      <attributes>
        <time>
          <beats>4</beats>
          <beat-type>4</beat-type>
        </time>
      </attributes>
      <note>
        <pitch>
          <step>E</step>
          <octave>4</octave>
        </pitch>
        <duration>4</duration>
        <type>quarter</type>
        <lyric number="1">
          <text>天</text>
        </lyric>
      </note>
    </measure>
    <measure number="10">
      <attributes>
        <time>
          <beats>4</beats>
          <beat-type>4</beat-type>
        </time>
      </attributes>
      <note>
        <pitch>
          <step>E</step>
          <octave>4</octave>
        </pitch>
        <duration>4</duration>
        <type>quarter</type>
      </note>
    </measure>
    <measure number="11">
      <attributes>
        <time>
          <beats>4</beats>
          <beat-type>4</beat-type>
        </time>
      </attributes>
      <note>
        <pitch>
          <step>E</step>
          <octave>4</octave>
        </pitch>
        <duration>2</duration>
        <type>eighth</type>
        <lyric number="1">
          <text>你</text>
        </lyric>
      </note>
      <note>
        <pitch>
          <step>E</step>
          <octave>4</octave>
        </pitch>
        <duration>4</duration>
        <type>quarter</type>
        <lyric number="1">
          <text>知nan乜</text>
        </lyric>
      </note>
      <note>
        <pitch>
          <step>D</step>
          <octave>4</octave>
        </pitch>
        <duration>2</duration>
        <type>eighth</type>
        <lyric number="1">
          <text>字</text>
        </lyric>
      </note>
    </measure>
    <measure number="12">
      <attributes>
        <time>
          <beats>4</beats>
          <beat-type>4</beat-type>
        </time>
      </attributes>
      <note>
        <pitch>
          <step>C</step>
          <octave>4</octave>
        </pitch>
        <duration>2</duration>
        <type>eighth</type>
        <lyric number="1">
          <text>写</text>
        </lyric>
      </note>
      <note>
        <pitch>
          <step>D</step>
          <octave>4</octave>
        </pitch>
        <duration>2</duration>
        <type>eighth</type>
        <lyric number="1">
          <text>来</text>
        </lyric>
      </note>
    </measure>
    <measure number="13">
      <attributes>
        <time>
          <beats>4</beats>
          <beat-type>4</beat-type>
        </time>
      </attributes>
      <note>
        <pitch>
          <step>C</step>
          <octave>4</octave>
        </pitch>
        <duration>2</duration>
        <type>eighth</type>
        <lyric number="1">
          <text>一</text>
        </lyric>
      </note>
      <note>
        <pitch>
          <step>D</step>
          <octave>4</octave>
        </pitch>
        <duration>1</duration>
        <type>16th</type>
        <lyric number="1">
          <text>女</text>
        </lyric>
      </note>
      <note>
        <pitch>
          <step>E</step>
          <octave>4</octave>
        </pitch>
        <duration>1</duration>
        <type>16th</type>
        <lyric number="1">
          <text>就</text>
        </lyric>
      </note>
    </measure>
    <measure number="14">
      <attributes>
        <time>
          <beats>4</beats>
          <beat-type>4</beat-type>
        </time>
      </attributes>
      <note>
        <pitch>
          <step>C</step>
          <octave>4</octave>
        </pitch>
        <duration>2</duration>
        <type>eighth</type>
        <lyric number="1">
          <text>来</text>
        </lyric>
      </note>
      <note>
        <pitch>
          <step>D</step>
          <octave>4</octave>
        </pitch>
        <duration>2</duration>
        <type>eighth</type>
        <lyric number="1">
          <text>耕</text>
        </lyric>
      </note>
    </measure>
    <measure number="15">
      <attributes>
        <time>
          <beats>4</beats>
          <beat-type>4</beat-type>
        </time>
      </attributes>
      <note>
        <pitch>
          <step>D</step>
          <octave>4</octave>
        </pitch>
        <duration>2</duration>
        <type>eighth</type>
        <lyric number="1">
          <text>半</text>
        </lyric>
      </note>
      <note>
        <pitch>
          <step>C</step>
          <octave>4</octave>
        </pitch>
        <duration>1</duration>
        <type>16th</type>
        <lyric number="1">
          <text>丘</text>
        </lyric>
      </note>
      <note>
        <pitch>
          <step>D</step>
          <octave>4</octave>
        </pitch>
        <duration>1</duration>
        <type>16th</type>
      </note>
    </measure>
    <measure number="16">
      <attributes>
        <time>
          <beats>4</beats>
          <beat-type>4</beat-type>
        </time>
      </attributes>
      <note>
        <pitch>
          <step>A</step>
          <octave>3</octave>
        </pitch>
        <duration>2</duration>
        <type>eighth</type>
        <lyric number="1">
          <text>田</text>
        </lyric>
      </note>
      <note>
        <pitch>
          <step>A</step>
          <octave>3</octave>
        </pitch>
        <duration>2</duration>
        <type>eighth</type>
        <lyric number="1">
          <text>呐</text>
        </lyric>
      </note>
    </measure>
    <measure number="17">
      <attributes>
        <time>
          <beats>4</beats>
          <beat-type>4</beat-type>
        </time>
      </attributes>
      <note>
        <pitch>
          <step>A</step>
          <octave>3</octave>
        </pitch>
        <duration>4</duration>
        <type>quarter</type>
      </note>
    </measure>
    <measure number="18">
      <attributes>
        <time>
          <beats>4</beats>
          <beat-type>4</beat-type>
        </time>
      </attributes>
      <note>
        <pitch>
          <step>E</step>
          <octave>4</octave>
        </pitch>
        <duration>2</duration>
        <type>eighth</type>
        <lyric number="1">
          <text>你</text>
        </lyric>
      </note>
      <note>
        <pitch>
          <step>E</step>
          <octave>4</octave>
        </pitch>
        <duration>4</duration>
        <type>quarter</type>
        <lyric number="1">
          <text>知</text>
        </lyric>
      </note>
      <note>
        <pitch>
          <step>C</step>
          <octave>4</octave>
        </pitch>
        <duration>4</duration>
        <type>quarter</type>
        <lyric number="1">
          <text>乜</text>
        </lyric>
      </note>
      <note>
        <pitch>
          <step>D</step>
          <octave>4</octave>
        </pitch>
        <duration>4</duration>
        <type>quarter</type>
        <lyric number="1">
          <text>字</text>
        </lyric>
      </note>
    </measure>
    <measure number="19">
      <attributes>
        <time>
          <beats>4</beats>
          <beat-type>4</beat-type>
        </time>
      </attributes>
      <note>
        <pitch>
          <step>D</step>
          <octave>4</octave>
        </pitch>
        <duration>4</duration>
        <type>quarter</type>
        <lyric number="1">
          <text>写</text>
        </lyric>
      </note>
      <note>
        <pitch>
          <step>C</step>
          <octave>4</octave>
        </pitch>
        <duration>2</duration>
        <type>eighth</type>
        <lyric number="1">
          <text>来</text>
        </lyric>
      </note>
      <note>
        <pitch>
          <step>A</step>
          <octave>3</octave>
        </pitch>
        <duration>2</duration>
        <type>eighth</type>
        <lyric number="1">
          <text>时</text>
        </lyric>
      </note>
    </measure>
    <measure number="20">
      <attributes>
        <time>
          <beats>4</beats>
          <beat-type>4</beat-type>
        </time>
      </attributes>
      <note>
        <pitch>
          <step>E</step>
          <octave>4</octave>
        </pitch>
        <duration>1</duration>
        <type>16th</type>
        <lyric number="1">
          <text>我</text>
        </lyric>
      </note>
      <note>
        <pitch>
          <step>G</step>
          <octave>4</octave>
        </pitch>
        <duration>1</duration>
        <type>16th</type>
      </note>
      <note>
        <pitch>
          <step>A</step>
          <octave>3</octave>
        </pitch>
        <duration>2</duration>
        <type>eighth</type>
        <lyric number="1">
          <text>王</text>
        </lyric>
      </note>
    </measure>
    <measure number="21">
      <attributes>
        <time>
          <beats>4</beats>
          <beat-type>4</beat-type>
        </time>
      </attributes>
      <note>
        <pitch>
          <step>A</step>
          <octave>3</octave>
        </pitch>
        <duration>1</duration>
        <type>16th</type>
        <lyric number="1">
          <text>头</text>
        </lyric>
      </note>
      <note>
        <pitch>
          <step>C</step>
          <octave>4</octave>
        </pitch>
        <duration>1</duration>
        <type>16th</type>
      </note>
      <note>
        <pitch>
          <step>A</step>
          <octave>3</octave>
        </pitch>
        <duration>2</duration>
        <type>eighth</type>
        <lyric number="1">
          <text>上</text>
        </lyric>
      </note>
    </measure>
    <measure number="22">
      <attributes>
        <time>
          <beats>4</beats>
          <beat-type>4</beat-type>
        </time>
      </attributes>
      <note>
        <pitch>
          <step>D</step>
          <octave>4</octave>
        </pitch>
        <duration>2</duration>
        <type>eighth</type>
        <lyric number="1">
          <text>加</text>
        </lyric>
      </note>
      <note>
        <pitch>
          <step>A</step>
          <octave>3</octave>
        </pitch>
        <duration>1</duration>
        <type>16th</type>
        <lyric number="1">
          <text>两</text>
        </lyric>
      </note>
      <note>
        <pitch>
          <step>C</step>
          <octave>4</octave>
        </pitch>
        <duration>1</duration>
        <type>16th</type>
      </note>
    </measure>
    <measure number="23">
      <attributes>
        <time>
          <beats>4</beats>
          <beat-type>4</beat-type>
        </time>
      </attributes>
      <note>
        <pitch>
          <step>A</step>
          <octave>3</octave>
        </pitch>
        <duration>4</duration>
        <type>quarter</type>
        <lyric number="1">
          <text>点</text>
        </lyric>
      </note>
    </measure>
    <measure number="24">
      <attributes>
        <time>
          <beats>4</beats>
          <beat-type>4</beat-type>
        </time>
      </attributes>
      <note>
        <pitch>
          <step>C</step>
          <octave>4</octave>
        </pitch>
        <duration>1</duration>
        <type>16th</type>
        <lyric number="1">
          <text>你</text>
        </lyric>
      </note>
      <note>
        <pitch>
          <step>D</step>
          <octave>4</octave>
        </pitch>
        <duration>1</duration>
        <type>16th</type>
        <lyric number="1">
          <text>知</text>
        </lyric>
      </note>
      <note>
        <pitch>
          <step>A</step>
          <octave>3</octave>
        </pitch>
        <duration>1</duration>
        <type>16th</type>
        <lyric number="1">
          <text>乜</text>
        </lyric>
      </note>
      <note>
        <pitch>
          <step>E</step>
          <octave>4</octave>
        </pitch>
        <duration>1</duration>
        <type>16th</type>
        <lyric number="1">
          <text>字</text>
        </lyric>
      </note>
    </measure>
    <measure number="25">
      <attributes>
        <time>
          <beats>4</beats>
          <beat-type>4</beat-type>
        </time>
      </attributes>
      <note>
        <pitch>
          <step>E</step>
          <octave>4</octave>
        </pitch>
        <duration>1</duration>
        <type>16th</type>
        <lyric number="1">
          <text>写</text>
        </lyric>
      </note>
      <note>
        <pitch>
          <step>D</step>
          <octave>4</octave>
        </pitch>
        <duration>1</duration>
        <type>16th</type>
      </note>
      <note>
        <pitch>
          <step>C</step>
          <octave>4</octave>
        </pitch>
        <duration>2</duration>
        <type>eighth</type>
        <lyric number="1">
          <text>来</text>
        </lyric>
      </note>
    </measure>
    <measure number="26">
      <attributes>
        <time>
          <beats>4</beats>
          <beat-type>4</beat-type>
        </time>
      </attributes>
      <note>
        <pitch>
          <step>D</step>
          <octave>4</octave>
        </pitch>
        <duration>2</duration>
        <type>eighth</type>
        <lyric number="1">
          <text>千</text>
        </lyric>
      </note>
      <note>
        <pitch>
          <step>D</step>
          <octave>4</octave>
        </pitch>
        <duration>1</duration>
        <type>16th</type>
        <lyric number="1">
          <text>里</text>
        </lyric>
      </note>
      <note>
        <pitch>
          <step>E</step>
          <octave>4</octave>
        </pitch>
        <duration>1</duration>
        <type>16th</type>
      </note>
    </measure>
    <measure number="27">
      <attributes>
        <time>
          <beats>4</beats>
          <beat-type>4</beat-type>
        </time>
      </attributes>
      <note>
        <pitch>
          <step>A</step>
          <octave>3</octave>
        </pitch>
        <duration>2</duration>
        <type>eighth</type>
        <lyric number="1">
          <text>连</text>
        </lyric>
      </note>
      <note>
        <pitch>
          <step>C</step>
          <octave>4</octave>
        </pitch>
        <duration>1</duration>
        <type>16th</type>
        <lyric number="1">
          <text>土</text>
        </lyric>
      </note>
      <note>
        <pitch>
          <step>A</step>
          <octave>3</octave>
        </pitch>
        <duration>1</duration>
        <type>16th</type>
      </note>
    </measure>
    <measure number="28">
      <attributes>
        <time>
          <beats>4</beats>
          <beat-type>4</beat-type>
        </time>
      </attributes>
      <note>
        <pitch>
          <step>A</step>
          <octave>3</octave>
        </pitch>
        <duration>2</duration>
        <type>eighth</type>
        <lyric number="1">
          <text>土</text>
        </lyric>
      </note>
      <note>
        <pitch>
          <step>C</step>
          <octave>4</octave>
        </pitch>
        <duration>2</duration>
        <type>eighth</type>
        <lyric number="1">
          <text>连</text>
        </lyric>
      </note>
    </measure>
    <measure number="29">
      <attributes>
        <time>
          <beats>4</beats>
          <beat-type>4</beat-type>
        </time>
      </attributes>
      <note>
        <pitch>
          <step>C</step>
          <octave>4</octave>
        </pitch>
        <duration>4</duration>
        <type>quarter</type>
        <lyric number="1">
          <text>天</text>
        </lyric>
      </note>
    </measure>
    <measure number="30">
      <attributes>
        <time>
          <beats>4</beats>
          <beat-type>4</beat-type>
        </time>
      </attributes>
      <note>
        <pitch>
          <step>D</step>
          <octave>4</octave>
        </pitch>
        <duration>2</duration>
        <type>eighth</type>
        <lyric number="1">
          <text>四</text>
        </lyric>
      </note>
      <note>
        <pitch>
          <step>A</step>
          <octave>3</octave>
        </pitch>
        <duration>2</duration>
        <type>eighth</type>
        <lyric number="1">
          <text>只</text>
        </lyric>
      </note>
      <note>
        <pitch>
          <step>D</step>
          <octave>4</octave>
        </pitch>
        <duration>2</duration>
        <type>eighth</type>
        <lyric number="1">
          <text>字</text>
        </lyric>
      </note>
      <note>
        <pitch>
          <step>A</step>
          <octave>3</octave>
        </pitch>
        <duration>1</duration>
        <type>16th</type>
        <lyric number="1">
          <text>眼</text>
        </lyric>
      </note>
      <note>
        <pitch>
          <step>C</step>
          <octave>4</octave>
        </pitch>
        <duration>1</duration>
        <type>16th</type>
        <lyric number="1">
          <text>就</text>
        </lyric>
      </note>
    </measure>
    <measure number="31">
      <attributes>
        <time>
          <beats>4</beats>
          <beat-type>4</beat-type>
        </time>
      </attributes>
      <note>
        <pitch>
          <step>A</step>
          <octave>3</octave>
        </pitch>
        <duration>2</duration>
        <type>eighth</type>
        <lyric number="1">
          <text>拆</text>
        </lyric>
      </note>
      <note>
        <pitch>
          <step>C</step>
          <octave>4</octave>
        </pitch>
        <duration>1</duration>
        <type>16th</type>
        <lyric number="1">
          <text>断</text>
        </lyric>
      </note>
      <note>
        <pitch>
          <step>D</step>
          <octave>4</octave>
        </pitch>
        <duration>1</duration>
        <type>16th</type>
      </note>
    </measure>
    <measure number="32">
      <attributes>
        <time>
          <beats>4</beats>
          <beat-type>4</beat-type>
        </time>
      </attributes>
      <note>
        <pitch>
          <step>A</step>
          <octave>3</octave>
        </pitch>
        <duration>2</duration>
        <type>eighth</type>
        <lyric number="1">
          <text>圈</text>
        </lyric>
      </note>
      <note>
        <pitch>
          <step>A</step>
          <octave>3</octave>
        </pitch>
        <duration>2</duration>
        <type>eighth</type>
        <lyric number="1">
          <text>呐</text>
        </lyric>
      </note>
    </measure>
    <measure number="33">
      <attributes>
        <time>
          <beats>4</beats>
          <beat-type>4</beat-type>
        </time>
      </attributes>
      <note>
        <pitch>
          <step>A</step>
          <octave>3</octave>
        </pitch>
        <duration>4</duration>
        <type>quarter</type>
      </note>
    </measure>
    <measure number="34">
      <attributes>
        <time>
          <beats>4</beats>
          <beat-type>4</beat-type>
        </time>
      </attributes>
      <note>
        <rest />
        <duration>2</duration>
        <type>eighth</type>
      </note>
      <note>
        <pitch>
          <step>G</step>
          <octave>4</octave>
        </pitch>
        <duration>1</duration>
        <type>16th</type>
        <lyric number="1">
          <text>佢</text>
        </lyric>
      </note>
      <note>
        <pitch>
          <step>A</step>
          <octave>4</octave>
        </pitch>
        <duration>1</duration>
        <type>16th</type>
        <lyric number="1">
          <text>话</text>
        </lyric>
      </note>
      <note>
        <pitch>
          <step>G</step>
          <octave>4</octave>
        </pitch>
        <duration>2</duration>
        <type>eighth</type>
        <lyric number="1">
          <text>nan</text>
        </lyric>
      </note>
      <note>
        <pitch>
          <step>A</step>
          <octave>4</octave>
        </pitch>
        <duration>2</duration>
        <type>eighth</type>
        <lyric number="1">
          <text>知</text>
        </lyric>
      </note>
    </measure>
    <measure number="35">
      <attributes>
        <time>
          <beats>4</beats>
          <beat-type>4</beat-type>
        </time>
      </attributes>
      <note>
        <pitch>
          <step>A</step>
          <octave>4</octave>
        </pitch>
        <duration>1</duration>
        <type>16th</type>
        <lyric number="1">
          <text>夫</text>
        </lyric>
      </note>
      <note>
        <pitch>
          <step>B</step>
          <octave>4</octave>
        </pitch>
        <duration>1</duration>
        <type>16th</type>
      </note>
      <note>
        <pitch>
          <step>A</step>
          <octave>4</octave>
        </pitch>
        <duration>2</duration>
        <type>eighth</type>
        <lyric number="1">
          <text>字</text>
        </lyric>
      </note>
      <note>
        <pitch>
          <step>G</step>
          <octave>4</octave>
        </pitch>
        <duration>4</duration>
        <type>quarter</type>
      </note>
    </measure>
    <measure number="36">
      <attributes>
        <time>
          <beats>4</beats>
          <beat-type>4</beat-type>
        </time>
      </attributes>
      <note>
        <pitch>
          <step>E</step>
          <octave>4</octave>
        </pitch>
        <duration>2</duration>
        <type>eighth</type>
        <lyric number="1">
          <text>写</text>
        </lyric>
      </note>
      <note>
        <pitch>
          <step>G</step>
          <octave>4</octave>
        </pitch>
        <duration>2</duration>
        <type>eighth</type>
        <lyric number="1">
          <text>来</text>
        </lyric>
      </note>
    </measure>
    <measure number="37">
      <attributes>
        <time>
          <beats>4</beats>
          <beat-type>4</beat-type>
        </time>
      </attributes>
      <note>
        <pitch>
          <step>E</step>
          <octave>4</octave>
        </pitch>
        <duration>2</duration>
        <type>eighth</type>
        <lyric number="1">
          <text>两</text>
        </lyric>
      </note>
      <note>
        <pitch>
          <step>E</step>
          <octave>4</octave>
        </pitch>
        <duration>1</duration>
        <type>16th</type>
        <lyric number="1">
          <text>人</text>
        </lyric>
      </note>
      <note>
        <pitch>
          <step>G</step>
          <octave>4</octave>
        </pitch>
        <duration>1</duration>
        <type>16th</type>
      </note>
    </measure>
    <measure number="38">
      <attributes>
        <time>
          <beats>4</beats>
          <beat-type>4</beat-type>
        </time>
      </attributes>
      <note>
        <pitch>
          <step>A</step>
          <octave>4</octave>
        </pitch>
        <duration>2</duration>
        <type>eighth</type>
        <lyric number="1">
          <text>力</text>
        </lyric>
      </note>
      <note>
        <pitch>
          <step>G</step>
          <octave>4</octave>
        </pitch>
        <duration>1</duration>
        <type>16th</type>
        <lyric number="1">
          <text>大</text>
        </lyric>
      </note>
      <note>
        <pitch>
          <step>E</step>
          <octave>4</octave>
        </pitch>
        <duration>1</duration>
        <type>16th</type>
      </note>
      <note>
        <pitch>
          <step>A</step>
          <octave>4</octave>
        </pitch>
        <duration>2</duration>
        <type>eighth</type>
        <lyric number="1">
          <text>打</text>
        </lyric>
      </note>
      <note>
        <pitch>
          <step>E</step>
          <octave>4</octave>
        </pitch>
        <duration>2</duration>
        <type>eighth</type>
        <lyric number="1">
          <text>穿</text>
        </lyric>
      </note>
      <note>
        <pitch>
          <step>E</step>
          <octave>4</octave>
        </pitch>
        <duration>4</duration>
        <type>quarter</type>
        <lyric number="1">
          <text>天</text>
        </lyric>
      </note>
    </measure>
    <measure number="39">
      <attributes>
        <time>
          <beats>4</beats>
          <beat-type>4</beat-type>
        </time>
      </attributes>
      <note>
        <pitch>
          <step>E</step>
          <octave>4</octave>
        </pitch>
        <duration>2</duration>
        <type>eighth</type>
      </note>
      <note>
        <pitch>
          <step>C</step>
          <octave>4</octave>
        </pitch>
        <duration>1</duration>
        <type>16th</type>
        <lyric number="1">
          <text>佢</text>
        </lyric>
      </note>
      <note>
        <pitch>
          <step>D</step>
          <octave>4</octave>
        </pitch>
        <duration>1</duration>
        <type>16th</type>
        <lyric number="1">
          <text>知</text>
        </lyric>
      </note>
    </measure>
    <measure number="40">
      <attributes>
        <time>
          <beats>4</beats>
          <beat-type>4</beat-type>
        </time>
      </attributes>
      <note>
        <pitch>
          <step>D</step>
          <octave>4</octave>
        </pitch>
        <duration>2</duration>
        <type>eighth</type>
        <lyric number="1">
          <text>妻</text>
        </lyric>
      </note>
      <note>
        <pitch>
          <step>D</step>
          <octave>4</octave>
        </pitch>
        <duration>1</duration>
        <type>16th</type>
        <lyric number="1">
          <text>字</text>
        </lyric>
      </note>
      <note>
        <pitch>
          <step>E</step>
          <octave>4</octave>
        </pitch>
        <duration>1</duration>
        <type>16th</type>
      </note>
    </measure>
    <measure number="41">
      <attributes>
        <time>
          <beats>4</beats>
          <beat-type>4</beat-type>
        </time>
      </attributes>
      <note>
        <pitch>
          <step>C</step>
          <octave>4</octave>
        </pitch>
        <duration>2</duration>
        <type>eighth</type>
        <lyric number="1">
          <text>写</text>
        </lyric>
      </note>
      <note>
        <pitch>
          <step>D</step>
          <octave>4</octave>
        </pitch>
        <duration>2</duration>
        <type>eighth</type>
        <lyric number="1">
          <text>来</text>
        </lyric>
      </note>
      <note>
        <pitch>
          <step>D</step>
          <octave>4</octave>
        </pitch>
        <duration>2</duration>
        <type>eighth</type>
        <lyric number="1">
          <text>就</text>
        </lyric>
      </note>
    </measure>
    <measure number="42">
      <attributes>
        <time>
          <beats>4</beats>
          <beat-type>4</beat-type>
        </time>
      </attributes>
      <note>
        <pitch>
          <step>A</step>
          <octave>3</octave>
        </pitch>
        <duration>2</duration>
        <type>eighth</type>
        <lyric number="1">
          <text>一</text>
        </lyric>
      </note>
      <note>
        <pitch>
          <step>C</step>
          <octave>4</octave>
        </pitch>
        <duration>1</duration>
        <type>16th</type>
        <lyric number="1">
          <text>女</text>
        </lyric>
      </note>
      <note>
        <pitch>
          <step>A</step>
          <octave>3</octave>
        </pitch>
        <duration>1</duration>
        <type>16th</type>
      </note>
    </measure>
    <measure number="43">
      <attributes>
        <time>
          <beats>4</beats>
          <beat-type>4</beat-type>
        </time>
      </attributes>
      <note>
        <pitch>
          <step>C</step>
          <octave>4</octave>
        </pitch>
        <duration>2</duration>
        <type>eighth</type>
        <lyric number="1">
          <text>来</text>
        </lyric>
      </note>
      <note>
        <pitch>
          <step>D</step>
          <octave>4</octave>
        </pitch>
        <duration>2</duration>
        <type>eighth</type>
        <lyric number="1">
          <text>耕</text>
        </lyric>
      </note>
      <note>
        <pitch>
          <step>D</step>
          <octave>4</octave>
        </pitch>
        <duration>2</duration>
        <type>eighth</type>
        <lyric number="1">
          <text>半</text>
        </lyric>
      </note>
      <note>
        <pitch>
          <step>C</step>
          <octave>4</octave>
        </pitch>
        <duration>1</duration>
        <type>16th</type>
        <lyric number="1">
          <text>丘</text>
        </lyric>
      </note>
      <note>
        <pitch>
          <step>D</step>
          <octave>4</octave>
        </pitch>
        <duration>1</duration>
        <type>16th</type>
      </note>
    </measure>
    <measure number="44">
      <attributes>
        <time>
          <beats>4</beats>
          <beat-type>4</beat-type>
        </time>
      </attributes>
      <note>
        <pitch>
          <step>A</step>
          <octave>3</octave>
        </pitch>
        <duration>2</duration>
        <type>eighth</type>
        <lyric number="1">
          <text>田</text>
        </lyric>
      </note>
      <note>
        <pitch>
          <step>A</step>
          <octave>3</octave>
        </pitch>
        <duration>2</duration>
        <type>eighth</type>
        <lyric number="1">
          <text>呐</text>
        </lyric>
      </note>
    </measure>
    <measure number="45">
      <attributes>
        <time>
          <beats>4</beats>
          <beat-type>4</beat-type>
        </time>
      </attributes>
      <note>
        <pitch>
          <step>A</step>
          <octave>3</octave>
        </pitch>
        <duration>4</duration>
        <type>quarter</type>
      </note>
    </measure>
    <measure number="46">
      <attributes>
        <time>
          <beats>4</beats>
          <beat-type>4</beat-type>
        </time>
      </attributes>
      <note>
        <rest />
        <duration>2</duration>
        <type>eighth</type>
      </note>
      <note>
        <pitch>
          <step>C</step>
          <octave>4</octave>
        </pitch>
        <duration>1</duration>
        <type>16th</type>
        <lyric number="1">
          <text>[未击中:倨]</text>
        </lyric>
      </note>
      <note>
        <pitch>
          <step>D</step>
          <octave>4</octave>
        </pitch>
        <duration>1</duration>
        <type>16th</type>
        <lyric number="1">
          <text>就</text>
        </lyric>
      </note>
    </measure>
    <measure number="47">
      <attributes>
        <time>
          <beats>4</beats>
          <beat-type>4</beat-type>
        </time>
      </attributes>
      <note>
        <pitch>
          <step>D</step>
          <octave>4</octave>
        </pitch>
        <duration>4</duration>
        <type>quarter</type>
        <lyric number="1">
          <text>字写</text>
        </lyric>
      </note>
    </measure>
    <measure number="48">
      <attributes>
        <time>
          <beats>4</beats>
          <beat-type>4</beat-type>
        </time>
      </attributes>
      <note>
        <pitch>
          <step>C</step>
          <octave>4</octave>
        </pitch>
        <duration>4</duration>
        <type>quarter</type>
        <lyric number="1">
          <text>来</text>
        </lyric>
      </note>
      <note>
        <pitch>
          <step>D</step>
          <octave>4</octave>
        </pitch>
        <duration>4</duration>
        <type>quarter</type>
        <lyric number="1">
          <text>我</text>
        </lyric>
      </note>
      <note>
        <pitch>
          <step>E</step>
          <octave>4</octave>
        </pitch>
        <duration>2</duration>
        <type>eighth</type>
      </note>
      <note>
        <pitch>
          <step>C</step>
          <octave>4</octave>
        </pitch>
        <duration>4</duration>
        <type>quarter</type>
        <lyric number="1">
          <text>王</text>
        </lyric>
      </note>
    </measure>
    <measure number="49">
      <attributes>
        <time>
          <beats>4</beats>
          <beat-type>4</beat-type>
        </time>
      </attributes>
      <note>
        <pitch>
          <step>C</step>
          <octave>4</octave>
        </pitch>
        <duration>4</duration>
        <type>quarter</type>
        <lyric number="1">
          <text>头</text>
        </lyric>
      </note>
      <note>
        <pitch>
          <step>D</step>
          <octave>4</octave>
        </pitch>
        <duration>4</duration>
        <type>quarter</type>
        <lyric number="1">
          <text>上</text>
        </lyric>
      </note>
    </measure>
    <measure number="50">
      <attributes>
        <time>
          <beats>4</beats>
          <beat-type>4</beat-type>
        </time>
      </attributes>
      <note>
        <pitch>
          <step>D</step>
          <octave>4</octave>
        </pitch>
        <duration>2</duration>
        <type>eighth</type>
        <lyric number="1">
          <text>加</text>
        </lyric>
      </note>
      <note>
        <pitch>
          <step>A</step>
          <octave>3</octave>
        </pitch>
        <duration>2</duration>
        <type>eighth</type>
        <lyric number="1">
          <text>两</text>
        </lyric>
      </note>
    </measure>
    <measure number="51">
      <attributes>
        <time>
          <beats>4</beats>
          <beat-type>4</beat-type>
        </time>
      </attributes>
      <note>
        <pitch>
          <step>A</step>
          <octave>3</octave>
        </pitch>
        <duration>2</duration>
        <type>eighth</type>
        <lyric number="1">
          <text>点</text>
        </lyric>
      </note>
      <note>
        <pitch>
          <step>A</step>
          <octave>3</octave>
        </pitch>
        <duration>2</duration>
        <type>eighth</type>
        <lyric number="1">
          <text>哎</text>
        </lyric>
      </note>
    </measure>
    <measure number="52">
      <attributes>
        <time>
          <beats>4</beats>
          <beat-type>4</beat-type>
        </time>
      </attributes>
      <note>
        <rest />
        <duration>2</duration>
        <type>eighth</type>
      </note>
      <note>
        <pitch>
          <step>C</step>
          <octave>4</octave>
        </pitch>
        <duration>1</duration>
        <type>16th</type>
        <lyric number="1">
          <text>[未击中:倨]</text>
        </lyric>
      </note>
      <note>
        <pitch>
          <step>D</step>
          <octave>4</octave>
        </pitch>
        <duration>1</duration>
        <type>16th</type>
        <lyric number="1">
          <text>就</text>
        </lyric>
      </note>
      <note>
        <pitch>
          <step>A</step>
          <octave>3</octave>
        </pitch>
        <duration>2</duration>
        <type>eighth</type>
        <lyric number="1">
          <text>重</text>
        </lyric>
      </note>
      <note>
        <pitch>
          <step>A</step>
          <octave>3</octave>
        </pitch>
        <duration>2</duration>
        <type>eighth</type>
        <lyric number="1">
          <text>字</text>
        </lyric>
      </note>
    </measure>
    <measure number="53">
      <attributes>
        <time>
          <beats>4</beats>
          <beat-type>4</beat-type>
        </time>
      </attributes>
      <note>
        <pitch>
          <step>A</step>
          <octave>3</octave>
        </pitch>
        <duration>2</duration>
        <type>eighth</type>
        <lyric number="1">
          <text>写</text>
        </lyric>
      </note>
      <note>
        <pitch>
          <step>C</step>
          <octave>4</octave>
        </pitch>
        <duration>2</duration>
        <type>eighth</type>
        <lyric number="1">
          <text>来</text>
        </lyric>
      </note>
    </measure>
    <measure number="54">
      <attributes>
        <time>
          <beats>4</beats>
          <beat-type>4</beat-type>
        </time>
      </attributes>
      <note>
        <pitch>
          <step>C</step>
          <octave>4</octave>
        </pitch>
        <duration>4</duration>
        <type>quarter</type>
        <lyric number="1">
          <text>天</text>
        </lyric>
        <lyric number="2">
          <text>三拳</text>
        </lyric>
        <lyric number="3">
          <text>宝贝</text>
        </lyric>
        <lyric number="4">
          <text>一千</text>
        </lyric>
        <lyric number="5">
          <text>连</text>
        </lyric>
        <lyric number="6">
          <text>打三</text>
        </lyric>
        <lyric number="7">
          <text>有宝</text>
        </lyric>
        <lyric number="8">
          <text>济一</text>
        </lyric>
        <lyric number="9">
          <text>三星</text>
        </lyric>
        <lyric number="10">
          <text>下眠</text>
        </lyric>
        <lyric number="11">
          <text>晓讲</text>
        </lyric>
        <lyric number="12">
          <text>有人</text>
        </lyric>
        <lyric number="13">
          <text>路下</text>
        </lyric>
        <lyric number="14">
          <text>唔晓</text>
        </lyric>
        <lyric number="15">
          <text>又有</text>
        </lyric>
        <lyric number="16">
          <text>不清</text>
        </lyric>
        <lyric number="17">
          <text>樑</text>
        </lyric>
        <lyric number="18">
          <text>只人乜</text>
        </lyric>
        <lyric number="19">
          <text>清不清[未击中:四]</text>
        </lyric>
        <lyric number="20">
          <text>良樑</text>
        </lyric>
        <lyric number="21">
          <text>夹只人</text>
        </lyric>
        <lyric number="22">
          <text>圩</text>
        </lyric>
        <lyric number="23">
          <text>人企</text>
        </lyric>
        <lyric number="24">
          <text>晓吠</text>
        </lyric>
        <lyric number="25">
          <text>箭弛</text>
        </lyric>
        <lyric number="26">
          <text>赴圩nan</text>
        </lyric>
        <lyric number="27">
          <text>七人企乜</text>
        </lyric>
        <lyric number="28">
          <text>唔晓吠乜</text>
        </lyric>
        <lyric number="29">
          <text>两箭弛</text>
        </lyric>
        <lyric number="30">
          <text>花</text>
        </lyric>
        <lyric number="31">
          <text>一家nan</text>
        </lyric>
        <lyric number="32">
          <text>背</text>
        </lyric>
        <lyric number="33">
          <text>沙</text>
        </lyric>
        <lyric number="34">
          <text>看花nan[未击中:佝]乜</text>
        </lyric>
        <lyric number="35">
          <text>一家乜</text>
        </lyric>
        <lyric number="36">
          <text>兼背乜</text>
        </lyric>
        <lyric number="37">
          <text>堆沙乜</text>
        </lyric>
        <lyric number="38">
          <text>方城</text>
        </lyric>
        <lyric number="39">
          <text>上nan</text>
        </lyric>
        <lyric number="40">
          <text>戈字</text>
        </lyric>
        <lyric number="41">
          <text>企登</text>
        </lyric>
        <lyric number="42">
          <text>钱nan往往</text>
        </lyric>
        <lyric number="43">
          <text>不字</text>
        </lyric>
      </note>
    </measure>
    <measure number="55">
      <attributes>
        <time>
          <beats>4</beats>
          <beat-type>4</beat-type>
        </time>
      </attributes>
      <note>
        <pitch>
          <step>C</step>
          <octave>4</octave>
        </pitch>
        <duration>2</duration>
        <type>eighth</type>
        <lyric number="1">
          <text>夫</text>
        </lyric>
        <lyric number="2">
          <text>拳</text>
        </lyric>
        <lyric number="3">
          <text>贝nan</text>
        </lyric>
        <lyric number="4">
          <text>千</text>
        </lyric>
        <lyric number="5">
          <text>眠[未击中:广]</text>
        </lyric>
        <lyric number="6">
          <text>讲</text>
        </lyric>
        <lyric number="7">
          <text>人</text>
        </lyric>
        <lyric number="8">
          <text>上</text>
        </lyric>
        <lyric number="9">
          <text>用</text>
        </lyric>
      </note>
      <note>
        <pitch>
          <step>C</step>
          <octave>4</octave>
        </pitch>
        <duration>1</duration>
        <type>16th</type>
        <lyric number="1">
          <text>妻</text>
        </lyric>
        <lyric number="2">
          <text>过nan[未击中:囬]乜</text>
        </lyric>
        <lyric number="3">
          <text>过</text>
        </lyric>
        <lyric number="4">
          <text>减</text>
        </lyric>
      </note>
      <note>
        <pitch>
          <step>D</step>
          <octave>4</octave>
        </pitch>
        <duration>1</duration>
        <type>16th</type>
      </note>
    </measure>
    <measure number="56">
      <attributes>
        <time>
          <beats>4</beats>
          <beat-type>4</beat-type>
        </time>
      </attributes>
      <note>
        <pitch>
          <step>A</step>
          <octave>3</octave>
        </pitch>
        <duration>2</duration>
        <type>eighth</type>
        <lyric number="1">
          <text>[未击中:義]</text>
        </lyric>
        <lyric number="2">
          <text>[未击中:[未击中:礟]]</text>
        </lyric>
        <lyric number="3">
          <text>[未击中:礟]</text>
        </lyric>
        <lyric number="4">
          <text>[未击中:[未击中:礟]]</text>
        </lyric>
      </note>
      <note>
        <pitch>
          <step>A</step>
          <octave>3</octave>
        </pitch>
        <duration>1</duration>
        <type>16th</type>
        <lyric number="1">
          <text>重</text>
        </lyric>
        <lyric number="2">
          <text>跌</text>
        </lyric>
        <lyric number="3">
          <text>拆</text>
        </lyric>
        <lyric number="4">
          <text>拆</text>
        </lyric>
      </note>
      <note>
        <pitch>
          <step>C</step>
          <octave>4</octave>
        </pitch>
        <duration>1</duration>
        <type>16th</type>
        <lyric number="1">
          <text>呀</text>
        </lyric>
        <lyric number="2">
          <text>nannan</text>
        </lyric>
        <lyric number="3">
          <text>nan</text>
        </lyric>
        <lyric number="4">
          <text>[未击中:[未击中:么]][未击中:囬]</text>
        </lyric>
        <lyric number="5">
          <text>[未击中:睿][未击中:广]</text>
        </lyric>
        <lyric number="6">
          <text>nannan</text>
        </lyric>
        <lyric number="7">
          <text>nan乜</text>
        </lyric>
        <lyric number="8">
          <text>[未击中:笞][未击中:广]</text>
        </lyric>
        <lyric number="9">
          <text>[未击中:笞][未击中:广]</text>
        </lyric>
        <lyric number="10">
          <text>额凹进</text>
        </lyric>
        <lyric number="11">
          <text>春尾拆</text>
        </lyric>
        <lyric number="12">
          <text>春车拆</text>
        </lyric>
      </note>
      <note>
        <pitch>
          <step>A</step>
          <octave>3</octave>
        </pitch>
        <duration>2</duration>
        <type>eighth</type>
        <lyric number="1">
          <text>好</text>
        </lyric>
        <lyric number="2">
          <text>乜字</text>
        </lyric>
        <lyric number="3">
          <text>乜字</text>
        </lyric>
        <lyric number="4">
          <text>乜字</text>
        </lyric>
        <lyric number="5">
          <text>乜字</text>
        </lyric>
        <lyric number="6">
          <text>[未击中:四]只</text>
        </lyric>
        <lyric number="7">
          <text>nan字</text>
        </lyric>
        <lyric number="8">
          <text>屎</text>
        </lyric>
        <lyric number="9">
          <text>屎</text>
        </lyric>
        <lyric number="10">
          <text>乜字</text>
        </lyric>
        <lyric number="11">
          <text>工</text>
        </lyric>
        <lyric number="12">
          <text>乜字</text>
        </lyric>
        <lyric number="13">
          <text>乜字</text>
        </lyric>
        <lyric number="14">
          <text>nan</text>
        </lyric>
        <lyric number="15">
          <text>比北星过</text>
        </lyric>
        <lyric number="16">
          <text>南</text>
        </lyric>
        <lyric number="17">
          <text>比</text>
        </lyric>
        <lyric number="18">
          <text>字</text>
        </lyric>
        <lyric number="19">
          <text>字</text>
        </lyric>
        <lyric number="20">
          <text>字</text>
        </lyric>
        <lyric number="21">
          <text>只</text>
        </lyric>
        <lyric number="22">
          <text>福</text>
        </lyric>
        <lyric number="23">
          <text>如</text>
        </lyric>
        <lyric number="24">
          <text>nan</text>
        </lyric>
        <lyric number="25">
          <text>國</text>
        </lyric>
        <lyric number="26">
          <text>泰</text>
        </lyric>
        <lyric number="27">
          <text>民</text>
        </lyric>
        <lyric number="28">
          <text>安</text>
        </lyric>
        <lyric number="29">
          <text>泰</text>
        </lyric>
        <lyric number="30">
          <text>[未击中:字]</text>
        </lyric>
        <lyric number="31">
          <text>字</text>
        </lyric>
        <lyric number="32">
          <text>字</text>
        </lyric>
        <lyric number="33">
          <text>[未击中:字]里</text>
        </lyric>
        <lyric number="34">
          <text>只</text>
        </lyric>
        <lyric number="35">
          <text>解</text>
        </lyric>
        <lyric number="36">
          <text>災</text>
        </lyric>
        <lyric number="37">
          <text>集</text>
        </lyric>
        <lyric number="38">
          <text>福</text>
        </lyric>
        <lyric number="39">
          <text>災</text>
        </lyric>
        <lyric number="40">
          <text>[未击中:字]</text>
        </lyric>
        <lyric number="41">
          <text>字</text>
        </lyric>
        <lyric number="42">
          <text>[未击中:字]</text>
        </lyric>
        <lyric number="43">
          <text>字</text>
        </lyric>
        <lyric number="44">
          <text>只</text>
        </lyric>
        <lyric number="45">
          <text>安</text>
        </lyric>
        <lyric number="46">
          <text>nan</text>
        </lyric>
        <lyric number="47">
          <text>食</text>
        </lyric>
        <lyric number="48">
          <text>酒</text>
        </lyric>
        <lyric number="49">
          <text>[未击中:棐]</text>
        </lyric>
        <lyric number="50">
          <text>去</text>
        </lyric>
        <lyric number="51">
          <text>到nan</text>
        </lyric>
        <lyric number="52">
          <text>到nan</text>
        </lyric>
      </note>
      <note>
        <pitch>
          <step>C</step>
          <octave>4</octave>
        </pitch>
        <duration>1</duration>
        <type>16th</type>
        <lyric number="1">
          <text>团</text>
        </lyric>
        <lyric number="2">
          <text>写</text>
        </lyric>
        <lyric number="3">
          <text>写</text>
        </lyric>
        <lyric number="4">
          <text>写</text>
        </lyric>
        <lyric number="5">
          <text>写</text>
        </lyric>
        <lyric number="6">
          <text>字</text>
        </lyric>
        <lyric number="7">
          <text>写</text>
        </lyric>
        <lyric number="8">
          <text>字</text>
        </lyric>
        <lyric number="9">
          <text>不</text>
        </lyric>
        <lyric number="10">
          <text>写</text>
        </lyric>
        <lyric number="11">
          <text>写</text>
        </lyric>
        <lyric number="12">
          <text>写</text>
        </lyric>
        <lyric number="13">
          <text>字来士</text>
        </lyric>
        <lyric number="14">
          <text>工</text>
        </lyric>
        <lyric number="15">
          <text>字来</text>
        </lyric>
        <lyric number="16">
          <text>写</text>
        </lyric>
        <lyric number="17">
          <text>写</text>
        </lyric>
        <lyric number="18">
          <text>写</text>
        </lyric>
        <lyric number="19">
          <text>字</text>
        </lyric>
        <lyric number="20">
          <text>字</text>
        </lyric>
        <lyric number="21">
          <text>字</text>
        </lyric>
        <lyric number="22">
          <text>字</text>
        </lyric>
        <lyric number="23">
          <text>nan</text>
        </lyric>
        <lyric number="24">
          <text>字</text>
        </lyric>
        <lyric number="25">
          <text>字</text>
        </lyric>
        <lyric number="26">
          <text>[未击中:字]</text>
        </lyric>
        <lyric number="27">
          <text>民</text>
        </lyric>
        <lyric number="28">
          <text>写</text>
        </lyric>
        <lyric number="29">
          <text>写</text>
        </lyric>
        <lyric number="30">
          <text>写</text>
        </lyric>
        <lyric number="31">
          <text>字</text>
        </lyric>
        <lyric number="32">
          <text>字</text>
        </lyric>
        <lyric number="33">
          <text>字</text>
        </lyric>
        <lyric number="34">
          <text>字</text>
        </lyric>
        <lyric number="35">
          <text>[未击中:字]</text>
        </lyric>
        <lyric number="36">
          <text>集</text>
        </lyric>
        <lyric number="37">
          <text>写</text>
        </lyric>
        <lyric number="38">
          <text>写</text>
        </lyric>
        <lyric number="39">
          <text>写</text>
        </lyric>
        <lyric number="40">
          <text>写</text>
        </lyric>
        <lyric number="41">
          <text>字</text>
        </lyric>
        <lyric number="42">
          <text>[未击中:字]</text>
        </lyric>
        <lyric number="43">
          <text>[未击中:字]</text>
        </lyric>
        <lyric number="44">
          <text>[未击中:字]</text>
        </lyric>
        <lyric number="45">
          <text>[未击中:字]</text>
        </lyric>
        <lyric number="46">
          <text>食</text>
        </lyric>
        <lyric number="47">
          <text>楚</text>
        </lyric>
      </note>
      <note>
        <pitch>
          <step>D</step>
          <octave>4</octave>
        </pitch>
        <duration>1</duration>
        <type>16th</type>
        <lyric number="1">
          <text>来火烧</text>
        </lyric>
        <lyric number="2">
          <text>来尸字</text>
        </lyric>
        <lyric number="3">
          <text>來省写</text>
        </lyric>
        <lyric number="4">
          <text>来诵字</text>
        </lyric>
        <lyric number="5">
          <text>眼爱拆</text>
        </lyric>
        <lyric number="6">
          <text>来火烧</text>
        </lyric>
        <lyric number="7">
          <text>写来尸</text>
        </lyric>
        <lyric number="8">
          <text>通走到</text>
        </lyric>
        <lyric number="9">
          <text>来士字</text>
        </lyric>
        <lyric number="10">
          <text>来北斗</text>
        </lyric>
        <lyric number="11">
          <text>来十窝</text>
        </lyric>
        <lyric number="12">
          <text>来不里</text>
        </lyric>
        <lyric number="13">
          <text>来女子</text>
        </lyric>
        <lyric number="14">
          <text>来十人</text>
        </lyric>
        <lyric number="15">
          <text>眼拆断</text>
        </lyric>
        <lyric number="16">
          <text>写来不</text>
        </lyric>
        <lyric number="17">
          <text>写来女</text>
        </lyric>
        <lyric number="18">
          <text>写来十</text>
        </lyric>
        <lyric number="19">
          <text>写来或</text>
        </lyric>
        <lyric number="20">
          <text>写来三</text>
        </lyric>
        <lyric number="21">
          <text>写来尸</text>
        </lyric>
        <lyric number="22">
          <text>写来岩</text>
        </lyric>
        <lyric number="23">
          <text>安拆全</text>
        </lyric>
        <lyric number="24">
          <text>来一枝</text>
        </lyric>
        <lyric number="25">
          <text>来点火</text>
        </lyric>
        <lyric number="26">
          <text>来nan公</text>
        </lyric>
        <lyric number="27">
          <text>眼拆分</text>
        </lyric>
        <lyric number="28">
          <text>写来牛</text>
        </lyric>
        <lyric number="29">
          <text>写来点</text>
        </lyric>
        <lyric number="30">
          <text>写来[未击中:雞]</text>
        </lyric>
        <lyric number="31">
          <text>写来不</text>
        </lyric>
        <lyric number="32">
          <text>福拆分</text>
        </lyric>
        <lyric number="33">
          <text>来山下</text>
        </lyric>
        <lyric number="34">
          <text>来白鹤</text>
        </lyric>
        <lyric number="35">
          <text>来一人</text>
        </lyric>
        <lyric number="36">
          <text>来黄昏</text>
        </lyric>
        <lyric number="37">
          <text>眼拆我</text>
        </lyric>
        <lyric number="38">
          <text>写来山</text>
        </lyric>
        <lyric number="39">
          <text>写来白</text>
        </lyric>
        <lyric number="40">
          <text>写来一</text>
        </lyric>
        <lyric number="41">
          <text>写来黄</text>
        </lyric>
        <lyric number="42">
          <text>酒我请</text>
        </lyric>
      </note>
      <note>
        <pitch>
          <step>C</step>
          <octave>4</octave>
        </pitch>
        <duration>2</duration>
        <type>eighth</type>
        <lyric number="1">
          <text>圆nan</text>
        </lyric>
        <lyric number="2">
          <text>东门外</text>
        </lyric>
        <lyric number="3">
          <text>nan曾</text>
        </lyric>
        <lyric number="4">
          <text>钱字</text>
        </lyric>
        <lyric number="5">
          <text>元言</text>
        </lyric>
        <lyric number="6">
          <text>开</text>
        </lyric>
        <lyric number="7">
          <text>东门</text>
        </lyric>
        <lyric number="8">
          <text>字[未击中:石]</text>
        </lyric>
        <lyric number="9">
          <text>字无</text>
        </lyric>
        <lyric number="10">
          <text>来</text>
        </lyric>
        <lyric number="11">
          <text>横钩</text>
        </lyric>
        <lyric number="12">
          <text>星君</text>
        </lyric>
        <lyric number="13">
          <text>有羊</text>
        </lyric>
        <lyric number="14">
          <text>跌额</text>
        </lyric>
        <lyric number="15">
          <text>字横</text>
        </lyric>
        <lyric number="16">
          <text>窝有</text>
        </lyric>
        <lyric number="17">
          <text>一口</text>
        </lyric>
        <lyric number="18">
          <text>有口不</text>
        </lyric>
        <lyric number="19">
          <text>打在田</text>
        </lyric>
        <lyric number="20">
          <text>圈</text>
        </lyric>
        <lyric number="21">
          <text>里一口</text>
        </lyric>
        <lyric number="22">
          <text>子有口</text>
        </lyric>
        <lyric number="23">
          <text>人打在</text>
        </lyric>
        <lyric number="24">
          <text>王打落</text>
        </lyric>
        <lyric number="25">
          <text>人企在</text>
        </lyric>
        <lyric number="26">
          <text>[未击中:字]侧边</text>
        </lyric>
        <lyric number="27">
          <text>下女子</text>
        </lyric>
        <lyric number="28">
          <text>城</text>
        </lyric>
        <lyric number="29">
          <text>牛角喜</text>
        </lyric>
        <lyric number="30">
          <text>来烧三</text>
        </lyric>
        <lyric number="31">
          <text>企在木</text>
        </lyric>
        <lyric number="32">
          <text>一</text>
        </lyric>
        <lyric number="33">
          <text>相</text>
        </lyric>
        <lyric number="34">
          <text>角一响</text>
        </lyric>
        <lyric number="35">
          <text>火来烧</text>
        </lyric>
        <lyric number="36">
          <text>公企在</text>
        </lyric>
        <lyric number="37">
          <text>里一口</text>
        </lyric>
        <lyric number="38">
          <text>相</text>
        </lyric>
        <lyric number="39">
          <text>女子笑</text>
        </lyric>
        <lyric number="40">
          <text>含丝木</text>
        </lyric>
        <lyric number="41">
          <text>打在</text>
        </lyric>
        <lyric number="42">
          <text>三点正</text>
        </lyric>
        <lyric number="43">
          <text>知</text>
        </lyric>
        <lyric number="44">
          <text>下女子</text>
        </lyric>
        <lyric number="45">
          <text>鹤含丝</text>
        </lyric>
        <lyric number="46">
          <text>人打在</text>
        </lyric>
        <lyric number="47">
          <text>昏三点</text>
        </lyric>
        <lyric number="48">
          <text>你</text>
        </lyric>
      </note>
      <note>
        <pitch>
          <step>A</step>
          <octave>3</octave>
        </pitch>
        <duration>2</duration>
        <type>eighth</type>
        <tie type="stop" />
        <lyric number="1">
          <text>呐</text>
        </lyric>
        <lyric number="2">
          <text>nan</text>
        </lyric>
        <lyric number="3">
          <text>米字来</text>
        </lyric>
        <lyric number="4">
          <text>加横过</text>
        </lyric>
        <lyric number="5">
          <text>走鸟来</text>
        </lyric>
        <lyric number="6">
          <text>外</text>
        </lyric>
        <lyric number="7">
          <text>曾米字</text>
        </lyric>
        <lyric number="8">
          <text>走</text>
        </lyric>
        <lyric number="9">
          <text>口寸上</text>
        </lyric>
        <lyric number="10">
          <text>不过弓</text>
        </lyric>
        <lyric number="11">
          <text>少一笔</text>
        </lyric>
        <lyric number="12">
          <text>[未击中:[未击中:烱]]中心</text>
        </lyric>
        <lyric number="13">
          <text>钩口寸</text>
        </lyric>
        <lyric number="14">
          <text>羊少一</text>
        </lyric>
        <lyric number="15">
          <text>田</text>
        </lyric>
        <lyric number="16">
          <text>开言</text>
        </lyric>
        <lyric number="17">
          <text>中过</text>
        </lyric>
        <lyric number="18">
          <text>田</text>
        </lyric>
        <lyric number="19">
          <text>不开</text>
        </lyric>
        <lyric number="20">
          <text>田中</text>
        </lyric>
        <lyric number="21">
          <text>凹方</text>
        </lyric>
        <lyric number="22">
          <text>水上</text>
        </lyric>
        <lyric number="23">
          <text>似戈</text>
        </lyric>
        <lyric number="24">
          <text>企企</text>
        </lyric>
        <lyric number="25">
          <text>洋洋</text>
        </lyric>
        <lyric number="26">
          <text>曲樑</text>
        </lyric>
        <lyric number="27">
          <text>头上</text>
        </lyric>
        <lyric number="28">
          <text>喜洋</text>
        </lyric>
        <lyric number="29">
          <text>三曲</text>
        </lyric>
        <lyric number="30">
          <text>木头</text>
        </lyric>
        <lyric number="31">
          <text>田[未击中:四]</text>
        </lyric>
        <lyric number="32">
          <text>嘻嘻</text>
        </lyric>
        <lyric number="33">
          <text>上企</text>
        </lyric>
        <lyric number="34">
          <text>良樑</text>
        </lyric>
        <lyric number="35">
          <text>酉时</text>
        </lyric>
        <lyric number="36">
          <text>笑嘻</text>
        </lyric>
        <lyric number="37">
          <text>木上</text>
        </lyric>
        <lyric number="38">
          <text>良樑</text>
        </lyric>
        <lyric number="39">
          <text>正酉</text>
        </lyric>
      </note>
      <note>
        <pitch>
          <step>A</step>
          <octave>3</octave>
        </pitch>
        <duration>6</duration>
        <type>quarter</type>
        <tie type="start" />
        <lyric number="1">
          <text>来</text>
        </lyric>
        <lyric number="2">
          <text>来</text>
        </lyric>
        <lyric number="3">
          <text>面加一</text>
        </lyric>
        <lyric number="4">
          <text>起尖锋</text>
        </lyric>
        <lyric number="5">
          <text>上面加一</text>
        </lyric>
        <lyric number="6">
          <text>笔</text>
        </lyric>
        <lyric number="7">
          <text>言</text>
        </lyric>
        <lyric number="8">
          <text>过</text>
        </lyric>
        <lyric number="9">
          <text>城</text>
        </lyric>
        <lyric number="10">
          <text>行</text>
        </lyric>
        <lyric number="11">
          <text>字</text>
        </lyric>
        <lyric number="12">
          <text>登</text>
        </lyric>
        <lyric number="13">
          <text>洋</text>
        </lyric>
        <lyric number="14">
          <text>樑</text>
        </lyric>
        <lyric number="15">
          <text>上</text>
        </lyric>
        <lyric number="16">
          <text>方</text>
        </lyric>
        <lyric number="17">
          <text>上过</text>
        </lyric>
        <lyric number="18">
          <text>嘻</text>
        </lyric>
        <lyric number="19">
          <text>企</text>
        </lyric>
        <lyric number="20">
          <text>上过</text>
        </lyric>
        <lyric number="21">
          <text>时</text>
        </lyric>
      </note>
      <note>
        <rest />
        <duration>4</duration>
        <type>quarter</type>
      </note>
    </measure>
  </part>
</score-partwise>
