<?xml version='1.0' encoding='utf-8'?>
<score-partwise version="3.1">
  <work>
    <work-title>页面_song_570</work-title>
  </work>
  <part-list>
    <score-part id="P1">
      <part-name>简谱旋律</part-name>
    </score-part>
  </part-list>
  <part id="P1">
    <measure number="1">
      <attributes>
        <divisions>4</divisions>
        <key>
          <fifths>0</fifths>
        </key>
        <time>
          <beats>4</beats>
          <beat-type>4</beat-type>
        </time>
      </attributes>
      <note>
        <rest />
        <duration>2</duration>
        <type>eighth</type>
      </note>
      <note>
        <pitch>
          <step>A</step>
          <octave>4</octave>
        </pitch>
        <duration>1</duration>
        <type>16th</type>
        <lyric number="1">
          <text>当</text>
        </lyric>
        <lyric number="2">
          <text>夜</text>
        </lyric>
        <lyric number="3">
          <text>实</text>
        </lyric>
        <lyric number="4">
          <text>单</text>
        </lyric>
        <lyric number="5">
          <text>当</text>
        </lyric>
        <lyric number="6">
          <text>谁</text>
        </lyric>
        <lyric number="7">
          <text>军</text>
        </lyric>
      </note>
      <note>
        <pitch>
          <step>C</step>
          <octave>5</octave>
        </pitch>
        <duration>1</duration>
        <type>16th</type>
        <lyric number="1">
          <text>作</text>
        </lyric>
        <lyric number="2">
          <text>夜</text>
        </lyric>
        <lyric number="3">
          <text>实</text>
        </lyric>
        <lyric number="4">
          <text>单</text>
        </lyric>
        <lyric number="5">
          <text>初</text>
        </lyric>
        <lyric number="6">
          <text>知</text>
        </lyric>
        <lyric number="7">
          <text>阀</text>
        </lyric>
      </note>
      <note>
        <pitch>
          <step>A</step>
          <octave>4</octave>
        </pitch>
        <duration>2</duration>
        <type>eighth</type>
        <lyric number="1">
          <text>白</text>
        </lyric>
        <lyric number="2">
          <text>都</text>
        </lyric>
        <lyric number="3">
          <text>在</text>
        </lyric>
        <lyric number="4">
          <text>冤</text>
        </lyric>
        <lyric number="5">
          <text>何</text>
        </lyric>
        <lyric number="6">
          <text>雪</text>
        </lyric>
        <lyric number="7">
          <text>豪</text>
        </lyric>
      </note>
      <note>
        <pitch>
          <step>A</step>
          <octave>4</octave>
        </pitch>
        <duration>2</duration>
        <type>eighth</type>
        <lyric number="1">
          <text>贼</text>
        </lyric>
        <lyric number="2">
          <text>睡</text>
        </lyric>
        <lyric number="3">
          <text>在</text>
        </lyric>
        <lyric number="4">
          <text>枉</text>
        </lyric>
        <lyric number="5">
          <text>必</text>
        </lyric>
        <lyric number="6">
          <text>上</text>
        </lyric>
        <lyric number="7">
          <text>绅</text>
        </lyric>
      </note>
      <note>
        <pitch>
          <step>A</step>
          <octave>4</octave>
        </pitch>
        <duration>2</duration>
        <type>eighth</type>
        <lyric number="1">
          <text>哪</text>
        </lyric>
        <lyric number="2">
          <text>哪</text>
        </lyric>
        <lyric number="3">
          <text>哪</text>
        </lyric>
        <lyric number="4">
          <text>哪</text>
        </lyric>
        <lyric number="5">
          <text>哪</text>
        </lyric>
        <lyric number="6">
          <text>哪</text>
        </lyric>
        <lyric number="7">
          <text>哪</text>
        </lyric>
      </note>
      <note>
        <rest />
        <duration>2</duration>
        <type>eighth</type>
      </note>
    </measure>
    <measure number="2">
      <attributes>
        <time>
          <beats>4</beats>
          <beat-type>4</beat-type>
        </time>
      </attributes>
      <note>
        <pitch>
          <step>D</step>
          <octave>6</octave>
        </pitch>
        <duration>4</duration>
        <type>quarter</type>
        <tie type="start" />
        <tie type="stop" />
        <lyric number="1">
          <text>系</text>
        </lyric>
        <lyric number="2">
          <text>烂</text>
        </lyric>
        <lyric number="3">
          <text>苦</text>
        </lyric>
        <lyric number="4">
          <text>当</text>
        </lyric>
        <lyric number="5">
          <text>离</text>
        </lyric>
        <lyric number="6">
          <text>又</text>
        </lyric>
        <lyric number="7">
          <text>消</text>
        </lyric>
      </note>
      <note>
        <pitch>
          <step>D</step>
          <octave>5</octave>
        </pitch>
        <duration>4</duration>
        <type>quarter</type>
        <lyric number="1">
          <text>凄</text>
        </lyric>
        <lyric number="2">
          <text>祠</text>
        </lyric>
        <lyric number="3">
          <text>难</text>
        </lyric>
        <lyric number="4">
          <text>兵</text>
        </lyric>
        <lyric number="5">
          <text>冢</text>
        </lyric>
        <lyric number="6">
          <text>加</text>
        </lyric>
        <lyric number="7">
          <text>灭</text>
        </lyric>
      </note>
      <note>
        <pitch>
          <step>C</step>
          <octave>5</octave>
        </pitch>
        <duration>2</duration>
        <type>eighth</type>
        <lyric number="1">
          <text>嘟</text>
        </lyric>
        <lyric number="2">
          <text>嘟</text>
        </lyric>
        <lyric number="3">
          <text>嘟</text>
        </lyric>
        <lyric number="4">
          <text>嘟</text>
        </lyric>
        <lyric number="5">
          <text>嘟</text>
        </lyric>
        <lyric number="6">
          <text>嘟</text>
        </lyric>
        <lyric number="7">
          <text>嘟</text>
        </lyric>
      </note>
    </measure>
    <measure number="3">
      <attributes>
        <time>
          <beats>4</beats>
          <beat-type>4</beat-type>
        </time>
      </attributes>
      <note>
        <pitch>
          <step>D</step>
          <octave>5</octave>
        </pitch>
        <duration>16</duration>
        <type>whole</type>
        <tie type="start" />
        <tie type="stop" />
        <lyric number="1">
          <text>凉</text>
        </lyric>
        <lyric number="2">
          <text>堂</text>
        </lyric>
        <lyric number="3">
          <text>当</text>
        </lyric>
        <lyric number="4">
          <text>郎nan</text>
        </lyric>
        <lyric number="5">
          <text>乡</text>
        </lyric>
        <lyric number="6">
          <text>霜</text>
        </lyric>
        <lyric number="7">
          <text>光</text>
        </lyric>
      </note>
    </measure>
    <measure number="4">
      <attributes>
        <time>
          <beats>4</beats>
          <beat-type>4</beat-type>
        </time>
      </attributes>
      <note>
        <pitch>
          <step>D</step>
          <octave>5</octave>
        </pitch>
        <duration>2</duration>
        <type>eighth</type>
        <lyric number="1">
          <text>离</text>
        </lyric>
        <lyric number="2">
          <text>长</text>
        </lyric>
        <lyric number="3">
          <text>nan</text>
        </lyric>
        <lyric number="4">
          <text>难</text>
        </lyric>
        <lyric number="5">
          <text>冢</text>
        </lyric>
        <lyric number="6">
          <text>今</text>
        </lyric>
        <lyric number="7">
          <text>大</text>
        </lyric>
      </note>
      <note>
        <pitch>
          <step>E</step>
          <octave>5</octave>
        </pitch>
        <duration>2</duration>
        <type>eighth</type>
        <lyric number="1">
          <text>开</text>
        </lyric>
        <lyric number="2">
          <text>官</text>
        </lyric>
        <lyric number="3">
          <text>谁</text>
        </lyric>
        <lyric number="4">
          <text>得</text>
        </lyric>
        <lyric number="5">
          <text>中</text>
        </lyric>
        <lyric number="6">
          <text>天</text>
        </lyric>
        <lyric number="7">
          <text>家</text>
        </lyric>
      </note>
      <note>
        <pitch>
          <step>D</step>
          <octave>5</octave>
        </pitch>
        <duration>2</duration>
        <type>eighth</type>
        <lyric number="1">
          <text>妻</text>
        </lyric>
        <lyric number="2">
          <text>如</text>
        </lyric>
        <lyric number="3">
          <text>辛</text>
        </lyric>
        <lyric number="4">
          <text>有</text>
        </lyric>
        <lyric number="5">
          <text>贫</text>
        </lyric>
        <lyric number="6">
          <text>觉</text>
        </lyric>
        <lyric number="7">
          <text>拥</text>
        </lyric>
      </note>
      <note>
        <pitch>
          <step>D</step>
          <octave>5</octave>
        </pitch>
        <duration>1</duration>
        <type>16th</type>
        <lyric number="1">
          <text>子</text>
        </lyric>
        <lyric number="2">
          <text>虎</text>
        </lyric>
        <lyric number="3">
          <text>苦</text>
        </lyric>
        <lyric number="4">
          <text>钱</text>
        </lyric>
        <lyric number="5">
          <text>苦</text>
        </lyric>
        <lyric number="6">
          <text>悟</text>
        </lyric>
        <lyric number="7">
          <text>护</text>
        </lyric>
      </note>
      <note>
        <pitch>
          <step>C</step>
          <octave>5</octave>
        </pitch>
        <duration>1</duration>
        <type>16th</type>
        <lyric number="1">
          <text>都</text>
        </lyric>
      </note>
    </measure>
    <measure number="5">
      <attributes>
        <time>
          <beats>4</beats>
          <beat-type>4</beat-type>
        </time>
      </attributes>
      <note>
        <pitch>
          <step>A</step>
          <octave>4</octave>
        </pitch>
        <duration>2</duration>
        <type>eighth</type>
        <lyric number="1">
          <text>走</text>
        </lyric>
        <lyric number="2">
          <text>又</text>
        </lyric>
        <lyric number="3">
          <text>[未击中:为]</text>
        </lyric>
        <lyric number="4">
          <text>转</text>
        </lyric>
        <lyric number="5">
          <text>系</text>
        </lyric>
        <lyric number="6">
          <text>又</text>
        </lyric>
        <lyric number="7">
          <text>共</text>
        </lyric>
      </note>
      <note>
        <pitch>
          <step>A</step>
          <octave>4</octave>
        </pitch>
        <duration>2</duration>
        <type>eighth</type>
        <lyric number="1">
          <text>别</text>
        </lyric>
        <lyric number="2">
          <text>如</text>
        </lyric>
        <lyric number="3">
          <text>谁</text>
        </lyric>
        <lyric number="4">
          <text>回</text>
        </lyric>
        <lyric number="5">
          <text>难</text>
        </lyric>
        <lyric number="6">
          <text>何</text>
        </lyric>
        <lyric number="7">
          <text>产</text>
        </lyric>
      </note>
      <note>
        <pitch>
          <step>A</step>
          <octave>4</octave>
        </pitch>
        <duration>2</duration>
        <type>eighth</type>
        <lyric number="1">
          <text>方</text>
        </lyric>
        <lyric number="2">
          <text>狼</text>
        </lyric>
        <lyric number="3">
          <text>忙</text>
        </lyric>
        <lyric number="4">
          <text>乡</text>
        </lyric>
        <lyric number="5">
          <text>当</text>
        </lyric>
        <lyric number="6">
          <text>妨</text>
        </lyric>
        <lyric number="7">
          <text>党</text>
        </lyric>
      </note>
      <note>
        <pitch>
          <step>A</step>
          <octave>4</octave>
        </pitch>
        <duration>2</duration>
        <type>eighth</type>
        <lyric number="1">
          <text>哪</text>
        </lyric>
        <lyric number="2">
          <text>哪</text>
        </lyric>
        <lyric number="3">
          <text>哪</text>
        </lyric>
        <lyric number="4">
          <text>哪</text>
        </lyric>
        <lyric number="5">
          <text>哪</text>
        </lyric>
        <lyric number="6">
          <text>哪</text>
        </lyric>
        <lyric number="7">
          <text>哪</text>
        </lyric>
      </note>
      <note>
        <rest />
        <duration>4</duration>
        <type>quarter</type>
      </note>
    </measure>
    <measure number="6">
      <attributes>
        <time>
          <beats>4</beats>
          <beat-type>4</beat-type>
        </time>
      </attributes>
      <note>
        <pitch>
          <step>E</step>
          <octave>5</octave>
        </pitch>
        <duration>2</duration>
        <type>eighth</type>
        <lyric number="1">
          <text>一</text>
        </lyric>
        <lyric number="2">
          <text>战</text>
        </lyric>
        <lyric number="3">
          <text>军</text>
        </lyric>
        <lyric number="4">
          <text>穿</text>
        </lyric>
        <lyric number="5">
          <text>田</text>
        </lyric>
        <lyric number="6">
          <text>工</text>
        </lyric>
        <lyric number="7">
          <text>组</text>
        </lyric>
      </note>
      <note>
        <pitch>
          <step>A</step>
          <octave>4</octave>
        </pitch>
        <duration>2</duration>
        <type>eighth</type>
        <lyric number="1">
          <text>日</text>
        </lyric>
        <lyric number="2">
          <text>时</text>
        </lyric>
        <lyric number="3">
          <text>师</text>
        </lyric>
        <lyric number="4">
          <text>洲</text>
        </lyric>
        <lyric number="5">
          <text>无</text>
        </lyric>
        <lyric number="6">
          <text>农</text>
        </lyric>
        <lyric number="7">
          <text>织</text>
        </lyric>
      </note>
      <note>
        <pitch>
          <step>C</step>
          <octave>5</octave>
        </pitch>
        <duration>1</duration>
        <type>16th</type>
        <lyric number="1">
          <text>三</text>
        </lyric>
        <lyric number="2">
          <text>白</text>
        </lyric>
        <lyric number="3">
          <text>团</text>
        </lyric>
        <lyric number="4">
          <text>过</text>
        </lyric>
        <lyric number="5">
          <text>耕</text>
        </lyric>
        <lyric number="6">
          <text>士</text>
        </lyric>
        <lyric number="7">
          <text>工</text>
        </lyric>
      </note>
      <note>
        <pitch>
          <step>D</step>
          <octave>5</octave>
        </pitch>
        <duration>1</duration>
        <type>16th</type>
      </note>
      <note>
        <pitch>
          <step>E</step>
          <octave>5</octave>
        </pitch>
        <duration>2</duration>
        <type>eighth</type>
        <lyric number="1">
          <text>餐</text>
        </lyric>
        <lyric number="2">
          <text>白</text>
        </lyric>
        <lyric number="3">
          <text>长</text>
        </lyric>
        <lyric number="4">
          <text>海</text>
        </lyric>
        <lyric number="5">
          <text>来</text>
        </lyric>
        <lyric number="6">
          <text>兵</text>
        </lyric>
        <lyric number="7">
          <text>农</text>
        </lyric>
      </note>
    </measure>
    <measure number="7">
      <attributes>
        <time>
          <beats>4</beats>
          <beat-type>4</beat-type>
        </time>
      </attributes>
      <note>
        <pitch>
          <step>A</step>
          <octave>4</octave>
        </pitch>
        <duration>2</duration>
        <type>eighth</type>
        <lyric number="1">
          <text>都</text>
        </lyric>
        <lyric number="2">
          <text>去</text>
        </lyric>
        <lyric number="3">
          <text>坐</text>
        </lyric>
        <lyric number="4">
          <text>无</text>
        </lyric>
        <lyric number="5">
          <text>地</text>
        </lyric>
        <lyric number="6">
          <text>联</text>
        </lyric>
        <lyric number="7">
          <text>兵</text>
        </lyric>
      </note>
      <note>
        <pitch>
          <step>A</step>
          <octave>4</octave>
        </pitch>
        <duration>2</duration>
        <type>eighth</type>
        <lyric number="1">
          <text>无</text>
        </lyric>
        <lyric number="2">
          <text>送</text>
        </lyric>
        <lyric number="3">
          <text>马</text>
        </lyric>
        <lyric number="4">
          <text>音</text>
        </lyric>
        <lyric number="5">
          <text>无</text>
        </lyric>
        <lyric number="6">
          <text>合</text>
        </lyric>
        <lyric number="7">
          <text>政</text>
        </lyric>
      </note>
      <note>
        <pitch>
          <step>C</step>
          <octave>5</octave>
        </pitch>
        <duration>2</duration>
        <type>eighth</type>
        <lyric number="1">
          <text>饱</text>
        </lyric>
        <lyric number="2">
          <text>命</text>
        </lyric>
        <lyric number="3">
          <text>轿</text>
        </lyric>
        <lyric number="4">
          <text>讯</text>
        </lyric>
        <lyric number="5">
          <text>种</text>
        </lyric>
        <lyric number="6">
          <text>起</text>
        </lyric>
        <lyric number="7">
          <text>府</text>
        </lyric>
      </note>
      <note>
        <pitch>
          <step>A</step>
          <octave>4</octave>
        </pitch>
        <duration>2</duration>
        <type>eighth</type>
        <lyric number="1">
          <text>哪</text>
        </lyric>
        <lyric number="2">
          <text>哪</text>
        </lyric>
        <lyric number="3">
          <text>哪</text>
        </lyric>
        <lyric number="4">
          <text>哪</text>
        </lyric>
        <lyric number="5">
          <text>哪</text>
        </lyric>
        <lyric number="6">
          <text>哪</text>
        </lyric>
        <lyric number="7">
          <text>哪</text>
        </lyric>
      </note>
      <note>
        <rest />
        <duration>4</duration>
        <type>quarter</type>
      </note>
    </measure>
    <measure number="8">
      <attributes>
        <time>
          <beats>4</beats>
          <beat-type>4</beat-type>
        </time>
      </attributes>
      <note>
        <pitch>
          <step>A</step>
          <octave>4</octave>
        </pitch>
        <duration>1</duration>
        <type>16th</type>
        <lyric number="1">
          <text>天</text>
        </lyric>
        <lyric number="2">
          <text>天</text>
        </lyric>
        <lyric number="3">
          <text>九</text>
        </lyric>
        <lyric number="4">
          <text>爷</text>
        </lyric>
        <lyric number="5">
          <text>想</text>
        </lyric>
        <lyric number="6">
          <text>联</text>
        </lyric>
        <lyric number="7">
          <text>穷</text>
        </lyric>
      </note>
      <note>
        <pitch>
          <step>C</step>
          <octave>5</octave>
        </pitch>
        <duration>1</duration>
        <type>16th</type>
      </note>
      <note>
        <pitch>
          <step>D</step>
          <octave>5</octave>
        </pitch>
        <duration>2</duration>
        <type>eighth</type>
        <lyric number="1">
          <text>寒</text>
        </lyric>
        <lyric number="2">
          <text>天</text>
        </lyric>
        <lyric number="3">
          <text>妻</text>
        </lyric>
        <lyric number="4">
          <text>娘</text>
        </lyric>
        <lyric number="5">
          <text>来</text>
        </lyric>
        <lyric number="6">
          <text>合</text>
        </lyric>
        <lyric number="7">
          <text>人</text>
        </lyric>
      </note>
      <note>
        <pitch>
          <step>A</step>
          <octave>4</octave>
        </pitch>
        <duration>2</duration>
        <type>eighth</type>
        <lyric number="1">
          <text>地</text>
        </lyric>
        <lyric number="2">
          <text>岀</text>
        </lyric>
        <lyric number="3">
          <text>十</text>
        </lyric>
        <lyric number="4">
          <text>妻</text>
        </lyric>
        <lyric number="5">
          <text>当</text>
        </lyric>
        <lyric number="6">
          <text>起</text>
        </lyric>
        <lyric number="7">
          <text>作</text>
        </lyric>
      </note>
      <note>
        <pitch>
          <step>D</step>
          <octave>5</octave>
        </pitch>
        <duration>2</duration>
        <type>eighth</type>
        <lyric number="1">
          <text>冻</text>
        </lyric>
        <lyric number="2">
          <text>发</text>
        </lyric>
        <lyric number="3">
          <text>妾</text>
        </lyric>
        <lyric number="4">
          <text>子</text>
        </lyric>
        <lyric number="5">
          <text>兵</text>
        </lyric>
        <lyric number="6">
          <text>来</text>
        </lyric>
        <lyric number="7">
          <text>主</text>
        </lyric>
      </note>
    </measure>
    <measure number="9">
      <attributes>
        <time>
          <beats>4</beats>
          <beat-type>4</beat-type>
        </time>
      </attributes>
      <note>
        <pitch>
          <step>D</step>
          <octave>5</octave>
        </pitch>
        <duration>2</duration>
        <type>eighth</type>
        <lyric number="1">
          <text>苦</text>
        </lyric>
        <lyric number="2">
          <text>路</text>
        </lyric>
        <lyric number="3">
          <text>置</text>
        </lyric>
        <lyric number="4">
          <text>望</text>
        </lyric>
        <lyric number="5">
          <text>求</text>
        </lyric>
        <lyric number="6">
          <text>力</text>
        </lyric>
        <lyric number="7">
          <text>乐</text>
        </lyric>
      </note>
      <note>
        <pitch>
          <step>C</step>
          <octave>5</octave>
        </pitch>
        <duration>2</duration>
        <type>eighth</type>
        <lyric number="1">
          <text>难</text>
        </lyric>
        <lyric number="2">
          <text>头</text>
        </lyric>
        <lyric number="3">
          <text>田</text>
        </lyric>
        <lyric number="4">
          <text>断</text>
        </lyric>
        <lyric number="5">
          <text>口</text>
        </lyric>
        <lyric number="6">
          <text>量nan</text>
        </lyric>
        <lyric number="7">
          <text>洋</text>
        </lyric>
      </note>
      <note>
        <pitch>
          <step>C</step>
          <octave>5</octave>
        </pitch>
        <duration>2</duration>
        <type>eighth</type>
        <lyric number="1">
          <text>当</text>
        </lyric>
        <lyric number="2">
          <text>长</text>
        </lyric>
        <lyric number="3">
          <text>庄</text>
        </lyric>
        <lyric number="4">
          <text>肠</text>
        </lyric>
        <lyric number="5">
          <text>粮</text>
        </lyric>
        <lyric number="6">
          <text>洋</text>
        </lyric>
      </note>
      <note>
        <pitch>
          <step>C</step>
          <octave>6</octave>
        </pitch>
        <duration>2</duration>
        <type>eighth</type>
        <lyric number="1">
          <text>呀</text>
        </lyric>
        <lyric number="2">
          <text>呀</text>
        </lyric>
        <lyric number="3">
          <text>呀</text>
        </lyric>
        <lyric number="4">
          <text>呀</text>
        </lyric>
        <lyric number="5">
          <text>呀</text>
        </lyric>
        <lyric number="6">
          <text>呀</text>
        </lyric>
        <lyric number="7">
          <text>呀</text>
        </lyric>
      </note>
    </measure>
    <measure number="10">
      <attributes>
        <time>
          <beats>4</beats>
          <beat-type>4</beat-type>
        </time>
      </attributes>
      <note>
        <pitch>
          <step>A</step>
          <octave>4</octave>
        </pitch>
        <duration>2</duration>
        <type>eighth</type>
        <lyric number="1">
          <text>夜</text>
        </lyric>
        <lyric number="2">
          <text>实</text>
        </lyric>
        <lyric number="3">
          <text>单</text>
        </lyric>
        <lyric number="4">
          <text>当</text>
        </lyric>
        <lyric number="5">
          <text>谁</text>
        </lyric>
        <lyric number="6">
          <text>军</text>
        </lyric>
        <lyric number="7">
          <text>共</text>
        </lyric>
      </note>
      <note>
        <pitch>
          <step>A</step>
          <octave>4</octave>
        </pitch>
        <duration>2</duration>
        <type>eighth</type>
        <lyric number="1">
          <text>夜</text>
        </lyric>
        <lyric number="2">
          <text>实</text>
        </lyric>
        <lyric number="3">
          <text>单</text>
        </lyric>
        <lyric number="4">
          <text>初</text>
        </lyric>
        <lyric number="5">
          <text>知</text>
        </lyric>
        <lyric number="6">
          <text>阀</text>
        </lyric>
        <lyric number="7">
          <text>产</text>
        </lyric>
      </note>
      <note>
        <pitch>
          <step>D</step>
          <octave>5</octave>
        </pitch>
        <duration>2</duration>
        <type>eighth</type>
        <lyric number="1">
          <text>都</text>
        </lyric>
        <lyric number="2">
          <text>在</text>
        </lyric>
        <lyric number="3">
          <text>冤</text>
        </lyric>
        <lyric number="4">
          <text>何</text>
        </lyric>
        <lyric number="5">
          <text>雪</text>
        </lyric>
        <lyric number="6">
          <text>豪</text>
        </lyric>
        <lyric number="7">
          <text>主</text>
        </lyric>
      </note>
      <note>
        <pitch>
          <step>D</step>
          <octave>5</octave>
        </pitch>
        <duration>1</duration>
        <type>16th</type>
        <lyric number="1">
          <text>睡</text>
        </lyric>
        <lyric number="2">
          <text>在</text>
        </lyric>
        <lyric number="3">
          <text>枉</text>
        </lyric>
        <lyric number="4">
          <text>必</text>
        </lyric>
        <lyric number="5">
          <text>上</text>
        </lyric>
        <lyric number="6">
          <text>绅</text>
        </lyric>
        <lyric number="7">
          <text>义</text>
        </lyric>
      </note>
      <note>
        <pitch>
          <step>C</step>
          <octave>5</octave>
        </pitch>
        <duration>1</duration>
        <type>16th</type>
        <lyric number="1">
          <text>正</text>
        </lyric>
      </note>
    </measure>
    <measure number="11">
      <attributes>
        <time>
          <beats>4</beats>
          <beat-type>4</beat-type>
        </time>
      </attributes>
      <note>
        <pitch>
          <step>D</step>
          <octave>5</octave>
        </pitch>
        <duration>2</duration>
        <type>eighth</type>
        <lyric number="1">
          <text>烂</text>
        </lyric>
        <lyric number="2">
          <text>苦</text>
        </lyric>
        <lyric number="3">
          <text>当</text>
        </lyric>
        <lyric number="4">
          <text>离</text>
        </lyric>
        <lyric number="5">
          <text>又</text>
        </lyric>
        <lyric number="6">
          <text>消</text>
        </lyric>
        <lyric number="7">
          <text>万</text>
        </lyric>
      </note>
      <note>
        <pitch>
          <step>C</step>
          <octave>5</octave>
        </pitch>
        <duration>6</duration>
        <type>quarter</type>
        <dot />
        <lyric number="1">
          <text>祠</text>
        </lyric>
        <lyric number="2">
          <text>难</text>
        </lyric>
        <lyric number="3">
          <text>兵</text>
        </lyric>
        <lyric number="4">
          <text>家</text>
        </lyric>
        <lyric number="5">
          <text>加</text>
        </lyric>
        <lyric number="6">
          <text>灭</text>
        </lyric>
        <lyric number="7">
          <text>年</text>
        </lyric>
      </note>
    </measure>
    <measure number="12">
      <attributes>
        <time>
          <beats>4</beats>
          <beat-type>4</beat-type>
        </time>
      </attributes>
      <note>
        <pitch>
          <step>A</step>
          <octave>4</octave>
        </pitch>
        <duration>2</duration>
        <type>eighth</type>
        <lyric number="1">
          <text>堂</text>
        </lyric>
        <lyric number="2">
          <text>当</text>
        </lyric>
        <lyric number="3">
          <text>郎</text>
        </lyric>
        <lyric number="4">
          <text>乡</text>
        </lyric>
        <lyric number="5">
          <text>霜</text>
        </lyric>
        <lyric number="6">
          <text>光</text>
        </lyric>
        <lyric number="7">
          <text>长</text>
        </lyric>
      </note>
      <note>
        <pitch>
          <step>A</step>
          <octave>5</octave>
        </pitch>
        <duration>12</duration>
        <type>half</type>
        <dot />
        <tie type="start" />
        <tie type="stop" />
        <lyric number="1">
          <text>啊</text>
        </lyric>
        <lyric number="2">
          <text>啊</text>
        </lyric>
        <lyric number="3">
          <text>啊</text>
        </lyric>
      </note>
    </measure>
  </part>
</score-partwise>
