<?xml version='1.0' encoding='utf-8'?>
<score-partwise version="3.1">
  <work>
    <work-title>页面_song_596</work-title>
  </work>
  <part-list>
    <score-part id="P1">
      <part-name>简谱旋律</part-name>
    </score-part>
  </part-list>
  <part id="P1">
    <measure number="1">
      <attributes>
        <divisions>4</divisions>
        <key>
          <fifths>0</fifths>
        </key>
        <time>
          <beats>4</beats>
          <beat-type>4</beat-type>
        </time>
      </attributes>
      <note>
        <pitch>
          <step>A</step>
          <octave>3</octave>
        </pitch>
        <duration>2</duration>
        <type>eighth</type>
        <lyric number="1">
          <text>正</text>
        </lyric>
        <lyric number="2">
          <text>二</text>
        </lyric>
        <lyric number="3">
          <text>三</text>
        </lyric>
        <lyric number="4">
          <text>凹</text>
        </lyric>
        <lyric number="5">
          <text>五</text>
        </lyric>
        <lyric number="6">
          <text>六</text>
        </lyric>
      </note>
      <note>
        <pitch>
          <step>C</step>
          <octave>4</octave>
        </pitch>
        <duration>2</duration>
        <type>eighth</type>
        <lyric number="1">
          <text>月</text>
        </lyric>
        <lyric number="2">
          <text>月</text>
        </lyric>
        <lyric number="3">
          <text>月</text>
        </lyric>
        <lyric number="4">
          <text>月</text>
        </lyric>
        <lyric number="5">
          <text>月</text>
        </lyric>
        <lyric number="6">
          <text>月</text>
        </lyric>
      </note>
      <note>
        <pitch>
          <step>A</step>
          <octave>3</octave>
        </pitch>
        <duration>2</duration>
        <type>eighth</type>
        <lyric number="1">
          <text>绣</text>
        </lyric>
        <lyric number="2">
          <text>绣</text>
        </lyric>
        <lyric number="3">
          <text>绣</text>
        </lyric>
        <lyric number="4">
          <text>绣</text>
        </lyric>
        <lyric number="5">
          <text>绣</text>
        </lyric>
        <lyric number="6">
          <text>绣</text>
        </lyric>
      </note>
      <note>
        <pitch>
          <step>C</step>
          <octave>4</octave>
        </pitch>
        <duration>2</duration>
        <type>eighth</type>
        <lyric number="1">
          <text>花</text>
        </lyric>
        <lyric number="2">
          <text>花</text>
        </lyric>
        <lyric number="3">
          <text>花</text>
        </lyric>
        <lyric number="4">
          <text>花</text>
        </lyric>
        <lyric number="5">
          <text>花</text>
        </lyric>
        <lyric number="6">
          <text>花</text>
        </lyric>
      </note>
      <note>
        <pitch>
          <step>A</step>
          <octave>3</octave>
        </pitch>
        <duration>2</duration>
        <type>eighth</type>
        <lyric number="1">
          <text>是</text>
        </lyric>
        <lyric number="2">
          <text>是</text>
        </lyric>
        <lyric number="3">
          <text>是</text>
        </lyric>
        <lyric number="4">
          <text>是</text>
        </lyric>
        <lyric number="5">
          <text>是</text>
        </lyric>
        <lyric number="6">
          <text>是</text>
        </lyric>
      </note>
      <note>
        <pitch>
          <step>C</step>
          <octave>4</octave>
        </pitch>
        <duration>2</duration>
        <type>eighth</type>
        <lyric number="1">
          <text>新</text>
        </lyric>
        <lyric number="2">
          <text>花</text>
        </lyric>
        <lyric number="3">
          <text>清</text>
        </lyric>
        <lyric number="4">
          <text>立</text>
        </lyric>
        <lyric number="5">
          <text>端</text>
        </lyric>
        <lyric number="6">
          <text>伏</text>
        </lyric>
      </note>
    </measure>
    <measure number="2">
      <attributes>
        <time>
          <beats>4</beats>
          <beat-type>4</beat-type>
        </time>
      </attributes>
      <note>
        <pitch>
          <step>D</step>
          <octave>4</octave>
        </pitch>
        <duration>2</duration>
        <type>eighth</type>
        <tie type="stop" />
        <lyric number="1">
          <text>年</text>
        </lyric>
        <lyric number="2">
          <text>草</text>
        </lyric>
        <lyric number="3">
          <text>明</text>
        </lyric>
        <lyric number="4">
          <text>夏</text>
        </lyric>
        <lyric number="5">
          <text>阳</text>
        </lyric>
        <lyric number="6">
          <text>天</text>
        </lyric>
      </note>
      <note>
        <pitch>
          <step>E</step>
          <octave>4</octave>
        </pitch>
        <duration>2</duration>
        <type>eighth</type>
      </note>
      <note>
        <pitch>
          <step>D</step>
          <octave>4</octave>
        </pitch>
        <duration>6</duration>
        <type>quarter</type>
        <tie type="start" />
      </note>
      <note>
        <pitch>
          <step>C</step>
          <octave>4</octave>
        </pitch>
        <duration>4</duration>
        <type>quarter</type>
        <lyric number="1">
          <text>哟</text>
        </lyric>
        <lyric number="2">
          <text>哟</text>
        </lyric>
        <lyric number="3">
          <text>哟</text>
        </lyric>
        <lyric number="4">
          <text>哟</text>
        </lyric>
        <lyric number="5">
          <text>哟</text>
        </lyric>
        <lyric number="6">
          <text>哟</text>
        </lyric>
      </note>
    </measure>
    <measure number="3">
      <attributes>
        <time>
          <beats>4</beats>
          <beat-type>4</beat-type>
        </time>
      </attributes>
      <note>
        <pitch>
          <step>A</step>
          <octave>3</octave>
        </pitch>
        <duration>2</duration>
        <type>eighth</type>
        <lyric number="1">
          <text>手</text>
        </lyric>
        <lyric number="2">
          <text>双</text>
        </lyric>
        <lyric number="3">
          <text>细</text>
        </lyric>
        <lyric number="4">
          <text>手</text>
        </lyric>
        <lyric number="5">
          <text>龙</text>
        </lyric>
        <lyric number="6">
          <text>妹</text>
        </lyric>
      </note>
      <note>
        <pitch>
          <step>D</step>
          <octave>4</octave>
        </pitch>
        <duration>2</duration>
        <type>eighth</type>
        <lyric number="1">
          <text>拿</text>
        </lyric>
        <lyric number="2">
          <text>手</text>
        </lyric>
        <lyric number="3">
          <text>妹</text>
        </lyric>
        <lyric number="4">
          <text>拿</text>
        </lyric>
        <lyric number="5">
          <text>船</text>
        </lyric>
        <lyric number="6">
          <text>子</text>
        </lyric>
      </note>
      <note>
        <pitch>
          <step>C</step>
          <octave>4</octave>
        </pitch>
        <duration>2</duration>
        <type>eighth</type>
        <lyric number="1">
          <text>花</text>
        </lyric>
        <lyric number="2">
          <text>拿</text>
        </lyric>
        <lyric number="3">
          <text>花</text>
        </lyric>
        <lyric number="4">
          <text>鞋</text>
        </lyric>
        <lyric number="5">
          <text>下</text>
        </lyric>
        <lyric number="6">
          <text>做</text>
        </lyric>
      </note>
      <note>
        <pitch>
          <step>A</step>
          <octave>3</octave>
        </pitch>
        <duration>2</duration>
        <type>eighth</type>
        <lyric number="1">
          <text>鞋</text>
        </lyric>
        <lyric number="2">
          <text>水</text>
        </lyric>
        <lyric number="3">
          <text>鞋</text>
        </lyric>
      </note>
      <note>
        <pitch>
          <step>G</step>
          <octave>3</octave>
        </pitch>
        <duration>2</duration>
        <type>eighth</type>
        <tie type="stop" />
        <lyric number="1">
          <text>鞋</text>
        </lyric>
        <lyric number="2">
          <text>荷</text>
        </lyric>
        <lyric number="3">
          <text>绣</text>
        </lyric>
        <lyric number="4">
          <text>底</text>
        </lyric>
        <lyric number="5">
          <text>闹</text>
        </lyric>
        <lyric number="6">
          <text>在</text>
        </lyric>
      </note>
      <note>
        <pitch>
          <step>E</step>
          <octave>3</octave>
        </pitch>
        <duration>1</duration>
        <type>16th</type>
        <lyric number="1">
          <text>唔</text>
        </lyric>
        <lyric number="2">
          <text>洋</text>
        </lyric>
        <lyric number="3">
          <text>手</text>
        </lyric>
      </note>
      <note>
        <pitch>
          <step>G</step>
          <octave>3</octave>
        </pitch>
        <duration>3</duration>
        <type>eighth</type>
        <tie type="start" />
      </note>
    </measure>
    <measure number="4">
      <attributes>
        <time>
          <beats>4</beats>
          <beat-type>4</beat-type>
        </time>
      </attributes>
      <note>
        <pitch>
          <step>A</step>
          <octave>3</octave>
        </pitch>
        <duration>8</duration>
        <type>half</type>
        <lyric number="1">
          <text>剪</text>
        </lyric>
        <lyric number="2">
          <text>包</text>
        </lyric>
        <lyric number="3">
          <text>成</text>
        </lyric>
        <lyric number="4">
          <text>打nan</text>
        </lyric>
        <lyric number="5">
          <text>洋</text>
        </lyric>
        <lyric number="6">
          <text>边</text>
        </lyric>
      </note>
    </measure>
    <measure number="5">
      <attributes>
        <time>
          <beats>4</beats>
          <beat-type>4</beat-type>
        </time>
      </attributes>
      <note>
        <pitch>
          <step>C</step>
          <octave>4</octave>
        </pitch>
        <duration>2</duration>
        <type>eighth</type>
        <lyric number="1">
          <text>想</text>
        </lyric>
        <lyric number="2">
          <text>想</text>
        </lyric>
        <lyric number="3">
          <text>想</text>
        </lyric>
        <lyric number="4">
          <text>想</text>
        </lyric>
        <lyric number="5">
          <text>想</text>
        </lyric>
        <lyric number="6">
          <text>想</text>
        </lyric>
      </note>
      <note>
        <pitch>
          <step>G</step>
          <octave>3</octave>
        </pitch>
        <duration>2</duration>
        <type>eighth</type>
        <lyric number="1">
          <text>起</text>
        </lyric>
        <lyric number="2">
          <text>起</text>
        </lyric>
        <lyric number="3">
          <text>起</text>
        </lyric>
        <lyric number="4">
          <text>起</text>
        </lyric>
        <lyric number="5">
          <text>起</text>
        </lyric>
        <lyric number="6">
          <text>起</text>
        </lyric>
        <lyric number="7">
          <text>nan七月</text>
        </lyric>
        <lyric number="8">
          <text>nannan月</text>
        </lyric>
      </note>
      <note>
        <pitch>
          <step>A</step>
          <octave>3</octave>
        </pitch>
        <duration>4</duration>
        <type>quarter</type>
        <lyric number="1">
          <text>哟</text>
        </lyric>
        <lyric number="2">
          <text>哟</text>
        </lyric>
        <lyric number="3">
          <text>哟</text>
        </lyric>
        <lyric number="4">
          <text>哟</text>
        </lyric>
        <lyric number="5">
          <text>哟</text>
        </lyric>
        <lyric number="6">
          <text>哟</text>
        </lyric>
        <lyric number="7">
          <text>绣花是立秋</text>
        </lyric>
        <lyric number="8">
          <text>同郎上山游</text>
        </lyric>
        <lyric number="9">
          <text>俚个哥</text>
        </lyric>
        <lyric number="10">
          <text>在家丢</text>
        </lyric>
        <lyric number="11">
          <text>绣花是中秋nan</text>
        </lyric>
        <lyric number="12">
          <text>丢妹冷啾啾</text>
        </lyric>
        <lyric number="13">
          <text>[未击中:倨]个哥</text>
        </lyric>
        <lyric number="14">
          <text>没风流</text>
        </lyric>
      </note>
    </measure>
    <measure number="6">
      <attributes>
        <time>
          <beats>4</beats>
          <beat-type>4</beat-type>
        </time>
      </attributes>
      <note>
        <pitch>
          <step>G</step>
          <octave>3</octave>
        </pitch>
        <duration>2</duration>
        <type>eighth</type>
        <lyric number="1">
          <text>倨</text>
        </lyric>
        <lyric number="2">
          <text>nan</text>
        </lyric>
        <lyric number="3">
          <text>[未击中:倨]</text>
        </lyric>
        <lyric number="4">
          <text>[未击中:倨]</text>
        </lyric>
        <lyric number="5">
          <text>[未击中:倨]</text>
        </lyric>
        <lyric number="6">
          <text>[未击中:倨]</text>
        </lyric>
      </note>
      <note>
        <pitch>
          <step>E</step>
          <octave>3</octave>
        </pitch>
        <duration>2</duration>
        <type>eighth</type>
        <lyric number="1">
          <text>个</text>
        </lyric>
        <lyric number="2">
          <text>个</text>
        </lyric>
        <lyric number="3">
          <text>个</text>
        </lyric>
        <lyric number="4">
          <text>个</text>
        </lyric>
        <lyric number="5">
          <text>个</text>
        </lyric>
        <lyric number="6">
          <text>个</text>
        </lyric>
      </note>
      <note>
        <pitch>
          <step>D</step>
          <octave>3</octave>
        </pitch>
        <duration>4</duration>
        <type>quarter</type>
        <lyric number="1">
          <text>哥</text>
        </lyric>
        <lyric number="2">
          <text>哥</text>
        </lyric>
        <lyric number="3">
          <text>哥</text>
        </lyric>
        <lyric number="4">
          <text>哥</text>
        </lyric>
        <lyric number="5">
          <text>哥</text>
        </lyric>
        <lyric number="6">
          <text>哥</text>
        </lyric>
      </note>
    </measure>
    <measure number="7">
      <attributes>
        <time>
          <beats>4</beats>
          <beat-type>4</beat-type>
        </time>
      </attributes>
      <note>
        <pitch>
          <step>E</step>
          <octave>3</octave>
        </pitch>
        <duration>2</duration>
        <type>eighth</type>
        <lyric number="1">
          <text>想</text>
        </lyric>
        <lyric number="2">
          <text>实</text>
        </lyric>
        <lyric number="3">
          <text>实</text>
        </lyric>
        <lyric number="4">
          <text>唔</text>
        </lyric>
        <lyric number="5">
          <text>细</text>
        </lyric>
        <lyric number="6">
          <text>来</text>
        </lyric>
      </note>
      <note>
        <pitch>
          <step>G</step>
          <octave>3</octave>
        </pitch>
        <duration>2</duration>
        <type>eighth</type>
        <lyric number="1">
          <text>送</text>
        </lyric>
        <lyric number="2">
          <text>在</text>
        </lyric>
        <lyric number="3">
          <text>在</text>
        </lyric>
        <lyric number="4">
          <text>怕</text>
        </lyric>
        <lyric number="5">
          <text>妹</text>
        </lyric>
        <lyric number="6">
          <text>到</text>
        </lyric>
        <lyric number="7">
          <text>九月绣</text>
        </lyric>
        <lyric number="8">
          <text>亲哥买</text>
        </lyric>
        <lyric number="9">
          <text>想起倨</text>
        </lyric>
        <lyric number="10">
          <text>带妹过</text>
        </lyric>
        <lyric number="11">
          <text>十月绣</text>
        </lyric>
        <lyric number="12">
          <text>妺子花</text>
        </lyric>
        <lyric number="13">
          <text>想起[未击中:倨]</text>
        </lyric>
        <lyric number="14">
          <text>买在好</text>
        </lyric>
      </note>
      <note>
        <pitch>
          <step>A</step>
          <octave>3</octave>
        </pitch>
        <duration>2</duration>
        <type>eighth</type>
        <lyric number="1">
          <text>倨</text>
        </lyric>
        <lyric number="2">
          <text>要</text>
        </lyric>
        <lyric number="3">
          <text>要</text>
        </lyric>
        <lyric number="4">
          <text>家</text>
        </lyric>
        <lyric number="5">
          <text>好</text>
        </lyric>
        <lyric number="6">
          <text>拿</text>
        </lyric>
        <lyric number="7">
          <text>花是重</text>
        </lyric>
        <lyric number="8">
          <text>猪又买</text>
        </lyric>
        <lyric number="9">
          <text>个哥</text>
        </lyric>
        <lyric number="10">
          <text>重阳</text>
        </lyric>
        <lyric number="11">
          <text>花是冷</text>
        </lyric>
        <lyric number="12">
          <text>鞋在手</text>
        </lyric>
        <lyric number="13">
          <text>个哥</text>
        </lyric>
        <lyric number="14">
          <text>可怜</text>
        </lyric>
      </note>
      <note>
        <pitch>
          <step>C</step>
          <octave>4</octave>
        </pitch>
        <duration>2</duration>
        <type>eighth</type>
        <lyric number="1">
          <text>同</text>
        </lyric>
        <lyric number="2">
          <text>做</text>
        </lyric>
        <lyric number="3">
          <text>得</text>
        </lyric>
        <lyric number="4">
          <text>娘</text>
        </lyric>
        <lyric number="5">
          <text>思</text>
        </lyric>
        <lyric number="6">
          <text>过</text>
        </lyric>
        <lyric number="7">
          <text>阳</text>
        </lyric>
        <lyric number="8">
          <text>羊</text>
        </lyric>
        <lyric number="9">
          <text>天</text>
        </lyric>
        <lyric number="10">
          <text>边</text>
        </lyric>
      </note>
    </measure>
    <measure number="8">
      <attributes>
        <time>
          <beats>4</beats>
          <beat-type>4</beat-type>
        </time>
      </attributes>
      <note>
        <pitch>
          <step>G</step>
          <octave>3</octave>
        </pitch>
        <duration>8</duration>
        <type>half</type>
        <lyric number="1">
          <text>年</text>
        </lyric>
        <lyric number="2">
          <text>到nan</text>
        </lyric>
        <lyric number="3">
          <text>紧</text>
        </lyric>
        <lyric number="4">
          <text>骂</text>
        </lyric>
        <lyric number="5">
          <text>量</text>
        </lyric>
        <lyric number="6">
          <text>佢</text>
        </lyric>
      </note>
    </measure>
  </part>
</score-partwise>
