<?xml version='1.0' encoding='utf-8'?>
<score-partwise version="3.1">
  <work>
    <work-title>页面_song_603</work-title>
  </work>
  <part-list>
    <score-part id="P1">
      <part-name>简谱旋律</part-name>
    </score-part>
  </part-list>
  <part id="P1">
    <measure number="1">
      <attributes>
        <divisions>4</divisions>
        <key>
          <fifths>0</fifths>
        </key>
        <time>
          <beats>4</beats>
          <beat-type>4</beat-type>
        </time>
      </attributes>
      <note>
        <pitch>
          <step>G</step>
          <octave>4</octave>
        </pitch>
        <duration>2</duration>
        <type>eighth</type>
        <lyric number="1">
          <text>一</text>
        </lyric>
        <lyric number="2">
          <text>二</text>
        </lyric>
        <lyric number="3">
          <text>三</text>
        </lyric>
      </note>
      <note>
        <pitch>
          <step>G</step>
          <octave>4</octave>
        </pitch>
        <duration>1</duration>
        <type>16th</type>
        <lyric number="1">
          <text>劝</text>
        </lyric>
        <lyric number="2">
          <text>劝</text>
        </lyric>
        <lyric number="3">
          <text>劝</text>
        </lyric>
      </note>
      <note>
        <pitch>
          <step>E</step>
          <octave>4</octave>
        </pitch>
        <duration>1</duration>
        <type>16th</type>
      </note>
      <note>
        <pitch>
          <step>D</step>
          <octave>4</octave>
        </pitch>
        <duration>4</duration>
        <type>quarter</type>
        <lyric number="1">
          <text>郎</text>
        </lyric>
        <lyric number="2">
          <text>郎</text>
        </lyric>
        <lyric number="3">
          <text>郎</text>
        </lyric>
      </note>
    </measure>
    <measure number="2">
      <attributes>
        <time>
          <beats>4</beats>
          <beat-type>4</beat-type>
        </time>
      </attributes>
      <note>
        <pitch>
          <step>C</step>
          <octave>5</octave>
        </pitch>
        <duration>2</duration>
        <type>eighth</type>
        <lyric number="1">
          <text>夜</text>
        </lyric>
        <lyric number="2">
          <text>燕</text>
        </lyric>
        <lyric number="3">
          <text>笑</text>
        </lyric>
      </note>
      <note>
        <pitch>
          <step>A</step>
          <octave>4</octave>
        </pitch>
        <duration>1</duration>
        <type>16th</type>
        <lyric number="1">
          <text>更</text>
        </lyric>
        <lyric number="2">
          <text>子</text>
        </lyric>
        <lyric number="3">
          <text>嘻</text>
        </lyric>
      </note>
      <note>
        <pitch>
          <step>C</step>
          <octave>5</octave>
        </pitch>
        <duration>1</duration>
        <type>16th</type>
      </note>
      <note>
        <pitch>
          <step>D</step>
          <octave>5</octave>
        </pitch>
        <duration>3</duration>
        <type>eighth</type>
        <dot />
        <lyric number="1">
          <text>深</text>
        </lyric>
        <lyric number="2">
          <text>飞</text>
        </lyric>
        <lyric number="3">
          <text>嘻</text>
        </lyric>
      </note>
      <note>
        <pitch>
          <step>E</step>
          <octave>5</octave>
        </pitch>
        <duration>1</duration>
        <type>16th</type>
      </note>
    </measure>
    <measure number="3">
      <attributes>
        <time>
          <beats>4</beats>
          <beat-type>4</beat-type>
        </time>
      </attributes>
      <note>
        <pitch>
          <step>G</step>
          <octave>4</octave>
        </pitch>
        <duration>2</duration>
        <type>eighth</type>
        <lyric number="1">
          <text>莫</text>
        </lyric>
        <lyric number="2">
          <text>燕</text>
        </lyric>
        <lyric number="3">
          <text>劝</text>
        </lyric>
      </note>
      <note>
        <pitch>
          <step>G</step>
          <octave>4</octave>
        </pitch>
        <duration>1</duration>
        <type>16th</type>
        <lyric number="1">
          <text>学</text>
        </lyric>
        <lyric number="2">
          <text>子</text>
        </lyric>
        <lyric number="3">
          <text>郎</text>
        </lyric>
      </note>
      <note>
        <pitch>
          <step>A</step>
          <octave>4</octave>
        </pitch>
        <duration>1</duration>
        <type>16th</type>
      </note>
      <note>
        <pitch>
          <step>D</step>
          <octave>5</octave>
        </pitch>
        <duration>2</duration>
        <type>eighth</type>
        <lyric number="1">
          <text>贪</text>
        </lyric>
        <lyric number="2">
          <text>早</text>
        </lyric>
        <lyric number="3">
          <text>归</text>
        </lyric>
      </note>
      <note>
        <pitch>
          <step>C</step>
          <octave>5</octave>
        </pitch>
        <duration>2</duration>
        <type>eighth</type>
        <lyric number="1">
          <text>花</text>
        </lyric>
        <lyric number="2">
          <text>去</text>
        </lyric>
        <lyric number="3">
          <text>家</text>
        </lyric>
      </note>
      <note>
        <pitch>
          <step>A</step>
          <octave>4</octave>
        </pitch>
        <duration>3</duration>
        <type>eighth</type>
        <dot />
        <lyric number="1">
          <text>呀</text>
        </lyric>
        <lyric number="2">
          <text>呀</text>
        </lyric>
        <lyric number="3">
          <text>呀</text>
        </lyric>
      </note>
      <note>
        <pitch>
          <step>C</step>
          <octave>5</octave>
        </pitch>
        <duration>1</duration>
        <type>16th</type>
      </note>
    </measure>
    <measure number="4">
      <attributes>
        <time>
          <beats>4</beats>
          <beat-type>4</beat-type>
        </time>
      </attributes>
      <note>
        <pitch>
          <step>C</step>
          <octave>5</octave>
        </pitch>
        <duration>1</duration>
        <type>16th</type>
        <lyric number="1">
          <text>害</text>
        </lyric>
        <lyric number="2">
          <text>又</text>
        </lyric>
        <lyric number="3">
          <text>爱</text>
        </lyric>
      </note>
      <note>
        <pitch>
          <step>D</step>
          <octave>5</octave>
        </pitch>
        <duration>1</duration>
        <type>16th</type>
      </note>
      <note>
        <pitch>
          <step>G</step>
          <octave>4</octave>
        </pitch>
        <duration>2</duration>
        <type>eighth</type>
        <lyric number="1">
          <text>郎</text>
        </lyric>
        <lyric number="2">
          <text>早</text>
        </lyric>
        <lyric number="3">
          <text>讨</text>
        </lyric>
      </note>
      <note>
        <pitch>
          <step>G</step>
          <octave>4</octave>
        </pitch>
        <duration>3</duration>
        <type>eighth</type>
        <dot />
        <lyric number="1">
          <text>心</text>
        </lyric>
        <lyric number="2">
          <text>归</text>
        </lyric>
        <lyric number="3">
          <text>妻</text>
        </lyric>
      </note>
      <note>
        <rest />
        <duration>1</duration>
        <type>16th</type>
      </note>
    </measure>
    <measure number="5">
      <attributes>
        <time>
          <beats>4</beats>
          <beat-type>4</beat-type>
        </time>
      </attributes>
      <note>
        <pitch>
          <step>G</step>
          <octave>4</octave>
        </pitch>
        <duration>2</duration>
        <type>eighth</type>
        <lyric number="1">
          <text>你</text>
        </lyric>
        <lyric number="2">
          <text>你</text>
        </lyric>
        <lyric number="3">
          <text>讨</text>
        </lyric>
      </note>
      <note>
        <pitch>
          <step>G</step>
          <octave>4</octave>
        </pitch>
        <duration>2</duration>
        <type>eighth</type>
        <lyric number="1">
          <text>莫</text>
        </lyric>
        <lyric number="2">
          <text>莫</text>
        </lyric>
        <lyric number="3">
          <text>了</text>
        </lyric>
      </note>
      <note>
        <pitch>
          <step>A</step>
          <octave>4</octave>
        </pitch>
        <duration>2</duration>
        <type>eighth</type>
        <lyric number="1">
          <text>贪</text>
        </lyric>
        <lyric number="2">
          <text>跟</text>
        </lyric>
        <lyric number="3">
          <text>妻</text>
        </lyric>
      </note>
      <note>
        <pitch>
          <step>A</step>
          <octave>4</octave>
        </pitch>
        <duration>1</duration>
        <type>16th</type>
        <lyric number="1">
          <text>花</text>
        </lyric>
        <lyric number="2">
          <text>到</text>
        </lyric>
        <lyric number="3">
          <text>子</text>
        </lyric>
      </note>
      <note>
        <pitch>
          <step>C</step>
          <octave>5</octave>
        </pitch>
        <duration>1</duration>
        <type>16th</type>
      </note>
    </measure>
    <measure number="6">
      <attributes>
        <time>
          <beats>4</beats>
          <beat-type>4</beat-type>
        </time>
      </attributes>
      <note>
        <pitch>
          <step>G</step>
          <octave>4</octave>
        </pitch>
        <duration>2</duration>
        <type>eighth</type>
        <lyric number="1">
          <text>来</text>
        </lyric>
        <lyric number="2">
          <text>风</text>
        </lyric>
        <lyric number="3">
          <text>三</text>
        </lyric>
      </note>
      <note>
        <pitch>
          <step>G</step>
          <octave>4</octave>
        </pitch>
        <duration>1</duration>
        <type>16th</type>
        <lyric number="1">
          <text>思</text>
        </lyric>
        <lyric number="2">
          <text>流</text>
        </lyric>
        <lyric number="3">
          <text>件</text>
        </lyric>
      </note>
      <note>
        <pitch>
          <step>E</step>
          <octave>4</octave>
        </pitch>
        <duration>1</duration>
        <type>16th</type>
      </note>
      <note>
        <pitch>
          <step>D</step>
          <octave>4</octave>
        </pitch>
        <duration>4</duration>
        <type>quarter</type>
        <lyric number="1">
          <text>想</text>
        </lyric>
        <lyric number="2">
          <text>子</text>
        </lyric>
        <lyric number="3">
          <text>好</text>
        </lyric>
      </note>
    </measure>
    <measure number="7">
      <attributes>
        <time>
          <beats>4</beats>
          <beat-type>4</beat-type>
        </time>
      </attributes>
      <note>
        <pitch>
          <step>G</step>
          <octave>4</octave>
        </pitch>
        <duration>2</duration>
        <type>eighth</type>
        <lyric number="1">
          <text>想</text>
        </lyric>
        <lyric number="2">
          <text>今</text>
        </lyric>
        <lyric number="3">
          <text>打</text>
        </lyric>
      </note>
      <note>
        <pitch>
          <step>G</step>
          <octave>4</octave>
        </pitch>
        <duration>2</duration>
        <type>eighth</type>
        <lyric number="1">
          <text>来</text>
        </lyric>
        <lyric number="2">
          <text>日</text>
        </lyric>
        <lyric number="3">
          <text>系</text>
        </lyric>
      </note>
      <note>
        <pitch>
          <step>A</step>
          <octave>4</octave>
        </pitch>
        <duration>2</duration>
        <type>eighth</type>
        <lyric number="1">
          <text>想</text>
        </lyric>
        <lyric number="2">
          <text>东</text>
        </lyric>
        <lyric number="3">
          <text>娇</text>
        </lyric>
      </note>
      <note>
        <pitch>
          <step>A</step>
          <octave>4</octave>
        </pitch>
        <duration>2</duration>
        <type>eighth</type>
        <lyric number="1">
          <text>去</text>
        </lyric>
        <lyric number="2">
          <text>来</text>
        </lyric>
        <lyric number="3">
          <text>娥</text>
        </lyric>
      </note>
    </measure>
    <measure number="8">
      <attributes>
        <time>
          <beats>4</beats>
          <beat-type>4</beat-type>
        </time>
      </attributes>
      <note>
        <pitch>
          <step>C</step>
          <octave>5</octave>
        </pitch>
        <duration>2</duration>
        <type>eighth</type>
        <lyric number="1">
          <text>想</text>
        </lyric>
        <lyric number="2">
          <text>明</text>
        </lyric>
        <lyric number="3">
          <text>骂</text>
        </lyric>
      </note>
      <note>
        <pitch>
          <step>A</step>
          <octave>4</octave>
        </pitch>
        <duration>1</duration>
        <type>16th</type>
        <lyric number="1">
          <text>伤</text>
        </lyric>
        <lyric number="2">
          <text>nan</text>
        </lyric>
        <lyric number="3">
          <text>系</text>
        </lyric>
        <lyric number="4">
          <text>四</text>
        </lyric>
        <lyric number="5">
          <text>劝</text>
        </lyric>
        <lyric number="6">
          <text>只</text>
        </lyric>
        <lyric number="7">
          <text>哪nan</text>
        </lyric>
        <lyric number="8">
          <text>哥将钱</text>
        </lyric>
        <lyric number="9">
          <text>五</text>
        </lyric>
        <lyric number="10">
          <text>句</text>
        </lyric>
        <lyric number="11">
          <text>句</text>
        </lyric>
        <lyric number="12">
          <text>劝</text>
        </lyric>
        <lyric number="13">
          <text>哥介种</text>
        </lyric>
        <lyric number="14">
          <text>六</text>
        </lyric>
        <lyric number="15">
          <text>处</text>
        </lyric>
        <lyric number="16">
          <text>半</text>
        </lyric>
        <lyric number="17">
          <text>哥后生</text>
        </lyric>
      </note>
      <note>
        <pitch>
          <step>C</step>
          <octave>5</octave>
        </pitch>
        <duration>1</duration>
        <type>16th</type>
        <lyric number="1">
          <text>劝郎阝</text>
        </lyric>
        <lyric number="2">
          <text>郎nan归冢</text>
        </lyric>
        <lyric number="3">
          <text>有耕田</text>
        </lyric>
        <lyric number="4">
          <text>个连妹</text>
        </lyric>
        <lyric number="5">
          <text>劝郎nan</text>
        </lyric>
        <lyric number="6">
          <text>句说话</text>
        </lyric>
        <lyric number="7">
          <text>句说话</text>
        </lyric>
        <lyric number="8">
          <text>倨情哥</text>
        </lyric>
        <lyric number="9">
          <text>劝郎[未击中:阝]</text>
        </lyric>
        <lyric number="10">
          <text>处都有</text>
        </lyric>
        <lyric number="11">
          <text>年辛苦</text>
        </lyric>
      </note>
      <note>
        <pitch>
          <step>D</step>
          <octave>5</octave>
        </pitch>
        <duration>4</duration>
        <type>quarter</type>
        <lyric number="1">
          <text>nan</text>
        </lyric>
        <lyric number="2">
          <text>西</text>
        </lyric>
        <lyric number="3">
          <text>妻</text>
        </lyric>
        <lyric number="4">
          <text>nan[未击中:凹]方</text>
        </lyric>
        <lyric number="5">
          <text>莳黄</text>
        </lyric>
        <lyric number="6">
          <text>系本</text>
        </lyric>
        <lyric number="7">
          <text>养得儿</text>
        </lyric>
        <lyric number="8">
          <text>打扮别</text>
        </lyric>
        <lyric number="9">
          <text>劝得正</text>
        </lyric>
        <lyric number="10">
          <text>劝情</text>
        </lyric>
        <lyric number="11">
          <text>劝郎好你</text>
        </lyric>
        <lyric number="12">
          <text>学好人细</text>
        </lyric>
        <lyric number="13">
          <text>好仔难</text>
        </lyric>
        <lyric number="14">
          <text>劝得高</text>
        </lyric>
        <lyric number="15">
          <text>耕田仔</text>
        </lyric>
        <lyric number="16">
          <text>半年闲</text>
        </lyric>
        <lyric number="17">
          <text>唔做老</text>
        </lyric>
      </note>
      <note>
        <pitch>
          <step>D</step>
          <octave>5</octave>
        </pitch>
        <duration>4</duration>
        <type>quarter</type>
        <lyric number="1">
          <text>哥</text>
        </lyric>
        <lyric number="2">
          <text>哥</text>
        </lyric>
        <lyric number="3">
          <text>哥</text>
        </lyric>
        <lyric number="4">
          <text>秧赌</text>
        </lyric>
        <lyric number="5">
          <text>份赌</text>
        </lyric>
        <lyric number="6">
          <text>nan手</text>
        </lyric>
        <lyric number="7">
          <text>人妻哥输了钱财呀</text>
        </lyric>
        <lyric number="8">
          <text>人九</text>
        </lyric>
        <lyric number="9">
          <text>得寻哥两人唔死似</text>
        </lyric>
        <lyric number="10">
          <text>来难纸</text>
        </lyric>
      </note>
    </measure>
    <measure number="9">
      <attributes>
        <time>
          <beats>4</beats>
          <beat-type>4</beat-type>
        </time>
      </attributes>
      <note>
        <pitch>
          <step>G</step>
          <octave>4</octave>
        </pitch>
        <duration>2</duration>
        <type>eighth</type>
        <lyric number="1">
          <text>想</text>
        </lyric>
        <lyric number="2">
          <text>肚</text>
        </lyric>
        <lyric number="3">
          <text>眼</text>
        </lyric>
      </note>
      <note>
        <pitch>
          <step>G</step>
          <octave>4</octave>
        </pitch>
        <duration>1</duration>
        <type>16th</type>
        <lyric number="1">
          <text>起</text>
        </lyric>
        <lyric number="2">
          <text>中</text>
        </lyric>
        <lyric number="3">
          <text>泪</text>
        </lyric>
      </note>
      <note>
        <pitch>
          <step>A</step>
          <octave>4</octave>
        </pitch>
        <duration>1</duration>
        <type>16th</type>
      </note>
      <note>
        <pitch>
          <step>D</step>
          <octave>5</octave>
        </pitch>
        <duration>2</duration>
        <type>eighth</type>
        <lyric number="1">
          <text>得</text>
        </lyric>
        <lyric number="2">
          <text>饥</text>
        </lyric>
        <lyric number="3">
          <text>双</text>
        </lyric>
        <lyric number="4">
          <text>nannan</text>
        </lyric>
      </note>
      <note>
        <pitch>
          <step>C</step>
          <octave>5</octave>
        </pitch>
        <duration>2</duration>
        <type>eighth</type>
        <lyric number="1">
          <text>病</text>
        </lyric>
        <lyric number="2">
          <text>饿</text>
        </lyric>
        <lyric number="3">
          <text>双</text>
        </lyric>
        <lyric number="4">
          <text>nannan</text>
        </lyric>
      </note>
      <note>
        <pitch>
          <step>A</step>
          <octave>4</octave>
        </pitch>
        <duration>3</duration>
        <type>eighth</type>
        <dot />
        <lyric number="1">
          <text>呀</text>
        </lyric>
        <lyric number="2">
          <text>呀</text>
        </lyric>
        <lyric number="3">
          <text>呀</text>
        </lyric>
        <lyric number="4">
          <text>nannan</text>
        </lyric>
        <lyric number="5">
          <text>nan九</text>
        </lyric>
        <lyric number="6">
          <text>nannan</text>
        </lyric>
      </note>
      <note>
        <pitch>
          <step>C</step>
          <octave>5</octave>
        </pitch>
        <duration>1</duration>
        <type>16th</type>
        <lyric number="1">
          <text>劝郎阝莫打牌</text>
        </lyric>
        <lyric number="2">
          <text>博场中人nan坏</text>
        </lyric>
        <lyric number="3">
          <text>博场中人[未击中:心]恶</text>
        </lyric>
        <lyric number="4">
          <text>上有刀杀人身</text>
        </lyric>
        <lyric number="5">
          <text>劝郎[未击中:阝]九九长</text>
        </lyric>
        <lyric number="6">
          <text>九交情有nan往</text>
        </lyric>
        <lyric number="7">
          <text>哥屋冢记紧妺</text>
        </lyric>
        <lyric number="8">
          <text>妹屋家记紧郎</text>
        </lyric>
        <lyric number="9">
          <text>上一</text>
        </lyric>
        <lyric number="10">
          <text>比天</text>
        </lyric>
        <lyric number="11">
          <text>nannannannan</text>
        </lyric>
      </note>
    </measure>
    <measure number="10">
      <attributes>
        <time>
          <beats>4</beats>
          <beat-type>4</beat-type>
        </time>
      </attributes>
      <note>
        <pitch>
          <step>G</step>
          <octave>4</octave>
        </pitch>
        <duration>2</duration>
        <type>eighth</type>
        <lyric number="1">
          <text>怨</text>
        </lyric>
        <lyric number="2">
          <text>谁</text>
        </lyric>
        <lyric number="3">
          <text>洗</text>
        </lyric>
        <lyric number="4">
          <text>不甘</text>
        </lyric>
        <lyric number="5">
          <text>[未击中:阝]</text>
        </lyric>
        <lyric number="6">
          <text>水长</text>
        </lyric>
        <lyric number="7">
          <text>nan</text>
        </lyric>
        <lyric number="8">
          <text>nannan</text>
        </lyric>
      </note>
      <note>
        <pitch>
          <step>A</step>
          <octave>4</octave>
        </pitch>
        <duration>2</duration>
        <type>eighth</type>
        <lyric number="1">
          <text>谁</text>
        </lyric>
        <lyric number="2">
          <text>人</text>
        </lyric>
        <lyric number="3">
          <text>郎</text>
        </lyric>
        <lyric number="4">
          <text>[未击中:心]</text>
        </lyric>
        <lyric number="5">
          <text>钱</text>
        </lyric>
        <lyric number="6">
          <text>nannan</text>
        </lyric>
      </note>
      <note>
        <pitch>
          <step>G</step>
          <octave>4</octave>
        </pitch>
        <duration>3</duration>
        <type>eighth</type>
        <dot />
        <lyric number="1">
          <text>人</text>
        </lyric>
        <lyric number="2">
          <text>知</text>
        </lyric>
        <lyric number="3">
          <text>衣</text>
        </lyric>
        <lyric number="4">
          <text>nan[未击中:[未击中:[未击中:鸀]]]nan</text>
        </lyric>
      </note>
      <note>
        <rest />
        <duration>1</duration>
        <type>16th</type>
      </note>
    </measure>
  </part>
</score-partwise>
