<?xml version='1.0' encoding='utf-8'?>
<score-partwise version="3.1">
  <work>
    <work-title>页面_song_638</work-title>
  </work>
  <part-list>
    <score-part id="P1">
      <part-name>简谱旋律</part-name>
    </score-part>
  </part-list>
  <part id="P1">
    <measure number="1">
      <attributes>
        <divisions>4</divisions>
        <key>
          <fifths>0</fifths>
        </key>
        <time>
          <beats>4</beats>
          <beat-type>4</beat-type>
        </time>
      </attributes>
      <note>
        <pitch>
          <step>C</step>
          <octave>4</octave>
        </pitch>
        <duration>2</duration>
        <type>eighth</type>
        <lyric number="1">
          <text>好</text>
        </lyric>
        <lyric number="2">
          <text>左</text>
        </lyric>
        <lyric number="3">
          <text>慢</text>
        </lyric>
        <lyric number="4">
          <text>好</text>
        </lyric>
        <lyric number="5">
          <text>一</text>
        </lyric>
      </note>
      <note>
        <pitch>
          <step>C</step>
          <octave>4</octave>
        </pitch>
        <duration>1</duration>
        <type>16th</type>
        <lyric number="1">
          <text>一</text>
        </lyric>
        <lyric number="2">
          <text>手</text>
        </lyric>
        <lyric number="3">
          <text>步</text>
        </lyric>
        <lyric number="4">
          <text>个</text>
        </lyric>
        <lyric number="5">
          <text>姊</text>
        </lyric>
      </note>
      <note>
        <pitch>
          <step>D</step>
          <octave>4</octave>
        </pitch>
        <duration>1</duration>
        <type>16th</type>
        <lyric number="1">
          <text>个</text>
        </lyric>
      </note>
      <note>
        <pitch>
          <step>E</step>
          <octave>4</octave>
        </pitch>
        <duration>2</duration>
        <type>eighth</type>
        <lyric number="1">
          <text>娇</text>
        </lyric>
        <lyric number="2">
          <text>梳</text>
        </lyric>
        <lyric number="3">
          <text>东</text>
        </lyric>
        <lyric number="4">
          <text>娇</text>
        </lyric>
        <lyric number="5">
          <text>去</text>
        </lyric>
      </note>
      <note>
        <pitch>
          <step>D</step>
          <octave>4</octave>
        </pitch>
        <duration>2</duration>
        <type>eighth</type>
        <lyric number="1">
          <text>娥</text>
        </lyric>
        <lyric number="2">
          <text>头</text>
        </lyric>
        <lyric number="3">
          <text>街</text>
        </lyric>
        <lyric number="4">
          <text>娥</text>
        </lyric>
        <lyric number="5">
          <text>洲</text>
        </lyric>
      </note>
    </measure>
    <measure number="2">
      <attributes>
        <time>
          <beats>4</beats>
          <beat-type>4</beat-type>
        </time>
      </attributes>
      <note>
        <pitch>
          <step>E</step>
          <octave>4</octave>
        </pitch>
        <duration>3</duration>
        <type>eighth</type>
        <dot />
        <lyric number="1">
          <text>沙</text>
        </lyric>
        <lyric number="2">
          <text>沙</text>
        </lyric>
        <lyric number="3">
          <text>沙</text>
        </lyric>
        <lyric number="4">
          <text>沙</text>
        </lyric>
        <lyric number="5">
          <text>沙</text>
        </lyric>
      </note>
      <note>
        <pitch>
          <step>G</step>
          <octave>4</octave>
        </pitch>
        <duration>1</duration>
        <type>16th</type>
      </note>
      <note>
        <pitch>
          <step>E</step>
          <octave>4</octave>
        </pitch>
        <duration>2</duration>
        <type>eighth</type>
        <lyric number="1">
          <text>罗</text>
        </lyric>
        <lyric number="2">
          <text>罗</text>
        </lyric>
        <lyric number="3">
          <text>罗</text>
        </lyric>
        <lyric number="4">
          <text>罗</text>
        </lyric>
        <lyric number="5">
          <text>罗</text>
        </lyric>
      </note>
      <note>
        <pitch>
          <step>C</step>
          <octave>4</octave>
        </pitch>
        <duration>2</duration>
        <type>eighth</type>
        <lyric number="1">
          <text>哼</text>
        </lyric>
        <lyric number="2">
          <text>哼</text>
        </lyric>
        <lyric number="3">
          <text>哼</text>
        </lyric>
        <lyric number="4">
          <text>哼</text>
        </lyric>
        <lyric number="5">
          <text>哼</text>
        </lyric>
      </note>
    </measure>
    <measure number="3">
      <attributes>
        <time>
          <beats>4</beats>
          <beat-type>4</beat-type>
        </time>
      </attributes>
      <note>
        <pitch>
          <step>E</step>
          <octave>4</octave>
        </pitch>
        <duration>4</duration>
        <type>quarter</type>
        <lyric number="1">
          <text>沙</text>
        </lyric>
        <lyric number="2">
          <text>沙</text>
        </lyric>
        <lyric number="3">
          <text>沙</text>
        </lyric>
        <lyric number="4">
          <text>沙</text>
        </lyric>
        <lyric number="5">
          <text>沙</text>
        </lyric>
      </note>
      <note>
        <pitch>
          <step>D</step>
          <octave>4</octave>
        </pitch>
        <duration>2</duration>
        <type>eighth</type>
        <lyric number="1">
          <text>罗</text>
        </lyric>
        <lyric number="2">
          <text>罗</text>
        </lyric>
        <lyric number="3">
          <text>罗</text>
        </lyric>
        <lyric number="4">
          <text>罗</text>
        </lyric>
        <lyric number="5">
          <text>罗</text>
        </lyric>
      </note>
      <note>
        <pitch>
          <step>C</step>
          <octave>4</octave>
        </pitch>
        <duration>2</duration>
        <type>eighth</type>
      </note>
    </measure>
    <measure number="4">
      <attributes>
        <time>
          <beats>4</beats>
          <beat-type>4</beat-type>
        </time>
      </attributes>
      <note>
        <pitch>
          <step>D</step>
          <octave>4</octave>
        </pitch>
        <duration>1</duration>
        <type>16th</type>
        <lyric number="1">
          <text>太</text>
        </lyric>
        <lyric number="2">
          <text>右</text>
        </lyric>
        <lyric number="3">
          <text>西</text>
        </lyric>
        <lyric number="4">
          <text>数</text>
        </lyric>
        <lyric number="5">
          <text>不</text>
        </lyric>
      </note>
      <note>
        <pitch>
          <step>E</step>
          <octave>4</octave>
        </pitch>
        <duration>1</duration>
        <type>16th</type>
      </note>
      <note>
        <pitch>
          <step>D</step>
          <octave>4</octave>
        </pitch>
        <duration>1</duration>
        <type>16th</type>
        <lyric number="1">
          <text>寂</text>
        </lyric>
        <lyric number="2">
          <text>手</text>
        </lyric>
        <lyric number="3">
          <text>街</text>
        </lyric>
        <lyric number="4">
          <text>第</text>
        </lyric>
        <lyric number="5">
          <text>见</text>
        </lyric>
      </note>
      <note>
        <pitch>
          <step>C</step>
          <octave>4</octave>
        </pitch>
        <duration>1</duration>
        <type>16th</type>
      </note>
      <note>
        <pitch>
          <step>A</step>
          <octave>3</octave>
        </pitch>
        <duration>3</duration>
        <type>eighth</type>
        <dot />
        <lyric number="1">
          <text>寞</text>
        </lyric>
        <lyric number="2">
          <text>抹</text>
        </lyric>
        <lyric number="3">
          <text>转</text>
        </lyric>
        <lyric number="4">
          <text>一</text>
        </lyric>
        <lyric number="5">
          <text>回</text>
        </lyric>
      </note>
      <note>
        <pitch>
          <step>D</step>
          <octave>4</octave>
        </pitch>
        <duration>1</duration>
        <type>16th</type>
      </note>
      <note>
        <pitch>
          <step>C</step>
          <octave>4</octave>
        </pitch>
        <duration>4</duration>
        <type>quarter</type>
        <lyric number="1">
          <text>呀</text>
        </lyric>
        <lyric number="2">
          <text>呀</text>
        </lyric>
        <lyric number="3">
          <text>呀</text>
        </lyric>
        <lyric number="4">
          <text>呀</text>
        </lyric>
        <lyric number="5">
          <text>呀</text>
        </lyric>
      </note>
    </measure>
    <measure number="5">
      <attributes>
        <time>
          <beats>4</beats>
          <beat-type>4</beat-type>
        </time>
      </attributes>
      <note>
        <pitch>
          <step>E</step>
          <octave>4</octave>
        </pitch>
        <duration>2</duration>
        <type>eighth</type>
        <lyric number="1">
          <text>涂</text>
        </lyric>
        <lyric number="2">
          <text>对</text>
        </lyric>
        <lyric number="3">
          <text>再</text>
        </lyric>
        <lyric number="4">
          <text>一</text>
        </lyric>
        <lyric number="5">
          <text>两</text>
        </lyric>
      </note>
      <note>
        <pitch>
          <step>E</step>
          <octave>4</octave>
        </pitch>
        <duration>2</duration>
        <type>eighth</type>
        <lyric number="1">
          <text>脂</text>
        </lyric>
        <lyric number="2">
          <text>着</text>
        </lyric>
        <lyric number="3">
          <text>往</text>
        </lyric>
        <lyric number="4">
          <text>姊</text>
        </lyric>
        <lyric number="5">
          <text>条</text>
        </lyric>
      </note>
      <note>
        <pitch>
          <step>E</step>
          <octave>4</octave>
        </pitch>
        <duration>2</duration>
        <type>eighth</type>
        <lyric number="1">
          <text>抹</text>
        </lyric>
        <lyric number="2">
          <text>镜</text>
        </lyric>
        <lyric number="3">
          <text>南</text>
        </lyric>
        <lyric number="4">
          <text>一</text>
        </lyric>
        <lyric number="5">
          <text>花</text>
        </lyric>
      </note>
      <note>
        <pitch>
          <step>D</step>
          <octave>4</octave>
        </pitch>
        <duration>2</duration>
        <type>eighth</type>
        <lyric number="1">
          <text>粉</text>
        </lyric>
        <lyric number="2">
          <text>子</text>
        </lyric>
        <lyric number="3">
          <text>街</text>
        </lyric>
        <lyric number="4">
          <text>妹</text>
        </lyric>
        <lyric number="5">
          <text>烛</text>
        </lyric>
      </note>
    </measure>
    <measure number="6">
      <attributes>
        <time>
          <beats>4</beats>
          <beat-type>4</beat-type>
        </time>
      </attributes>
      <note>
        <pitch>
          <step>D</step>
          <octave>4</octave>
        </pitch>
        <duration>2</duration>
        <type>eighth</type>
        <lyric number="1">
          <text>nan</text>
        </lyric>
        <lyric number="2">
          <text>[未击中:沙]</text>
        </lyric>
        <lyric number="3">
          <text>[未击中:沙]</text>
        </lyric>
        <lyric number="4">
          <text>[未击中:沙]</text>
        </lyric>
        <lyric number="5">
          <text>[未击中:沙]</text>
        </lyric>
      </note>
      <note>
        <pitch>
          <step>D</step>
          <octave>4</octave>
        </pitch>
        <duration>2</duration>
        <type>eighth</type>
        <lyric number="1">
          <text>罗</text>
        </lyric>
        <lyric number="2">
          <text>罗</text>
        </lyric>
        <lyric number="3">
          <text>罗</text>
        </lyric>
        <lyric number="4">
          <text>罗</text>
        </lyric>
        <lyric number="5">
          <text>罗</text>
        </lyric>
      </note>
      <note>
        <pitch>
          <step>C</step>
          <octave>4</octave>
        </pitch>
        <duration>2</duration>
        <type>eighth</type>
        <lyric number="1">
          <text>哩</text>
        </lyric>
        <lyric number="2">
          <text>哩</text>
        </lyric>
        <lyric number="3">
          <text>哩</text>
        </lyric>
        <lyric number="4">
          <text>哩</text>
        </lyric>
        <lyric number="5">
          <text>哩</text>
        </lyric>
      </note>
      <note>
        <pitch>
          <step>A</step>
          <octave>3</octave>
        </pitch>
        <duration>2</duration>
        <type>eighth</type>
        <lyric number="1">
          <text>罗</text>
        </lyric>
        <lyric number="2">
          <text>罗</text>
        </lyric>
        <lyric number="3">
          <text>罗</text>
        </lyric>
        <lyric number="4">
          <text>罗</text>
        </lyric>
        <lyric number="5">
          <text>罗</text>
        </lyric>
      </note>
    </measure>
    <measure number="7">
      <attributes>
        <time>
          <beats>4</beats>
          <beat-type>4</beat-type>
        </time>
      </attributes>
      <note>
        <pitch>
          <step>C</step>
          <octave>4</octave>
        </pitch>
        <duration>2</duration>
        <type>eighth</type>
        <lyric number="1">
          <text>刘</text>
        </lyric>
        <lyric number="2">
          <text>刘</text>
        </lyric>
        <lyric number="3">
          <text>刘亅</text>
        </lyric>
        <lyric number="4">
          <text>刘</text>
        </lyric>
        <lyric number="5">
          <text>刘</text>
        </lyric>
      </note>
      <note>
        <pitch>
          <step>D</step>
          <octave>4</octave>
        </pitch>
        <duration>0</duration>
        <type>32nd</type>
        <lyric number="1">
          <text>三</text>
        </lyric>
        <lyric number="2">
          <text>三</text>
        </lyric>
        <lyric number="3">
          <text>三</text>
        </lyric>
        <lyric number="4">
          <text>三</text>
        </lyric>
        <lyric number="5">
          <text>三</text>
        </lyric>
      </note>
      <note>
        <pitch>
          <step>E</step>
          <octave>4</octave>
        </pitch>
        <duration>1</duration>
        <type>16th</type>
      </note>
      <note>
        <pitch>
          <step>D</step>
          <octave>4</octave>
        </pitch>
        <duration>4</duration>
        <type>quarter</type>
        <lyric number="1">
          <text>妺</text>
        </lyric>
        <lyric number="2">
          <text>妹</text>
        </lyric>
        <lyric number="3">
          <text>妹</text>
        </lyric>
        <lyric number="4">
          <text>妹</text>
        </lyric>
        <lyric number="5">
          <text>妺</text>
        </lyric>
      </note>
    </measure>
    <measure number="8">
      <attributes>
        <time>
          <beats>4</beats>
          <beat-type>4</beat-type>
        </time>
      </attributes>
      <note>
        <pitch>
          <step>A</step>
          <octave>3</octave>
        </pitch>
        <duration>2</duration>
        <type>eighth</type>
        <lyric number="1">
          <text>巧</text>
        </lyric>
        <lyric number="2">
          <text>真</text>
        </lyric>
        <lyric number="3">
          <text>北</text>
        </lyric>
        <lyric number="4">
          <text>了</text>
        </lyric>
        <lyric number="5">
          <text>得</text>
        </lyric>
      </note>
      <note>
        <pitch>
          <step>C</step>
          <octave>4</octave>
        </pitch>
        <duration>1</duration>
        <type>16th</type>
        <lyric number="1">
          <text>梳</text>
        </lyric>
        <lyric number="2">
          <text>漂</text>
        </lyric>
        <lyric number="3">
          <text>街</text>
        </lyric>
        <lyric number="4">
          <text>不</text>
        </lyric>
        <lyric number="5">
          <text>成</text>
        </lyric>
      </note>
      <note>
        <pitch>
          <step>A</step>
          <octave>3</octave>
        </pitch>
        <duration>1</duration>
        <type>16th</type>
      </note>
      <note>
        <pitch>
          <step>A</step>
          <octave>3</octave>
        </pitch>
        <duration>4</duration>
        <type>quarter</type>
        <lyric number="1">
          <text>妆</text>
        </lyric>
        <lyric number="2">
          <text>亮</text>
        </lyric>
        <lyric number="3">
          <text>行</text>
        </lyric>
        <lyric number="4">
          <text>得</text>
        </lyric>
        <lyric number="5">
          <text>双</text>
        </lyric>
      </note>
      <note>
        <pitch>
          <step>A</step>
          <octave>3</octave>
        </pitch>
        <duration>4</duration>
        <type>quarter</type>
        <lyric number="1">
          <text>nan</text>
        </lyric>
        <lyric number="2">
          <text>[未击中:呀]</text>
        </lyric>
        <lyric number="3">
          <text>[未击中:呀]</text>
        </lyric>
        <lyric number="4">
          <text>[未击中:呀]</text>
        </lyric>
        <lyric number="5">
          <text>[未击中:呀]</text>
        </lyric>
      </note>
    </measure>
  </part>
</score-partwise>
