<?xml version='1.0' encoding='utf-8'?>
<score-partwise version="3.1">
  <work>
    <work-title>页面_song_644</work-title>
  </work>
  <part-list>
    <score-part id="P1">
      <part-name>简谱旋律</part-name>
    </score-part>
  </part-list>
  <part id="P1">
    <measure number="1">
      <attributes>
        <divisions>4</divisions>
        <key>
          <fifths>0</fifths>
        </key>
        <time>
          <beats>4</beats>
          <beat-type>4</beat-type>
        </time>
      </attributes>
      <note>
        <pitch>
          <step>G</step>
          <octave>4</octave>
        </pitch>
        <duration>2</duration>
        <type>eighth</type>
        <lyric number="1">
          <text>石</text>
        </lyric>
        <lyric number="2">
          <text>石</text>
        </lyric>
        <lyric number="3">
          <text>石</text>
        </lyric>
        <lyric number="4">
          <text>石</text>
        </lyric>
        <lyric number="5">
          <text>石</text>
        </lyric>
        <lyric number="6">
          <text>石</text>
        </lyric>
        <lyric number="7">
          <text>石</text>
        </lyric>
        <lyric number="8">
          <text>石</text>
        </lyric>
        <lyric number="9">
          <text>石</text>
        </lyric>
        <lyric number="10">
          <text>石</text>
        </lyric>
      </note>
      <note>
        <pitch>
          <step>G</step>
          <octave>4</octave>
        </pitch>
        <duration>2</duration>
        <type>eighth</type>
        <lyric number="1">
          <text>榴</text>
        </lyric>
        <lyric number="2">
          <text>榴</text>
        </lyric>
        <lyric number="3">
          <text>榴[未击中:[未击中:龘]]</text>
        </lyric>
        <lyric number="4">
          <text>榴</text>
        </lyric>
        <lyric number="5">
          <text>榴</text>
        </lyric>
        <lyric number="6">
          <text>榴</text>
        </lyric>
        <lyric number="7">
          <text>榴</text>
        </lyric>
        <lyric number="8">
          <text>榴</text>
        </lyric>
        <lyric number="9">
          <text>榴</text>
        </lyric>
        <lyric number="10">
          <text>榴</text>
        </lyric>
      </note>
      <note>
        <pitch>
          <step>G</step>
          <octave>4</octave>
        </pitch>
        <duration>2</duration>
        <type>eighth</type>
        <lyric number="1">
          <text>呀</text>
        </lyric>
        <lyric number="2">
          <text>呀</text>
        </lyric>
        <lyric number="3">
          <text>呀</text>
        </lyric>
        <lyric number="4">
          <text>呀</text>
        </lyric>
        <lyric number="5">
          <text>呀</text>
        </lyric>
        <lyric number="6">
          <text>呀</text>
        </lyric>
        <lyric number="7">
          <text>呀</text>
        </lyric>
        <lyric number="8">
          <text>呀</text>
        </lyric>
        <lyric number="9">
          <text>呀</text>
        </lyric>
        <lyric number="10">
          <text>呀</text>
        </lyric>
      </note>
      <note>
        <pitch>
          <step>A</step>
          <octave>4</octave>
        </pitch>
        <duration>2</duration>
        <type>eighth</type>
        <lyric number="1">
          <text>子</text>
        </lyric>
        <lyric number="2">
          <text>子</text>
        </lyric>
        <lyric number="3">
          <text>子</text>
        </lyric>
        <lyric number="4">
          <text>子</text>
        </lyric>
        <lyric number="5">
          <text>子</text>
        </lyric>
        <lyric number="6">
          <text>子</text>
        </lyric>
        <lyric number="7">
          <text>子</text>
        </lyric>
        <lyric number="8">
          <text>子</text>
        </lyric>
        <lyric number="9">
          <text>子</text>
        </lyric>
        <lyric number="10">
          <text>子</text>
        </lyric>
      </note>
    </measure>
    <measure number="2">
      <attributes>
        <time>
          <beats>4</beats>
          <beat-type>4</beat-type>
        </time>
      </attributes>
      <note>
        <pitch>
          <step>D</step>
          <octave>5</octave>
        </pitch>
        <duration>3</duration>
        <type>eighth</type>
        <dot />
        <lyric number="1">
          <text>打</text>
        </lyric>
        <lyric number="2">
          <text>打</text>
        </lyric>
        <lyric number="3">
          <text>打</text>
        </lyric>
        <lyric number="4">
          <text>打</text>
        </lyric>
        <lyric number="5">
          <text>打</text>
        </lyric>
        <lyric number="6">
          <text>打</text>
        </lyric>
        <lyric number="7">
          <text>打</text>
        </lyric>
        <lyric number="8">
          <text>打</text>
        </lyric>
        <lyric number="9">
          <text>打</text>
        </lyric>
        <lyric number="10">
          <text>打</text>
        </lyric>
      </note>
      <note>
        <pitch>
          <step>C</step>
          <octave>5</octave>
        </pitch>
        <duration>1</duration>
        <type>16th</type>
      </note>
      <note>
        <pitch>
          <step>A</step>
          <octave>4</octave>
        </pitch>
        <duration>4</duration>
        <type>quarter</type>
        <lyric number="1">
          <text>花</text>
        </lyric>
        <lyric number="2">
          <text>花</text>
        </lyric>
        <lyric number="3">
          <text>花</text>
        </lyric>
        <lyric number="4">
          <text>花</text>
        </lyric>
        <lyric number="5">
          <text>花</text>
        </lyric>
        <lyric number="6">
          <text>花</text>
        </lyric>
        <lyric number="7">
          <text>花</text>
        </lyric>
        <lyric number="8">
          <text>花</text>
        </lyric>
        <lyric number="9">
          <text>花</text>
        </lyric>
        <lyric number="10">
          <text>花</text>
        </lyric>
      </note>
    </measure>
    <measure number="3">
      <attributes>
        <time>
          <beats>4</beats>
          <beat-type>4</beat-type>
        </time>
      </attributes>
      <note>
        <pitch>
          <step>C</step>
          <octave>5</octave>
        </pitch>
        <duration>2</duration>
        <type>eighth</type>
        <lyric number="1">
          <text>越</text>
        </lyric>
        <lyric number="2">
          <text>越</text>
        </lyric>
        <lyric number="3">
          <text>越</text>
        </lyric>
        <lyric number="4">
          <text>越</text>
        </lyric>
        <lyric number="5">
          <text>越</text>
        </lyric>
        <lyric number="6">
          <text>越</text>
        </lyric>
        <lyric number="7">
          <text>越</text>
        </lyric>
        <lyric number="8">
          <text>越</text>
        </lyric>
        <lyric number="9">
          <text>越</text>
        </lyric>
        <lyric number="10">
          <text>越</text>
        </lyric>
      </note>
      <note>
        <pitch>
          <step>A</step>
          <octave>4</octave>
        </pitch>
        <duration>2</duration>
        <type>eighth</type>
        <lyric number="1">
          <text>打</text>
        </lyric>
        <lyric number="2">
          <text>打</text>
        </lyric>
        <lyric number="3">
          <text>打</text>
        </lyric>
        <lyric number="4">
          <text>打</text>
        </lyric>
        <lyric number="5">
          <text>打</text>
        </lyric>
        <lyric number="6">
          <text>打</text>
        </lyric>
        <lyric number="7">
          <text>打</text>
        </lyric>
        <lyric number="8">
          <text>打</text>
        </lyric>
        <lyric number="9">
          <text>打</text>
        </lyric>
        <lyric number="10">
          <text>打</text>
        </lyric>
      </note>
      <note>
        <pitch>
          <step>C</step>
          <octave>5</octave>
        </pitch>
        <duration>2</duration>
        <type>eighth</type>
        <lyric number="1">
          <text>越</text>
        </lyric>
        <lyric number="2">
          <text>越</text>
        </lyric>
        <lyric number="3">
          <text>越</text>
        </lyric>
        <lyric number="4">
          <text>越</text>
        </lyric>
        <lyric number="5">
          <text>越</text>
        </lyric>
        <lyric number="6">
          <text>越</text>
        </lyric>
        <lyric number="7">
          <text>越</text>
        </lyric>
        <lyric number="8">
          <text>越</text>
        </lyric>
        <lyric number="9">
          <text>越</text>
        </lyric>
        <lyric number="10">
          <text>越</text>
        </lyric>
      </note>
      <note>
        <pitch>
          <step>E</step>
          <octave>5</octave>
        </pitch>
        <duration>2</duration>
        <type>eighth</type>
        <lyric number="1">
          <text>nan</text>
        </lyric>
        <lyric number="2">
          <text>又</text>
        </lyric>
        <lyric number="3">
          <text>又</text>
        </lyric>
        <lyric number="4">
          <text>又</text>
        </lyric>
        <lyric number="5">
          <text>又</text>
        </lyric>
        <lyric number="6">
          <text>又</text>
        </lyric>
        <lyric number="7">
          <text>又</text>
        </lyric>
        <lyric number="8">
          <text>又</text>
        </lyric>
        <lyric number="9">
          <text>又</text>
        </lyric>
        <lyric number="10">
          <text>又</text>
        </lyric>
      </note>
    </measure>
    <measure number="4">
      <attributes>
        <time>
          <beats>4</beats>
          <beat-type>4</beat-type>
        </time>
      </attributes>
      <note>
        <pitch>
          <step>D</step>
          <octave>5</octave>
        </pitch>
        <duration>8</duration>
        <type>half</type>
        <lyric number="1">
          <text>旺</text>
        </lyric>
        <lyric number="2">
          <text>旺</text>
        </lyric>
        <lyric number="3">
          <text>旺</text>
        </lyric>
        <lyric number="4">
          <text>旺</text>
        </lyric>
        <lyric number="5">
          <text>旺</text>
        </lyric>
        <lyric number="6">
          <text>旺</text>
        </lyric>
        <lyric number="7">
          <text>旺</text>
        </lyric>
        <lyric number="8">
          <text>旺</text>
        </lyric>
        <lyric number="9">
          <text>旺</text>
        </lyric>
        <lyric number="10">
          <text>旺</text>
        </lyric>
      </note>
    </measure>
    <measure number="5">
      <attributes>
        <time>
          <beats>4</beats>
          <beat-type>4</beat-type>
        </time>
      </attributes>
      <note>
        <pitch>
          <step>D</step>
          <octave>5</octave>
        </pitch>
        <duration>2</duration>
        <type>eighth</type>
        <lyric number="1">
          <text>破</text>
        </lyric>
        <lyric number="2">
          <text>破</text>
        </lyric>
        <lyric number="3">
          <text>破</text>
        </lyric>
        <lyric number="4">
          <text>破</text>
        </lyric>
        <lyric number="5">
          <text>破</text>
        </lyric>
        <lyric number="6">
          <text>破</text>
        </lyric>
        <lyric number="7">
          <text>破</text>
        </lyric>
        <lyric number="8">
          <text>破</text>
        </lyric>
        <lyric number="9">
          <text>破</text>
        </lyric>
        <lyric number="10">
          <text>破</text>
        </lyric>
      </note>
      <note>
        <pitch>
          <step>D</step>
          <octave>5</octave>
        </pitch>
        <duration>1</duration>
        <type>16th</type>
        <lyric number="1">
          <text>了</text>
        </lyric>
        <lyric number="2">
          <text>了nan</text>
        </lyric>
        <lyric number="3">
          <text>了</text>
        </lyric>
        <lyric number="4">
          <text>了</text>
        </lyric>
        <lyric number="5">
          <text>了[未击中:[未击中:龘]]</text>
        </lyric>
        <lyric number="6">
          <text>了</text>
        </lyric>
        <lyric number="7">
          <text>了</text>
        </lyric>
        <lyric number="8">
          <text>了</text>
        </lyric>
        <lyric number="9">
          <text>了</text>
        </lyric>
        <lyric number="10">
          <text>了</text>
        </lyric>
      </note>
      <note>
        <pitch>
          <step>C</step>
          <octave>5</octave>
        </pitch>
        <duration>1</duration>
        <type>16th</type>
      </note>
      <note>
        <pitch>
          <step>A</step>
          <octave>4</octave>
        </pitch>
        <duration>2</duration>
        <type>eighth</type>
        <lyric number="1">
          <text>呀</text>
        </lyric>
        <lyric number="2">
          <text>呀</text>
        </lyric>
        <lyric number="3">
          <text>呀</text>
        </lyric>
        <lyric number="4">
          <text>呀</text>
        </lyric>
        <lyric number="5">
          <text>呀</text>
        </lyric>
        <lyric number="6">
          <text>呀</text>
        </lyric>
        <lyric number="7">
          <text>呀</text>
        </lyric>
        <lyric number="8">
          <text>呀</text>
        </lyric>
        <lyric number="9">
          <text>呀</text>
        </lyric>
        <lyric number="10">
          <text>呀</text>
        </lyric>
      </note>
      <note>
        <pitch>
          <step>C</step>
          <octave>5</octave>
        </pitch>
        <duration>2</duration>
        <type>eighth</type>
        <lyric number="1">
          <text>个</text>
        </lyric>
        <lyric number="2">
          <text>个nan</text>
        </lyric>
        <lyric number="3">
          <text>个</text>
        </lyric>
        <lyric number="4">
          <text>个</text>
        </lyric>
        <lyric number="5">
          <text>个</text>
        </lyric>
        <lyric number="6">
          <text>个</text>
        </lyric>
        <lyric number="7">
          <text>个</text>
        </lyric>
        <lyric number="8">
          <text>个</text>
        </lyric>
        <lyric number="9">
          <text>个</text>
        </lyric>
        <lyric number="10">
          <text>个</text>
        </lyric>
      </note>
    </measure>
    <measure number="6">
      <attributes>
        <time>
          <beats>4</beats>
          <beat-type>4</beat-type>
        </time>
      </attributes>
      <note>
        <pitch>
          <step>G</step>
          <octave>4</octave>
        </pitch>
        <duration>2</duration>
        <type>eighth</type>
        <lyric number="1">
          <text>梳</text>
        </lyric>
        <lyric number="2">
          <text>头</text>
        </lyric>
        <lyric number="3">
          <text>钗</text>
        </lyric>
        <lyric number="4">
          <text>耳</text>
        </lyric>
        <lyric number="5">
          <text>衣</text>
        </lyric>
        <lyric number="6">
          <text>绉</text>
        </lyric>
        <lyric number="7">
          <text>裤</text>
        </lyric>
        <lyric number="8">
          <text>裙</text>
        </lyric>
        <lyric number="9">
          <text>袜</text>
        </lyric>
        <lyric number="10">
          <text>靴</text>
        </lyric>
      </note>
      <note>
        <pitch>
          <step>G</step>
          <octave>4</octave>
        </pitch>
        <duration>2</duration>
        <type>eighth</type>
        <lyric number="1">
          <text>哇</text>
        </lyric>
        <lyric number="2">
          <text>哇</text>
        </lyric>
        <lyric number="3">
          <text>哇</text>
        </lyric>
        <lyric number="4">
          <text>哇</text>
        </lyric>
        <lyric number="5">
          <text>哇</text>
        </lyric>
        <lyric number="6">
          <text>哇</text>
        </lyric>
        <lyric number="7">
          <text>哇</text>
        </lyric>
        <lyric number="8">
          <text>哇</text>
        </lyric>
        <lyric number="9">
          <text>哇</text>
        </lyric>
        <lyric number="10">
          <text>哇</text>
        </lyric>
      </note>
      <note>
        <pitch>
          <step>A</step>
          <octave>4</octave>
        </pitch>
        <duration>4</duration>
        <type>quarter</type>
        <lyric number="1">
          <text>子</text>
        </lyric>
        <lyric number="2">
          <text>绳</text>
        </lyric>
        <lyric number="3">
          <text>子</text>
        </lyric>
        <lyric number="4">
          <text>环</text>
        </lyric>
        <lyric number="5">
          <text>裳</text>
        </lyric>
        <lyric number="6">
          <text>纱</text>
        </lyric>
        <lyric number="7">
          <text>子</text>
        </lyric>
        <lyric number="8">
          <text>子</text>
        </lyric>
        <lyric number="9">
          <text>子</text>
        </lyric>
        <lyric number="10">
          <text>子</text>
        </lyric>
      </note>
    </measure>
    <measure number="7">
      <attributes>
        <time>
          <beats>4</beats>
          <beat-type>4</beat-type>
        </time>
      </attributes>
      <note>
        <pitch>
          <step>A</step>
          <octave>4</octave>
        </pitch>
        <duration>3</duration>
        <type>eighth</type>
        <dot />
        <lyric number="1">
          <text>样</text>
        </lyric>
        <lyric number="2">
          <text>祥</text>
        </lyric>
        <lyric number="3">
          <text>祥</text>
        </lyric>
        <lyric number="4">
          <text>祥</text>
        </lyric>
        <lyric number="5">
          <text>祥</text>
        </lyric>
        <lyric number="6">
          <text>祥</text>
        </lyric>
        <lyric number="7">
          <text>样</text>
        </lyric>
        <lyric number="8">
          <text>样</text>
        </lyric>
        <lyric number="9">
          <text>样</text>
        </lyric>
        <lyric number="10">
          <text>样</text>
        </lyric>
      </note>
      <note>
        <pitch>
          <step>C</step>
          <octave>5</octave>
        </pitch>
        <duration>1</duration>
        <type>16th</type>
        <lyric number="1">
          <text>呀</text>
        </lyric>
        <lyric number="2">
          <text>呀</text>
        </lyric>
        <lyric number="3">
          <text>呀</text>
        </lyric>
        <lyric number="4">
          <text>呀</text>
        </lyric>
        <lyric number="5">
          <text>呀</text>
        </lyric>
        <lyric number="6">
          <text>呀</text>
        </lyric>
        <lyric number="7">
          <text>呀</text>
        </lyric>
        <lyric number="8">
          <text>呀</text>
        </lyric>
        <lyric number="9">
          <text>呀</text>
        </lyric>
        <lyric number="10">
          <text>呀</text>
        </lyric>
      </note>
      <note>
        <pitch>
          <step>A</step>
          <octave>4</octave>
        </pitch>
        <duration>2</duration>
        <type>eighth</type>
        <lyric number="1">
          <text>样</text>
        </lyric>
        <lyric number="2">
          <text>样</text>
        </lyric>
        <lyric number="3">
          <text>祥</text>
        </lyric>
        <lyric number="4">
          <text>样</text>
        </lyric>
        <lyric number="5">
          <text>祥</text>
        </lyric>
        <lyric number="6">
          <text>样</text>
        </lyric>
        <lyric number="7">
          <text>样</text>
        </lyric>
        <lyric number="8">
          <text>祥</text>
        </lyric>
        <lyric number="9">
          <text>样</text>
        </lyric>
        <lyric number="10">
          <text>样</text>
        </lyric>
      </note>
      <note>
        <pitch>
          <step>G</step>
          <octave>4</octave>
        </pitch>
        <duration>1</duration>
        <type>16th</type>
        <lyric number="1">
          <text>子</text>
        </lyric>
        <lyric number="2">
          <text>子</text>
        </lyric>
        <lyric number="3">
          <text>子</text>
        </lyric>
        <lyric number="4">
          <text>子</text>
        </lyric>
        <lyric number="5">
          <text>子</text>
        </lyric>
        <lyric number="6">
          <text>子</text>
        </lyric>
        <lyric number="7">
          <text>子</text>
        </lyric>
        <lyric number="8">
          <text>子</text>
        </lyric>
        <lyric number="9">
          <text>子</text>
        </lyric>
        <lyric number="10">
          <text>子</text>
        </lyric>
      </note>
      <note>
        <pitch>
          <step>A</step>
          <octave>4</octave>
        </pitch>
        <duration>1</duration>
        <type>16th</type>
      </note>
    </measure>
    <measure number="8">
      <attributes>
        <time>
          <beats>4</beats>
          <beat-type>4</beat-type>
        </time>
      </attributes>
      <note>
        <pitch>
          <step>D</step>
          <octave>5</octave>
        </pitch>
        <duration>8</duration>
        <type>half</type>
        <lyric number="1">
          <text>行nan</text>
        </lyric>
        <lyric number="2">
          <text>行</text>
        </lyric>
        <lyric number="3">
          <text>行</text>
        </lyric>
        <lyric number="4">
          <text>行[未击中:氵]</text>
        </lyric>
        <lyric number="5">
          <text>行</text>
        </lyric>
        <lyric number="6">
          <text>nan[未击中:氵]</text>
        </lyric>
        <lyric number="7">
          <text>[未击中:行]</text>
        </lyric>
        <lyric number="8">
          <text>[未击中:行]</text>
        </lyric>
        <lyric number="9">
          <text>[未击中:行]nan</text>
        </lyric>
        <lyric number="10">
          <text>[未击中:行][未击中:氵]</text>
        </lyric>
      </note>
    </measure>
    <measure number="9">
      <attributes>
        <time>
          <beats>4</beats>
          <beat-type>4</beat-type>
        </time>
      </attributes>
      <note>
        <pitch>
          <step>D</step>
          <octave>5</octave>
        </pitch>
        <duration>2</duration>
        <type>eighth</type>
        <lyric number="1">
          <text>没</text>
        </lyric>
        <lyric number="2">
          <text>没</text>
        </lyric>
        <lyric number="3">
          <text>没</text>
        </lyric>
        <lyric number="4">
          <text>没</text>
        </lyric>
        <lyric number="5">
          <text>没</text>
        </lyric>
        <lyric number="6">
          <text>没</text>
        </lyric>
        <lyric number="7">
          <text>没</text>
        </lyric>
        <lyric number="8">
          <text>没</text>
        </lyric>
        <lyric number="9">
          <text>没</text>
        </lyric>
        <lyric number="10">
          <text>没</text>
        </lyric>
      </note>
      <note>
        <pitch>
          <step>D</step>
          <octave>5</octave>
        </pitch>
        <duration>1</duration>
        <type>16th</type>
        <lyric number="1">
          <text>有</text>
        </lyric>
        <lyric number="2">
          <text>有</text>
        </lyric>
        <lyric number="3">
          <text>有</text>
        </lyric>
        <lyric number="4">
          <text>有</text>
        </lyric>
        <lyric number="5">
          <text>有</text>
        </lyric>
        <lyric number="6">
          <text>有</text>
        </lyric>
        <lyric number="7">
          <text>有</text>
        </lyric>
        <lyric number="8">
          <text>有</text>
        </lyric>
        <lyric number="9">
          <text>有</text>
        </lyric>
        <lyric number="10">
          <text>有</text>
        </lyric>
      </note>
      <note>
        <pitch>
          <step>C</step>
          <octave>5</octave>
        </pitch>
        <duration>1</duration>
        <type>16th</type>
      </note>
      <note>
        <pitch>
          <step>A</step>
          <octave>4</octave>
        </pitch>
        <duration>2</duration>
        <type>eighth</type>
        <lyric number="1">
          <text>那</text>
        </lyric>
        <lyric number="2">
          <text>那</text>
        </lyric>
        <lyric number="3">
          <text>那</text>
        </lyric>
        <lyric number="4">
          <text>那</text>
        </lyric>
        <lyric number="5">
          <text>那</text>
        </lyric>
        <lyric number="6">
          <text>那</text>
        </lyric>
        <lyric number="7">
          <text>那</text>
        </lyric>
        <lyric number="8">
          <text>那</text>
        </lyric>
        <lyric number="9">
          <text>那</text>
        </lyric>
        <lyric number="10">
          <text>那</text>
        </lyric>
      </note>
      <note>
        <pitch>
          <step>C</step>
          <octave>5</octave>
        </pitch>
        <duration>2</duration>
        <type>eighth</type>
        <lyric number="1">
          <text>个</text>
        </lyric>
        <lyric number="2">
          <text>个</text>
        </lyric>
        <lyric number="3">
          <text>个</text>
        </lyric>
        <lyric number="4">
          <text>个</text>
        </lyric>
        <lyric number="5">
          <text>个</text>
        </lyric>
        <lyric number="6">
          <text>个</text>
        </lyric>
        <lyric number="7">
          <text>个</text>
        </lyric>
        <lyric number="8">
          <text>个</text>
        </lyric>
        <lyric number="9">
          <text>个</text>
        </lyric>
        <lyric number="10">
          <text>个</text>
        </lyric>
      </note>
    </measure>
    <measure number="10">
      <attributes>
        <time>
          <beats>4</beats>
          <beat-type>4</beat-type>
        </time>
      </attributes>
      <note>
        <pitch>
          <step>G</step>
          <octave>4</octave>
        </pitch>
        <duration>2</duration>
        <type>eighth</type>
        <lyric number="1">
          <text>梳</text>
        </lyric>
        <lyric number="2">
          <text>头</text>
        </lyric>
        <lyric number="3">
          <text>钗</text>
        </lyric>
        <lyric number="4">
          <text>耳</text>
        </lyric>
        <lyric number="5">
          <text>衣</text>
        </lyric>
        <lyric number="6">
          <text>绉</text>
        </lyric>
        <lyric number="7">
          <text>裤</text>
        </lyric>
        <lyric number="8">
          <text>裙</text>
        </lyric>
        <lyric number="9">
          <text>袜</text>
        </lyric>
        <lyric number="10">
          <text>靴</text>
        </lyric>
        <lyric number="11">
          <text>nannan</text>
        </lyric>
      </note>
      <note>
        <pitch>
          <step>G</step>
          <octave>4</octave>
        </pitch>
        <duration>2</duration>
        <type>eighth</type>
        <lyric number="1">
          <text>哇</text>
        </lyric>
        <lyric number="2">
          <text>哇</text>
        </lyric>
        <lyric number="3">
          <text>哇</text>
        </lyric>
        <lyric number="4">
          <text>哇</text>
        </lyric>
        <lyric number="5">
          <text>哇</text>
        </lyric>
        <lyric number="6">
          <text>哇</text>
        </lyric>
        <lyric number="7">
          <text>哇</text>
        </lyric>
        <lyric number="8">
          <text>哇</text>
        </lyric>
        <lyric number="9">
          <text>哇</text>
        </lyric>
        <lyric number="10">
          <text>哇</text>
        </lyric>
        <lyric number="11">
          <text>nannannannan</text>
        </lyric>
      </note>
      <note>
        <pitch>
          <step>A</step>
          <octave>4</octave>
        </pitch>
        <duration>4</duration>
        <type>quarter</type>
        <lyric number="1">
          <text>子</text>
        </lyric>
        <lyric number="2">
          <text>绳</text>
        </lyric>
        <lyric number="3">
          <text>子</text>
        </lyric>
        <lyric number="4">
          <text>环</text>
        </lyric>
        <lyric number="5">
          <text>裳</text>
        </lyric>
        <lyric number="6">
          <text>纱</text>
        </lyric>
        <lyric number="7">
          <text>子</text>
        </lyric>
        <lyric number="8">
          <text>子</text>
        </lyric>
        <lyric number="9">
          <text>子</text>
        </lyric>
        <lyric number="10">
          <text>子</text>
        </lyric>
      </note>
    </measure>
    <measure number="11">
      <attributes>
        <time>
          <beats>4</beats>
          <beat-type>4</beat-type>
        </time>
      </attributes>
      <note>
        <pitch>
          <step>A</step>
          <octave>4</octave>
        </pitch>
        <duration>3</duration>
        <type>eighth</type>
        <dot />
        <lyric number="1">
          <text>借</text>
        </lyric>
        <lyric number="2">
          <text>借</text>
        </lyric>
        <lyric number="3">
          <text>借</text>
        </lyric>
        <lyric number="4">
          <text>借</text>
        </lyric>
        <lyric number="5">
          <text>借</text>
        </lyric>
        <lyric number="6">
          <text>借</text>
        </lyric>
        <lyric number="7">
          <text>借</text>
        </lyric>
        <lyric number="8">
          <text>借</text>
        </lyric>
        <lyric number="9">
          <text>借</text>
        </lyric>
        <lyric number="10">
          <text>借</text>
        </lyric>
        <lyric number="11">
          <text>nan</text>
        </lyric>
      </note>
      <note>
        <pitch>
          <step>C</step>
          <octave>5</octave>
        </pitch>
        <duration>1</duration>
        <type>16th</type>
        <lyric number="1">
          <text>呀</text>
        </lyric>
        <lyric number="2">
          <text>呀</text>
        </lyric>
        <lyric number="3">
          <text>呀</text>
        </lyric>
        <lyric number="4">
          <text>呀</text>
        </lyric>
        <lyric number="5">
          <text>呀</text>
        </lyric>
        <lyric number="6">
          <text>呀</text>
        </lyric>
        <lyric number="7">
          <text>呀</text>
        </lyric>
        <lyric number="8">
          <text>呀</text>
        </lyric>
        <lyric number="9">
          <text>呀</text>
        </lyric>
        <lyric number="10">
          <text>呀</text>
        </lyric>
        <lyric number="11">
          <text>nannan</text>
        </lyric>
      </note>
      <note>
        <pitch>
          <step>A</step>
          <octave>4</octave>
        </pitch>
        <duration>2</duration>
        <type>eighth</type>
        <lyric number="1">
          <text>借</text>
        </lyric>
        <lyric number="2">
          <text>借</text>
        </lyric>
        <lyric number="3">
          <text>借</text>
        </lyric>
        <lyric number="4">
          <text>借</text>
        </lyric>
        <lyric number="5">
          <text>借</text>
        </lyric>
        <lyric number="6">
          <text>借</text>
        </lyric>
        <lyric number="7">
          <text>借</text>
        </lyric>
        <lyric number="8">
          <text>借</text>
        </lyric>
        <lyric number="9">
          <text>借</text>
        </lyric>
        <lyric number="10">
          <text>借</text>
        </lyric>
        <lyric number="11">
          <text>nan</text>
        </lyric>
      </note>
      <note>
        <pitch>
          <step>G</step>
          <octave>4</octave>
        </pitch>
        <duration>1</duration>
        <type>16th</type>
        <lyric number="1">
          <text>转</text>
        </lyric>
        <lyric number="2">
          <text>转</text>
        </lyric>
        <lyric number="3">
          <text>转</text>
        </lyric>
        <lyric number="4">
          <text>转</text>
        </lyric>
        <lyric number="5">
          <text>转</text>
        </lyric>
        <lyric number="6">
          <text>转</text>
        </lyric>
        <lyric number="7">
          <text>转</text>
        </lyric>
        <lyric number="8">
          <text>转</text>
        </lyric>
        <lyric number="9">
          <text>转</text>
        </lyric>
        <lyric number="10">
          <text>转</text>
        </lyric>
      </note>
      <note>
        <pitch>
          <step>A</step>
          <octave>4</octave>
        </pitch>
        <duration>1</duration>
        <type>16th</type>
        <lyric number="1">
          <text>[未击中:柰]nannan</text>
        </lyric>
      </note>
    </measure>
    <measure number="12">
      <attributes>
        <time>
          <beats>4</beats>
          <beat-type>4</beat-type>
        </time>
      </attributes>
      <note>
        <pitch>
          <step>G</step>
          <octave>4</octave>
        </pitch>
        <duration>8</duration>
        <type>half</type>
        <lyric number="1">
          <text>来</text>
        </lyric>
        <lyric number="2">
          <text>来</text>
        </lyric>
        <lyric number="3">
          <text>来</text>
        </lyric>
        <lyric number="4">
          <text>来</text>
        </lyric>
        <lyric number="5">
          <text>来</text>
        </lyric>
        <lyric number="6">
          <text>来</text>
        </lyric>
        <lyric number="7">
          <text>来</text>
        </lyric>
        <lyric number="8">
          <text>来</text>
        </lyric>
        <lyric number="9">
          <text>来</text>
        </lyric>
        <lyric number="10">
          <text>来</text>
        </lyric>
        <lyric number="11">
          <text>nan</text>
        </lyric>
      </note>
    </measure>
  </part>
</score-partwise>
