<?xml version='1.0' encoding='utf-8'?>
<score-partwise version="3.1">
  <work>
    <work-title>页面_song_645</work-title>
  </work>
  <part-list>
    <score-part id="P1">
      <part-name>简谱旋律</part-name>
    </score-part>
  </part-list>
  <part id="P1">
    <measure number="1">
      <attributes>
        <divisions>4</divisions>
        <key>
          <fifths>0</fifths>
        </key>
        <time>
          <beats>4</beats>
          <beat-type>4</beat-type>
        </time>
      </attributes>
      <note>
        <pitch>
          <step>A</step>
          <octave>4</octave>
        </pitch>
        <duration>2</duration>
        <type>eighth</type>
        <lyric number="1">
          <text>正</text>
        </lyric>
        <lyric number="2">
          <text>二</text>
        </lyric>
        <lyric number="3">
          <text>三</text>
        </lyric>
        <lyric number="4">
          <text>nan</text>
        </lyric>
      </note>
      <note>
        <pitch>
          <step>G</step>
          <octave>4</octave>
        </pitch>
        <duration>2</duration>
        <type>eighth</type>
        <lyric number="1">
          <text>月</text>
        </lyric>
        <lyric number="2">
          <text>月</text>
        </lyric>
        <lyric number="3">
          <text>月</text>
        </lyric>
        <lyric number="4">
          <text>月</text>
        </lyric>
      </note>
      <note>
        <pitch>
          <step>A</step>
          <octave>4</octave>
        </pitch>
        <duration>2</duration>
        <type>eighth</type>
        <lyric number="1">
          <text>采</text>
        </lyric>
        <lyric number="2">
          <text>采</text>
        </lyric>
        <lyric number="3">
          <text>采</text>
        </lyric>
        <lyric number="4">
          <text>采</text>
        </lyric>
      </note>
      <note>
        <pitch>
          <step>D</step>
          <octave>5</octave>
        </pitch>
        <duration>2</duration>
        <type>eighth</type>
        <lyric number="1">
          <text>茶</text>
        </lyric>
        <lyric number="2">
          <text>茶</text>
        </lyric>
        <lyric number="3">
          <text>茶</text>
        </lyric>
        <lyric number="4">
          <text>茶</text>
        </lyric>
      </note>
    </measure>
    <measure number="2">
      <attributes>
        <time>
          <beats>4</beats>
          <beat-type>4</beat-type>
        </time>
      </attributes>
      <note>
        <pitch>
          <step>D</step>
          <octave>5</octave>
        </pitch>
        <duration>1</duration>
        <type>16th</type>
        <lyric number="1">
          <text>是</text>
        </lyric>
        <lyric number="2">
          <text>茶</text>
        </lyric>
        <lyric number="3">
          <text>茶</text>
        </lyric>
        <lyric number="4">
          <text>茶</text>
        </lyric>
      </note>
      <note>
        <pitch>
          <step>C</step>
          <octave>5</octave>
        </pitch>
        <duration>1</duration>
        <type>16th</type>
      </note>
      <note>
        <pitch>
          <step>G</step>
          <octave>4</octave>
        </pitch>
        <duration>2</duration>
        <type>eighth</type>
        <lyric number="1">
          <text>新</text>
        </lyric>
        <lyric number="2">
          <text>爆</text>
        </lyric>
        <lyric number="3">
          <text>长</text>
        </lyric>
        <lyric number="4">
          <text>叶</text>
        </lyric>
      </note>
      <note>
        <pitch>
          <step>A</step>
          <octave>4</octave>
        </pitch>
        <duration>2</duration>
        <type>eighth</type>
        <lyric number="1">
          <text>年</text>
        </lyric>
        <lyric number="2">
          <text>芽</text>
        </lyric>
        <lyric number="3">
          <text>心</text>
        </lyric>
        <lyric number="4">
          <text>长</text>
        </lyric>
      </note>
      <note>
        <pitch>
          <step>D</step>
          <octave>5</octave>
        </pitch>
        <duration>2</duration>
        <type>eighth</type>
        <lyric number="1">
          <text>呀</text>
        </lyric>
        <lyric number="2">
          <text>呀</text>
        </lyric>
        <lyric number="3">
          <text>呀</text>
        </lyric>
        <lyric number="4">
          <text>呀</text>
        </lyric>
      </note>
    </measure>
    <measure number="3">
      <attributes>
        <time>
          <beats>4</beats>
          <beat-type>4</beat-type>
        </time>
      </attributes>
      <note>
        <pitch>
          <step>D</step>
          <octave>5</octave>
        </pitch>
        <duration>1</duration>
        <type>16th</type>
        <lyric number="1">
          <text>是</text>
        </lyric>
        <lyric number="2">
          <text>茶</text>
        </lyric>
        <lyric number="3">
          <text>茶</text>
        </lyric>
        <lyric number="4">
          <text>茶</text>
        </lyric>
      </note>
      <note>
        <pitch>
          <step>C</step>
          <octave>5</octave>
        </pitch>
        <duration>1</duration>
        <type>16th</type>
      </note>
      <note>
        <pitch>
          <step>A</step>
          <octave>4</octave>
        </pitch>
        <duration>1</duration>
        <type>16th</type>
        <lyric number="1">
          <text>新</text>
        </lyric>
        <lyric number="2">
          <text>爆</text>
        </lyric>
        <lyric number="3">
          <text>长</text>
        </lyric>
        <lyric number="4">
          <text>叶</text>
        </lyric>
      </note>
      <note>
        <pitch>
          <step>C</step>
          <octave>5</octave>
        </pitch>
        <duration>1</duration>
        <type>16th</type>
      </note>
      <note>
        <pitch>
          <step>A</step>
          <octave>4</octave>
        </pitch>
        <duration>2</duration>
        <type>eighth</type>
        <lyric number="1">
          <text>年</text>
        </lyric>
        <lyric number="2">
          <text>芽</text>
        </lyric>
        <lyric number="3">
          <text>nan</text>
        </lyric>
        <lyric number="4">
          <text>长</text>
        </lyric>
      </note>
      <note>
        <rest />
        <duration>2</duration>
        <type>eighth</type>
      </note>
    </measure>
    <measure number="4">
      <attributes>
        <time>
          <beats>4</beats>
          <beat-type>4</beat-type>
        </time>
      </attributes>
      <note>
        <pitch>
          <step>D</step>
          <octave>5</octave>
        </pitch>
        <duration>2</duration>
        <type>eighth</type>
        <lyric number="1">
          <text>借</text>
        </lyric>
        <lyric number="2">
          <text>手</text>
        </lyric>
        <lyric number="3">
          <text>姐</text>
        </lyric>
        <lyric number="4">
          <text>单</text>
        </lyric>
      </note>
      <note>
        <pitch>
          <step>A</step>
          <octave>4</octave>
        </pitch>
        <duration>1</duration>
        <type>16th</type>
        <lyric number="1">
          <text>你</text>
        </lyric>
        <lyric number="2">
          <text>攀</text>
        </lyric>
        <lyric number="3">
          <text>在</text>
        </lyric>
        <lyric number="4">
          <text>人</text>
        </lyric>
      </note>
      <note>
        <pitch>
          <step>C</step>
          <octave>5</octave>
        </pitch>
        <duration>1</duration>
        <type>16th</type>
      </note>
      <note>
        <pitch>
          <step>D</step>
          <octave>5</octave>
        </pitch>
        <duration>2</duration>
        <type>eighth</type>
        <lyric number="1">
          <text>金</text>
        </lyric>
        <lyric number="2">
          <text>茶</text>
        </lyric>
        <lyric number="3">
          <text>房</text>
        </lyric>
        <lyric number="4">
          <text>独</text>
        </lyric>
      </note>
      <note>
        <pitch>
          <step>D</step>
          <octave>5</octave>
        </pitch>
        <duration>1</duration>
        <type>16th</type>
        <lyric number="1">
          <text>山</text>
        </lyric>
        <lyric number="2">
          <text>树</text>
        </lyric>
        <lyric number="3">
          <text>中</text>
        </lyric>
        <lyric number="4">
          <text>身</text>
        </lyric>
      </note>
      <note>
        <pitch>
          <step>C</step>
          <octave>5</octave>
        </pitch>
        <duration>1</duration>
        <type>16th</type>
        <lyric number="1">
          <text>的</text>
        </lyric>
        <lyric number="2">
          <text>的</text>
        </lyric>
        <lyric number="3">
          <text>的</text>
        </lyric>
        <lyric number="4">
          <text>的</text>
        </lyric>
      </note>
    </measure>
    <measure number="5">
      <attributes>
        <time>
          <beats>4</beats>
          <beat-type>4</beat-type>
        </time>
      </attributes>
      <note>
        <pitch>
          <step>A</step>
          <octave>4</octave>
        </pitch>
        <duration>1</duration>
        <type>16th</type>
        <lyric number="1">
          <text>嫩</text>
        </lyric>
        <lyric number="2">
          <text>嫩</text>
        </lyric>
        <lyric number="3">
          <text>嫩</text>
        </lyric>
        <lyric number="4">
          <text>嫩</text>
        </lyric>
      </note>
      <note>
        <pitch>
          <step>C</step>
          <octave>5</octave>
        </pitch>
        <duration>1</duration>
        <type>16th</type>
      </note>
      <note>
        <pitch>
          <step>A</step>
          <octave>4</octave>
        </pitch>
        <duration>1</duration>
        <type>16th</type>
        <lyric number="1">
          <text>娇</text>
        </lyric>
        <lyric number="2">
          <text>娇</text>
        </lyric>
        <lyric number="3">
          <text>娇</text>
        </lyric>
        <lyric number="4">
          <text>娇</text>
        </lyric>
      </note>
      <note>
        <pitch>
          <step>G</step>
          <octave>4</octave>
        </pitch>
        <duration>1</duration>
        <type>16th</type>
      </note>
      <note>
        <pitch>
          <step>E</step>
          <octave>4</octave>
        </pitch>
        <duration>2</duration>
        <type>eighth</type>
        <lyric number="1">
          <text>娇</text>
        </lyric>
        <lyric number="2">
          <text>娇</text>
        </lyric>
        <lyric number="3">
          <text>娇</text>
        </lyric>
        <lyric number="4">
          <text>娇</text>
        </lyric>
      </note>
      <note>
        <pitch>
          <step>E</step>
          <octave>4</octave>
        </pitch>
        <duration>2</duration>
        <type>eighth</type>
        <lyric number="1">
          <text>啊</text>
        </lyric>
        <lyric number="2">
          <text>啊</text>
        </lyric>
        <lyric number="3">
          <text>啊</text>
        </lyric>
        <lyric number="4">
          <text>啊</text>
        </lyric>
      </note>
    </measure>
    <measure number="6">
      <attributes>
        <time>
          <beats>4</beats>
          <beat-type>4</beat-type>
        </time>
      </attributes>
      <note>
        <pitch>
          <step>E</step>
          <octave>4</octave>
        </pitch>
        <duration>2</duration>
        <type>eighth</type>
        <lyric number="1">
          <text>娇</text>
        </lyric>
        <lyric number="2">
          <text>娇</text>
        </lyric>
        <lyric number="3">
          <text>娇</text>
        </lyric>
        <lyric number="4">
          <text>娇</text>
        </lyric>
      </note>
      <note>
        <pitch>
          <step>A</step>
          <octave>4</octave>
        </pitch>
        <duration>2</duration>
        <type>eighth</type>
        <lyric number="1">
          <text>娇</text>
        </lyric>
        <lyric number="2">
          <text>娇</text>
        </lyric>
        <lyric number="3">
          <text>娇</text>
        </lyric>
        <lyric number="4">
          <text>娇</text>
        </lyric>
      </note>
      <note>
        <pitch>
          <step>C</step>
          <octave>5</octave>
        </pitch>
        <duration>3</duration>
        <type>eighth</type>
        <dot />
        <lyric number="1">
          <text>妹</text>
        </lyric>
        <lyric number="2">
          <text>妹</text>
        </lyric>
        <lyric number="3">
          <text>妺</text>
        </lyric>
        <lyric number="4">
          <text>妹</text>
        </lyric>
      </note>
      <note>
        <pitch>
          <step>D</step>
          <octave>5</octave>
        </pitch>
        <duration>1</duration>
        <type>16th</type>
      </note>
    </measure>
    <measure number="7">
      <attributes>
        <time>
          <beats>4</beats>
          <beat-type>4</beat-type>
        </time>
      </attributes>
      <note>
        <pitch>
          <step>E</step>
          <octave>4</octave>
        </pitch>
        <duration>2</duration>
        <type>eighth</type>
        <lyric number="1">
          <text>点</text>
        </lyric>
        <lyric number="2">
          <text>采</text>
        </lyric>
        <lyric number="3">
          <text>绣</text>
        </lyric>
        <lyric number="4">
          <text>驶</text>
        </lyric>
      </note>
      <note>
        <pitch>
          <step>A</step>
          <octave>4</octave>
        </pitch>
        <duration>2</duration>
        <type>eighth</type>
        <lyric number="1">
          <text>茶</text>
        </lyric>
        <lyric number="2">
          <text>茶</text>
        </lyric>
        <lyric number="3">
          <text>手</text>
        </lyric>
        <lyric number="4">
          <text>牛</text>
        </lyric>
      </note>
      <note>
        <pitch>
          <step>G</step>
          <octave>4</octave>
        </pitch>
        <duration>2</duration>
        <type>eighth</type>
        <lyric number="1">
          <text>芽</text>
        </lyric>
        <lyric number="2">
          <text>芽nan</text>
        </lyric>
        <lyric number="3">
          <text>巾</text>
        </lyric>
        <lyric number="4">
          <text>郎nan</text>
        </lyric>
      </note>
      <note>
        <rest />
        <duration>2</duration>
        <type>eighth</type>
      </note>
    </measure>
    <measure number="8">
      <attributes>
        <time>
          <beats>4</beats>
          <beat-type>4</beat-type>
        </time>
      </attributes>
      <note>
        <pitch>
          <step>A</step>
          <octave>4</octave>
        </pitch>
        <duration>2</duration>
        <type>eighth</type>
        <lyric number="1">
          <text>茶</text>
        </lyric>
        <lyric number="2">
          <text>郎</text>
        </lyric>
        <lyric number="3">
          <text>中nan</text>
        </lyric>
        <lyric number="4">
          <text>驶nan</text>
        </lyric>
      </note>
      <note>
        <pitch>
          <step>G</step>
          <octave>4</octave>
        </pitch>
        <duration>2</duration>
        <type>eighth</type>
        <lyric number="1">
          <text>芽</text>
        </lyric>
        <lyric number="2">
          <text>的</text>
        </lyric>
        <lyric number="3">
          <text>nan</text>
        </lyric>
      </note>
      <note>
        <pitch>
          <step>A</step>
          <octave>4</octave>
        </pitch>
        <duration>2</duration>
        <type>eighth</type>
        <lyric number="1">
          <text>点</text>
        </lyric>
        <lyric number="2">
          <text>采</text>
        </lyric>
        <lyric number="3">
          <text>绣</text>
        </lyric>
        <lyric number="4">
          <text>牛</text>
        </lyric>
      </note>
      <note>
        <pitch>
          <step>D</step>
          <octave>5</octave>
        </pitch>
        <duration>2</duration>
        <type>eighth</type>
        <lyric number="1">
          <text>来</text>
        </lyric>
        <lyric number="2">
          <text>多</text>
        </lyric>
        <lyric number="3">
          <text>起</text>
        </lyric>
        <lyric number="4">
          <text>来</text>
        </lyric>
      </note>
    </measure>
    <measure number="9">
      <attributes>
        <time>
          <beats>4</beats>
          <beat-type>4</beat-type>
        </time>
      </attributes>
      <note>
        <pitch>
          <step>D</step>
          <octave>5</octave>
        </pitch>
        <duration>1</duration>
        <type>16th</type>
        <lyric number="1">
          <text>儿</text>
        </lyric>
        <lyric number="2">
          <text>姐</text>
        </lyric>
        <lyric number="3">
          <text>茶</text>
        </lyric>
        <lyric number="4">
          <text>茶</text>
        </lyric>
      </note>
      <note>
        <pitch>
          <step>C</step>
          <octave>5</octave>
        </pitch>
        <duration>1</duration>
        <type>16th</type>
      </note>
      <note>
        <pitch>
          <step>G</step>
          <octave>4</octave>
        </pitch>
        <duration>2</duration>
        <type>eighth</type>
        <lyric number="1">
          <text>多</text>
        </lyric>
        <lyric number="2">
          <text>采</text>
        </lyric>
        <lyric number="3">
          <text>花</text>
        </lyric>
        <lyric number="4">
          <text>又</text>
        </lyric>
      </note>
      <note>
        <pitch>
          <step>A</step>
          <octave>4</octave>
        </pitch>
        <duration>2</duration>
        <type>eighth</type>
        <lyric number="1">
          <text>文</text>
        </lyric>
        <lyric number="2">
          <text>少</text>
        </lyric>
        <lyric number="3">
          <text>果</text>
        </lyric>
        <lyric number="4">
          <text>长</text>
        </lyric>
      </note>
      <note>
        <pitch>
          <step>D</step>
          <octave>5</octave>
        </pitch>
        <duration>2</duration>
        <type>eighth</type>
        <lyric number="1">
          <text>呀</text>
        </lyric>
        <lyric number="2">
          <text>呀</text>
        </lyric>
        <lyric number="3">
          <text>呀</text>
        </lyric>
        <lyric number="4">
          <text>呀</text>
        </lyric>
      </note>
    </measure>
    <measure number="10">
      <attributes>
        <time>
          <beats>4</beats>
          <beat-type>4</beat-type>
        </time>
      </attributes>
      <note>
        <pitch>
          <step>D</step>
          <octave>5</octave>
        </pitch>
        <duration>1</duration>
        <type>16th</type>
        <lyric number="1">
          <text>几</text>
        </lyric>
        <lyric number="2">
          <text>姐</text>
        </lyric>
        <lyric number="3">
          <text>茶</text>
        </lyric>
        <lyric number="4">
          <text>茶</text>
        </lyric>
      </note>
      <note>
        <pitch>
          <step>C</step>
          <octave>5</octave>
        </pitch>
        <duration>1</duration>
        <type>16th</type>
      </note>
      <note>
        <pitch>
          <step>A</step>
          <octave>4</octave>
        </pitch>
        <duration>1</duration>
        <type>16th</type>
        <lyric number="1">
          <text>多</text>
        </lyric>
        <lyric number="2">
          <text>采</text>
        </lyric>
        <lyric number="3">
          <text>花</text>
        </lyric>
        <lyric number="4">
          <text>又</text>
        </lyric>
      </note>
      <note>
        <pitch>
          <step>C</step>
          <octave>5</octave>
        </pitch>
        <duration>1</duration>
        <type>16th</type>
      </note>
      <note>
        <pitch>
          <step>A</step>
          <octave>4</octave>
        </pitch>
        <duration>2</duration>
        <type>eighth</type>
        <lyric number="1">
          <text>文</text>
        </lyric>
        <lyric number="2">
          <text>少</text>
        </lyric>
        <lyric number="3">
          <text>果</text>
        </lyric>
        <lyric number="4">
          <text>长</text>
        </lyric>
        <lyric number="5">
          <text>五月</text>
        </lyric>
        <lyric number="6">
          <text>茶树</text>
        </lyric>
        <lyric number="7">
          <text>托卖</text>
        </lyric>
        <lyric number="8">
          <text>山神</text>
        </lyric>
        <lyric number="9">
          <text>六月</text>
        </lyric>
        <lyric number="10">
          <text>路过</text>
        </lyric>
        <lyric number="11">
          <text>多吃</text>
        </lyric>
        <lyric number="12">
          <text>一时</text>
        </lyric>
        <lyric number="13">
          <text>七月</text>
        </lyric>
        <lyric number="14">
          <text>人家</text>
        </lyric>
        <lyric number="15">
          <text>人冢</text>
        </lyric>
        <lyric number="16">
          <text>我家</text>
        </lyric>
        <lyric number="17">
          <text>八月</text>
        </lyric>
        <lyric number="18">
          <text>风吹</text>
        </lyric>
        <lyric number="19">
          <text>nan十</text>
        </lyric>
        <lyric number="20">
          <text>新茶</text>
        </lyric>
      </note>
      <note>
        <rest />
        <duration>2</duration>
        <type>eighth</type>
        <lyric number="1">
          <text>采茶</text>
        </lyric>
        <lyric number="2">
          <text>头下</text>
        </lyric>
        <lyric number="3">
          <text>金钱</text>
        </lyric>
        <lyric number="4">
          <text>山主</text>
        </lyric>
        <lyric number="5">
          <text>采茶</text>
        </lyric>
        <lyric number="6">
          <text>清水</text>
        </lyric>
        <lyric number="7">
          <text>生姜</text>
        </lyric>
        <lyric number="8">
          <text>肚痛</text>
        </lyric>
        <lyric number="9">
          <text>采茶</text>
        </lyric>
        <lyric number="10">
          <text>做起</text>
        </lyric>
        <lyric number="11">
          <text>做衣</text>
        </lyric>
        <lyric number="12">
          <text>做衣</text>
        </lyric>
        <lyric number="13">
          <text>采茶</text>
        </lyric>
        <lyric number="14">
          <text>茶花</text>
        </lyric>
        <lyric number="15">
          <text>婆婆</text>
        </lyric>
        <lyric number="16">
          <text>不当</text>
        </lyric>
      </note>
    </measure>
    <measure number="11">
      <attributes>
        <time>
          <beats>4</beats>
          <beat-type>4</beat-type>
        </time>
      </attributes>
      <note>
        <pitch>
          <step>D</step>
          <octave>5</octave>
        </pitch>
        <duration>2</duration>
        <type>eighth</type>
        <lyric number="1">
          <text>茶</text>
        </lyric>
        <lyric number="2">
          <text>多</text>
        </lyric>
        <lyric number="3">
          <text>两</text>
        </lyric>
        <lyric number="4">
          <text>采</text>
        </lyric>
        <lyric number="5">
          <text>茶斑</text>
        </lyric>
        <lyric number="6">
          <text>有黄</text>
        </lyric>
        <lyric number="7">
          <text>祭土</text>
        </lyric>
        <lyric number="8">
          <text>保平</text>
        </lyric>
        <lyric number="9">
          <text>热洋</text>
        </lyric>
        <lyric number="10">
          <text>滚鱼</text>
        </lyric>
        <lyric number="11">
          <text>nannan</text>
        </lyric>
        <lyric number="12">
          <text>nan难</text>
        </lyric>
        <lyric number="13">
          <text>秋风</text>
        </lyric>
        <lyric number="14">
          <text>好衣</text>
        </lyric>
        <lyric number="15">
          <text>丈夫</text>
        </lyric>
        <lyric number="16">
          <text>守笼</text>
        </lyric>
        <lyric number="17">
          <text>茶打</text>
        </lyric>
        <lyric number="18">
          <text>不成</text>
        </lyric>
        <lyric number="19">
          <text>摘朵</text>
        </lyric>
        <lyric number="20">
          <text>老茶</text>
        </lyric>
      </note>
      <note>
        <pitch>
          <step>A</step>
          <octave>4</octave>
        </pitch>
        <duration>1</duration>
        <type>16th</type>
        <lyric number="1">
          <text>芽</text>
        </lyric>
        <lyric number="2">
          <text>多</text>
        </lyric>
        <lyric number="3">
          <text>边</text>
        </lyric>
        <lyric number="4">
          <text>得</text>
        </lyric>
        <lyric number="5">
          <text>斑</text>
        </lyric>
        <lyric number="6">
          <text>斑重</text>
        </lyric>
        <lyric number="7">
          <text>主有</text>
        </lyric>
        <lyric number="8">
          <text>安冇</text>
        </lyric>
        <lyric number="9">
          <text>洋</text>
        </lyric>
        <lyric number="10">
          <text>塘脚</text>
        </lyric>
        <lyric number="11">
          <text>水脚</text>
        </lyric>
        <lyric number="12">
          <text>当卖</text>
        </lyric>
        <lyric number="13">
          <text>凉</text>
        </lyric>
        <lyric number="14">
          <text>裳nan</text>
        </lyric>
        <lyric number="15">
          <text>着郎</text>
        </lyric>
        <lyric number="16">
          <text>箱姐</text>
        </lyric>
        <lyric number="17">
          <text>花</text>
        </lyric>
        <lyric number="18">
          <text>双nan</text>
        </lyric>
        <lyric number="19">
          <text>插只</text>
        </lyric>
        <lyric number="20">
          <text>香茶</text>
        </lyric>
      </note>
      <note>
        <pitch>
          <step>C</step>
          <octave>5</octave>
        </pitch>
        <duration>1</duration>
        <type>16th</type>
      </note>
      <note>
        <pitch>
          <step>D</step>
          <octave>5</octave>
        </pitch>
        <duration>2</duration>
        <type>eighth</type>
        <lyric number="1">
          <text>点</text>
        </lyric>
        <lyric number="2">
          <text>少</text>
        </lyric>
        <lyric number="3">
          <text>绣</text>
        </lyric>
        <lyric number="4">
          <text>茶</text>
        </lyric>
      </note>
      <note>
        <pitch>
          <step>D</step>
          <octave>5</octave>
        </pitch>
        <duration>1</duration>
        <type>16th</type>
        <lyric number="1">
          <text>来</text>
        </lyric>
        <lyric number="2">
          <text>少</text>
        </lyric>
        <lyric number="3">
          <text>起</text>
        </lyric>
        <lyric number="4">
          <text>来</text>
        </lyric>
      </note>
      <note>
        <pitch>
          <step>C</step>
          <octave>5</octave>
        </pitch>
        <duration>1</duration>
        <type>16th</type>
        <lyric number="1">
          <text>的</text>
        </lyric>
        <lyric number="2">
          <text>的</text>
        </lyric>
        <lyric number="3">
          <text>的</text>
        </lyric>
        <lyric number="4">
          <text>的</text>
        </lyric>
      </note>
    </measure>
    <measure number="12">
      <attributes>
        <time>
          <beats>4</beats>
          <beat-type>4</beat-type>
        </time>
      </attributes>
      <note>
        <pitch>
          <step>A</step>
          <octave>4</octave>
        </pitch>
        <duration>1</duration>
        <type>16th</type>
        <lyric number="1">
          <text>嫩</text>
        </lyric>
        <lyric number="2">
          <text>nan</text>
        </lyric>
        <lyric number="3">
          <text>[未击中:嫩]</text>
        </lyric>
        <lyric number="4">
          <text>[未击中:嫩]</text>
        </lyric>
      </note>
      <note>
        <pitch>
          <step>C</step>
          <octave>5</octave>
        </pitch>
        <duration>1</duration>
        <type>16th</type>
      </note>
      <note>
        <pitch>
          <step>A</step>
          <octave>4</octave>
        </pitch>
        <duration>1</duration>
        <type>16th</type>
        <lyric number="1">
          <text>娇</text>
        </lyric>
        <lyric number="2">
          <text>娇</text>
        </lyric>
        <lyric number="3">
          <text>娇</text>
        </lyric>
        <lyric number="4">
          <text>娇</text>
        </lyric>
        <lyric number="5">
          <text>nannan</text>
        </lyric>
      </note>
      <note>
        <pitch>
          <step>G</step>
          <octave>4</octave>
        </pitch>
        <duration>1</duration>
        <type>16th</type>
        <lyric number="1">
          <text>nannan</text>
        </lyric>
      </note>
      <note>
        <pitch>
          <step>E</step>
          <octave>4</octave>
        </pitch>
        <duration>2</duration>
        <type>eighth</type>
        <lyric number="1">
          <text>娇</text>
        </lyric>
        <lyric number="2">
          <text>娇</text>
        </lyric>
        <lyric number="3">
          <text>娇</text>
        </lyric>
        <lyric number="4">
          <text>娇</text>
        </lyric>
        <lyric number="5">
          <text>nan[未击中:鷹]</text>
        </lyric>
      </note>
      <note>
        <pitch>
          <step>E</step>
          <octave>4</octave>
        </pitch>
        <duration>2</duration>
        <type>eighth</type>
        <lyric number="1">
          <text>啊</text>
        </lyric>
        <lyric number="2">
          <text>啊</text>
        </lyric>
        <lyric number="3">
          <text>啊</text>
        </lyric>
        <lyric number="4">
          <text>啊</text>
        </lyric>
        <lyric number="5">
          <text>nan九</text>
        </lyric>
        <lyric number="6">
          <text>nan十</text>
        </lyric>
        <lyric number="7">
          <text>nan十</text>
        </lyric>
        <lyric number="8">
          <text>nan十</text>
        </lyric>
        <lyric number="9">
          <text>nannannan</text>
        </lyric>
      </note>
    </measure>
    <measure number="13">
      <attributes>
        <time>
          <beats>4</beats>
          <beat-type>4</beat-type>
        </time>
      </attributes>
      <note>
        <pitch>
          <step>E</step>
          <octave>4</octave>
        </pitch>
        <duration>2</duration>
        <type>eighth</type>
        <lyric number="1">
          <text>娇</text>
        </lyric>
        <lyric number="2">
          <text>娇</text>
        </lyric>
        <lyric number="3">
          <text>娇</text>
        </lyric>
        <lyric number="4">
          <text>娇</text>
        </lyric>
        <lyric number="5">
          <text>月</text>
        </lyric>
        <lyric number="6">
          <text>阳</text>
        </lyric>
        <lyric number="7">
          <text>钱</text>
        </lyric>
        <lyric number="8">
          <text>钱</text>
        </lyric>
        <lyric number="9">
          <text>月采</text>
        </lyric>
        <lyric number="10">
          <text>踏船</text>
        </lyric>
        <lyric number="11">
          <text>踏船</text>
        </lyric>
        <lyric number="12">
          <text>了新</text>
        </lyric>
        <lyric number="13">
          <text>一月</text>
        </lyric>
        <lyric number="14">
          <text>心一</text>
        </lyric>
        <lyric number="15">
          <text>在江</text>
        </lyric>
        <lyric number="16">
          <text>在房</text>
        </lyric>
        <lyric number="17">
          <text>二月</text>
        </lyric>
        <lyric number="18">
          <text>间茶</text>
        </lyric>
        <lyric number="19">
          <text>等明</text>
        </lyric>
        <lyric number="20">
          <text>树头</text>
        </lyric>
        <lyric number="21">
          <text>nan</text>
        </lyric>
      </note>
      <note>
        <pitch>
          <step>A</step>
          <octave>4</octave>
        </pitch>
        <duration>2</duration>
        <type>eighth</type>
        <lyric number="1">
          <text>娇</text>
        </lyric>
        <lyric number="2">
          <text>娇</text>
        </lyric>
        <lyric number="3">
          <text>娇</text>
        </lyric>
        <lyric number="4">
          <text>娇</text>
        </lyric>
        <lyric number="5">
          <text>采茶是</text>
        </lyric>
        <lyric number="6">
          <text>降霜菊</text>
        </lyric>
        <lyric number="7">
          <text>人家饮</text>
        </lyric>
        <lyric number="8">
          <text>郎仔饮</text>
        </lyric>
        <lyric number="9">
          <text>茶漂</text>
        </lyric>
        <lyric number="10">
          <text>头走</text>
        </lyric>
        <lyric number="11">
          <text>尾忙</text>
        </lyric>
        <lyric number="12">
          <text>茶转</text>
        </lyric>
        <lyric number="13">
          <text>采茶</text>
        </lyric>
        <lyric number="14">
          <text>意望</text>
        </lyric>
        <lyric number="15">
          <text>西垮</text>
        </lyric>
        <lyric number="16">
          <text>中守</text>
        </lyric>
        <lyric number="17">
          <text>采茶</text>
        </lyric>
        <lyric number="18">
          <text>寮九</text>
        </lyric>
        <lyric number="19">
          <text>年正</text>
        </lyric>
        <lyric number="20">
          <text>下又</text>
        </lyric>
        <lyric number="21">
          <text>nan</text>
        </lyric>
      </note>
      <note>
        <pitch>
          <step>C</step>
          <octave>5</octave>
        </pitch>
        <duration>3</duration>
        <type>eighth</type>
        <dot />
        <lyric number="1">
          <text>妹</text>
        </lyric>
        <lyric number="2">
          <text>妹</text>
        </lyric>
        <lyric number="3">
          <text>妹</text>
        </lyric>
        <lyric number="4">
          <text>妹</text>
        </lyric>
        <lyric number="5">
          <text>重</text>
        </lyric>
        <lyric number="6">
          <text>花</text>
        </lyric>
        <lyric number="7">
          <text>nan药</text>
        </lyric>
        <lyric number="8">
          <text>姜</text>
        </lyric>
        <lyric number="9">
          <text>大</text>
        </lyric>
        <lyric number="10">
          <text>忙</text>
        </lyric>
        <lyric number="11">
          <text>忙</text>
        </lyric>
        <lyric number="12">
          <text>回</text>
        </lyric>
        <lyric number="13">
          <text>雪</text>
        </lyric>
        <lyric number="14">
          <text>郎nan</text>
        </lyric>
        <lyric number="15">
          <text>火</text>
        </lyric>
        <lyric number="16">
          <text>nan</text>
        </lyric>
        <lyric number="17">
          <text>又</text>
        </lyric>
        <lyric number="18">
          <text>间</text>
        </lyric>
        <lyric number="19">
          <text>三</text>
        </lyric>
        <lyric number="20">
          <text>重</text>
        </lyric>
        <lyric number="21">
          <text>nan</text>
        </lyric>
      </note>
      <note>
        <pitch>
          <step>D</step>
          <octave>5</octave>
        </pitch>
        <duration>1</duration>
        <type>16th</type>
        <lyric number="1">
          <text>阳</text>
        </lyric>
        <lyric number="2">
          <text>香</text>
        </lyric>
        <lyric number="3">
          <text>酒</text>
        </lyric>
        <lyric number="4">
          <text>汤</text>
        </lyric>
        <lyric number="5">
          <text>江</text>
        </lyric>
        <lyric number="6">
          <text>忙</text>
        </lyric>
        <lyric number="7">
          <text>走</text>
        </lyric>
        <lyric number="8">
          <text>乡</text>
        </lyric>
        <lyric number="9">
          <text>飞飞</text>
        </lyric>
        <lyric number="10">
          <text>归</text>
        </lyric>
        <lyric number="11">
          <text>炉</text>
        </lyric>
        <lyric number="12">
          <text>闺</text>
        </lyric>
        <lyric number="13">
          <text>一年</text>
        </lyric>
        <lyric number="14">
          <text>[未击中:空]</text>
        </lyric>
        <lyric number="15">
          <text>月</text>
        </lyric>
        <lyric number="16">
          <text>逢</text>
        </lyric>
        <lyric number="17">
          <text>nannan</text>
        </lyric>
      </note>
    </measure>
    <measure number="14">
      <attributes>
        <time>
          <beats>4</beats>
          <beat-type>4</beat-type>
        </time>
      </attributes>
      <note>
        <pitch>
          <step>E</step>
          <octave>4</octave>
        </pitch>
        <duration>2</duration>
        <type>eighth</type>
        <lyric number="1">
          <text>是</text>
        </lyric>
        <lyric number="2">
          <text>转</text>
        </lyric>
        <lyric number="3">
          <text>意</text>
        </lyric>
        <lyric number="4">
          <text>秧</text>
        </lyric>
        <lyric number="5">
          <text>nan</text>
        </lyric>
      </note>
      <note>
        <pitch>
          <step>A</step>
          <octave>4</octave>
        </pitch>
        <duration>2</duration>
        <type>eighth</type>
        <lyric number="1">
          <text>一</text>
        </lyric>
        <lyric number="2">
          <text>回</text>
        </lyric>
        <lyric number="3">
          <text>中</text>
        </lyric>
        <lyric number="4">
          <text>又</text>
        </lyric>
        <lyric number="5">
          <text>nannannan</text>
        </lyric>
      </note>
      <note>
        <pitch>
          <step>G</step>
          <octave>4</octave>
        </pitch>
        <duration>2</duration>
        <type>eighth</type>
        <lyric number="1">
          <text>年</text>
        </lyric>
        <lyric number="2">
          <text>家</text>
        </lyric>
        <lyric number="3">
          <text>人</text>
        </lyric>
        <lyric number="4">
          <text>黄</text>
        </lyric>
        <lyric number="5">
          <text>nan</text>
        </lyric>
      </note>
      <note>
        <rest />
        <duration>2</duration>
        <type>eighth</type>
      </note>
    </measure>
  </part>
</score-partwise>
