<?xml version='1.0' encoding='utf-8'?>
<score-partwise version="3.1">
  <work>
    <work-title>页面_song_654</work-title>
  </work>
  <part-list>
    <score-part id="P1">
      <part-name>简谱旋律</part-name>
    </score-part>
  </part-list>
  <part id="P1">
    <measure number="1">
      <attributes>
        <divisions>4</divisions>
        <key>
          <fifths>0</fifths>
        </key>
        <time>
          <beats>4</beats>
          <beat-type>4</beat-type>
        </time>
      </attributes>
      <note>
        <pitch>
          <step>E</step>
          <octave>5</octave>
        </pitch>
        <duration>2</duration>
        <type>eighth</type>
        <lyric number="1">
          <text>五</text>
        </lyric>
        <lyric number="2">
          <text>左</text>
        </lyric>
        <lyric number="3">
          <text>左</text>
        </lyric>
        <lyric number="4">
          <text>打</text>
        </lyric>
        <lyric number="5">
          <text>两</text>
        </lyric>
        <lyric number="6">
          <text>左</text>
        </lyric>
        <lyric number="7">
          <text>毛</text>
        </lyric>
        <lyric number="8">
          <text>黄</text>
        </lyric>
      </note>
      <note>
        <pitch>
          <step>E</step>
          <octave>5</octave>
        </pitch>
        <duration>4</duration>
        <type>quarter</type>
        <lyric number="1">
          <text>更</text>
        </lyric>
        <lyric number="2">
          <text>手</text>
        </lyric>
        <lyric number="3">
          <text>手</text>
        </lyric>
        <lyric number="4">
          <text>散</text>
        </lyric>
        <lyric number="5">
          <text>边</text>
        </lyric>
        <lyric number="6">
          <text>手</text>
        </lyric>
        <lyric number="7">
          <text>蝇</text>
        </lyric>
        <lyric number="8">
          <text>蜂</text>
        </lyric>
      </note>
    </measure>
    <measure number="2">
      <attributes>
        <time>
          <beats>4</beats>
          <beat-type>4</beat-type>
        </time>
      </attributes>
      <note>
        <pitch>
          <step>E</step>
          <octave>5</octave>
        </pitch>
        <duration>2</duration>
        <type>eighth</type>
        <lyric number="1">
          <text>鸡</text>
        </lyric>
        <lyric number="2">
          <text>托</text>
        </lyric>
        <lyric number="3">
          <text>托</text>
        </lyric>
        <lyric number="4">
          <text>头</text>
        </lyric>
        <lyric number="5">
          <text>梳</text>
        </lyric>
        <lyric number="6">
          <text>涂</text>
        </lyric>
        <lyric number="7">
          <text>飞</text>
        </lyric>
        <lyric number="8">
          <text>飞</text>
        </lyric>
      </note>
      <note>
        <pitch>
          <step>D</step>
          <octave>5</octave>
        </pitch>
        <duration>1</duration>
        <type>16th</type>
        <lyric number="1">
          <text>仔</text>
        </lyric>
        <lyric number="2">
          <text>来</text>
        </lyric>
        <lyric number="3">
          <text>来</text>
        </lyric>
        <lyric number="4">
          <text>毛</text>
        </lyric>
        <lyric number="5">
          <text>起</text>
        </lyric>
        <lyric number="6">
          <text>了</text>
        </lyric>
        <lyric number="7">
          <text>来</text>
        </lyric>
        <lyric number="8">
          <text>来</text>
        </lyric>
      </note>
      <note>
        <pitch>
          <step>C</step>
          <octave>5</octave>
        </pitch>
        <duration>1</duration>
        <type>16th</type>
      </note>
      <note>
        <pitch>
          <step>A</step>
          <octave>4</octave>
        </pitch>
        <duration>2</duration>
        <type>eighth</type>
      </note>
    </measure>
    <measure number="3">
      <attributes>
        <time>
          <beats>4</beats>
          <beat-type>4</beat-type>
        </time>
      </attributes>
      <note>
        <pitch>
          <step>E</step>
          <octave>5</octave>
        </pitch>
        <duration>2</duration>
        <type>eighth</type>
        <lyric number="1">
          <text>叫</text>
        </lyric>
        <lyric number="2">
          <text>栟</text>
        </lyric>
        <lyric number="3">
          <text>三</text>
        </lyric>
        <lyric number="4">
          <text>三</text>
        </lyric>
        <lyric number="5">
          <text>娥</text>
        </lyric>
        <lyric number="6">
          <text>三</text>
        </lyric>
        <lyric number="7">
          <text>跌</text>
        </lyric>
        <lyric number="8">
          <text>跌</text>
        </lyric>
      </note>
      <note>
        <pitch>
          <step>E</step>
          <octave>5</octave>
        </pitch>
        <duration>1</duration>
        <type>16th</type>
        <lyric number="1">
          <text>洋</text>
        </lyric>
        <lyric number="2">
          <text>背</text>
        </lyric>
        <lyric number="3">
          <text>斤</text>
        </lyric>
        <lyric number="4">
          <text>尺</text>
        </lyric>
        <lyric number="5">
          <text>眉</text>
        </lyric>
        <lyric number="6">
          <text>斤</text>
        </lyric>
        <lyric number="7">
          <text>断</text>
        </lyric>
        <lyric number="8">
          <text>断</text>
        </lyric>
      </note>
      <note>
        <pitch>
          <step>D</step>
          <octave>5</octave>
        </pitch>
        <duration>1</duration>
        <type>16th</type>
      </note>
      <note>
        <pitch>
          <step>C</step>
          <octave>5</octave>
        </pitch>
        <duration>1</duration>
        <type>16th</type>
      </note>
      <note>
        <pitch>
          <step>D</step>
          <octave>5</octave>
        </pitch>
        <duration>1</duration>
        <type>16th</type>
        <lyric number="1">
          <text>来</text>
        </lyric>
        <lyric number="2">
          <text>来</text>
        </lyric>
        <lyric number="3">
          <text>来</text>
        </lyric>
        <lyric number="4">
          <text>来</text>
        </lyric>
        <lyric number="5">
          <text>来</text>
        </lyric>
        <lyric number="6">
          <text>来</text>
        </lyric>
        <lyric number="7">
          <text>来</text>
        </lyric>
        <lyric number="8">
          <text>来</text>
        </lyric>
      </note>
    </measure>
    <measure number="4">
      <attributes>
        <time>
          <beats>4</beats>
          <beat-type>4</beat-type>
        </time>
      </attributes>
      <note>
        <pitch>
          <step>C</step>
          <octave>5</octave>
        </pitch>
        <duration>1</duration>
        <type>16th</type>
        <lyric number="1">
          <text>洋</text>
        </lyric>
        <lyric number="2">
          <text>椅nan</text>
        </lyric>
        <lyric number="3">
          <text>油</text>
        </lyric>
        <lyric number="4">
          <text>三[未击中:[未击中:嫲]]</text>
        </lyric>
        <lyric number="5">
          <text>月</text>
        </lyric>
        <lyric number="6">
          <text>蜡</text>
        </lyric>
        <lyric number="7">
          <text>脚[未击中:[未击中:嫲]]</text>
        </lyric>
        <lyric number="8">
          <text>针[未击中:[未击中:嫲]]</text>
        </lyric>
      </note>
      <note>
        <pitch>
          <step>A</step>
          <octave>4</octave>
        </pitch>
        <duration>1</duration>
        <type>16th</type>
      </note>
      <note>
        <pitch>
          <step>A</step>
          <octave>4</octave>
        </pitch>
        <duration>2</duration>
        <type>eighth</type>
        <lyric number="1">
          <text>呀nan</text>
        </lyric>
        <lyric number="2">
          <text>呀</text>
        </lyric>
        <lyric number="3">
          <text>呀</text>
        </lyric>
        <lyric number="4">
          <text>呀</text>
        </lyric>
        <lyric number="5">
          <text>呀</text>
        </lyric>
        <lyric number="6">
          <text>呀</text>
        </lyric>
        <lyric number="7">
          <text>呀[未击中:为]</text>
        </lyric>
        <lyric number="8">
          <text>呀</text>
        </lyric>
      </note>
    </measure>
    <measure number="5">
      <attributes>
        <time>
          <beats>4</beats>
          <beat-type>4</beat-type>
        </time>
      </attributes>
      <note>
        <pitch>
          <step>A</step>
          <octave>4</octave>
        </pitch>
        <duration>1</duration>
        <type>16th</type>
        <lyric number="1">
          <text>叫</text>
        </lyric>
        <lyric number="2">
          <text>拼</text>
        </lyric>
        <lyric number="3">
          <text>三</text>
        </lyric>
        <lyric number="4">
          <text>三</text>
        </lyric>
        <lyric number="5">
          <text>娥</text>
        </lyric>
        <lyric number="6">
          <text>三</text>
        </lyric>
        <lyric number="7">
          <text>跌</text>
        </lyric>
      </note>
      <note>
        <pitch>
          <step>C</step>
          <octave>5</octave>
        </pitch>
        <duration>1</duration>
        <type>16th</type>
      </note>
      <note>
        <pitch>
          <step>D</step>
          <octave>5</octave>
        </pitch>
        <duration>1</duration>
        <type>16th</type>
        <lyric number="1">
          <text>洋</text>
        </lyric>
        <lyric number="2">
          <text>背</text>
        </lyric>
        <lyric number="3">
          <text>斤</text>
        </lyric>
        <lyric number="4">
          <text>尺</text>
        </lyric>
        <lyric number="5">
          <text>眉</text>
        </lyric>
        <lyric number="6">
          <text>斤</text>
        </lyric>
        <lyric number="7">
          <text>断</text>
        </lyric>
        <lyric number="8">
          <text>断</text>
        </lyric>
      </note>
      <note>
        <pitch>
          <step>E</step>
          <octave>5</octave>
        </pitch>
        <duration>1</duration>
        <type>16th</type>
      </note>
      <note>
        <pitch>
          <step>C</step>
          <octave>5</octave>
        </pitch>
        <duration>1</duration>
        <type>16th</type>
        <lyric number="1">
          <text>利</text>
        </lyric>
      </note>
      <note>
        <pitch>
          <step>D</step>
          <octave>5</octave>
        </pitch>
        <duration>1</duration>
        <type>16th</type>
        <lyric number="1">
          <text>来</text>
        </lyric>
        <lyric number="2">
          <text>来</text>
        </lyric>
        <lyric number="3">
          <text>来</text>
        </lyric>
        <lyric number="4">
          <text>来</text>
        </lyric>
        <lyric number="5">
          <text>来</text>
        </lyric>
        <lyric number="6">
          <text>来</text>
        </lyric>
        <lyric number="7">
          <text>来</text>
        </lyric>
        <lyric number="8">
          <text>来</text>
        </lyric>
      </note>
    </measure>
    <measure number="6">
      <attributes>
        <time>
          <beats>4</beats>
          <beat-type>4</beat-type>
        </time>
      </attributes>
      <note>
        <pitch>
          <step>E</step>
          <octave>5</octave>
        </pitch>
        <duration>2</duration>
        <type>eighth</type>
        <lyric number="1">
          <text>洋</text>
        </lyric>
        <lyric number="2">
          <text>椅</text>
        </lyric>
        <lyric number="3">
          <text>油</text>
        </lyric>
        <lyric number="4">
          <text>三</text>
        </lyric>
        <lyric number="5">
          <text>月</text>
        </lyric>
        <lyric number="6">
          <text>蜡</text>
        </lyric>
        <lyric number="7">
          <text>脚</text>
        </lyric>
        <lyric number="8">
          <text>针</text>
        </lyric>
      </note>
      <note>
        <pitch>
          <step>D</step>
          <octave>5</octave>
        </pitch>
        <duration>1</duration>
        <type>16th</type>
        <lyric number="1">
          <text>哇</text>
        </lyric>
        <lyric number="2">
          <text>哇</text>
        </lyric>
        <lyric number="3">
          <text>哇</text>
        </lyric>
        <lyric number="4">
          <text>哇</text>
        </lyric>
        <lyric number="5">
          <text>哇</text>
        </lyric>
        <lyric number="6">
          <text>哇</text>
        </lyric>
        <lyric number="7">
          <text>哇</text>
        </lyric>
        <lyric number="8">
          <text>哇</text>
        </lyric>
      </note>
      <note>
        <pitch>
          <step>C</step>
          <octave>5</octave>
        </pitch>
        <duration>1</duration>
        <type>16th</type>
      </note>
      <note>
        <pitch>
          <step>A</step>
          <octave>4</octave>
        </pitch>
        <duration>2</duration>
        <type>eighth</type>
      </note>
    </measure>
    <measure number="7">
      <attributes>
        <time>
          <beats>4</beats>
          <beat-type>4</beat-type>
        </time>
      </attributes>
      <note>
        <pitch>
          <step>C</step>
          <octave>5</octave>
        </pitch>
        <duration>2</duration>
        <type>eighth</type>
        <lyric number="1">
          <text>吱</text>
        </lyric>
        <lyric number="2">
          <text>吱</text>
        </lyric>
        <lyric number="3">
          <text>吱</text>
        </lyric>
        <lyric number="4">
          <text>吱</text>
        </lyric>
        <lyric number="5">
          <text>吱</text>
        </lyric>
        <lyric number="6">
          <text>吱</text>
        </lyric>
        <lyric number="7">
          <text>吱</text>
        </lyric>
        <lyric number="8">
          <text>吱</text>
        </lyric>
      </note>
      <note>
        <pitch>
          <step>C</step>
          <octave>5</octave>
        </pitch>
        <duration>1</duration>
        <type>16th</type>
        <lyric number="1">
          <text>耶</text>
        </lyric>
        <lyric number="2">
          <text>耶</text>
        </lyric>
        <lyric number="3">
          <text>耶</text>
        </lyric>
        <lyric number="4">
          <text>耶</text>
        </lyric>
        <lyric number="5">
          <text>耶</text>
        </lyric>
        <lyric number="6">
          <text>耶</text>
        </lyric>
        <lyric number="7">
          <text>耶</text>
        </lyric>
        <lyric number="8">
          <text>耶</text>
        </lyric>
      </note>
      <note>
        <pitch>
          <step>A</step>
          <octave>4</octave>
        </pitch>
        <duration>1</duration>
        <type>16th</type>
        <lyric number="1">
          <text>[未击中:为]</text>
        </lyric>
      </note>
      <note>
        <rest />
        <duration>2</duration>
        <type>eighth</type>
      </note>
    </measure>
    <measure number="8">
      <attributes>
        <time>
          <beats>4</beats>
          <beat-type>4</beat-type>
        </time>
      </attributes>
      <note>
        <pitch>
          <step>E</step>
          <octave>5</octave>
        </pitch>
        <duration>2</duration>
        <type>eighth</type>
        <lyric number="1">
          <text>阿</text>
        </lyric>
        <lyric number="2">
          <text>右</text>
        </lyric>
        <lyric number="3">
          <text>右</text>
        </lyric>
        <lyric number="4">
          <text>大</text>
        </lyric>
        <lyric number="5">
          <text>中</text>
        </lyric>
        <lyric number="6">
          <text>右</text>
        </lyric>
        <lyric number="7">
          <text>蚊</text>
        </lyric>
        <lyric number="8">
          <text>蜜</text>
        </lyric>
      </note>
      <note>
        <pitch>
          <step>E</step>
          <octave>5</octave>
        </pitch>
        <duration>4</duration>
        <type>quarter</type>
        <lyric number="1">
          <text>嫂</text>
        </lyric>
        <lyric number="2">
          <text>手</text>
        </lyric>
        <lyric number="3">
          <text>手</text>
        </lyric>
        <lyric number="4">
          <text>梳</text>
        </lyric>
        <lyric number="5">
          <text>间</text>
        </lyric>
        <lyric number="6">
          <text>边</text>
        </lyric>
        <lyric number="7">
          <text>子</text>
        </lyric>
        <lyric number="8">
          <text>蜂</text>
        </lyric>
      </note>
    </measure>
    <measure number="9">
      <attributes>
        <time>
          <beats>4</beats>
          <beat-type>4</beat-type>
        </time>
      </attributes>
      <note>
        <pitch>
          <step>E</step>
          <octave>5</octave>
        </pitch>
        <duration>2</duration>
        <type>eighth</type>
        <lyric number="1">
          <text>起</text>
        </lyric>
        <lyric number="2">
          <text>托</text>
        </lyric>
        <lyric number="3">
          <text>托</text>
        </lyric>
        <lyric number="4">
          <text>梳</text>
        </lyric>
        <lyric number="5">
          <text>梳</text>
        </lyric>
        <lyric number="6">
          <text>涂</text>
        </lyric>
        <lyric number="7">
          <text>飞</text>
        </lyric>
        <lyric number="8">
          <text>飞</text>
        </lyric>
      </note>
      <note>
        <pitch>
          <step>D</step>
          <octave>5</octave>
        </pitch>
        <duration>1</duration>
        <type>16th</type>
        <lyric number="1">
          <text>床</text>
        </lyric>
        <lyric number="2">
          <text>来</text>
        </lyric>
        <lyric number="3">
          <text>来</text>
        </lyric>
        <lyric number="4">
          <text>来</text>
        </lyric>
        <lyric number="5">
          <text>起</text>
        </lyric>
        <lyric number="6">
          <text>了</text>
        </lyric>
        <lyric number="7">
          <text>来</text>
        </lyric>
        <lyric number="8">
          <text>来</text>
        </lyric>
      </note>
      <note>
        <pitch>
          <step>C</step>
          <octave>5</octave>
        </pitch>
        <duration>1</duration>
        <type>16th</type>
      </note>
      <note>
        <pitch>
          <step>A</step>
          <octave>4</octave>
        </pitch>
        <duration>2</duration>
        <type>eighth</type>
      </note>
    </measure>
    <measure number="10">
      <attributes>
        <time>
          <beats>4</beats>
          <beat-type>4</beat-type>
        </time>
      </attributes>
      <note>
        <pitch>
          <step>E</step>
          <octave>5</octave>
        </pitch>
        <duration>2</duration>
        <type>eighth</type>
        <lyric number="1">
          <text>乱</text>
        </lyric>
        <lyric number="2">
          <text>梳</text>
        </lyric>
        <lyric number="3">
          <text>三</text>
        </lyric>
        <lyric number="4">
          <text>小</text>
        </lyric>
        <lyric number="5">
          <text>月</text>
        </lyric>
        <lyric number="6">
          <text>三</text>
        </lyric>
        <lyric number="7">
          <text>跌</text>
        </lyric>
        <lyric number="8">
          <text>跌</text>
        </lyric>
      </note>
      <note>
        <pitch>
          <step>E</step>
          <octave>5</octave>
        </pitch>
        <duration>1</duration>
        <type>16th</type>
        <lyric number="1">
          <text>麻</text>
        </lyric>
        <lyric number="2">
          <text>头</text>
        </lyric>
        <lyric number="3">
          <text>斤</text>
        </lyric>
        <lyric number="4">
          <text>梳</text>
        </lyric>
        <lyric number="5">
          <text>团</text>
        </lyric>
        <lyric number="6">
          <text>斤</text>
        </lyric>
        <lyric number="7">
          <text>断</text>
        </lyric>
        <lyric number="8">
          <text>断</text>
        </lyric>
      </note>
      <note>
        <pitch>
          <step>D</step>
          <octave>5</octave>
        </pitch>
        <duration>1</duration>
        <type>16th</type>
      </note>
      <note>
        <pitch>
          <step>C</step>
          <octave>5</octave>
        </pitch>
        <duration>1</duration>
        <type>16th</type>
        <lyric number="1">
          <text>利</text>
        </lyric>
        <lyric number="2">
          <text>利</text>
        </lyric>
        <lyric number="3">
          <text>利</text>
        </lyric>
        <lyric number="4">
          <text>利</text>
        </lyric>
        <lyric number="5">
          <text>利</text>
        </lyric>
      </note>
      <note>
        <pitch>
          <step>D</step>
          <octave>5</octave>
        </pitch>
        <duration>1</duration>
        <type>16th</type>
        <lyric number="1">
          <text>来</text>
        </lyric>
        <lyric number="2">
          <text>来</text>
        </lyric>
        <lyric number="3">
          <text>来</text>
        </lyric>
        <lyric number="4">
          <text>来</text>
        </lyric>
        <lyric number="5">
          <text>来</text>
        </lyric>
        <lyric number="6">
          <text>来</text>
        </lyric>
        <lyric number="7">
          <text>来</text>
        </lyric>
        <lyric number="8">
          <text>来</text>
        </lyric>
      </note>
    </measure>
    <measure number="11">
      <attributes>
        <time>
          <beats>4</beats>
          <beat-type>4</beat-type>
        </time>
      </attributes>
      <note>
        <pitch>
          <step>C</step>
          <octave>5</octave>
        </pitch>
        <duration>1</duration>
        <type>16th</type>
        <lyric number="1">
          <text>麻</text>
        </lyric>
        <lyric number="2">
          <text>箱</text>
        </lyric>
        <lyric number="3">
          <text>蜡</text>
        </lyric>
        <lyric number="4">
          <text>挑</text>
        </lyric>
        <lyric number="5">
          <text>圆</text>
        </lyric>
        <lyric number="6">
          <text>油</text>
        </lyric>
        <lyric number="7">
          <text>腰</text>
        </lyric>
        <lyric number="8">
          <text>腰</text>
        </lyric>
      </note>
      <note>
        <pitch>
          <step>A</step>
          <octave>4</octave>
        </pitch>
        <duration>1</duration>
        <type>16th</type>
      </note>
      <note>
        <pitch>
          <step>A</step>
          <octave>4</octave>
        </pitch>
        <duration>2</duration>
        <type>eighth</type>
        <lyric number="1">
          <text>呀</text>
        </lyric>
        <lyric number="2">
          <text>呀</text>
        </lyric>
        <lyric number="3">
          <text>呀</text>
        </lyric>
        <lyric number="4">
          <text>呀</text>
        </lyric>
        <lyric number="5">
          <text>呀</text>
        </lyric>
        <lyric number="6">
          <text>呀</text>
        </lyric>
        <lyric number="7">
          <text>呀</text>
        </lyric>
        <lyric number="8">
          <text>呀</text>
        </lyric>
      </note>
    </measure>
    <measure number="12">
      <attributes>
        <time>
          <beats>4</beats>
          <beat-type>4</beat-type>
        </time>
      </attributes>
      <note>
        <pitch>
          <step>A</step>
          <octave>4</octave>
        </pitch>
        <duration>1</duration>
        <type>16th</type>
        <lyric number="1">
          <text>乱</text>
        </lyric>
        <lyric number="2">
          <text>梳</text>
        </lyric>
        <lyric number="3">
          <text>三</text>
        </lyric>
        <lyric number="4">
          <text>小</text>
        </lyric>
        <lyric number="5">
          <text>月</text>
        </lyric>
        <lyric number="6">
          <text>三</text>
        </lyric>
        <lyric number="7">
          <text>跌</text>
        </lyric>
        <lyric number="8">
          <text>跌</text>
        </lyric>
        <lyric number="9">
          <text>nan</text>
        </lyric>
      </note>
      <note>
        <pitch>
          <step>C</step>
          <octave>5</octave>
        </pitch>
        <duration>1</duration>
        <type>16th</type>
        <lyric number="1">
          <text>nannan</text>
        </lyric>
      </note>
      <note>
        <pitch>
          <step>D</step>
          <octave>5</octave>
        </pitch>
        <duration>1</duration>
        <type>16th</type>
        <lyric number="1">
          <text>麻</text>
        </lyric>
        <lyric number="2">
          <text>头</text>
        </lyric>
        <lyric number="3">
          <text>斤</text>
        </lyric>
        <lyric number="4">
          <text>梳</text>
        </lyric>
        <lyric number="5">
          <text>团</text>
        </lyric>
        <lyric number="6">
          <text>斤</text>
        </lyric>
        <lyric number="7">
          <text>断</text>
        </lyric>
        <lyric number="8">
          <text>断</text>
        </lyric>
        <lyric number="9">
          <text>nannan</text>
        </lyric>
      </note>
      <note>
        <pitch>
          <step>E</step>
          <octave>5</octave>
        </pitch>
        <duration>1</duration>
        <type>16th</type>
      </note>
      <note>
        <pitch>
          <step>C</step>
          <octave>5</octave>
        </pitch>
        <duration>1</duration>
        <type>16th</type>
        <lyric number="1">
          <text>利</text>
        </lyric>
        <lyric number="2">
          <text>利</text>
        </lyric>
        <lyric number="3">
          <text>利</text>
        </lyric>
        <lyric number="4">
          <text>利</text>
        </lyric>
        <lyric number="5">
          <text>利</text>
        </lyric>
      </note>
      <note>
        <pitch>
          <step>D</step>
          <octave>5</octave>
        </pitch>
        <duration>1</duration>
        <type>16th</type>
        <lyric number="1">
          <text>来</text>
        </lyric>
        <lyric number="2">
          <text>来</text>
        </lyric>
        <lyric number="3">
          <text>来</text>
        </lyric>
        <lyric number="4">
          <text>来</text>
        </lyric>
        <lyric number="5">
          <text>来</text>
        </lyric>
        <lyric number="6">
          <text>来</text>
        </lyric>
        <lyric number="7">
          <text>来</text>
        </lyric>
        <lyric number="8">
          <text>来</text>
        </lyric>
        <lyric number="9">
          <text>nannan</text>
        </lyric>
      </note>
    </measure>
    <measure number="13">
      <attributes>
        <time>
          <beats>4</beats>
          <beat-type>4</beat-type>
        </time>
      </attributes>
      <note>
        <pitch>
          <step>E</step>
          <octave>5</octave>
        </pitch>
        <duration>2</duration>
        <type>eighth</type>
        <lyric number="1">
          <text>麻</text>
        </lyric>
        <lyric number="2">
          <text>箱</text>
        </lyric>
        <lyric number="3">
          <text>蜡</text>
        </lyric>
        <lyric number="4">
          <text>挑</text>
        </lyric>
        <lyric number="5">
          <text>圆</text>
        </lyric>
        <lyric number="6">
          <text>油</text>
        </lyric>
        <lyric number="7">
          <text>腰</text>
        </lyric>
        <lyric number="8">
          <text>腰</text>
        </lyric>
        <lyric number="9">
          <text>nannan</text>
        </lyric>
      </note>
      <note>
        <pitch>
          <step>D</step>
          <octave>5</octave>
        </pitch>
        <duration>1</duration>
        <type>16th</type>
        <lyric number="1">
          <text>哇</text>
        </lyric>
        <lyric number="2">
          <text>哇</text>
        </lyric>
        <lyric number="3">
          <text>哇</text>
        </lyric>
        <lyric number="4">
          <text>哇</text>
        </lyric>
        <lyric number="5">
          <text>哇</text>
        </lyric>
        <lyric number="6">
          <text>哇</text>
        </lyric>
        <lyric number="7">
          <text>哇</text>
        </lyric>
        <lyric number="8">
          <text>哇</text>
        </lyric>
      </note>
      <note>
        <pitch>
          <step>C</step>
          <octave>5</octave>
        </pitch>
        <duration>1</duration>
        <type>16th</type>
        <lyric number="1">
          <text>nannan</text>
        </lyric>
      </note>
      <note>
        <pitch>
          <step>A</step>
          <octave>4</octave>
        </pitch>
        <duration>2</duration>
        <type>eighth</type>
        <lyric number="1">
          <text>nannan</text>
        </lyric>
      </note>
    </measure>
    <measure number="14">
      <attributes>
        <time>
          <beats>4</beats>
          <beat-type>4</beat-type>
        </time>
      </attributes>
      <note>
        <pitch>
          <step>C</step>
          <octave>5</octave>
        </pitch>
        <duration>2</duration>
        <type>eighth</type>
        <lyric number="1">
          <text>吱</text>
        </lyric>
        <lyric number="2">
          <text>吱</text>
        </lyric>
        <lyric number="3">
          <text>吱</text>
        </lyric>
        <lyric number="4">
          <text>吱</text>
        </lyric>
        <lyric number="5">
          <text>吱</text>
        </lyric>
        <lyric number="6">
          <text>吱</text>
        </lyric>
        <lyric number="7">
          <text>吱</text>
        </lyric>
        <lyric number="8">
          <text>吱</text>
        </lyric>
        <lyric number="9">
          <text>nannan</text>
        </lyric>
      </note>
      <note>
        <pitch>
          <step>C</step>
          <octave>5</octave>
        </pitch>
        <duration>1</duration>
        <type>16th</type>
        <lyric number="1">
          <text>耶</text>
        </lyric>
        <lyric number="2">
          <text>耶</text>
        </lyric>
        <lyric number="3">
          <text>耶</text>
        </lyric>
        <lyric number="4">
          <text>耶</text>
        </lyric>
        <lyric number="5">
          <text>耶</text>
        </lyric>
        <lyric number="6">
          <text>耶</text>
        </lyric>
        <lyric number="7">
          <text>耶</text>
        </lyric>
        <lyric number="8">
          <text>耶</text>
        </lyric>
        <lyric number="9">
          <text>nan</text>
        </lyric>
      </note>
      <note>
        <pitch>
          <step>A</step>
          <octave>4</octave>
        </pitch>
        <duration>1</duration>
        <type>16th</type>
        <lyric number="1">
          <text>nan</text>
        </lyric>
        <lyric number="2">
          <text>[未击中:[未击中:为]]</text>
        </lyric>
        <lyric number="3">
          <text>[未击中:[未击中:为]]</text>
        </lyric>
        <lyric number="4">
          <text>nan</text>
        </lyric>
      </note>
      <note>
        <rest />
        <duration>2</duration>
        <type>eighth</type>
      </note>
    </measure>
  </part>
</score-partwise>
