<?xml version='1.0' encoding='utf-8'?>
<score-partwise version="3.1">
  <work>
    <work-title>页面_song_664</work-title>
  </work>
  <part-list>
    <score-part id="P1">
      <part-name>简谱旋律</part-name>
    </score-part>
  </part-list>
  <part id="P1">
    <measure number="1">
      <attributes>
        <divisions>4</divisions>
        <key>
          <fifths>0</fifths>
        </key>
        <time>
          <beats>4</beats>
          <beat-type>4</beat-type>
        </time>
      </attributes>
      <note>
        <pitch>
          <step>A</step>
          <octave>4</octave>
        </pitch>
        <duration>2</duration>
        <type>eighth</type>
        <lyric number="1">
          <text>正</text>
        </lyric>
        <lyric number="2">
          <text>二</text>
        </lyric>
        <lyric number="3">
          <text>三</text>
        </lyric>
        <lyric number="4">
          <text>nan</text>
        </lyric>
      </note>
      <note>
        <pitch>
          <step>C</step>
          <octave>5</octave>
        </pitch>
        <duration>2</duration>
        <type>eighth</type>
        <lyric number="1">
          <text>月</text>
        </lyric>
        <lyric number="2">
          <text>月</text>
        </lyric>
        <lyric number="3">
          <text>月</text>
        </lyric>
        <lyric number="4">
          <text>月</text>
        </lyric>
      </note>
      <note>
        <pitch>
          <step>D</step>
          <octave>5</octave>
        </pitch>
        <duration>2</duration>
        <type>eighth</type>
        <lyric number="1">
          <text>长</text>
        </lyric>
        <lyric number="2">
          <text>长</text>
        </lyric>
        <lyric number="3">
          <text>长</text>
        </lyric>
        <lyric number="4">
          <text>长</text>
        </lyric>
      </note>
      <note>
        <pitch>
          <step>D</step>
          <octave>5</octave>
        </pitch>
        <duration>1</duration>
        <type>16th</type>
        <lyric number="1">
          <text>工</text>
        </lyric>
        <lyric number="2">
          <text>工</text>
        </lyric>
        <lyric number="3">
          <text>工</text>
        </lyric>
        <lyric number="4">
          <text>工</text>
        </lyric>
      </note>
      <note>
        <pitch>
          <step>D</step>
          <octave>5</octave>
        </pitch>
        <duration>1</duration>
        <type>16th</type>
        <lyric number="1">
          <text>就</text>
        </lyric>
        <lyric number="2">
          <text>就</text>
        </lyric>
        <lyric number="3">
          <text>就</text>
        </lyric>
        <lyric number="4">
          <text>就</text>
        </lyric>
      </note>
    </measure>
    <measure number="2">
      <attributes>
        <time>
          <beats>4</beats>
          <beat-type>4</beat-type>
        </time>
      </attributes>
      <note>
        <pitch>
          <step>D</step>
          <octave>5</octave>
        </pitch>
        <duration>2</duration>
        <type>eighth</type>
        <lyric number="1">
          <text>真</text>
        </lyric>
        <lyric number="2">
          <text>真</text>
        </lyric>
        <lyric number="3">
          <text>真</text>
        </lyric>
        <lyric number="4">
          <text>真</text>
        </lyric>
      </note>
      <note>
        <pitch>
          <step>A</step>
          <octave>4</octave>
        </pitch>
        <duration>2</duration>
        <type>eighth</type>
        <lyric number="1">
          <text>可</text>
        </lyric>
        <lyric number="2">
          <text>可</text>
        </lyric>
        <lyric number="3">
          <text>可</text>
        </lyric>
        <lyric number="4">
          <text>可</text>
        </lyric>
      </note>
      <note>
        <pitch>
          <step>C</step>
          <octave>5</octave>
        </pitch>
        <duration>2</duration>
        <type>eighth</type>
        <lyric number="1">
          <text>怜</text>
        </lyric>
        <lyric number="2">
          <text>怜</text>
        </lyric>
        <lyric number="3">
          <text>怜</text>
        </lyric>
        <lyric number="4">
          <text>怜</text>
        </lyric>
      </note>
      <note>
        <pitch>
          <step>C</step>
          <octave>5</octave>
        </pitch>
        <duration>4</duration>
        <type>quarter</type>
        <lyric number="1">
          <text>啰倨</text>
        </lyric>
        <lyric number="2">
          <text>啰倨</text>
        </lyric>
        <lyric number="3">
          <text>啰倨</text>
        </lyric>
        <lyric number="4">
          <text>啰nan</text>
        </lyric>
      </note>
    </measure>
    <measure number="3">
      <attributes>
        <time>
          <beats>4</beats>
          <beat-type>4</beat-type>
        </time>
      </attributes>
      <note>
        <pitch>
          <step>A</step>
          <octave>4</octave>
        </pitch>
        <duration>2</duration>
        <type>eighth</type>
        <lyric number="1">
          <text>背</text>
        </lyric>
        <lyric number="2">
          <text>背</text>
        </lyric>
        <lyric number="3">
          <text>挑</text>
        </lyric>
        <lyric number="4">
          <text>挑</text>
        </lyric>
      </note>
      <note>
        <pitch>
          <step>C</step>
          <octave>5</octave>
        </pitch>
        <duration>2</duration>
        <type>eighth</type>
        <lyric number="1">
          <text>个</text>
        </lyric>
        <lyric number="2">
          <text>担</text>
        </lyric>
        <lyric number="3">
          <text>担</text>
        </lyric>
      </note>
      <note>
        <pitch>
          <step>D</step>
          <octave>5</octave>
        </pitch>
        <duration>2</duration>
        <type>eighth</type>
        <lyric number="1">
          <text>包</text>
        </lyric>
        <lyric number="2">
          <text>犁</text>
        </lyric>
        <lyric number="3">
          <text>秧</text>
        </lyric>
        <lyric number="4">
          <text>石</text>
        </lyric>
      </note>
      <note>
        <pitch>
          <step>D</step>
          <octave>5</octave>
        </pitch>
        <duration>2</duration>
        <type>eighth</type>
        <lyric number="1">
          <text>袱</text>
        </lyric>
        <lyric number="2">
          <text>子</text>
        </lyric>
        <lyric number="3">
          <text>子</text>
        </lyric>
        <lyric number="4">
          <text>灰</text>
        </lyric>
      </note>
    </measure>
    <measure number="4">
      <attributes>
        <time>
          <beats>4</beats>
          <beat-type>4</beat-type>
        </time>
      </attributes>
      <note>
        <pitch>
          <step>D</step>
          <octave>5</octave>
        </pitch>
        <duration>2</duration>
        <type>eighth</type>
        <lyric number="1">
          <text>讲</text>
        </lyric>
        <lyric number="2">
          <text>去</text>
        </lyric>
        <lyric number="3">
          <text>去</text>
        </lyric>
        <lyric number="4">
          <text>去</text>
        </lyric>
      </note>
      <note>
        <pitch>
          <step>A</step>
          <octave>4</octave>
        </pitch>
        <duration>2</duration>
        <type>eighth</type>
        <lyric number="1">
          <text>长</text>
        </lyric>
        <lyric number="2">
          <text>犁</text>
        </lyric>
        <lyric number="3">
          <text>莳</text>
        </lyric>
        <lyric number="4">
          <text>耘</text>
        </lyric>
      </note>
      <note>
        <pitch>
          <step>C</step>
          <octave>5</octave>
        </pitch>
        <duration>2</duration>
        <type>eighth</type>
        <lyric number="1">
          <text>年</text>
        </lyric>
        <lyric number="2">
          <text>田</text>
        </lyric>
        <lyric number="3">
          <text>田</text>
        </lyric>
        <lyric number="4">
          <text>田</text>
        </lyric>
      </note>
      <note>
        <pitch>
          <step>C</step>
          <octave>5</octave>
        </pitch>
        <duration>4</duration>
        <type>quarter</type>
        <lyric number="1">
          <text>啰</text>
        </lyric>
        <lyric number="2">
          <text>啰</text>
        </lyric>
        <lyric number="3">
          <text>啰</text>
        </lyric>
        <lyric number="4">
          <text>啰</text>
        </lyric>
      </note>
    </measure>
    <measure number="5">
      <attributes>
        <time>
          <beats>4</beats>
          <beat-type>4</beat-type>
        </time>
      </attributes>
      <note>
        <pitch>
          <step>G</step>
          <octave>4</octave>
        </pitch>
        <duration>2</duration>
        <type>eighth</type>
        <lyric number="1">
          <text>背</text>
        </lyric>
        <lyric number="2">
          <text>背</text>
        </lyric>
        <lyric number="3">
          <text>挑</text>
        </lyric>
        <lyric number="4">
          <text>挑</text>
        </lyric>
      </note>
      <note>
        <pitch>
          <step>G</step>
          <octave>4</octave>
        </pitch>
        <duration>4</duration>
        <type>quarter</type>
        <lyric number="1">
          <text>个</text>
        </lyric>
        <lyric number="2">
          <text>担</text>
        </lyric>
        <lyric number="3">
          <text>担</text>
        </lyric>
      </note>
      <note>
        <pitch>
          <step>A</step>
          <octave>4</octave>
        </pitch>
        <duration>2</duration>
        <type>eighth</type>
        <lyric number="1">
          <text>包</text>
        </lyric>
        <lyric number="2">
          <text>犁</text>
        </lyric>
        <lyric number="3">
          <text>秧</text>
        </lyric>
        <lyric number="4">
          <text>石</text>
        </lyric>
      </note>
      <note>
        <pitch>
          <step>C</step>
          <octave>5</octave>
        </pitch>
        <duration>2</duration>
        <type>eighth</type>
        <lyric number="1">
          <text>袱</text>
        </lyric>
        <lyric number="2">
          <text>子</text>
        </lyric>
        <lyric number="3">
          <text>子</text>
        </lyric>
        <lyric number="4">
          <text>灰</text>
        </lyric>
      </note>
    </measure>
    <measure number="6">
      <attributes>
        <time>
          <beats>4</beats>
          <beat-type>4</beat-type>
        </time>
      </attributes>
      <note>
        <pitch>
          <step>A</step>
          <octave>4</octave>
        </pitch>
        <duration>2</duration>
        <type>eighth</type>
        <lyric number="1">
          <text>讲</text>
        </lyric>
        <lyric number="2">
          <text>去</text>
        </lyric>
        <lyric number="3">
          <text>去</text>
        </lyric>
        <lyric number="4">
          <text>去</text>
        </lyric>
      </note>
      <note>
        <pitch>
          <step>E</step>
          <octave>4</octave>
        </pitch>
        <duration>2</duration>
        <type>eighth</type>
        <lyric number="1">
          <text>长</text>
        </lyric>
        <lyric number="2">
          <text>犁</text>
        </lyric>
        <lyric number="3">
          <text>莳</text>
        </lyric>
        <lyric number="4">
          <text>耘</text>
        </lyric>
      </note>
      <note>
        <pitch>
          <step>G</step>
          <octave>4</octave>
        </pitch>
        <duration>2</duration>
        <type>eighth</type>
        <lyric number="1">
          <text>年</text>
        </lyric>
        <lyric number="2">
          <text>田</text>
        </lyric>
        <lyric number="3">
          <text>田</text>
        </lyric>
        <lyric number="4">
          <text>田</text>
        </lyric>
      </note>
      <note>
        <pitch>
          <step>G</step>
          <octave>4</octave>
        </pitch>
        <duration>4</duration>
        <type>quarter</type>
        <lyric number="1">
          <text>啰</text>
        </lyric>
        <lyric number="2">
          <text>啰</text>
        </lyric>
        <lyric number="3">
          <text>啰</text>
        </lyric>
        <lyric number="4">
          <text>啰</text>
        </lyric>
      </note>
    </measure>
    <measure number="7">
      <attributes>
        <time>
          <beats>4</beats>
          <beat-type>4</beat-type>
        </time>
      </attributes>
      <note>
        <pitch>
          <step>A</step>
          <octave>4</octave>
        </pitch>
        <duration>2</duration>
        <type>eighth</type>
        <lyric number="1">
          <text>哪</text>
        </lyric>
        <lyric number="2">
          <text>行</text>
        </lyric>
        <lyric number="3">
          <text>上</text>
        </lyric>
        <lyric number="4">
          <text>右</text>
        </lyric>
      </note>
      <note>
        <pitch>
          <step>G</step>
          <octave>4</octave>
        </pitch>
        <duration>4</duration>
        <type>quarter</type>
        <lyric number="1">
          <text>个</text>
        </lyric>
        <lyric number="2">
          <text>到</text>
        </lyric>
        <lyric number="3">
          <text>桐</text>
        </lyric>
        <lyric number="4">
          <text>手</text>
        </lyric>
      </note>
      <note>
        <pitch>
          <step>A</step>
          <octave>4</octave>
        </pitch>
        <duration>2</duration>
        <type>eighth</type>
        <lyric number="1">
          <text>东</text>
        </lyric>
        <lyric number="2">
          <text>田</text>
        </lyric>
        <lyric number="3">
          <text>莳</text>
        </lyric>
        <lyric number="4">
          <text>拿</text>
        </lyric>
      </note>
      <note>
        <pitch>
          <step>C</step>
          <octave>5</octave>
        </pitch>
        <duration>2</duration>
        <type>eighth</type>
        <lyric number="1">
          <text>逭</text>
        </lyric>
        <lyric number="2">
          <text>中</text>
        </lyric>
        <lyric number="3">
          <text>到</text>
        </lyric>
        <lyric number="4">
          <text>起</text>
        </lyric>
      </note>
    </measure>
    <measure number="8">
      <attributes>
        <time>
          <beats>4</beats>
          <beat-type>4</beat-type>
        </time>
      </attributes>
      <note>
        <pitch>
          <step>C</step>
          <octave>5</octave>
        </pitch>
        <duration>2</duration>
        <type>eighth</type>
        <lyric number="1">
          <text>岀</text>
        </lyric>
        <lyric number="2">
          <text>落</text>
        </lyric>
        <lyric number="3">
          <text>下</text>
        </lyric>
        <lyric number="4">
          <text>耘</text>
        </lyric>
      </note>
      <note>
        <pitch>
          <step>A</step>
          <octave>4</octave>
        </pitch>
        <duration>2</duration>
        <type>eighth</type>
        <lyric number="1">
          <text>来</text>
        </lyric>
        <lyric number="2">
          <text>大</text>
        </lyric>
        <lyric number="3">
          <text>垌</text>
        </lyric>
        <lyric number="4">
          <text>田</text>
        </lyric>
      </note>
      <note>
        <pitch>
          <step>A</step>
          <octave>4</octave>
        </pitch>
        <duration>2</duration>
        <type>eighth</type>
        <lyric number="1">
          <text>请</text>
        </lyric>
        <lyric number="2">
          <text>水</text>
        </lyric>
        <lyric number="3">
          <text>转</text>
        </lyric>
        <lyric number="4">
          <text>棍</text>
        </lyric>
      </note>
      <note>
        <pitch>
          <step>C</step>
          <octave>5</octave>
        </pitch>
        <duration>4</duration>
        <type>quarter</type>
        <lyric number="1">
          <text>啰</text>
        </lyric>
        <lyric number="2">
          <text>啰</text>
        </lyric>
        <lyric number="3">
          <text>啰</text>
        </lyric>
        <lyric number="4">
          <text>啰</text>
        </lyric>
      </note>
    </measure>
    <measure number="9">
      <attributes>
        <time>
          <beats>4</beats>
          <beat-type>4</beat-type>
        </time>
      </attributes>
      <note>
        <pitch>
          <step>A</step>
          <octave>4</octave>
        </pitch>
        <duration>2</duration>
        <type>eighth</type>
        <lyric number="1">
          <text>nan</text>
        </lyric>
        <lyric number="2">
          <text>尽</text>
        </lyric>
        <lyric number="3">
          <text>几</text>
        </lyric>
        <lyric number="4">
          <text>腰</text>
        </lyric>
        <lyric number="5">
          <text>左</text>
        </lyric>
        <lyric number="6">
          <text>nan八</text>
        </lyric>
      </note>
      <note>
        <pitch>
          <step>C</step>
          <octave>5</octave>
        </pitch>
        <duration>2</duration>
        <type>eighth</type>
        <lyric number="1">
          <text>nan</text>
        </lyric>
        <lyric number="2">
          <text>nan</text>
        </lyric>
        <lyric number="3">
          <text>多</text>
        </lyric>
        <lyric number="4">
          <text>驼</text>
        </lyric>
        <lyric number="5">
          <text>手</text>
        </lyric>
        <lyric number="6">
          <text>五月</text>
        </lyric>
        <lyric number="7">
          <text>支到</text>
        </lyric>
        <lyric number="8">
          <text>一百</text>
        </lyric>
        <lyric number="9">
          <text>一百</text>
        </lyric>
        <lyric number="10">
          <text>月长</text>
        </lyric>
        <lyric number="11">
          <text>起锄</text>
        </lyric>
        <lyric number="12">
          <text>到田</text>
        </lyric>
        <lyric number="13">
          <text>逭怨</text>
        </lyric>
        <lyric number="14">
          <text>月长</text>
        </lyric>
        <lyric number="15">
          <text>包饼</text>
        </lyric>
      </note>
      <note>
        <pitch>
          <step>D</step>
          <octave>5</octave>
        </pitch>
        <duration>2</duration>
        <type>eighth</type>
        <lyric number="1">
          <text>nan</text>
        </lyric>
        <lyric number="2">
          <text>尽</text>
        </lyric>
        <lyric number="3">
          <text>孤</text>
        </lyric>
        <lyric number="4">
          <text>背</text>
        </lyric>
        <lyric number="5">
          <text>牵</text>
        </lyric>
        <lyric number="6">
          <text>长工</text>
        </lyric>
        <lyric number="7">
          <text>东家</text>
        </lyric>
        <lyric number="8">
          <text>拿来</text>
        </lyric>
        <lyric number="9">
          <text>拿来</text>
        </lyric>
        <lyric number="10">
          <text>工真可</text>
        </lyric>
        <lyric number="11">
          <text>耙去逻</text>
        </lyric>
        <lyric number="12">
          <text>中没滴</text>
        </lyric>
        <lyric number="13">
          <text>倨俚怨</text>
        </lyric>
        <lyric number="14">
          <text>工真可</text>
        </lyric>
        <lyric number="15">
          <text>子送娇</text>
        </lyric>
      </note>
      <note>
        <pitch>
          <step>D</step>
          <octave>5</octave>
        </pitch>
        <duration>2</duration>
        <type>eighth</type>
        <lyric number="1">
          <text>[未击中:[未击中:丄]]</text>
        </lyric>
        <lyric number="2">
          <text>意</text>
        </lyric>
        <lyric number="3">
          <text>寒</text>
        </lyric>
        <lyric number="4">
          <text>痛</text>
        </lyric>
        <lyric number="5">
          <text>起</text>
        </lyric>
        <lyric number="6">
          <text>真可怜</text>
        </lyric>
        <lyric number="7">
          <text>两百钱挑</text>
        </lyric>
        <lyric number="8">
          <text>买米煮行</text>
        </lyric>
        <lyric number="9">
          <text>送娇莲东</text>
        </lyric>
        <lyric number="10">
          <text>怜nan</text>
        </lyric>
        <lyric number="11">
          <text>田</text>
        </lyric>
        <lyric number="12">
          <text>水</text>
        </lyric>
        <lyric number="13">
          <text>天</text>
        </lyric>
        <lyric number="14">
          <text>怜一</text>
        </lyric>
        <lyric number="15">
          <text>莲</text>
        </lyric>
      </note>
      <note>
        <pitch>
          <step>D</step>
          <octave>5</octave>
        </pitch>
        <duration>2</duration>
        <type>eighth</type>
        <lyric number="1">
          <text>[未击中:[未击中:丄]]</text>
        </lyric>
        <lyric number="2">
          <text>做</text>
        </lyric>
        <lyric number="3">
          <text>在</text>
        </lyric>
        <lyric number="4">
          <text>鬼</text>
        </lyric>
        <lyric number="5">
          <text>嫩</text>
        </lyric>
      </note>
      <note>
        <pitch>
          <step>A</step>
          <octave>4</octave>
        </pitch>
        <duration>2</duration>
        <type>eighth</type>
        <lyric number="1">
          <text>[未击中:蠿]</text>
        </lyric>
        <lyric number="2">
          <text>一</text>
        </lyric>
        <lyric number="3">
          <text>眼</text>
        </lyric>
        <lyric number="4">
          <text>可</text>
        </lyric>
        <lyric number="5">
          <text>娇</text>
        </lyric>
      </note>
      <note>
        <pitch>
          <step>C</step>
          <octave>5</octave>
        </pitch>
        <duration>2</duration>
        <type>eighth</type>
        <lyric number="1">
          <text>[未击中:丄]</text>
        </lyric>
        <lyric number="2">
          <text>年</text>
        </lyric>
        <lyric number="3">
          <text>前</text>
        </lyric>
        <lyric number="4">
          <text>怜</text>
        </lyric>
        <lyric number="5">
          <text>莲</text>
        </lyric>
      </note>
      <note>
        <pitch>
          <step>C</step>
          <octave>5</octave>
        </pitch>
        <duration>2</duration>
        <type>eighth</type>
        <lyric number="1">
          <text>[未击中:丄]一</text>
        </lyric>
        <lyric number="2">
          <text>啰</text>
        </lyric>
        <lyric number="3">
          <text>啰</text>
        </lyric>
        <lyric number="4">
          <text>啰</text>
        </lyric>
        <lyric number="5">
          <text>啰</text>
        </lyric>
      </note>
    </measure>
    <measure number="10">
      <attributes>
        <time>
          <beats>4</beats>
          <beat-type>4</beat-type>
        </time>
      </attributes>
      <note>
        <pitch>
          <step>G</step>
          <octave>4</octave>
        </pitch>
        <duration>2</duration>
        <type>eighth</type>
        <lyric number="1">
          <text>[未击中:蠿]</text>
        </lyric>
        <lyric number="2">
          <text>尽</text>
        </lyric>
        <lyric number="3">
          <text>几</text>
        </lyric>
        <lyric number="4">
          <text>腰</text>
        </lyric>
        <lyric number="5">
          <text>左</text>
        </lyric>
      </note>
      <note>
        <pitch>
          <step>G</step>
          <octave>4</octave>
        </pitch>
        <duration>4</duration>
        <type>quarter</type>
        <lyric number="1">
          <text>nan</text>
        </lyric>
        <lyric number="2">
          <text>[未击中:心]</text>
        </lyric>
        <lyric number="3">
          <text>多</text>
        </lyric>
        <lyric number="4">
          <text>驼</text>
        </lyric>
        <lyric number="5">
          <text>手</text>
        </lyric>
        <lyric number="6">
          <text>[未击中:[未击中:釁]]六</text>
        </lyric>
        <lyric number="7">
          <text>十月</text>
        </lyric>
        <lyric number="8">
          <text>烧窑</text>
        </lyric>
        <lyric number="9">
          <text>保佑</text>
        </lyric>
        <lyric number="10">
          <text>nannan</text>
        </lyric>
      </note>
      <note>
        <pitch>
          <step>A</step>
          <octave>4</octave>
        </pitch>
        <duration>2</duration>
        <type>eighth</type>
        <lyric number="1">
          <text>[未击中:蠿]</text>
        </lyric>
        <lyric number="2">
          <text>尽</text>
        </lyric>
        <lyric number="3">
          <text>孤</text>
        </lyric>
        <lyric number="4">
          <text>背</text>
        </lyric>
        <lyric number="5">
          <text>牵</text>
        </lyric>
        <lyric number="6">
          <text>月长</text>
        </lyric>
        <lyric number="7">
          <text>担谷</text>
        </lyric>
        <lyric number="8">
          <text>到半</text>
        </lyric>
        <lyric number="9">
          <text>道又</text>
        </lyric>
        <lyric number="10">
          <text>长工真</text>
        </lyric>
        <lyric number="11">
          <text>石灰来</text>
        </lyric>
        <lyric number="12">
          <text>石灰烧</text>
        </lyric>
        <lyric number="13">
          <text>nan</text>
        </lyric>
        <lyric number="14">
          <text>nannan</text>
        </lyric>
      </note>
      <note>
        <pitch>
          <step>C</step>
          <octave>5</octave>
        </pitch>
        <duration>2</duration>
        <type>eighth</type>
        <lyric number="1">
          <text>[未击中:丄]</text>
        </lyric>
        <lyric number="2">
          <text>意</text>
        </lyric>
        <lyric number="3">
          <text>寒</text>
        </lyric>
        <lyric number="4">
          <text>痛</text>
        </lyric>
        <lyric number="5">
          <text>起</text>
        </lyric>
        <lyric number="6">
          <text>工真可</text>
        </lyric>
        <lyric number="7">
          <text>子到nan门</text>
        </lyric>
        <lyric number="8">
          <text>路倒nan洒</text>
        </lyric>
        <lyric number="9">
          <text>爱扣工</text>
        </lyric>
        <lyric number="10">
          <text>可怜</text>
        </lyric>
        <lyric number="11">
          <text>过年</text>
        </lyric>
        <lyric number="12">
          <text>得好</text>
        </lyric>
        <lyric number="13">
          <text>工</text>
        </lyric>
        <lyric number="14">
          <text>nannan</text>
        </lyric>
      </note>
    </measure>
    <measure number="11">
      <attributes>
        <time>
          <beats>4</beats>
          <beat-type>4</beat-type>
        </time>
      </attributes>
      <note>
        <pitch>
          <step>A</step>
          <octave>4</octave>
        </pitch>
        <duration>2</duration>
        <type>eighth</type>
        <lyric number="1">
          <text>[未击中:蠿]</text>
        </lyric>
        <lyric number="2">
          <text>做</text>
        </lyric>
        <lyric number="3">
          <text>在</text>
        </lyric>
        <lyric number="4">
          <text>鬼</text>
        </lyric>
        <lyric number="5">
          <text>nan</text>
        </lyric>
        <lyric number="6">
          <text>怜</text>
        </lyric>
        <lyric number="7">
          <text>前</text>
        </lyric>
        <lyric number="8">
          <text>谷</text>
        </lyric>
        <lyric number="9">
          <text>钱</text>
        </lyric>
        <lyric number="10">
          <text>nan</text>
        </lyric>
        <lyric number="11">
          <text>nannan</text>
        </lyric>
      </note>
      <note>
        <pitch>
          <step>E</step>
          <octave>4</octave>
        </pitch>
        <duration>2</duration>
        <type>eighth</type>
        <lyric number="1">
          <text>[未击中:蠿]</text>
        </lyric>
        <lyric number="2">
          <text>一</text>
        </lyric>
        <lyric number="3">
          <text>眼</text>
        </lyric>
        <lyric number="4">
          <text>可</text>
        </lyric>
        <lyric number="5">
          <text>娇</text>
        </lyric>
        <lyric number="6">
          <text>[未击中:鸉]nan</text>
        </lyric>
      </note>
      <note>
        <pitch>
          <step>G</step>
          <octave>4</octave>
        </pitch>
        <duration>2</duration>
        <type>eighth</type>
        <lyric number="1">
          <text>[未击中:蠿]</text>
        </lyric>
        <lyric number="2">
          <text>年</text>
        </lyric>
        <lyric number="3">
          <text>前</text>
        </lyric>
        <lyric number="4">
          <text>怜</text>
        </lyric>
        <lyric number="5">
          <text>莲</text>
        </lyric>
        <lyric number="6">
          <text>nannan</text>
        </lyric>
      </note>
      <note>
        <pitch>
          <step>G</step>
          <octave>4</octave>
        </pitch>
        <duration>4</duration>
        <type>quarter</type>
        <lyric number="1">
          <text>[未击中:釁]</text>
        </lyric>
        <lyric number="2">
          <text>啰</text>
        </lyric>
        <lyric number="3">
          <text>啰</text>
        </lyric>
        <lyric number="4">
          <text>啰</text>
        </lyric>
        <lyric number="5">
          <text>啰</text>
        </lyric>
      </note>
    </measure>
  </part>
</score-partwise>
