<?xml version='1.0' encoding='utf-8'?>
<score-partwise version="3.1">
  <work>
    <work-title>页面_song_691</work-title>
  </work>
  <part-list>
    <score-part id="P1">
      <part-name>简谱旋律</part-name>
    </score-part>
  </part-list>
  <part id="P1">
    <measure number="1">
      <attributes>
        <divisions>4</divisions>
        <key>
          <fifths>0</fifths>
        </key>
        <time>
          <beats>4</beats>
          <beat-type>4</beat-type>
        </time>
      </attributes>
      <note>
        <pitch>
          <step>G</step>
          <octave>4</octave>
        </pitch>
        <duration>2</duration>
        <type>eighth</type>
        <lyric number="1">
          <text>正</text>
        </lyric>
        <lyric number="2">
          <text>三</text>
        </lyric>
        <lyric number="3">
          <text>凹</text>
        </lyric>
      </note>
      <note>
        <pitch>
          <step>G</step>
          <octave>4</octave>
        </pitch>
        <duration>2</duration>
        <type>eighth</type>
        <lyric number="1">
          <text>月</text>
        </lyric>
        <lyric number="2">
          <text>月</text>
        </lyric>
        <lyric number="3">
          <text>月</text>
        </lyric>
        <lyric number="4">
          <text>月</text>
        </lyric>
      </note>
      <note>
        <pitch>
          <step>C</step>
          <octave>5</octave>
        </pitch>
        <duration>2</duration>
        <type>eighth</type>
        <lyric number="1">
          <text>读</text>
        </lyric>
        <lyric number="2">
          <text>读</text>
        </lyric>
        <lyric number="3">
          <text>读</text>
        </lyric>
        <lyric number="4">
          <text>读</text>
        </lyric>
      </note>
      <note>
        <pitch>
          <step>C</step>
          <octave>5</octave>
        </pitch>
        <duration>1</duration>
        <type>16th</type>
        <lyric number="1">
          <text>书</text>
        </lyric>
        <lyric number="2">
          <text>书</text>
        </lyric>
        <lyric number="3">
          <text>书</text>
        </lyric>
        <lyric number="4">
          <text>书</text>
        </lyric>
      </note>
      <note>
        <pitch>
          <step>A</step>
          <octave>4</octave>
        </pitch>
        <duration>1</duration>
        <type>16th</type>
      </note>
      <note>
        <pitch>
          <step>C</step>
          <octave>5</octave>
        </pitch>
        <duration>1</duration>
        <type>16th</type>
        <lyric number="1">
          <text>是</text>
        </lyric>
        <lyric number="2">
          <text>乱</text>
        </lyric>
        <lyric number="3">
          <text>是</text>
        </lyric>
        <lyric number="4">
          <text>是</text>
        </lyric>
      </note>
      <note>
        <pitch>
          <step>D</step>
          <octave>5</octave>
        </pitch>
        <duration>1</duration>
        <type>16th</type>
      </note>
      <note>
        <pitch>
          <step>E</step>
          <octave>5</octave>
        </pitch>
        <duration>2</duration>
        <type>eighth</type>
        <lyric number="1">
          <text>新</text>
        </lyric>
        <lyric number="2">
          <text>忙</text>
        </lyric>
        <lyric number="3">
          <text>清</text>
        </lyric>
        <lyric number="4">
          <text>莳</text>
        </lyric>
      </note>
      <note>
        <pitch>
          <step>D</step>
          <octave>5</octave>
        </pitch>
        <duration>4</duration>
        <type>quarter</type>
        <lyric number="1">
          <text>年</text>
        </lyric>
        <lyric number="2">
          <text>忙</text>
        </lyric>
        <lyric number="3">
          <text>明</text>
        </lyric>
        <lyric number="4">
          <text>田</text>
        </lyric>
      </note>
    </measure>
    <measure number="2">
      <attributes>
        <time>
          <beats>4</beats>
          <beat-type>4</beat-type>
        </time>
      </attributes>
      <note>
        <pitch>
          <step>D</step>
          <octave>5</octave>
        </pitch>
        <duration>2</duration>
        <type>eighth</type>
        <lyric number="1">
          <text>读</text>
        </lyric>
        <lyric number="2">
          <text>读</text>
        </lyric>
        <lyric number="3">
          <text>老</text>
        </lyric>
        <lyric number="4">
          <text>读</text>
        </lyric>
      </note>
      <note>
        <pitch>
          <step>D</step>
          <octave>5</octave>
        </pitch>
        <duration>1</duration>
        <type>16th</type>
        <lyric number="1">
          <text>书</text>
        </lyric>
        <lyric number="2">
          <text>书</text>
        </lyric>
        <lyric number="3">
          <text>师</text>
        </lyric>
        <lyric number="4">
          <text>书</text>
        </lyric>
      </note>
      <note>
        <pitch>
          <step>C</step>
          <octave>5</octave>
        </pitch>
        <duration>1</duration>
        <type>16th</type>
      </note>
      <note>
        <pitch>
          <step>A</step>
          <octave>4</octave>
        </pitch>
        <duration>2</duration>
        <type>eighth</type>
        <lyric number="1">
          <text>郎</text>
        </lyric>
        <lyric number="2">
          <text>郎</text>
        </lyric>
        <lyric number="3">
          <text>放</text>
        </lyric>
        <lyric number="4">
          <text>郎</text>
        </lyric>
      </note>
      <note>
        <pitch>
          <step>D</step>
          <octave>5</octave>
        </pitch>
        <duration>2</duration>
        <type>eighth</type>
        <lyric number="1">
          <text>子</text>
        </lyric>
        <lyric number="2">
          <text>子</text>
        </lyric>
        <lyric number="3">
          <text>学</text>
        </lyric>
        <lyric number="4">
          <text>子</text>
        </lyric>
      </note>
    </measure>
    <measure number="3">
      <attributes>
        <time>
          <beats>4</beats>
          <beat-type>4</beat-type>
        </time>
      </attributes>
      <note>
        <pitch>
          <step>C</step>
          <octave>5</octave>
        </pitch>
        <duration>2</duration>
        <type>eighth</type>
        <lyric number="1">
          <text>去</text>
        </lyric>
        <lyric number="2">
          <text>迸</text>
        </lyric>
        <lyric number="3">
          <text>祭</text>
        </lyric>
        <lyric number="4">
          <text>踩</text>
        </lyric>
      </note>
      <note>
        <pitch>
          <step>A</step>
          <octave>4</octave>
        </pitch>
        <duration>1</duration>
        <type>16th</type>
        <lyric number="1">
          <text>拜</text>
        </lyric>
        <lyric number="2">
          <text>学</text>
        </lyric>
        <lyric number="3">
          <text>祖</text>
        </lyric>
        <lyric number="4">
          <text>秧</text>
        </lyric>
      </note>
      <note>
        <pitch>
          <step>G</step>
          <octave>4</octave>
        </pitch>
        <duration>1</duration>
        <type>16th</type>
      </note>
      <note>
        <pitch>
          <step>G</step>
          <octave>4</octave>
        </pitch>
        <duration>4</duration>
        <type>quarter</type>
        <lyric number="1">
          <text>年</text>
        </lyric>
        <lyric number="2">
          <text>堂</text>
        </lyric>
        <lyric number="3">
          <text>神</text>
        </lyric>
        <lyric number="4">
          <text>田</text>
        </lyric>
      </note>
    </measure>
    <measure number="4">
      <attributes>
        <time>
          <beats>4</beats>
          <beat-type>4</beat-type>
        </time>
      </attributes>
      <note>
        <pitch>
          <step>G</step>
          <octave>4</octave>
        </pitch>
        <duration>3</duration>
        <type>eighth</type>
        <dot />
        <lyric number="1">
          <text>读</text>
        </lyric>
        <lyric number="2">
          <text>读</text>
        </lyric>
        <lyric number="3">
          <text>家</text>
        </lyric>
        <lyric number="4">
          <text>读</text>
        </lyric>
      </note>
      <note>
        <pitch>
          <step>A</step>
          <octave>4</octave>
        </pitch>
        <duration>1</duration>
        <type>16th</type>
        <lyric number="1">
          <text>书</text>
        </lyric>
        <lyric number="2">
          <text>书</text>
        </lyric>
        <lyric number="3">
          <text>家</text>
        </lyric>
        <lyric number="4">
          <text>书</text>
        </lyric>
      </note>
      <note>
        <pitch>
          <step>C</step>
          <octave>5</octave>
        </pitch>
        <duration>2</duration>
        <type>eighth</type>
        <lyric number="1">
          <text>郎</text>
        </lyric>
        <lyric number="2">
          <text>郎</text>
        </lyric>
        <lyric number="3">
          <text>祖</text>
        </lyric>
        <lyric number="4">
          <text>郎</text>
        </lyric>
      </note>
      <note>
        <pitch>
          <step>D</step>
          <octave>5</octave>
        </pitch>
        <duration>2</duration>
        <type>eighth</type>
        <lyric number="1">
          <text>子</text>
        </lyric>
        <lyric number="2">
          <text>子</text>
        </lyric>
        <lyric number="3">
          <text>神</text>
        </lyric>
        <lyric number="4">
          <text>子</text>
        </lyric>
      </note>
    </measure>
    <measure number="5">
      <attributes>
        <time>
          <beats>4</beats>
          <beat-type>4</beat-type>
        </time>
      </attributes>
      <note>
        <pitch>
          <step>D</step>
          <octave>5</octave>
        </pitch>
        <duration>2</duration>
        <type>eighth</type>
        <lyric number="1">
          <text>多</text>
        </lyric>
        <lyric number="2">
          <text>拜</text>
        </lyric>
        <lyric number="3">
          <text>都</text>
        </lyric>
        <lyric number="4">
          <text>田</text>
        </lyric>
      </note>
      <note>
        <pitch>
          <step>D</step>
          <octave>5</octave>
        </pitch>
        <duration>1</duration>
        <type>16th</type>
        <lyric number="1">
          <text>饮</text>
        </lyric>
        <lyric number="2">
          <text>孔</text>
        </lyric>
        <lyric number="3">
          <text>祭</text>
        </lyric>
        <lyric number="4">
          <text>中</text>
        </lyric>
      </note>
      <note>
        <pitch>
          <step>C</step>
          <octave>5</octave>
        </pitch>
        <duration>1</duration>
        <type>16th</type>
        <lyric number="1">
          <text>nan</text>
        </lyric>
      </note>
      <note>
        <pitch>
          <step>A</step>
          <octave>4</octave>
        </pitch>
        <duration>2</duration>
        <type>eighth</type>
        <lyric number="1">
          <text>酒</text>
        </lyric>
        <lyric number="2">
          <text>子</text>
        </lyric>
        <lyric number="3">
          <text>了</text>
        </lyric>
        <lyric number="4">
          <text>踩</text>
        </lyric>
        <lyric number="5">
          <text>nan五</text>
        </lyric>
        <lyric number="6">
          <text>七月</text>
        </lyric>
        <lyric number="7">
          <text>读书nan</text>
        </lyric>
        <lyric number="8">
          <text>读书[未击中:卩]</text>
        </lyric>
        <lyric number="9">
          <text>一年</text>
        </lyric>
        <lyric number="10">
          <text>nan月</text>
        </lyric>
        <lyric number="11">
          <text>朝中</text>
        </lyric>
        <lyric number="12">
          <text>朝中</text>
        </lyric>
        <lyric number="13">
          <text>一颗</text>
        </lyric>
      </note>
      <note>
        <pitch>
          <step>A</step>
          <octave>4</octave>
        </pitch>
        <duration>2</duration>
        <type>eighth</type>
        <lyric number="1">
          <text>呀</text>
        </lyric>
        <lyric number="2">
          <text>呀</text>
        </lyric>
        <lyric number="3">
          <text>呀</text>
        </lyric>
        <lyric number="4">
          <text>呀</text>
        </lyric>
        <lyric number="5">
          <text>月读书</text>
        </lyric>
        <lyric number="6">
          <text>生放学</text>
        </lyric>
        <lyric number="7">
          <text>上风光</text>
        </lyric>
        <lyric number="8">
          <text>转学堂</text>
        </lyric>
        <lyric number="9">
          <text>读书正</text>
        </lyric>
        <lyric number="10">
          <text>郎子笑</text>
        </lyric>
        <lyric number="11">
          <text>郎子呵</text>
        </lyric>
        <lyric number="12">
          <text>割岀两</text>
        </lyric>
        <lyric number="13">
          <text>读书是</text>
        </lyric>
        <lyric number="14">
          <text>报子闹</text>
        </lyric>
        <lyric number="15">
          <text>报子游</text>
        </lyric>
        <lyric number="16">
          <text>文书下</text>
        </lyric>
      </note>
    </measure>
    <measure number="6">
      <attributes>
        <time>
          <beats>4</beats>
          <beat-type>4</beat-type>
        </time>
      </attributes>
      <note>
        <pitch>
          <step>C</step>
          <octave>5</octave>
        </pitch>
        <duration>2</duration>
        <type>eighth</type>
        <lyric number="1">
          <text>多</text>
        </lyric>
        <lyric number="2">
          <text>拜</text>
        </lyric>
        <lyric number="3">
          <text>必</text>
        </lyric>
        <lyric number="4">
          <text>想</text>
        </lyric>
        <lyric number="5">
          <text>是</text>
        </lyric>
        <lyric number="6">
          <text>观</text>
        </lyric>
        <lyric number="7">
          <text>观</text>
        </lyric>
        <lyric number="8">
          <text>nan</text>
        </lyric>
        <lyric number="9">
          <text>割</text>
        </lyric>
        <lyric number="10">
          <text>呵</text>
        </lyric>
        <lyric number="11">
          <text>呵</text>
        </lyric>
        <lyric number="12">
          <text>年</text>
        </lyric>
        <lyric number="13">
          <text>中</text>
        </lyric>
        <lyric number="14">
          <text>游</text>
        </lyric>
        <lyric number="15">
          <text>游</text>
        </lyric>
        <lyric number="16">
          <text>韶州</text>
        </lyric>
      </note>
      <note>
        <pitch>
          <step>D</step>
          <octave>5</octave>
        </pitch>
        <duration>1</duration>
        <type>16th</type>
        <lyric number="1">
          <text>多</text>
        </lyric>
        <lyric number="2">
          <text>了</text>
        </lyric>
        <lyric number="3">
          <text>定</text>
        </lyric>
        <lyric number="4">
          <text>起</text>
        </lyric>
        <lyric number="5">
          <text>端</text>
        </lyric>
        <lyric number="6">
          <text>风</text>
        </lyric>
        <lyric number="7">
          <text>唔</text>
        </lyric>
        <lyric number="8">
          <text>文</text>
        </lyric>
        <lyric number="9">
          <text>禾</text>
        </lyric>
        <lyric number="10">
          <text>呵</text>
        </lyric>
        <lyric number="11">
          <text>笑</text>
        </lyric>
        <lyric number="12">
          <text>禾</text>
        </lyric>
        <lyric number="13">
          <text>秋nan</text>
        </lyric>
        <lyric number="14">
          <text>游</text>
        </lyric>
        <lyric number="15">
          <text>闹nan间</text>
        </lyric>
        <lyric number="16">
          <text>nan转</text>
        </lyric>
      </note>
      <note>
        <pitch>
          <step>C</step>
          <octave>5</octave>
        </pitch>
        <duration>1</duration>
        <type>16th</type>
        <lyric number="1">
          <text>阳</text>
        </lyric>
        <lyric number="2">
          <text>光家</text>
        </lyric>
        <lyric number="3">
          <text>尽家</text>
        </lyric>
        <lyric number="4">
          <text>章留</text>
        </lyric>
      </note>
      <note>
        <pitch>
          <step>A</step>
          <octave>4</octave>
        </pitch>
        <duration>2</duration>
        <type>eighth</type>
        <lyric number="1">
          <text>饮</text>
        </lyric>
        <lyric number="2">
          <text>孔</text>
        </lyric>
        <lyric number="3">
          <text>今</text>
        </lyric>
        <lyric number="4">
          <text>读</text>
        </lyric>
      </note>
      <note>
        <pitch>
          <step>D</step>
          <octave>5</octave>
        </pitch>
        <duration>2</duration>
        <type>eighth</type>
        <lyric number="1">
          <text>酒</text>
        </lyric>
        <lyric number="2">
          <text>子</text>
        </lyric>
        <lyric number="3">
          <text>年</text>
        </lyric>
        <lyric number="4">
          <text>书</text>
        </lyric>
      </note>
    </measure>
    <measure number="7">
      <attributes>
        <time>
          <beats>4</beats>
          <beat-type>4</beat-type>
        </time>
      </attributes>
      <note>
        <pitch>
          <step>C</step>
          <octave>5</octave>
        </pitch>
        <duration>2</duration>
        <type>eighth</type>
        <lyric number="1">
          <text>过</text>
        </lyric>
        <lyric number="2">
          <text>习</text>
        </lyric>
        <lyric number="3">
          <text>早</text>
        </lyric>
        <lyric number="4">
          <text>是</text>
        </lyric>
      </note>
      <note>
        <pitch>
          <step>A</step>
          <octave>4</octave>
        </pitch>
        <duration>1</duration>
        <type>16th</type>
        <lyric number="1">
          <text>新</text>
        </lyric>
        <lyric number="2">
          <text>文</text>
        </lyric>
        <lyric number="3">
          <text>登</text>
        </lyric>
        <lyric number="4">
          <text>神</text>
        </lyric>
      </note>
      <note>
        <pitch>
          <step>G</step>
          <octave>4</octave>
        </pitch>
        <duration>1</duration>
        <type>16th</type>
      </note>
      <note>
        <pitch>
          <step>G</step>
          <octave>4</octave>
        </pitch>
        <duration>4</duration>
        <type>quarter</type>
        <lyric number="1">
          <text>年</text>
        </lyric>
        <lyric number="2">
          <text>章</text>
        </lyric>
        <lyric number="3">
          <text>科</text>
        </lyric>
        <lyric number="4">
          <text>仙</text>
        </lyric>
        <lyric number="5">
          <text>nannan</text>
        </lyric>
      </note>
    </measure>
    <measure number="8">
      <attributes>
        <time>
          <beats>4</beats>
          <beat-type>4</beat-type>
        </time>
      </attributes>
      <note>
        <pitch>
          <step>C</step>
          <octave>5</octave>
        </pitch>
        <duration>4</duration>
        <type>quarter</type>
        <lyric number="1">
          <text>多</text>
        </lyric>
        <lyric number="2">
          <text>拜</text>
        </lyric>
        <lyric number="3">
          <text>必</text>
        </lyric>
        <lyric number="4">
          <text>想</text>
        </lyric>
        <lyric number="5">
          <text>nannan</text>
        </lyric>
      </note>
      <note>
        <pitch>
          <step>D</step>
          <octave>5</octave>
        </pitch>
        <duration>3</duration>
        <type>eighth</type>
        <dot />
        <lyric number="1">
          <text>多</text>
        </lyric>
        <lyric number="2">
          <text>了</text>
        </lyric>
        <lyric number="3">
          <text>定</text>
        </lyric>
        <lyric number="4">
          <text>起</text>
        </lyric>
        <lyric number="5">
          <text>[未击中:[未击中:阝]]六</text>
        </lyric>
        <lyric number="6">
          <text>nan九月</text>
        </lyric>
        <lyric number="7">
          <text>两边</text>
        </lyric>
        <lyric number="8">
          <text>两边</text>
        </lyric>
        <lyric number="9">
          <text>当中</text>
        </lyric>
        <lyric number="10">
          <text>十月</text>
        </lyric>
        <lyric number="11">
          <text>十间</text>
        </lyric>
        <lyric number="12">
          <text>nannan</text>
        </lyric>
      </note>
      <note>
        <pitch>
          <step>C</step>
          <octave>5</octave>
        </pitch>
        <duration>1</duration>
        <type>16th</type>
        <lyric number="1">
          <text>月读</text>
        </lyric>
        <lyric number="2">
          <text>家打</text>
        </lyric>
        <lyric number="3">
          <text>冢食</text>
        </lyric>
        <lyric number="4">
          <text>起nan</text>
        </lyric>
        <lyric number="5">
          <text>读书</text>
        </lyric>
        <lyric number="6">
          <text>文武</text>
        </lyric>
        <lyric number="7">
          <text>文武</text>
        </lyric>
        <lyric number="8">
          <text>坐着</text>
        </lyric>
        <lyric number="9">
          <text>读书</text>
        </lyric>
        <lyric number="10">
          <text>学堂</text>
        </lyric>
        <lyric number="11">
          <text>学堂</text>
        </lyric>
        <lyric number="12">
          <text>明年</text>
        </lyric>
        <lyric number="13">
          <text>nannan</text>
        </lyric>
      </note>
    </measure>
    <measure number="9">
      <attributes>
        <time>
          <beats>4</beats>
          <beat-type>4</beat-type>
        </time>
      </attributes>
      <note>
        <pitch>
          <step>A</step>
          <octave>4</octave>
        </pitch>
        <duration>2</duration>
        <type>eighth</type>
        <lyric number="1">
          <text>饮</text>
        </lyric>
        <lyric number="2">
          <text>孔</text>
        </lyric>
        <lyric number="3">
          <text>今</text>
        </lyric>
        <lyric number="4">
          <text>读</text>
        </lyric>
        <lyric number="5">
          <text>书</text>
        </lyric>
        <lyric number="6">
          <text>点</text>
        </lyric>
        <lyric number="7">
          <text>了</text>
        </lyric>
        <lyric number="8">
          <text>米</text>
        </lyric>
        <lyric number="9">
          <text>是</text>
        </lyric>
        <lyric number="10">
          <text>排</text>
        </lyric>
        <lyric number="11">
          <text>两</text>
        </lyric>
        <lyric number="12">
          <text>状</text>
        </lyric>
        <lyric number="13">
          <text>是立</text>
        </lyric>
        <lyric number="14">
          <text>九间</text>
        </lyric>
        <lyric number="15">
          <text>[未击中:空]九</text>
        </lyric>
        <lyric number="16">
          <text>再相</text>
        </lyric>
        <lyric number="17">
          <text>nan[未击中:刘]nan</text>
        </lyric>
      </note>
      <note>
        <pitch>
          <step>D</step>
          <octave>5</octave>
        </pitch>
        <duration>2</duration>
        <type>eighth</type>
        <lyric number="1">
          <text>酒</text>
        </lyric>
        <lyric number="2">
          <text>子</text>
        </lyric>
        <lyric number="3">
          <text>年</text>
        </lyric>
        <lyric number="4">
          <text>书</text>
        </lyric>
        <lyric number="5">
          <text>正定</text>
        </lyric>
        <lyric number="6">
          <text>请先</text>
        </lyric>
        <lyric number="7">
          <text>新米</text>
        </lyric>
        <lyric number="8">
          <text>给朝</text>
        </lyric>
        <lyric number="9">
          <text>重阳</text>
        </lyric>
        <lyric number="10">
          <text>两行</text>
        </lyric>
        <lyric number="11">
          <text>边排</text>
        </lyric>
        <lyric number="12">
          <text>元郎nan</text>
        </lyric>
        <lyric number="13">
          <text>冬</text>
        </lyric>
        <lyric number="14">
          <text>nan</text>
        </lyric>
        <lyric number="15">
          <text>间</text>
        </lyric>
        <lyric number="16">
          <text>逢</text>
        </lyric>
      </note>
      <note>
        <pitch>
          <step>C</step>
          <octave>5</octave>
        </pitch>
        <duration>2</duration>
        <type>eighth</type>
        <lyric number="1">
          <text>过</text>
        </lyric>
        <lyric number="2">
          <text>习</text>
        </lyric>
        <lyric number="3">
          <text>早</text>
        </lyric>
        <lyric number="4">
          <text>是</text>
        </lyric>
        <lyric number="5">
          <text>心</text>
        </lyric>
        <lyric number="6">
          <text>生</text>
        </lyric>
        <lyric number="7">
          <text>饭</text>
        </lyric>
        <lyric number="8">
          <text>廷</text>
        </lyric>
        <lyric number="9">
          <text>[未击中:[未击中:輒]]</text>
        </lyric>
      </note>
      <note>
        <pitch>
          <step>A</step>
          <octave>4</octave>
        </pitch>
        <duration>1</duration>
        <type>16th</type>
        <lyric number="1">
          <text>新</text>
        </lyric>
        <lyric number="2">
          <text>文</text>
        </lyric>
        <lyric number="3">
          <text>登</text>
        </lyric>
        <lyric number="4">
          <text>神</text>
        </lyric>
        <lyric number="5">
          <text>[未击中:[未击中:灢]]</text>
        </lyric>
      </note>
      <note>
        <pitch>
          <step>G</step>
          <octave>4</octave>
        </pitch>
        <duration>1</duration>
        <type>16th</type>
        <lyric number="1">
          <text>nannan</text>
        </lyric>
      </note>
    </measure>
    <measure number="10">
      <attributes>
        <time>
          <beats>4</beats>
          <beat-type>4</beat-type>
        </time>
      </attributes>
      <note>
        <pitch>
          <step>G</step>
          <octave>4</octave>
        </pitch>
        <duration>8</duration>
        <type>half</type>
        <lyric number="1">
          <text>年</text>
        </lyric>
        <lyric number="2">
          <text>章</text>
        </lyric>
        <lyric number="3">
          <text>科</text>
        </lyric>
        <lyric number="4">
          <text>仙</text>
        </lyric>
        <lyric number="5">
          <text>nannan</text>
        </lyric>
      </note>
    </measure>
  </part>
</score-partwise>
