<?xml version='1.0' encoding='utf-8'?>
<score-partwise version="3.1">
  <work>
    <work-title>页面_song_698</work-title>
  </work>
  <part-list>
    <score-part id="P1">
      <part-name>简谱旋律</part-name>
    </score-part>
  </part-list>
  <part id="P1">
    <measure number="1">
      <attributes>
        <divisions>4</divisions>
        <key>
          <fifths>0</fifths>
        </key>
        <time>
          <beats>4</beats>
          <beat-type>4</beat-type>
        </time>
      </attributes>
      <note>
        <pitch>
          <step>A</step>
          <octave>4</octave>
        </pitch>
        <duration>2</duration>
        <type>eighth</type>
        <lyric number="1">
          <text>打</text>
        </lyric>
        <lyric number="2">
          <text>耕</text>
        </lyric>
      </note>
      <note>
        <pitch>
          <step>D</step>
          <octave>5</octave>
        </pitch>
        <duration>4</duration>
        <type>quarter</type>
        <lyric number="1">
          <text>起</text>
        </lyric>
        <lyric number="2">
          <text>田</text>
        </lyric>
      </note>
      <note>
        <pitch>
          <step>D</step>
          <octave>5</octave>
        </pitch>
        <duration>2</duration>
        <type>eighth</type>
        <lyric number="1">
          <text>格</text>
        </lyric>
        <lyric number="2">
          <text>袼</text>
        </lyric>
      </note>
    </measure>
    <measure number="2">
      <attributes>
        <time>
          <beats>4</beats>
          <beat-type>4</beat-type>
        </time>
      </attributes>
      <note>
        <pitch>
          <step>A</step>
          <octave>4</octave>
        </pitch>
        <duration>4</duration>
        <type>quarter</type>
        <lyric number="1">
          <text>锣</text>
        </lyric>
        <lyric number="2">
          <text>郎</text>
        </lyric>
      </note>
      <note>
        <pitch>
          <step>D</step>
          <octave>5</octave>
        </pitch>
        <duration>4</duration>
        <type>quarter</type>
        <lyric number="1">
          <text>鼓</text>
        </lyric>
        <lyric number="2">
          <text>子</text>
        </lyric>
      </note>
    </measure>
    <measure number="3">
      <attributes>
        <time>
          <beats>4</beats>
          <beat-type>4</beat-type>
        </time>
      </attributes>
      <note>
        <pitch>
          <step>D</step>
          <octave>5</octave>
        </pitch>
        <duration>1</duration>
        <type>16th</type>
        <lyric number="1">
          <text>哩</text>
        </lyric>
        <lyric number="2">
          <text>哩</text>
        </lyric>
      </note>
      <note>
        <pitch>
          <step>B</step>
          <octave>4</octave>
        </pitch>
        <duration>1</duration>
        <type>16th</type>
      </note>
      <note>
        <pitch>
          <step>A</step>
          <octave>4</octave>
        </pitch>
        <duration>2</duration>
        <type>eighth</type>
      </note>
      <note>
        <pitch>
          <step>G</step>
          <octave>4</octave>
        </pitch>
        <duration>3</duration>
        <type>eighth</type>
        <dot />
      </note>
      <note>
        <pitch>
          <step>G</step>
          <octave>4</octave>
        </pitch>
        <duration>1</duration>
        <type>16th</type>
        <lyric number="1">
          <text>格齐</text>
        </lyric>
        <lyric number="2">
          <text>袼齐</text>
        </lyric>
      </note>
    </measure>
    <measure number="4">
      <attributes>
        <time>
          <beats>4</beats>
          <beat-type>4</beat-type>
        </time>
      </attributes>
      <note>
        <pitch>
          <step>D</step>
          <octave>5</octave>
        </pitch>
        <duration>4</duration>
        <type>quarter</type>
        <lyric number="1">
          <text>唱</text>
        </lyric>
        <lyric number="2">
          <text>唱</text>
        </lyric>
      </note>
      <note>
        <pitch>
          <step>D</step>
          <octave>5</octave>
        </pitch>
        <duration>2</duration>
        <type>eighth</type>
        <lyric number="1">
          <text>起</text>
        </lyric>
        <lyric number="2">
          <text>两</text>
        </lyric>
      </note>
      <note>
        <pitch>
          <step>C</step>
          <octave>5</octave>
        </pitch>
        <duration>2</duration>
        <type>eighth</type>
      </note>
    </measure>
    <measure number="5">
      <attributes>
        <time>
          <beats>4</beats>
          <beat-type>4</beat-type>
        </time>
      </attributes>
      <note>
        <pitch>
          <step>A</step>
          <octave>4</octave>
        </pitch>
        <duration>6</duration>
        <type>quarter</type>
        <dot />
        <lyric number="1">
          <text>呀</text>
        </lyric>
        <lyric number="2">
          <text>呀</text>
        </lyric>
      </note>
      <note>
        <rest />
        <duration>2</duration>
        <type>eighth</type>
      </note>
    </measure>
    <measure number="6">
      <attributes>
        <time>
          <beats>4</beats>
          <beat-type>4</beat-type>
        </time>
      </attributes>
      <note>
        <pitch>
          <step>D</step>
          <octave>5</octave>
        </pitch>
        <duration>2</duration>
        <type>eighth</type>
        <lyric number="1">
          <text>歌</text>
        </lyric>
        <lyric number="2">
          <text>只</text>
        </lyric>
      </note>
      <note>
        <pitch>
          <step>C</step>
          <octave>5</octave>
        </pitch>
        <duration>2</duration>
        <type>eighth</type>
      </note>
      <note>
        <pitch>
          <step>D</step>
          <octave>5</octave>
        </pitch>
        <duration>4</duration>
        <type>quarter</type>
        <lyric number="1">
          <text>哩</text>
        </lyric>
        <lyric number="2">
          <text>哩</text>
        </lyric>
      </note>
    </measure>
    <measure number="7">
      <attributes>
        <time>
          <beats>4</beats>
          <beat-type>4</beat-type>
        </time>
      </attributes>
      <note>
        <pitch>
          <step>D</step>
          <octave>5</octave>
        </pitch>
        <duration>8</duration>
        <type>half</type>
      </note>
    </measure>
    <measure number="8">
      <attributes>
        <time>
          <beats>4</beats>
          <beat-type>4</beat-type>
        </time>
      </attributes>
      <note>
        <pitch>
          <step>D</step>
          <octave>5</octave>
        </pitch>
        <duration>8</duration>
        <type>half</type>
      </note>
    </measure>
    <measure number="9">
      <attributes>
        <time>
          <beats>4</beats>
          <beat-type>4</beat-type>
        </time>
      </attributes>
      <note>
        <rest />
        <duration>4</duration>
        <type>quarter</type>
      </note>
      <note>
        <rest />
        <duration>4</duration>
        <type>quarter</type>
      </note>
    </measure>
    <measure number="10">
      <attributes>
        <time>
          <beats>4</beats>
          <beat-type>4</beat-type>
        </time>
      </attributes>
      <note>
        <pitch>
          <step>G</step>
          <octave>4</octave>
        </pitch>
        <duration>8</duration>
        <type>half</type>
        <lyric number="1">
          <text>祈</text>
        </lyric>
        <lyric number="2">
          <text>一</text>
        </lyric>
      </note>
    </measure>
    <measure number="11">
      <attributes>
        <time>
          <beats>4</beats>
          <beat-type>4</beat-type>
        </time>
      </attributes>
      <note>
        <pitch>
          <step>A</step>
          <octave>4</octave>
        </pitch>
        <duration>2</duration>
        <type>eighth</type>
        <lyric number="1">
          <text>望</text>
        </lyric>
        <lyric number="2">
          <text>造</text>
        </lyric>
      </note>
      <note>
        <pitch>
          <step>D</step>
          <octave>5</octave>
        </pitch>
        <duration>2</duration>
        <type>eighth</type>
        <lyric number="1">
          <text>哩</text>
        </lyric>
        <lyric number="2">
          <text>哩</text>
        </lyric>
      </note>
      <note>
        <pitch>
          <step>D</step>
          <octave>5</octave>
        </pitch>
        <duration>2</duration>
        <type>eighth</type>
        <lyric number="1">
          <text>格</text>
        </lyric>
        <lyric number="2">
          <text>袼</text>
        </lyric>
      </note>
      <note>
        <pitch>
          <step>C</step>
          <octave>5</octave>
        </pitch>
        <duration>2</duration>
        <type>eighth</type>
        <lyric number="1">
          <text>年</text>
        </lyric>
        <lyric number="2">
          <text>割</text>
        </lyric>
      </note>
      <note>
        <pitch>
          <step>A</step>
          <octave>4</octave>
        </pitch>
        <duration>2</duration>
        <type>eighth</type>
        <lyric number="1">
          <text>年</text>
        </lyric>
        <lyric number="2">
          <text>岀nan</text>
        </lyric>
      </note>
    </measure>
    <measure number="12">
      <attributes>
        <time>
          <beats>4</beats>
          <beat-type>4</beat-type>
        </time>
      </attributes>
      <note>
        <pitch>
          <step>G</step>
          <octave>4</octave>
        </pitch>
        <duration>6</duration>
        <type>quarter</type>
        <dot />
        <lyric number="1">
          <text>哩</text>
        </lyric>
        <lyric number="2">
          <text>哩</text>
        </lyric>
      </note>
      <note>
        <rest />
        <duration>1</duration>
        <type>16th</type>
      </note>
      <note>
        <pitch>
          <step>A</step>
          <octave>4</octave>
        </pitch>
        <duration>1</duration>
        <type>16th</type>
        <lyric number="1">
          <text>格齐</text>
        </lyric>
        <lyric number="2">
          <text>袼齐</text>
        </lyric>
      </note>
    </measure>
    <measure number="13">
      <attributes>
        <time>
          <beats>4</beats>
          <beat-type>4</beat-type>
        </time>
      </attributes>
      <note>
        <pitch>
          <step>D</step>
          <octave>5</octave>
        </pitch>
        <duration>4</duration>
        <type>quarter</type>
        <lyric number="1">
          <text>丰</text>
        </lyric>
        <lyric number="2">
          <text>两</text>
        </lyric>
      </note>
      <note>
        <pitch>
          <step>D</step>
          <octave>5</octave>
        </pitch>
        <duration>4</duration>
        <type>quarter</type>
        <lyric number="1">
          <text>收</text>
        </lyric>
        <lyric number="2">
          <text>造</text>
        </lyric>
      </note>
    </measure>
    <measure number="14">
      <attributes>
        <time>
          <beats>4</beats>
          <beat-type>4</beat-type>
        </time>
      </attributes>
      <note>
        <pitch>
          <step>C</step>
          <octave>5</octave>
        </pitch>
        <duration>8</duration>
        <type>half</type>
        <lyric number="1">
          <text>哩</text>
        </lyric>
        <lyric number="2">
          <text>哩</text>
        </lyric>
      </note>
    </measure>
    <measure number="15">
      <attributes>
        <time>
          <beats>4</beats>
          <beat-type>4</beat-type>
        </time>
      </attributes>
      <note>
        <pitch>
          <step>A</step>
          <octave>4</octave>
        </pitch>
        <duration>2</duration>
        <type>eighth</type>
        <lyric number="1">
          <text>禾</text>
        </lyric>
      </note>
      <note>
        <pitch>
          <step>G</step>
          <octave>4</octave>
        </pitch>
        <duration>2</duration>
        <type>eighth</type>
      </note>
      <note>
        <pitch>
          <step>A</step>
          <octave>4</octave>
        </pitch>
        <duration>4</duration>
        <type>quarter</type>
        <lyric number="1">
          <text>哩领</text>
        </lyric>
      </note>
    </measure>
    <measure number="16">
      <attributes>
        <time>
          <beats>4</beats>
          <beat-type>4</beat-type>
        </time>
      </attributes>
      <note>
        <pitch>
          <step>A</step>
          <octave>4</octave>
        </pitch>
        <duration>8</duration>
        <type>half</type>
      </note>
      <note>
        <pitch>
          <step>A</step>
          <octave>4</octave>
        </pitch>
        <duration>2</duration>
        <type>eighth</type>
        <lyric number="1">
          <text>送</text>
        </lyric>
      </note>
      <note>
        <pitch>
          <step>D</step>
          <octave>5</octave>
        </pitch>
        <duration>4</duration>
        <type>quarter</type>
        <lyric number="1">
          <text>郎</text>
        </lyric>
      </note>
      <note>
        <pitch>
          <step>D</step>
          <octave>5</octave>
        </pitch>
        <duration>2</duration>
        <type>eighth</type>
        <lyric number="1">
          <text>格</text>
        </lyric>
      </note>
    </measure>
    <measure number="17">
      <attributes>
        <time>
          <beats>4</beats>
          <beat-type>4</beat-type>
        </time>
      </attributes>
      <note>
        <pitch>
          <step>A</step>
          <octave>4</octave>
        </pitch>
        <duration>4</duration>
        <type>quarter</type>
        <lyric number="1">
          <text>送</text>
        </lyric>
      </note>
      <note>
        <pitch>
          <step>D</step>
          <octave>5</octave>
        </pitch>
        <duration>4</duration>
        <type>quarter</type>
        <lyric number="1">
          <text>到</text>
        </lyric>
      </note>
    </measure>
    <measure number="18">
      <attributes>
        <time>
          <beats>4</beats>
          <beat-type>4</beat-type>
        </time>
      </attributes>
      <note>
        <pitch>
          <step>D</step>
          <octave>5</octave>
        </pitch>
        <duration>1</duration>
        <type>16th</type>
        <lyric number="1">
          <text>哩</text>
        </lyric>
      </note>
      <note>
        <pitch>
          <step>B</step>
          <octave>4</octave>
        </pitch>
        <duration>1</duration>
        <type>16th</type>
      </note>
      <note>
        <pitch>
          <step>A</step>
          <octave>4</octave>
        </pitch>
        <duration>2</duration>
        <type>eighth</type>
      </note>
      <note>
        <pitch>
          <step>G</step>
          <octave>4</octave>
        </pitch>
        <duration>3</duration>
        <type>eighth</type>
        <dot />
      </note>
      <note>
        <pitch>
          <step>G</step>
          <octave>4</octave>
        </pitch>
        <duration>1</duration>
        <type>16th</type>
        <lyric number="1">
          <text>格齐</text>
        </lyric>
      </note>
    </measure>
    <measure number="19">
      <attributes>
        <time>
          <beats>4</beats>
          <beat-type>4</beat-type>
        </time>
      </attributes>
      <note>
        <pitch>
          <step>A</step>
          <octave>4</octave>
        </pitch>
        <duration>2</duration>
        <type>eighth</type>
        <lyric number="1">
          <text>东</text>
        </lyric>
      </note>
      <note>
        <pitch>
          <step>G</step>
          <octave>4</octave>
        </pitch>
        <duration>2</duration>
        <type>eighth</type>
        <lyric number="1">
          <text>门nan</text>
        </lyric>
      </note>
      <note>
        <pitch>
          <step>A</step>
          <octave>4</octave>
        </pitch>
        <duration>2</duration>
        <type>eighth</type>
        <lyric number="1">
          <text>南</text>
        </lyric>
      </note>
      <note>
        <pitch>
          <step>G</step>
          <octave>4</octave>
        </pitch>
        <duration>2</duration>
        <type>eighth</type>
        <lyric number="1">
          <text>门</text>
        </lyric>
      </note>
    </measure>
    <measure number="20">
      <attributes>
        <time>
          <beats>4</beats>
          <beat-type>4</beat-type>
        </time>
      </attributes>
      <note>
        <pitch>
          <step>A</step>
          <octave>4</octave>
        </pitch>
        <duration>2</duration>
        <type>eighth</type>
        <lyric number="1">
          <text>西</text>
        </lyric>
      </note>
      <note>
        <pitch>
          <step>G</step>
          <octave>4</octave>
        </pitch>
        <duration>2</duration>
        <type>eighth</type>
      </note>
      <note>
        <pitch>
          <step>D</step>
          <octave>5</octave>
        </pitch>
        <duration>2</duration>
        <type>eighth</type>
        <lyric number="1">
          <text>北nan</text>
        </lyric>
      </note>
      <note>
        <pitch>
          <step>G</step>
          <octave>4</octave>
        </pitch>
        <duration>2</duration>
        <type>eighth</type>
        <lyric number="1">
          <text>门[未击中:亅]</text>
        </lyric>
      </note>
    </measure>
    <measure number="21">
      <attributes>
        <time>
          <beats>4</beats>
          <beat-type>4</beat-type>
        </time>
      </attributes>
      <note>
        <pitch>
          <step>G</step>
          <octave>4</octave>
        </pitch>
        <duration>2</duration>
        <type>eighth</type>
        <lyric number="1">
          <text>城</text>
        </lyric>
      </note>
      <note>
        <pitch>
          <step>A</step>
          <octave>4</octave>
        </pitch>
        <duration>2</duration>
        <type>eighth</type>
        <lyric number="1">
          <text>nan</text>
        </lyric>
        <lyric number="2">
          <text>nan</text>
        </lyric>
        <lyric number="3">
          <text>nan五</text>
        </lyric>
        <lyric number="4">
          <text>[未击中:[未击中:[未击中:么]]]五</text>
        </lyric>
      </note>
      <note>
        <pitch>
          <step>D</step>
          <octave>5</octave>
        </pitch>
        <duration>2</duration>
        <type>eighth</type>
        <lyric number="1">
          <text>脚</text>
        </lyric>
        <lyric number="2">
          <text>吃了</text>
        </lyric>
        <lyric number="3">
          <text>企个</text>
        </lyric>
        <lyric number="4">
          <text>一半</text>
        </lyric>
        <lyric number="5">
          <text>唱个</text>
        </lyric>
        <lyric number="6">
          <text>吃了</text>
        </lyric>
        <lyric number="7">
          <text>一对</text>
        </lyric>
        <lyric number="8">
          <text>鲤[未击中:嫲]</text>
        </lyric>
        <lyric number="9">
          <text>细妹</text>
        </lyric>
        <lyric number="10">
          <text>五月</text>
        </lyric>
        <lyric number="11">
          <text>家冢</text>
        </lyric>
        <lyric number="12">
          <text>钱</text>
        </lyric>
        <lyric number="13">
          <text>钱</text>
        </lyric>
        <lyric number="14">
          <text>月</text>
        </lyric>
        <lyric number="15">
          <text>扮</text>
        </lyric>
        <lyric number="16">
          <text>好</text>
        </lyric>
        <lyric number="17">
          <text>好</text>
        </lyric>
        <lyric number="18">
          <text>月</text>
        </lyric>
        <lyric number="19">
          <text>要</text>
        </lyric>
        <lyric number="20">
          <text>要</text>
        </lyric>
        <lyric number="21">
          <text>要</text>
        </lyric>
      </note>
      <note>
        <pitch>
          <step>C</step>
          <octave>5</octave>
        </pitch>
        <duration>2</duration>
        <type>eighth</type>
        <lyric number="1">
          <text>夜饭</text>
        </lyric>
        <lyric number="2">
          <text>企来坐个坐又</text>
        </lyric>
        <lyric number="3">
          <text>nan来</text>
        </lyric>
        <lyric number="4">
          <text>少来</text>
        </lyric>
        <lyric number="5">
          <text>夜饭</text>
        </lyric>
        <lyric number="6">
          <text>鲤nan</text>
        </lyric>
        <lyric number="7">
          <text>唔怕</text>
        </lyric>
        <lyric number="8">
          <text>喜nan</text>
        </lyric>
        <lyric number="9">
          <text>初三</text>
        </lyric>
        <lyric number="10">
          <text>籴米</text>
        </lyric>
        <lyric number="11">
          <text>哥佬</text>
        </lyric>
        <lyric number="12">
          <text>妹佬</text>
        </lyric>
        <lyric number="13">
          <text>初五</text>
        </lyric>
        <lyric number="14">
          <text>细妹</text>
        </lyric>
        <lyric number="15">
          <text>头绳</text>
        </lyric>
        <lyric number="16">
          <text>水粉</text>
        </lyric>
        <lyric number="17">
          <text>初五</text>
        </lyric>
        <lyric number="18">
          <text>剪布</text>
        </lyric>
        <lyric number="19">
          <text>丝线</text>
        </lyric>
        <lyric number="20">
          <text>银子</text>
        </lyric>
      </note>
      <note>
        <pitch>
          <step>A</step>
          <octave>4</octave>
        </pitch>
        <duration>4</duration>
        <type>quarter</type>
        <lyric number="1">
          <text>下</text>
        </lyric>
        <lyric number="2">
          <text>唱船歌nan五</text>
        </lyric>
        <lyric number="3">
          <text>一半少油</text>
        </lyric>
        <lyric number="4">
          <text>听个多要</text>
        </lyric>
        <lyric number="5">
          <text>看月光nan有</text>
        </lyric>
        <lyric number="6">
          <text>照河上五</text>
        </lyric>
        <lyric number="7">
          <text>nan江水禾</text>
        </lyric>
        <lyric number="8">
          <text>青年郎nan黄</text>
        </lyric>
        <lyric number="9">
          <text>又初nannan一</text>
        </lyric>
        <lyric number="10">
          <text>来做糍日</text>
        </lyric>
        <lyric number="11">
          <text>手nan粽日</text>
        </lyric>
        <lyric number="12">
          <text>磨桨糍夜</text>
        </lyric>
        <lyric number="13">
          <text>是端阳nan一朵</text>
        </lyric>
        <lyric number="14">
          <text>看龙船斜眉</text>
        </lyric>
        <lyric number="15">
          <text>剪二尺哥哥</text>
        </lyric>
        <lyric number="16">
          <text>买二团处处</text>
        </lyric>
        <lyric number="17">
          <text>又是消nan新打</text>
        </lyric>
        <lyric number="18">
          <text>做荷包打起</text>
        </lyric>
        <lyric number="19">
          <text>来锁口男人</text>
        </lyric>
        <lyric number="20">
          <text>压荷包女人</text>
        </lyric>
      </note>
    </measure>
    <measure number="22">
      <attributes>
        <time>
          <beats>4</beats>
          <beat-type>4</beat-type>
        </time>
      </attributes>
      <note>
        <pitch>
          <step>D</step>
          <octave>5</octave>
        </pitch>
        <duration>2</duration>
        <type>eighth</type>
        <lyric number="1">
          <text>转</text>
        </lyric>
        <lyric number="2">
          <text>nannan</text>
        </lyric>
      </note>
      <note>
        <pitch>
          <step>C</step>
          <octave>5</octave>
        </pitch>
        <duration>2</duration>
        <type>eighth</type>
        <lyric number="1">
          <text>nan</text>
        </lyric>
      </note>
      <note>
        <pitch>
          <step>D</step>
          <octave>5</octave>
        </pitch>
        <duration>4</duration>
        <type>quarter</type>
        <lyric number="1">
          <text>哩哟嗬喂</text>
        </lyric>
        <lyric number="2">
          <text>nannannannannannan</text>
        </lyric>
      </note>
    </measure>
    <measure number="23">
      <attributes>
        <time>
          <beats>4</beats>
          <beat-type>4</beat-type>
        </time>
      </attributes>
      <note>
        <pitch>
          <step>D</step>
          <octave>5</octave>
        </pitch>
        <duration>8</duration>
        <type>half</type>
      </note>
    </measure>
    <measure number="24">
      <attributes>
        <time>
          <beats>4</beats>
          <beat-type>4</beat-type>
        </time>
      </attributes>
      <note>
        <pitch>
          <step>D</step>
          <octave>5</octave>
        </pitch>
        <duration>8</duration>
        <type>half</type>
        <lyric number="1">
          <text>nannannannannannannan</text>
        </lyric>
      </note>
    </measure>
    <measure number="25">
      <attributes>
        <time>
          <beats>4</beats>
          <beat-type>4</beat-type>
        </time>
      </attributes>
      <note>
        <rest />
        <duration>4</duration>
        <type>quarter</type>
        <lyric number="1">
          <text>要剪</text>
        </lyric>
        <lyric number="2">
          <text>青nan</text>
        </lyric>
        <lyric number="3">
          <text>做仿</text>
        </lyric>
        <lyric number="4">
          <text>歌唔</text>
        </lyric>
        <lyric number="5">
          <text>月禾</text>
        </lyric>
        <lyric number="6">
          <text>花落</text>
        </lyric>
        <lyric number="7">
          <text>金难</text>
        </lyric>
        <lyric number="8">
          <text>朵红</text>
        </lyric>
        <lyric number="9">
          <text>转红</text>
        </lyric>
        <lyric number="10">
          <text>哩转</text>
        </lyric>
        <lyric number="11">
          <text>里转</text>
        </lyric>
        <lyric number="12">
          <text>红花</text>
        </lyric>
        <lyric number="13">
          <text>细眼</text>
        </lyric>
        <lyric number="14">
          <text>好比</text>
        </lyric>
        <lyric number="15">
          <text>恋nan妹</text>
        </lyric>
        <lyric number="16">
          <text>龙船</text>
        </lyric>
        <lyric number="17">
          <text>龙船</text>
        </lyric>
        <lyric number="18">
          <text>赛岀</text>
        </lyric>
        <lyric number="19">
          <text>赛岀</text>
        </lyric>
      </note>
      <note>
        <rest />
        <duration>8</duration>
        <type>half</type>
        <lyric number="1">
          <text>布做妹衫</text>
        </lyric>
        <lyric number="2">
          <text>麻妹唔要</text>
        </lyric>
        <lyric number="3">
          <text>绸漂白衫</text>
        </lyric>
        <lyric number="4">
          <text>唱到儿时</text>
        </lyric>
        <lyric number="5">
          <text>花正当时</text>
        </lyric>
        <lyric number="6">
          <text>在禾腔内</text>
        </lyric>
        <lyric number="7">
          <text>买nan年时</text>
        </lyric>
        <lyric number="8">
          <text>花在后厅</text>
        </lyric>
        <lyric number="9">
          <text>来夜转青</text>
        </lyric>
        <lyric number="10">
          <text>回桃花色</text>
        </lyric>
        <lyric number="11">
          <text>到竹nan叶青</text>
        </lyric>
        <lyric number="12">
          <text>透过墙</text>
        </lyric>
        <lyric number="13">
          <text>来看郎[未击中:阝]</text>
        </lyric>
        <lyric number="14">
          <text>nan角树</text>
        </lyric>
        <lyric number="15">
          <text>处处香</text>
        </lyric>
        <lyric number="16">
          <text>十[未击中:八]舱</text>
        </lyric>
        <lyric number="17">
          <text>岀大江</text>
        </lyric>
        <lyric number="18">
          <text>桃花色</text>
        </lyric>
        <lyric number="19">
          <text>桂花香接唱结束句</text>
        </lyric>
        <lyric number="20">
          <text>[未击中:曩]nannannannannan</text>
        </lyric>
      </note>
    </measure>
    <measure number="26">
      <attributes>
        <time>
          <beats>4</beats>
          <beat-type>4</beat-type>
        </time>
      </attributes>
    </measure>
  </part>
</score-partwise>
