<?xml version='1.0' encoding='utf-8'?>
<score-partwise version="3.1">
  <work>
    <work-title>页面_song_725</work-title>
  </work>
  <part-list>
    <score-part id="P1">
      <part-name>简谱旋律</part-name>
    </score-part>
  </part-list>
  <part id="P1">
    <measure number="1">
      <attributes>
        <divisions>4</divisions>
        <key>
          <fifths>0</fifths>
        </key>
        <time>
          <beats>4</beats>
          <beat-type>4</beat-type>
        </time>
      </attributes>
      <note>
        <pitch>
          <step>D</step>
          <octave>4</octave>
        </pitch>
        <duration>2</duration>
        <type>eighth</type>
        <lyric number="1">
          <text>补</text>
        </lyric>
      </note>
      <note>
        <pitch>
          <step>G</step>
          <octave>4</octave>
        </pitch>
        <duration>2</duration>
        <type>eighth</type>
        <lyric number="1">
          <text>镬</text>
        </lyric>
      </note>
      <note>
        <pitch>
          <step>E</step>
          <octave>4</octave>
        </pitch>
        <duration>2</duration>
        <type>eighth</type>
        <lyric number="1">
          <text>头</text>
        </lyric>
      </note>
      <note>
        <pitch>
          <step>G</step>
          <octave>5</octave>
        </pitch>
        <duration>8</duration>
        <type>half</type>
        <tie type="start" />
        <tie type="stop" />
        <lyric number="1">
          <text>噢</text>
        </lyric>
      </note>
      <note>
        <pitch>
          <step>C</step>
          <octave>4</octave>
        </pitch>
        <duration>2</duration>
        <type>eighth</type>
        <lyric number="1">
          <text>补</text>
        </lyric>
      </note>
      <note>
        <pitch>
          <step>D</step>
          <octave>4</octave>
        </pitch>
        <duration>2</duration>
        <type>eighth</type>
        <lyric number="1">
          <text>云</text>
        </lyric>
      </note>
      <note>
        <pitch>
          <step>E</step>
          <octave>4</octave>
        </pitch>
        <duration>2</duration>
        <type>eighth</type>
        <lyric number="1">
          <text>鼎</text>
        </lyric>
      </note>
      <note>
        <pitch>
          <step>D</step>
          <octave>4</octave>
        </pitch>
        <duration>2</duration>
        <type>eighth</type>
        <lyric number="1">
          <text>镬</text>
        </lyric>
      </note>
      <note>
        <pitch>
          <step>D</step>
          <octave>4</octave>
        </pitch>
        <duration>2</duration>
        <type>eighth</type>
        <lyric number="1">
          <text>头</text>
        </lyric>
      </note>
      <note>
        <rest />
        <duration>4</duration>
        <type>quarter</type>
        <tie type="start" />
        <tie type="stop" />
      </note>
      <note>
        <pitch>
          <step>D</step>
          <octave>4</octave>
        </pitch>
        <duration>2</duration>
        <type>eighth</type>
        <lyric number="1">
          <text>补</text>
        </lyric>
      </note>
      <note>
        <pitch>
          <step>G</step>
          <octave>4</octave>
        </pitch>
        <duration>2</duration>
        <type>eighth</type>
        <lyric number="1">
          <text>镬</text>
        </lyric>
      </note>
      <note>
        <pitch>
          <step>E</step>
          <octave>4</octave>
        </pitch>
        <duration>2</duration>
        <type>eighth</type>
        <lyric number="1">
          <text>头</text>
        </lyric>
      </note>
      <note>
        <pitch>
          <step>E</step>
          <octave>4</octave>
        </pitch>
        <duration>2</duration>
        <type>eighth</type>
        <lyric number="1">
          <text>云</text>
        </lyric>
      </note>
      <note>
        <pitch>
          <step>D</step>
          <octave>4</octave>
        </pitch>
        <duration>2</duration>
        <type>eighth</type>
        <lyric number="1">
          <text>鼎</text>
        </lyric>
      </note>
    </measure>
    <measure number="2">
      <attributes>
        <time>
          <beats>4</beats>
          <beat-type>4</beat-type>
        </time>
      </attributes>
      <note>
        <pitch>
          <step>G</step>
          <octave>4</octave>
        </pitch>
        <duration>20</duration>
        <type>whole</type>
        <lyric number="1">
          <text>噢</text>
        </lyric>
        <lyric number="2">
          <text>个子</text>
        </lyric>
      </note>
      <note>
        <pitch>
          <step>C</step>
          <octave>4</octave>
        </pitch>
        <duration>2</duration>
        <type>eighth</type>
        <lyric number="1">
          <text>补</text>
        </lyric>
        <lyric number="2">
          <text>nan</text>
        </lyric>
        <lyric number="3">
          <text>nan</text>
        </lyric>
      </note>
      <note>
        <pitch>
          <step>D</step>
          <octave>4</octave>
        </pitch>
        <duration>2</duration>
        <type>eighth</type>
        <lyric number="1">
          <text>铜</text>
        </lyric>
        <lyric number="2">
          <text>nan</text>
        </lyric>
      </note>
      <note>
        <pitch>
          <step>E</step>
          <octave>4</octave>
        </pitch>
        <duration>2</duration>
        <type>eighth</type>
        <lyric number="1">
          <text>煲</text>
        </lyric>
        <lyric number="2">
          <text>nan</text>
        </lyric>
      </note>
      <note>
        <pitch>
          <step>E</step>
          <octave>4</octave>
        </pitch>
        <duration>2</duration>
        <type>eighth</type>
        <lyric number="1">
          <text>面</text>
        </lyric>
        <lyric number="2">
          <text>nannan</text>
        </lyric>
        <lyric number="3">
          <text>nan</text>
        </lyric>
      </note>
      <note>
        <pitch>
          <step>D</step>
          <octave>4</octave>
        </pitch>
        <duration>2</duration>
        <type>eighth</type>
        <lyric number="1">
          <text>盆</text>
        </lyric>
        <lyric number="2">
          <text>nan</text>
        </lyric>
        <lyric number="3">
          <text>nannan</text>
        </lyric>
      </note>
      <note>
        <rest />
        <duration>4</duration>
        <type>quarter</type>
        <tie type="start" />
        <tie type="stop" />
        <lyric number="1">
          <text>nan</text>
        </lyric>
        <lyric number="2">
          <text>nannan</text>
        </lyric>
      </note>
      <note>
        <pitch>
          <step>D</step>
          <octave>4</octave>
        </pitch>
        <duration>2</duration>
        <type>eighth</type>
        <lyric number="1">
          <text>开</text>
        </lyric>
        <lyric number="2">
          <text>nan</text>
        </lyric>
        <lyric number="3">
          <text>nannan</text>
        </lyric>
      </note>
      <note>
        <pitch>
          <step>E</step>
          <octave>4</octave>
        </pitch>
        <duration>2</duration>
        <type>eighth</type>
        <lyric number="1">
          <text>炉</text>
        </lyric>
        <lyric number="2">
          <text>[未击中:怅]nan</text>
        </lyric>
        <lyric number="3">
          <text>nannan</text>
        </lyric>
      </note>
      <note>
        <pitch>
          <step>E</step>
          <octave>4</octave>
        </pitch>
        <duration>2</duration>
        <type>eighth</type>
        <lyric number="1">
          <text>透</text>
        </lyric>
        <lyric number="2">
          <text>nan</text>
        </lyric>
      </note>
      <note>
        <pitch>
          <step>D</step>
          <octave>4</octave>
        </pitch>
        <duration>2</duration>
        <type>eighth</type>
        <lyric number="1">
          <text>火</text>
        </lyric>
        <lyric number="2">
          <text>nannan</text>
        </lyric>
        <lyric number="3">
          <text>混nan</text>
        </lyric>
      </note>
      <note>
        <pitch>
          <step>G</step>
          <octave>4</octave>
        </pitch>
        <duration>2</duration>
        <type>eighth</type>
        <lyric number="1">
          <text>噢</text>
        </lyric>
        <lyric number="2">
          <text>nan</text>
        </lyric>
        <lyric number="3">
          <text>nan</text>
        </lyric>
      </note>
      <note>
        <pitch>
          <step>C</step>
          <octave>4</octave>
        </pitch>
        <duration>2</duration>
        <type>eighth</type>
        <lyric number="1">
          <text>补</text>
        </lyric>
        <lyric number="2">
          <text>nannan</text>
        </lyric>
        <lyric number="3">
          <text>[未击中:乚]</text>
        </lyric>
      </note>
      <note>
        <pitch>
          <step>D</step>
          <octave>4</octave>
        </pitch>
        <duration>2</duration>
        <type>eighth</type>
        <lyric number="1">
          <text>云</text>
        </lyric>
        <lyric number="2">
          <text>[未击中:[未击中:怅]]</text>
        </lyric>
        <lyric number="3">
          <text>阳nan</text>
        </lyric>
      </note>
      <note>
        <pitch>
          <step>E</step>
          <octave>4</octave>
        </pitch>
        <duration>2</duration>
        <type>eighth</type>
        <lyric number="1">
          <text>鼎</text>
        </lyric>
        <lyric number="2">
          <text>[未击中:怅]nan</text>
        </lyric>
      </note>
      <note>
        <pitch>
          <step>E</step>
          <octave>4</octave>
        </pitch>
        <duration>2</duration>
        <type>eighth</type>
        <lyric number="1">
          <text>镬</text>
        </lyric>
        <lyric number="2">
          <text>nannan</text>
        </lyric>
        <lyric number="3">
          <text>[未击中:釁][未击中:[未击中:釁]][未击中:冫]</text>
        </lyric>
      </note>
      <note>
        <pitch>
          <step>D</step>
          <octave>5</octave>
        </pitch>
        <duration>8</duration>
        <type>half</type>
        <tie type="start" />
        <tie type="stop" />
        <lyric number="1">
          <text>头</text>
        </lyric>
        <lyric number="2">
          <text>nannan</text>
        </lyric>
      </note>
    </measure>
    <measure number="3">
      <attributes>
        <time>
          <beats>4</beats>
          <beat-type>4</beat-type>
        </time>
      </attributes>
      <note>
        <pitch>
          <step>D</step>
          <octave>4</octave>
        </pitch>
        <duration>4</duration>
        <type>quarter</type>
        <lyric number="1">
          <text>nannannan[未击中:上]</text>
        </lyric>
      </note>
      <note>
        <pitch>
          <step>D</step>
          <octave>4</octave>
        </pitch>
        <duration>4</duration>
        <type>quarter</type>
      </note>
      <note>
        <pitch>
          <step>D</step>
          <octave>4</octave>
        </pitch>
        <duration>2</duration>
        <type>eighth</type>
      </note>
      <note>
        <pitch>
          <step>G</step>
          <octave>4</octave>
        </pitch>
        <duration>2</duration>
        <type>eighth</type>
      </note>
      <note>
        <pitch>
          <step>E</step>
          <octave>4</octave>
        </pitch>
        <duration>4</duration>
        <type>quarter</type>
        <lyric number="1">
          <text>nan</text>
        </lyric>
      </note>
      <note>
        <pitch>
          <step>E</step>
          <octave>4</octave>
        </pitch>
        <duration>4</duration>
        <type>quarter</type>
        <lyric number="1">
          <text>nan[未击中:[未击中:乚]]</text>
        </lyric>
      </note>
      <note>
        <pitch>
          <step>D</step>
          <octave>4</octave>
        </pitch>
        <duration>4</duration>
        <type>quarter</type>
      </note>
      <note>
        <pitch>
          <step>G</step>
          <octave>3</octave>
        </pitch>
        <duration>2</duration>
        <type>eighth</type>
      </note>
      <note>
        <pitch>
          <step>A</step>
          <octave>3</octave>
        </pitch>
        <duration>2</duration>
        <type>eighth</type>
      </note>
      <note>
        <pitch>
          <step>C</step>
          <octave>4</octave>
        </pitch>
        <duration>4</duration>
        <type>quarter</type>
      </note>
      <note>
        <pitch>
          <step>D</step>
          <octave>4</octave>
        </pitch>
        <duration>4</duration>
        <type>quarter</type>
      </note>
    </measure>
    <measure number="4">
      <attributes>
        <time>
          <beats>4</beats>
          <beat-type>4</beat-type>
        </time>
      </attributes>
      <note>
        <pitch>
          <step>C</step>
          <octave>4</octave>
        </pitch>
        <duration>4</duration>
        <type>quarter</type>
      </note>
      <note>
        <pitch>
          <step>D</step>
          <octave>4</octave>
        </pitch>
        <duration>4</duration>
        <type>quarter</type>
      </note>
      <note>
        <pitch>
          <step>D</step>
          <octave>4</octave>
        </pitch>
        <duration>2</duration>
        <type>eighth</type>
        <lyric number="1">
          <text>[未击中:上]</text>
        </lyric>
      </note>
      <note>
        <pitch>
          <step>A</step>
          <octave>3</octave>
        </pitch>
        <duration>2</duration>
        <type>eighth</type>
      </note>
      <note>
        <pitch>
          <step>C</step>
          <octave>4</octave>
        </pitch>
        <duration>2</duration>
        <type>eighth</type>
      </note>
      <note>
        <pitch>
          <step>A</step>
          <octave>3</octave>
        </pitch>
        <duration>2</duration>
        <type>eighth</type>
        <lyric number="1">
          <text>nan[未击中:[未击中:出]]</text>
        </lyric>
      </note>
      <note>
        <pitch>
          <step>C</step>
          <octave>4</octave>
        </pitch>
        <duration>2</duration>
        <type>eighth</type>
        <lyric number="1">
          <text>nannannannan</text>
        </lyric>
      </note>
      <note>
        <pitch>
          <step>A</step>
          <octave>3</octave>
        </pitch>
        <duration>2</duration>
        <type>eighth</type>
      </note>
      <note>
        <pitch>
          <step>D</step>
          <octave>4</octave>
        </pitch>
        <duration>4</duration>
        <type>quarter</type>
      </note>
      <note>
        <pitch>
          <step>E</step>
          <octave>4</octave>
        </pitch>
        <duration>4</duration>
        <type>quarter</type>
        <lyric number="1">
          <text>nannan[未击中:乚][未击中:[未击中:乚]][未击中:[未击中:[未击中:[未击中:出]]]][未击中:[未击中:[未击中:出]]]nan</text>
        </lyric>
      </note>
    </measure>
    <measure number="5">
      <attributes>
        <time>
          <beats>4</beats>
          <beat-type>4</beat-type>
        </time>
      </attributes>
      <note>
        <pitch>
          <step>D</step>
          <octave>4</octave>
        </pitch>
        <duration>4</duration>
        <type>quarter</type>
      </note>
      <note>
        <pitch>
          <step>E</step>
          <octave>4</octave>
        </pitch>
        <duration>2</duration>
        <type>eighth</type>
        <lyric number="1">
          <text>nan</text>
        </lyric>
      </note>
      <note>
        <pitch>
          <step>A</step>
          <octave>3</octave>
        </pitch>
        <duration>2</duration>
        <type>eighth</type>
      </note>
      <note>
        <pitch>
          <step>E</step>
          <octave>4</octave>
        </pitch>
        <duration>2</duration>
        <type>eighth</type>
      </note>
      <note>
        <pitch>
          <step>D</step>
          <octave>4</octave>
        </pitch>
        <duration>2</duration>
        <type>eighth</type>
      </note>
      <note>
        <pitch>
          <step>E</step>
          <octave>4</octave>
        </pitch>
        <duration>4</duration>
        <type>quarter</type>
        <lyric number="1">
          <text>nan[未击中:乚][未击中:上]</text>
        </lyric>
      </note>
      <note>
        <pitch>
          <step>D</step>
          <octave>4</octave>
        </pitch>
        <duration>4</duration>
        <type>quarter</type>
      </note>
      <note>
        <pitch>
          <step>C</step>
          <octave>4</octave>
        </pitch>
        <duration>2</duration>
        <type>eighth</type>
      </note>
      <note>
        <pitch>
          <step>A</step>
          <octave>3</octave>
        </pitch>
        <duration>2</duration>
        <type>eighth</type>
      </note>
      <note>
        <pitch>
          <step>A</step>
          <octave>3</octave>
        </pitch>
        <duration>4</duration>
        <type>quarter</type>
        <lyric number="1">
          <text>[未击中:[未击中:[未击中:出]]]nan</text>
        </lyric>
      </note>
      <note>
        <pitch>
          <step>G</step>
          <octave>3</octave>
        </pitch>
        <duration>2</duration>
        <type>eighth</type>
        <lyric number="1">
          <text>[未击中:[未击中:乚]]</text>
        </lyric>
      </note>
      <note>
        <pitch>
          <step>A</step>
          <octave>3</octave>
        </pitch>
        <duration>2</duration>
        <type>eighth</type>
      </note>
      <note>
        <pitch>
          <step>E</step>
          <octave>4</octave>
        </pitch>
        <duration>2</duration>
        <type>eighth</type>
      </note>
      <note>
        <pitch>
          <step>A</step>
          <octave>3</octave>
        </pitch>
        <duration>2</duration>
        <type>eighth</type>
      </note>
      <note>
        <pitch>
          <step>D</step>
          <octave>4</octave>
        </pitch>
        <duration>4</duration>
        <type>quarter</type>
      </note>
      <note>
        <pitch>
          <step>D</step>
          <octave>4</octave>
        </pitch>
        <duration>4</duration>
        <type>quarter</type>
        <lyric number="1">
          <text>[未击中:[未击中:上]]</text>
        </lyric>
      </note>
    </measure>
    <measure number="6">
      <attributes>
        <time>
          <beats>4</beats>
          <beat-type>4</beat-type>
        </time>
      </attributes>
      <note>
        <pitch>
          <step>C</step>
          <octave>4</octave>
        </pitch>
        <duration>2</duration>
        <type>eighth</type>
      </note>
      <note>
        <pitch>
          <step>A</step>
          <octave>3</octave>
        </pitch>
        <duration>2</duration>
        <type>eighth</type>
        <lyric number="1">
          <text>nannan</text>
        </lyric>
      </note>
      <note>
        <pitch>
          <step>D</step>
          <octave>4</octave>
        </pitch>
        <duration>2</duration>
        <type>eighth</type>
      </note>
      <note>
        <pitch>
          <step>G</step>
          <octave>4</octave>
        </pitch>
        <duration>2</duration>
        <type>eighth</type>
        <lyric number="1">
          <text>nan</text>
        </lyric>
      </note>
      <note>
        <pitch>
          <step>E</step>
          <octave>4</octave>
        </pitch>
        <duration>2</duration>
        <type>eighth</type>
        <lyric number="1">
          <text>nan</text>
        </lyric>
      </note>
      <note>
        <pitch>
          <step>G</step>
          <octave>4</octave>
        </pitch>
        <duration>2</duration>
        <type>eighth</type>
      </note>
      <note>
        <pitch>
          <step>D</step>
          <octave>4</octave>
        </pitch>
        <duration>4</duration>
        <type>quarter</type>
        <lyric number="1">
          <text>nannannan[未击中:[未击中:出]]</text>
        </lyric>
      </note>
      <note>
        <pitch>
          <step>G</step>
          <octave>4</octave>
        </pitch>
        <duration>4</duration>
        <type>quarter</type>
      </note>
      <note>
        <pitch>
          <step>G</step>
          <octave>3</octave>
        </pitch>
        <duration>4</duration>
        <type>quarter</type>
      </note>
      <note>
        <pitch>
          <step>C</step>
          <octave>4</octave>
        </pitch>
        <duration>2</duration>
        <type>eighth</type>
        <lyric number="1">
          <text>nan</text>
        </lyric>
      </note>
      <note>
        <pitch>
          <step>F</step>
          <octave>4</octave>
        </pitch>
        <duration>2</duration>
        <type>eighth</type>
        <lyric number="1">
          <text>nan</text>
        </lyric>
      </note>
      <note>
        <pitch>
          <step>D</step>
          <octave>4</octave>
        </pitch>
        <duration>4</duration>
        <type>quarter</type>
        <lyric number="1">
          <text>nan[未击中:[未击中:出]]nan</text>
        </lyric>
      </note>
      <note>
        <pitch>
          <step>D</step>
          <octave>4</octave>
        </pitch>
        <duration>4</duration>
        <type>quarter</type>
        <lyric number="1">
          <text>nannannannannannan</text>
        </lyric>
      </note>
    </measure>
    <measure number="7">
      <attributes>
        <time>
          <beats>4</beats>
          <beat-type>4</beat-type>
        </time>
      </attributes>
      <note>
        <pitch>
          <step>E</step>
          <octave>4</octave>
        </pitch>
        <duration>2</duration>
        <type>eighth</type>
        <lyric number="1">
          <text>[未击中:[未击中:[未击中:出]]]</text>
        </lyric>
      </note>
      <note>
        <pitch>
          <step>A</step>
          <octave>3</octave>
        </pitch>
        <duration>2</duration>
        <type>eighth</type>
        <lyric number="1">
          <text>[未击中:[未击中:[未击中:出]]]nannan</text>
        </lyric>
      </note>
      <note>
        <pitch>
          <step>G</step>
          <octave>3</octave>
        </pitch>
        <duration>4</duration>
        <type>quarter</type>
      </note>
      <note>
        <pitch>
          <step>G</step>
          <octave>3</octave>
        </pitch>
        <duration>4</duration>
        <type>quarter</type>
        <lyric number="1">
          <text>[未击中:[未击中:出]]</text>
        </lyric>
      </note>
      <note>
        <pitch>
          <step>C</step>
          <octave>4</octave>
        </pitch>
        <duration>2</duration>
        <type>eighth</type>
        <lyric number="1">
          <text>nannan州</text>
        </lyric>
      </note>
      <note>
        <pitch>
          <step>F</step>
          <octave>4</octave>
        </pitch>
        <duration>2</duration>
        <type>eighth</type>
        <lyric number="1">
          <text>nan[未击中:[未击中:卩]]</text>
        </lyric>
        <lyric number="2">
          <text>nannan</text>
        </lyric>
      </note>
      <note>
        <pitch>
          <step>A</step>
          <octave>3</octave>
        </pitch>
        <duration>2</duration>
        <type>eighth</type>
        <lyric number="1">
          <text>nannan</text>
        </lyric>
      </note>
      <note>
        <pitch>
          <step>G</step>
          <octave>3</octave>
        </pitch>
        <duration>2</duration>
        <type>eighth</type>
        <lyric number="1">
          <text>[未击中:[未击中:卩]]nan</text>
        </lyric>
      </note>
      <note>
        <pitch>
          <step>G</step>
          <octave>3</octave>
        </pitch>
        <duration>4</duration>
        <type>quarter</type>
        <lyric number="1">
          <text>nan</text>
        </lyric>
      </note>
      <note>
        <pitch>
          <step>E</step>
          <octave>4</octave>
        </pitch>
        <duration>4</duration>
        <type>quarter</type>
        <lyric number="1">
          <text>nannan</text>
        </lyric>
      </note>
      <note>
        <pitch>
          <step>D</step>
          <octave>4</octave>
        </pitch>
        <duration>4</duration>
        <type>quarter</type>
        <lyric number="1">
          <text>nan</text>
        </lyric>
      </note>
      <note>
        <pitch>
          <step>E</step>
          <octave>4</octave>
        </pitch>
        <duration>2</duration>
        <type>eighth</type>
      </note>
      <note>
        <pitch>
          <step>A</step>
          <octave>3</octave>
        </pitch>
        <duration>2</duration>
        <type>eighth</type>
      </note>
      <note>
        <pitch>
          <step>D</step>
          <octave>4</octave>
        </pitch>
        <duration>2</duration>
        <type>eighth</type>
      </note>
      <note>
        <pitch>
          <step>A</step>
          <octave>3</octave>
        </pitch>
        <duration>2</duration>
        <type>eighth</type>
      </note>
      <note>
        <pitch>
          <step>E</step>
          <octave>4</octave>
        </pitch>
        <duration>4</duration>
        <type>quarter</type>
      </note>
      <note>
        <pitch>
          <step>D</step>
          <octave>4</octave>
        </pitch>
        <duration>4</duration>
        <type>quarter</type>
        <lyric number="1">
          <text>潮nannan</text>
        </lyric>
      </note>
      <note>
        <pitch>
          <step>G</step>
          <octave>3</octave>
        </pitch>
        <duration>2</duration>
        <type>eighth</type>
        <lyric number="1">
          <text>nan</text>
        </lyric>
      </note>
      <note>
        <pitch>
          <step>A</step>
          <octave>3</octave>
        </pitch>
        <duration>2</duration>
        <type>eighth</type>
      </note>
      <note>
        <pitch>
          <step>A</step>
          <octave>3</octave>
        </pitch>
        <duration>4</duration>
        <type>quarter</type>
      </note>
    </measure>
    <measure number="8">
      <attributes>
        <time>
          <beats>4</beats>
          <beat-type>4</beat-type>
        </time>
      </attributes>
      <note>
        <pitch>
          <step>E</step>
          <octave>4</octave>
        </pitch>
        <duration>4</duration>
        <type>quarter</type>
        <lyric number="1">
          <text>日</text>
        </lyric>
      </note>
      <note>
        <pitch>
          <step>E</step>
          <octave>4</octave>
        </pitch>
        <duration>4</duration>
        <type>quarter</type>
        <lyric number="1">
          <text>本</text>
        </lyric>
      </note>
      <note>
        <pitch>
          <step>A</step>
          <octave>3</octave>
        </pitch>
        <duration>4</duration>
        <type>quarter</type>
        <lyric number="1">
          <text>倭</text>
        </lyric>
      </note>
      <note>
        <pitch>
          <step>A</step>
          <octave>3</octave>
        </pitch>
        <duration>4</duration>
        <type>quarter</type>
        <lyric number="1">
          <text>奴</text>
        </lyric>
      </note>
      <note>
        <pitch>
          <step>C</step>
          <octave>4</octave>
        </pitch>
        <duration>2</duration>
        <type>eighth</type>
        <lyric number="1">
          <text>真</text>
        </lyric>
      </note>
      <note>
        <pitch>
          <step>D</step>
          <octave>4</octave>
        </pitch>
        <duration>2</duration>
        <type>eighth</type>
      </note>
      <note>
        <pitch>
          <step>E</step>
          <octave>4</octave>
        </pitch>
        <duration>2</duration>
        <type>eighth</type>
        <lyric number="1">
          <text>野</text>
        </lyric>
      </note>
      <note>
        <pitch>
          <step>G</step>
          <octave>4</octave>
        </pitch>
        <duration>2</duration>
        <type>eighth</type>
      </note>
      <note>
        <pitch>
          <step>D</step>
          <octave>4</octave>
        </pitch>
        <duration>8</duration>
        <type>half</type>
        <lyric number="1">
          <text>蛮</text>
        </lyric>
      </note>
    </measure>
    <measure number="9">
      <attributes>
        <time>
          <beats>4</beats>
          <beat-type>4</beat-type>
        </time>
      </attributes>
      <note>
        <pitch>
          <step>D</step>
          <octave>4</octave>
        </pitch>
        <duration>2</duration>
        <type>eighth</type>
        <lyric number="1">
          <text>nan</text>
        </lyric>
      </note>
      <note>
        <pitch>
          <step>C</step>
          <octave>4</octave>
        </pitch>
        <duration>2</duration>
        <type>eighth</type>
        <lyric number="1">
          <text>死</text>
        </lyric>
      </note>
      <note>
        <pitch>
          <step>D</step>
          <octave>4</octave>
        </pitch>
        <duration>2</duration>
        <type>eighth</type>
        <lyric number="1">
          <text>俺</text>
        </lyric>
      </note>
      <note>
        <pitch>
          <step>C</step>
          <octave>4</octave>
        </pitch>
        <duration>2</duration>
        <type>eighth</type>
        <lyric number="1">
          <text>个</text>
        </lyric>
      </note>
      <note>
        <pitch>
          <step>D</step>
          <octave>4</octave>
        </pitch>
        <duration>2</duration>
        <type>eighth</type>
        <lyric number="1">
          <text>中</text>
        </lyric>
      </note>
      <note>
        <pitch>
          <step>C</step>
          <octave>4</octave>
        </pitch>
        <duration>2</duration>
        <type>eighth</type>
        <lyric number="1">
          <text>国</text>
        </lyric>
      </note>
      <note>
        <pitch>
          <step>D</step>
          <octave>4</octave>
        </pitch>
        <duration>4</duration>
        <type>quarter</type>
        <lyric number="1">
          <text>人</text>
        </lyric>
      </note>
    </measure>
    <measure number="10">
      <attributes>
        <time>
          <beats>4</beats>
          <beat-type>4</beat-type>
        </time>
      </attributes>
      <note>
        <pitch>
          <step>B</step>
          <octave>3</octave>
        </pitch>
        <duration>2</duration>
        <type>eighth</type>
        <lyric number="1">
          <text>实</text>
        </lyric>
      </note>
      <note>
        <pitch>
          <step>A</step>
          <octave>3</octave>
        </pitch>
        <duration>2</duration>
        <type>eighth</type>
        <lyric number="1">
          <text>在</text>
        </lyric>
      </note>
      <note>
        <pitch>
          <step>G</step>
          <octave>3</octave>
        </pitch>
        <duration>2</duration>
        <type>eighth</type>
        <lyric number="1">
          <text>是</text>
        </lyric>
      </note>
      <note>
        <pitch>
          <step>A</step>
          <octave>3</octave>
        </pitch>
        <duration>2</duration>
        <type>eighth</type>
        <lyric number="1">
          <text>凄</text>
        </lyric>
      </note>
      <note>
        <pitch>
          <step>C</step>
          <octave>4</octave>
        </pitch>
        <duration>8</duration>
        <type>half</type>
        <lyric number="1">
          <text>惨</text>
        </lyric>
      </note>
    </measure>
    <measure number="11">
      <attributes>
        <time>
          <beats>4</beats>
          <beat-type>4</beat-type>
        </time>
      </attributes>
      <note>
        <pitch>
          <step>D</step>
          <octave>4</octave>
        </pitch>
        <duration>2</duration>
        <type>eighth</type>
        <lyric number="1">
          <text>北</text>
        </lyric>
      </note>
      <note>
        <pitch>
          <step>G</step>
          <octave>4</octave>
        </pitch>
        <duration>2</duration>
        <type>eighth</type>
        <lyric number="1">
          <text>平</text>
        </lyric>
      </note>
      <note>
        <pitch>
          <step>E</step>
          <octave>4</octave>
        </pitch>
        <duration>2</duration>
        <type>eighth</type>
        <lyric number="1">
          <text>许</text>
        </lyric>
      </note>
      <note>
        <pitch>
          <step>G</step>
          <octave>4</octave>
        </pitch>
        <duration>2</duration>
        <type>eighth</type>
        <lyric number="1">
          <text>城</text>
        </lyric>
      </note>
      <note>
        <pitch>
          <step>C</step>
          <octave>4</octave>
        </pitch>
        <duration>8</duration>
        <type>half</type>
        <lyric number="1">
          <text>里</text>
        </lyric>
      </note>
    </measure>
    <measure number="12">
      <attributes>
        <time>
          <beats>4</beats>
          <beat-type>4</beat-type>
        </time>
      </attributes>
      <note>
        <pitch>
          <step>B</step>
          <octave>3</octave>
        </pitch>
        <duration>2</duration>
        <type>eighth</type>
        <lyric number="1">
          <text>有</text>
        </lyric>
      </note>
      <note>
        <pitch>
          <step>A</step>
          <octave>3</octave>
        </pitch>
        <duration>1</duration>
        <type>16th</type>
        <lyric number="1">
          <text>一</text>
        </lyric>
      </note>
      <note>
        <pitch>
          <step>B</step>
          <octave>3</octave>
        </pitch>
        <duration>1</duration>
        <type>16th</type>
      </note>
      <note>
        <pitch>
          <step>D</step>
          <octave>4</octave>
        </pitch>
        <duration>4</duration>
        <type>quarter</type>
        <lyric number="1">
          <text>个</text>
        </lyric>
      </note>
      <note>
        <pitch>
          <step>B</step>
          <octave>3</octave>
        </pitch>
        <duration>2</duration>
        <type>eighth</type>
        <lyric number="1">
          <text>小</text>
        </lyric>
      </note>
      <note>
        <pitch>
          <step>A</step>
          <octave>3</octave>
        </pitch>
        <duration>1</duration>
        <type>16th</type>
        <lyric number="1">
          <text>乡</text>
        </lyric>
      </note>
      <note>
        <pitch>
          <step>B</step>
          <octave>3</octave>
        </pitch>
        <duration>1</duration>
        <type>16th</type>
      </note>
      <note>
        <pitch>
          <step>D</step>
          <octave>4</octave>
        </pitch>
        <duration>4</duration>
        <type>quarter</type>
        <lyric number="1">
          <text>里</text>
        </lyric>
      </note>
    </measure>
    <measure number="13">
      <attributes>
        <time>
          <beats>4</beats>
          <beat-type>4</beat-type>
        </time>
      </attributes>
      <note>
        <pitch>
          <step>B</step>
          <octave>3</octave>
        </pitch>
        <duration>2</duration>
        <type>eighth</type>
        <lyric number="1">
          <text>拢</text>
        </lyric>
      </note>
      <note>
        <pitch>
          <step>D</step>
          <octave>4</octave>
        </pitch>
        <duration>2</duration>
        <type>eighth</type>
        <lyric number="1">
          <text>总</text>
        </lyric>
      </note>
      <note>
        <pitch>
          <step>B</step>
          <octave>3</octave>
        </pitch>
        <duration>2</duration>
        <type>eighth</type>
        <lyric number="1">
          <text>[未击中:剑]</text>
        </lyric>
      </note>
      <note>
        <pitch>
          <step>A</step>
          <octave>3</octave>
        </pitch>
        <duration>2</duration>
        <type>eighth</type>
        <lyric number="1">
          <text>[未击中:剑]</text>
        </lyric>
      </note>
      <note>
        <pitch>
          <step>G</step>
          <octave>3</octave>
        </pitch>
        <duration>4</duration>
        <type>quarter</type>
        <lyric number="1">
          <text>死</text>
        </lyric>
      </note>
      <note>
        <pitch>
          <step>C</step>
          <octave>5</octave>
        </pitch>
        <duration>2</duration>
        <type>eighth</type>
        <lyric number="1">
          <text>恁</text>
        </lyric>
      </note>
      <note>
        <pitch>
          <step>C</step>
          <octave>5</octave>
        </pitch>
        <duration>2</duration>
        <type>eighth</type>
        <lyric number="1">
          <text>岂</text>
        </lyric>
      </note>
    </measure>
    <measure number="14">
      <attributes>
        <time>
          <beats>4</beats>
          <beat-type>4</beat-type>
        </time>
      </attributes>
      <note>
        <pitch>
          <step>E</step>
          <octave>4</octave>
        </pitch>
        <duration>2</duration>
        <type>eighth</type>
        <lyric number="1">
          <text>知</text>
        </lyric>
      </note>
      <note>
        <pitch>
          <step>G</step>
          <octave>4</octave>
        </pitch>
        <duration>2</duration>
        <type>eighth</type>
        <lyric number="1">
          <text>伊</text>
        </lyric>
      </note>
      <note>
        <pitch>
          <step>A</step>
          <octave>4</octave>
        </pitch>
        <duration>2</duration>
        <type>eighth</type>
        <lyric number="1">
          <text>nan</text>
        </lyric>
      </note>
      <note>
        <pitch>
          <step>E</step>
          <octave>4</octave>
        </pitch>
        <duration>2</duration>
        <type>eighth</type>
        <lyric number="1">
          <text>呢</text>
        </lyric>
      </note>
      <note>
        <pitch>
          <step>G</step>
          <octave>4</octave>
        </pitch>
        <duration>4</duration>
        <type>quarter</type>
        <lyric number="1">
          <text>nan</text>
        </lyric>
      </note>
      <note>
        <pitch>
          <step>C</step>
          <octave>5</octave>
        </pitch>
        <duration>2</duration>
        <type>eighth</type>
        <lyric number="1">
          <text>恁</text>
        </lyric>
      </note>
      <note>
        <pitch>
          <step>C</step>
          <octave>5</octave>
        </pitch>
        <duration>2</duration>
        <type>eighth</type>
        <lyric number="1">
          <text>岂</text>
        </lyric>
      </note>
    </measure>
    <measure number="15">
      <attributes>
        <time>
          <beats>4</beats>
          <beat-type>4</beat-type>
        </time>
      </attributes>
      <note>
        <pitch>
          <step>E</step>
          <octave>4</octave>
        </pitch>
        <duration>2</duration>
        <type>eighth</type>
        <lyric number="1">
          <text>知</text>
        </lyric>
      </note>
      <note>
        <pitch>
          <step>G</step>
          <octave>4</octave>
        </pitch>
        <duration>2</duration>
        <type>eighth</type>
        <lyric number="1">
          <text>伊</text>
        </lyric>
      </note>
      <note>
        <pitch>
          <step>A</step>
          <octave>4</octave>
        </pitch>
        <duration>2</duration>
        <type>eighth</type>
        <lyric number="1">
          <text>[未击中:怎]</text>
        </lyric>
      </note>
      <note>
        <pitch>
          <step>E</step>
          <octave>4</octave>
        </pitch>
        <duration>2</duration>
        <type>eighth</type>
        <lyric number="1">
          <text>呢</text>
        </lyric>
      </note>
      <note>
        <pitch>
          <step>G</step>
          <octave>4</octave>
        </pitch>
        <duration>8</duration>
        <type>half</type>
        <lyric number="1">
          <text>[未击中:剑]nan</text>
        </lyric>
      </note>
    </measure>
    <measure number="16">
      <attributes>
        <time>
          <beats>4</beats>
          <beat-type>4</beat-type>
        </time>
      </attributes>
      <note>
        <pitch>
          <step>A</step>
          <octave>4</octave>
        </pitch>
        <duration>4</duration>
        <type>quarter</type>
        <lyric number="1">
          <text>叫</text>
        </lyric>
      </note>
      <note>
        <pitch>
          <step>A</step>
          <octave>4</octave>
        </pitch>
        <duration>4</duration>
        <type>quarter</type>
        <lyric number="1">
          <text>伊</text>
        </lyric>
      </note>
      <note>
        <pitch>
          <step>G</step>
          <octave>4</octave>
        </pitch>
        <duration>2</duration>
        <type>eighth</type>
        <lyric number="1">
          <text>全</text>
        </lyric>
      </note>
      <note>
        <pitch>
          <step>A</step>
          <octave>4</octave>
        </pitch>
        <duration>2</duration>
        <type>eighth</type>
        <lyric number="1">
          <text>乡</text>
        </lyric>
      </note>
      <note>
        <pitch>
          <step>G</step>
          <octave>4</octave>
        </pitch>
        <duration>4</duration>
        <type>quarter</type>
        <lyric number="1">
          <text>里</text>
        </lyric>
      </note>
    </measure>
    <measure number="17">
      <attributes>
        <time>
          <beats>4</beats>
          <beat-type>4</beat-type>
        </time>
      </attributes>
      <note>
        <pitch>
          <step>E</step>
          <octave>4</octave>
        </pitch>
        <duration>2</duration>
        <type>eighth</type>
        <lyric number="1">
          <text>撮</text>
        </lyric>
      </note>
      <note>
        <pitch>
          <step>G</step>
          <octave>4</octave>
        </pitch>
        <duration>2</duration>
        <type>eighth</type>
        <lyric number="1">
          <text>人</text>
        </lyric>
      </note>
      <note>
        <pitch>
          <step>D</step>
          <octave>4</octave>
        </pitch>
        <duration>2</duration>
        <type>eighth</type>
        <lyric number="1">
          <text>拢</text>
        </lyric>
      </note>
      <note>
        <pitch>
          <step>E</step>
          <octave>4</octave>
        </pitch>
        <duration>2</duration>
        <type>eighth</type>
        <lyric number="1">
          <text>岀</text>
        </lyric>
      </note>
      <note>
        <pitch>
          <step>G</step>
          <octave>4</octave>
        </pitch>
        <duration>8</duration>
        <type>half</type>
        <lyric number="1">
          <text>来</text>
        </lyric>
      </note>
    </measure>
    <measure number="18">
      <attributes>
        <time>
          <beats>4</beats>
          <beat-type>4</beat-type>
        </time>
      </attributes>
      <note>
        <pitch>
          <step>G</step>
          <octave>4</octave>
        </pitch>
        <duration>2</duration>
        <type>eighth</type>
        <lyric number="1">
          <text>淋</text>
        </lyric>
      </note>
      <note>
        <pitch>
          <step>G</step>
          <octave>4</octave>
        </pitch>
        <duration>2</duration>
        <type>eighth</type>
        <lyric number="1">
          <text>火</text>
        </lyric>
      </note>
      <note>
        <pitch>
          <step>A</step>
          <octave>4</octave>
        </pitch>
        <duration>2</duration>
        <type>eighth</type>
        <lyric number="1">
          <text>油</text>
        </lyric>
      </note>
      <note>
        <pitch>
          <step>G</step>
          <octave>4</octave>
        </pitch>
        <duration>2</duration>
        <type>eighth</type>
      </note>
      <note>
        <pitch>
          <step>E</step>
          <octave>4</octave>
        </pitch>
        <duration>2</duration>
        <type>eighth</type>
        <lyric number="1">
          <text>放</text>
        </lyric>
      </note>
      <note>
        <pitch>
          <step>D</step>
          <octave>4</octave>
        </pitch>
        <duration>2</duration>
        <type>eighth</type>
        <lyric number="1">
          <text>火</text>
        </lyric>
      </note>
      <note>
        <pitch>
          <step>G</step>
          <octave>4</octave>
        </pitch>
        <duration>4</duration>
        <type>quarter</type>
        <lyric number="1">
          <text>烧</text>
        </lyric>
      </note>
    </measure>
    <measure number="19">
      <attributes>
        <time>
          <beats>4</beats>
          <beat-type>4</beat-type>
        </time>
      </attributes>
      <note>
        <pitch>
          <step>G</step>
          <octave>4</octave>
        </pitch>
        <duration>4</duration>
        <type>quarter</type>
        <lyric number="1">
          <text>胶</text>
        </lyric>
      </note>
      <note>
        <pitch>
          <step>A</step>
          <octave>4</octave>
        </pitch>
        <duration>4</duration>
        <type>quarter</type>
        <lyric number="1">
          <text>己</text>
        </lyric>
      </note>
      <note>
        <pitch>
          <step>E</step>
          <octave>4</octave>
        </pitch>
        <duration>2</duration>
        <type>eighth</type>
        <lyric number="1">
          <text>个</text>
        </lyric>
      </note>
      <note>
        <pitch>
          <step>D</step>
          <octave>4</octave>
        </pitch>
        <duration>2</duration>
        <type>eighth</type>
        <lyric number="1">
          <text>家</text>
        </lyric>
      </note>
      <note>
        <pitch>
          <step>G</step>
          <octave>4</octave>
        </pitch>
        <duration>4</duration>
        <type>quarter</type>
        <lyric number="1">
          <text>乡</text>
        </lyric>
      </note>
    </measure>
    <measure number="20">
      <attributes>
        <time>
          <beats>4</beats>
          <beat-type>4</beat-type>
        </time>
      </attributes>
      <note>
        <pitch>
          <step>D</step>
          <octave>4</octave>
        </pitch>
        <duration>2</duration>
        <type>eighth</type>
        <lyric number="1">
          <text>烧</text>
        </lyric>
      </note>
      <note>
        <pitch>
          <step>G</step>
          <octave>4</octave>
        </pitch>
        <duration>2</duration>
        <type>eighth</type>
        <lyric number="1">
          <text>到</text>
        </lyric>
      </note>
      <note>
        <pitch>
          <step>E</step>
          <octave>4</octave>
        </pitch>
        <duration>2</duration>
        <type>eighth</type>
        <lyric number="1">
          <text>唥</text>
        </lyric>
      </note>
      <note>
        <pitch>
          <step>G</step>
          <octave>4</octave>
        </pitch>
        <duration>2</duration>
        <type>eighth</type>
        <lyric number="1">
          <text>了</text>
        </lyric>
      </note>
      <note>
        <pitch>
          <step>C</step>
          <octave>4</octave>
        </pitch>
        <duration>6</duration>
        <type>quarter</type>
        <dot />
        <lyric number="1">
          <text>了</text>
        </lyric>
      </note>
      <note>
        <pitch>
          <step>A</step>
          <octave>3</octave>
        </pitch>
        <duration>2</duration>
        <type>eighth</type>
        <lyric number="1">
          <text>用</text>
        </lyric>
      </note>
    </measure>
    <measure number="21">
      <attributes>
        <time>
          <beats>4</beats>
          <beat-type>4</beat-type>
        </time>
      </attributes>
      <note>
        <pitch>
          <step>C</step>
          <octave>4</octave>
        </pitch>
        <duration>2</duration>
        <type>eighth</type>
        <lyric number="1">
          <text>机</text>
        </lyric>
      </note>
      <note>
        <pitch>
          <step>A</step>
          <octave>3</octave>
        </pitch>
        <duration>2</duration>
        <type>eighth</type>
        <lyric number="1">
          <text>关</text>
        </lyric>
      </note>
      <note>
        <pitch>
          <step>C</step>
          <octave>4</octave>
        </pitch>
        <duration>2</duration>
        <type>eighth</type>
        <lyric number="1">
          <text>枪</text>
        </lyric>
      </note>
      <note>
        <pitch>
          <step>A</step>
          <octave>3</octave>
        </pitch>
        <duration>2</duration>
        <type>eighth</type>
        <lyric number="1">
          <text>扫</text>
        </lyric>
      </note>
      <note>
        <pitch>
          <step>C</step>
          <octave>4</octave>
        </pitch>
        <duration>8</duration>
        <type>half</type>
        <lyric number="1">
          <text>射</text>
        </lyric>
      </note>
    </measure>
    <measure number="22">
      <attributes>
        <time>
          <beats>4</beats>
          <beat-type>4</beat-type>
        </time>
      </attributes>
      <note>
        <pitch>
          <step>D</step>
          <octave>4</octave>
        </pitch>
        <duration>2</duration>
        <type>eighth</type>
        <lyric number="1">
          <text>死</text>
        </lyric>
      </note>
      <note>
        <pitch>
          <step>G</step>
          <octave>4</octave>
        </pitch>
        <duration>2</duration>
        <type>eighth</type>
        <lyric number="1">
          <text>到</text>
        </lyric>
        <lyric number="2">
          <text>nan许nan</text>
        </lyric>
        <lyric number="3">
          <text>[未击中:麔]若</text>
        </lyric>
      </note>
      <note>
        <pitch>
          <step>E</step>
          <octave>4</octave>
        </pitch>
        <duration>2</duration>
        <type>eighth</type>
        <lyric number="1">
          <text>唥</text>
        </lyric>
        <lyric number="2">
          <text>[未击中:枭]</text>
        </lyric>
      </note>
      <note>
        <pitch>
          <step>G</step>
          <octave>4</octave>
        </pitch>
        <duration>2</duration>
        <type>eighth</type>
        <lyric number="1">
          <text>了</text>
        </lyric>
        <lyric number="2">
          <text>nan潮汕方言</text>
        </lyric>
        <lyric number="3">
          <text>nan语</text>
        </lyric>
      </note>
      <note>
        <pitch>
          <step>C</step>
          <octave>4</octave>
        </pitch>
        <duration>8</duration>
        <type>half</type>
        <lyric number="1">
          <text>nan</text>
        </lyric>
        <lyric number="2">
          <text>[未击中:枭]横是横行</text>
        </lyric>
      </note>
    </measure>
    <measure number="23">
      <attributes>
        <time>
          <beats>4</beats>
          <beat-type>4</beat-type>
        </time>
      </attributes>
      <note>
        <pitch>
          <step>B</step>
          <octave>3</octave>
        </pitch>
        <duration>2</duration>
        <type>eighth</type>
        <lyric number="1">
          <text>大</text>
        </lyric>
        <lyric number="2">
          <text>借字那</text>
        </lyric>
        <lyric number="3">
          <text>nan逭</text>
        </lyric>
      </note>
      <note>
        <pitch>
          <step>A</step>
          <octave>3</octave>
        </pitch>
        <duration>1</duration>
        <type>16th</type>
        <lyric number="1">
          <text>冢</text>
        </lyric>
        <lyric number="2">
          <text>的</text>
        </lyric>
      </note>
      <note>
        <pitch>
          <step>B</step>
          <octave>3</octave>
        </pitch>
        <duration>1</duration>
        <type>16th</type>
        <lyric number="1">
          <text>里</text>
        </lyric>
        <lyric number="2">
          <text>意思若</text>
        </lyric>
      </note>
      <note>
        <pitch>
          <step>D</step>
          <octave>4</octave>
        </pitch>
        <duration>4</duration>
        <type>quarter</type>
        <lyric number="1">
          <text>伙</text>
        </lyric>
      </note>
      <note>
        <pitch>
          <step>B</step>
          <octave>3</octave>
        </pitch>
        <duration>2</duration>
        <type>eighth</type>
        <lyric number="1">
          <text>恁</text>
        </lyric>
        <lyric number="2">
          <text>[未击中:枭]</text>
        </lyric>
      </note>
      <note>
        <pitch>
          <step>A</step>
          <octave>3</octave>
        </pitch>
        <duration>1</duration>
        <type>16th</type>
        <lyric number="1">
          <text>想</text>
        </lyric>
        <lyric number="2">
          <text>即</text>
        </lyric>
      </note>
      <note>
        <pitch>
          <step>B</step>
          <octave>3</octave>
        </pitch>
        <duration>1</duration>
        <type>16th</type>
        <lyric number="1">
          <text>多么横</text>
        </lyric>
      </note>
      <note>
        <pitch>
          <step>D</step>
          <octave>4</octave>
        </pitch>
        <duration>4</duration>
        <type>quarter</type>
        <lyric number="1">
          <text>看</text>
        </lyric>
        <lyric number="2">
          <text>行[未击中:蘜]道</text>
        </lyric>
      </note>
    </measure>
    <measure number="24">
      <attributes>
        <time>
          <beats>4</beats>
          <beat-type>4</beat-type>
        </time>
      </attributes>
      <note>
        <pitch>
          <step>B</step>
          <octave>3</octave>
        </pitch>
        <duration>2</duration>
        <type>eighth</type>
        <lyric number="1">
          <text>日</text>
        </lyric>
      </note>
      <note>
        <pitch>
          <step>D</step>
          <octave>4</octave>
        </pitch>
        <duration>2</duration>
        <type>eighth</type>
        <lyric number="1">
          <text>本</text>
        </lyric>
      </note>
      <note>
        <pitch>
          <step>B</step>
          <octave>3</octave>
        </pitch>
        <duration>2</duration>
        <type>eighth</type>
        <lyric number="1">
          <text>有</text>
        </lyric>
      </note>
      <note>
        <pitch>
          <step>A</step>
          <octave>3</octave>
        </pitch>
        <duration>2</duration>
        <type>eighth</type>
        <lyric number="1">
          <text>若</text>
        </lyric>
      </note>
      <note>
        <pitch>
          <step>G</step>
          <octave>3</octave>
        </pitch>
        <duration>8</duration>
        <type>half</type>
        <lyric number="1">
          <text>nan</text>
        </lyric>
      </note>
    </measure>
    <measure number="25">
      <attributes>
        <time>
          <beats>4</beats>
          <beat-type>4</beat-type>
        </time>
      </attributes>
      <note>
        <pitch>
          <step>A</step>
          <octave>4</octave>
        </pitch>
        <duration>4</duration>
        <type>quarter</type>
        <lyric number="1">
          <text>手</text>
        </lyric>
      </note>
      <note>
        <pitch>
          <step>G</step>
          <octave>4</octave>
        </pitch>
        <duration>2</duration>
        <type>eighth</type>
        <tie type="stop" />
        <lyric number="1">
          <text>牵</text>
        </lyric>
      </note>
      <note>
        <pitch>
          <step>G</step>
          <octave>4</octave>
        </pitch>
        <duration>4</duration>
        <type>quarter</type>
        <tie type="start" />
      </note>
    </measure>
    <measure number="26">
      <attributes>
        <time>
          <beats>4</beats>
          <beat-type>4</beat-type>
        </time>
      </attributes>
      <note>
        <rest />
        <duration>2</duration>
        <type>eighth</type>
      </note>
      <note>
        <pitch>
          <step>C</step>
          <octave>4</octave>
        </pitch>
        <duration>2</duration>
        <type>eighth</type>
        <lyric number="1">
          <text>牛</text>
        </lyric>
      </note>
      <note>
        <rest />
        <duration>2</duration>
        <type>eighth</type>
      </note>
      <note>
        <pitch>
          <step>G</step>
          <octave>4</octave>
        </pitch>
        <duration>2</duration>
        <type>eighth</type>
        <lyric number="1">
          <text>儿</text>
        </lyric>
      </note>
    </measure>
    <measure number="27">
      <attributes>
        <time>
          <beats>4</beats>
          <beat-type>4</beat-type>
        </time>
      </attributes>
      <note>
        <pitch>
          <step>E</step>
          <octave>4</octave>
        </pitch>
        <duration>2</duration>
        <type>eighth</type>
        <lyric number="1">
          <text>往</text>
        </lyric>
      </note>
      <note>
        <pitch>
          <step>C</step>
          <octave>4</octave>
        </pitch>
        <duration>1</duration>
        <type>16th</type>
        <lyric number="1">
          <text>田</text>
        </lyric>
      </note>
      <note>
        <pitch>
          <step>D</step>
          <octave>4</octave>
        </pitch>
        <duration>1</duration>
        <type>16th</type>
      </note>
      <note>
        <pitch>
          <step>E</step>
          <octave>4</octave>
        </pitch>
        <duration>4</duration>
        <type>quarter</type>
        <lyric number="1">
          <text>中</text>
        </lyric>
      </note>
    </measure>
    <measure number="28">
      <attributes>
        <time>
          <beats>4</beats>
          <beat-type>4</beat-type>
        </time>
      </attributes>
      <note>
        <pitch>
          <step>E</step>
          <octave>4</octave>
        </pitch>
        <duration>2</duration>
        <type>eighth</type>
        <lyric number="1">
          <text>生</text>
        </lyric>
      </note>
      <note>
        <pitch>
          <step>C</step>
          <octave>4</octave>
        </pitch>
        <duration>2</duration>
        <type>eighth</type>
        <lyric number="1">
          <text>为</text>
        </lyric>
      </note>
      <note>
        <pitch>
          <step>C</step>
          <octave>4</octave>
        </pitch>
        <duration>2</duration>
        <type>eighth</type>
        <lyric number="1">
          <text>农</text>
        </lyric>
      </note>
      <note>
        <pitch>
          <step>E</step>
          <octave>4</octave>
        </pitch>
        <duration>2</duration>
        <type>eighth</type>
        <lyric number="1">
          <text>夫</text>
        </lyric>
      </note>
    </measure>
    <measure number="29">
      <attributes>
        <time>
          <beats>4</beats>
          <beat-type>4</beat-type>
        </time>
      </attributes>
      <note>
        <pitch>
          <step>G</step>
          <octave>4</octave>
        </pitch>
        <duration>2</duration>
        <type>eighth</type>
        <lyric number="1">
          <text>忙</text>
        </lyric>
      </note>
      <note>
        <pitch>
          <step>D</step>
          <octave>4</octave>
        </pitch>
        <duration>1</duration>
        <type>16th</type>
        <lyric number="1">
          <text>又</text>
        </lyric>
      </note>
      <note>
        <pitch>
          <step>E</step>
          <octave>4</octave>
        </pitch>
        <duration>1</duration>
        <type>16th</type>
      </note>
      <note>
        <pitch>
          <step>G</step>
          <octave>4</octave>
        </pitch>
        <duration>4</duration>
        <type>quarter</type>
        <lyric number="1">
          <text>忙</text>
        </lyric>
      </note>
    </measure>
    <measure number="30">
      <attributes>
        <time>
          <beats>4</beats>
          <beat-type>4</beat-type>
        </time>
      </attributes>
      <note>
        <pitch>
          <step>C</step>
          <octave>4</octave>
        </pitch>
        <duration>2</duration>
        <type>eighth</type>
        <lyric number="1">
          <text>一</text>
        </lyric>
      </note>
      <note>
        <pitch>
          <step>G</step>
          <octave>4</octave>
        </pitch>
        <duration>2</duration>
        <type>eighth</type>
        <lyric number="1">
          <text>年</text>
        </lyric>
      </note>
      <note>
        <pitch>
          <step>E</step>
          <octave>4</octave>
        </pitch>
        <duration>2</duration>
        <type>eighth</type>
        <lyric number="1">
          <text>nan</text>
        </lyric>
      </note>
      <note>
        <pitch>
          <step>C</step>
          <octave>4</octave>
        </pitch>
        <duration>2</duration>
        <type>eighth</type>
        <lyric number="1">
          <text>季</text>
        </lyric>
      </note>
    </measure>
    <measure number="31">
      <attributes>
        <time>
          <beats>4</beats>
          <beat-type>4</beat-type>
        </time>
      </attributes>
      <note>
        <pitch>
          <step>C</step>
          <octave>4</octave>
        </pitch>
        <duration>2</duration>
        <type>eighth</type>
        <lyric number="1">
          <text>忙</text>
        </lyric>
      </note>
      <note>
        <pitch>
          <step>G</step>
          <octave>4</octave>
        </pitch>
        <duration>2</duration>
        <type>eighth</type>
        <lyric number="1">
          <text>不</text>
        </lyric>
      </note>
      <note>
        <pitch>
          <step>C</step>
          <octave>4</octave>
        </pitch>
        <duration>4</duration>
        <type>quarter</type>
        <lyric number="1">
          <text>了</text>
        </lyric>
      </note>
    </measure>
    <measure number="32">
      <attributes>
        <time>
          <beats>4</beats>
          <beat-type>4</beat-type>
        </time>
      </attributes>
      <note>
        <pitch>
          <step>G</step>
          <octave>4</octave>
        </pitch>
        <duration>2</duration>
        <type>eighth</type>
        <lyric number="1">
          <text>春</text>
        </lyric>
      </note>
      <note>
        <pitch>
          <step>E</step>
          <octave>4</octave>
        </pitch>
        <duration>2</duration>
        <type>eighth</type>
        <lyric number="1">
          <text>夏</text>
        </lyric>
      </note>
      <note>
        <pitch>
          <step>A</step>
          <octave>4</octave>
        </pitch>
        <duration>2</duration>
        <type>eighth</type>
        <lyric number="1">
          <text>过</text>
        </lyric>
      </note>
      <note>
        <pitch>
          <step>E</step>
          <octave>4</octave>
        </pitch>
        <duration>2</duration>
        <type>eighth</type>
        <lyric number="1">
          <text>了</text>
        </lyric>
      </note>
    </measure>
    <measure number="33">
      <attributes>
        <time>
          <beats>4</beats>
          <beat-type>4</beat-type>
        </time>
      </attributes>
      <note>
        <pitch>
          <step>E</step>
          <octave>4</octave>
        </pitch>
        <duration>2</duration>
        <type>eighth</type>
        <lyric number="1">
          <text>又</text>
        </lyric>
      </note>
      <note>
        <pitch>
          <step>G</step>
          <octave>4</octave>
        </pitch>
        <duration>2</duration>
        <type>eighth</type>
        <lyric number="1">
          <text>秋</text>
        </lyric>
      </note>
      <note>
        <pitch>
          <step>G</step>
          <octave>4</octave>
        </pitch>
        <duration>4</duration>
        <type>quarter</type>
        <lyric number="1">
          <text>冬</text>
        </lyric>
      </note>
    </measure>
    <measure number="34">
      <attributes>
        <time>
          <beats>4</beats>
          <beat-type>4</beat-type>
        </time>
      </attributes>
      <note>
        <pitch>
          <step>D</step>
          <octave>4</octave>
        </pitch>
        <duration>2</duration>
        <type>eighth</type>
        <lyric number="1">
          <text>春</text>
        </lyric>
      </note>
      <note>
        <pitch>
          <step>C</step>
          <octave>4</octave>
        </pitch>
        <duration>2</duration>
        <type>eighth</type>
        <lyric number="1">
          <text>夏</text>
        </lyric>
      </note>
      <note>
        <pitch>
          <step>E</step>
          <octave>4</octave>
        </pitch>
        <duration>2</duration>
        <type>eighth</type>
        <lyric number="1">
          <text>过</text>
        </lyric>
      </note>
      <note>
        <pitch>
          <step>D</step>
          <octave>4</octave>
        </pitch>
        <duration>2</duration>
        <type>eighth</type>
      </note>
    </measure>
    <measure number="35">
      <attributes>
        <time>
          <beats>4</beats>
          <beat-type>4</beat-type>
        </time>
      </attributes>
      <note>
        <pitch>
          <step>C</step>
          <octave>4</octave>
        </pitch>
        <duration>8</duration>
        <type>half</type>
        <lyric number="1">
          <text>了</text>
        </lyric>
      </note>
    </measure>
    <measure number="36">
      <attributes>
        <time>
          <beats>4</beats>
          <beat-type>4</beat-type>
        </time>
      </attributes>
      <note>
        <pitch>
          <step>D</step>
          <octave>4</octave>
        </pitch>
        <duration>2</duration>
        <type>eighth</type>
        <lyric number="1">
          <text>又</text>
        </lyric>
      </note>
      <note>
        <pitch>
          <step>E</step>
          <octave>4</octave>
        </pitch>
        <duration>2</duration>
        <type>eighth</type>
        <lyric number="1">
          <text>秋</text>
        </lyric>
      </note>
      <note>
        <pitch>
          <step>D</step>
          <octave>4</octave>
        </pitch>
        <duration>1</duration>
        <type>16th</type>
      </note>
      <note>
        <pitch>
          <step>E</step>
          <octave>4</octave>
        </pitch>
        <duration>1</duration>
        <type>16th</type>
      </note>
      <note>
        <pitch>
          <step>F</step>
          <octave>4</octave>
        </pitch>
        <duration>2</duration>
        <type>eighth</type>
      </note>
      <note>
        <pitch>
          <step>C</step>
          <octave>4</octave>
        </pitch>
        <duration>2</duration>
        <type>eighth</type>
      </note>
    </measure>
    <measure number="37">
      <attributes>
        <time>
          <beats>4</beats>
          <beat-type>4</beat-type>
        </time>
      </attributes>
      <note>
        <pitch>
          <step>E</step>
          <octave>4</octave>
        </pitch>
        <duration>4</duration>
        <type>quarter</type>
        <lyric number="1">
          <text>冬</text>
        </lyric>
      </note>
      <note>
        <pitch>
          <step>D</step>
          <octave>4</octave>
        </pitch>
        <duration>4</duration>
        <type>quarter</type>
      </note>
    </measure>
    <measure number="38">
      <attributes>
        <time>
          <beats>4</beats>
          <beat-type>4</beat-type>
        </time>
      </attributes>
      <note>
        <pitch>
          <step>C</step>
          <octave>4</octave>
        </pitch>
        <duration>8</duration>
        <type>half</type>
      </note>
    </measure>
    <measure number="39">
      <attributes>
        <time>
          <beats>4</beats>
          <beat-type>4</beat-type>
        </time>
      </attributes>
      <note>
        <pitch>
          <step>A</step>
          <octave>4</octave>
        </pitch>
        <duration>2</duration>
        <type>eighth</type>
        <lyric number="1">
          <text>蹬</text>
        </lyric>
      </note>
      <note>
        <pitch>
          <step>G</step>
          <octave>4</octave>
        </pitch>
        <duration>2</duration>
        <type>eighth</type>
        <lyric number="1">
          <text>跺</text>
        </lyric>
      </note>
      <note>
        <pitch>
          <step>A</step>
          <octave>4</octave>
        </pitch>
        <duration>1</duration>
        <type>16th</type>
        <lyric number="1">
          <text>官</text>
        </lyric>
      </note>
      <note>
        <pitch>
          <step>G</step>
          <octave>4</octave>
        </pitch>
        <duration>1</duration>
        <type>16th</type>
      </note>
      <note>
        <pitch>
          <step>E</step>
          <octave>4</octave>
        </pitch>
        <duration>2</duration>
        <type>eighth</type>
        <lyric number="1">
          <text>路</text>
        </lyric>
      </note>
    </measure>
    <measure number="40">
      <attributes>
        <time>
          <beats>4</beats>
          <beat-type>4</beat-type>
        </time>
      </attributes>
      <note>
        <pitch>
          <step>G</step>
          <octave>4</octave>
        </pitch>
        <duration>8</duration>
        <type>half</type>
        <lyric number="1">
          <text>西</text>
        </lyric>
      </note>
    </measure>
    <measure number="41">
      <attributes>
        <time>
          <beats>4</beats>
          <beat-type>4</beat-type>
        </time>
      </attributes>
      <note>
        <pitch>
          <step>E</step>
          <octave>4</octave>
        </pitch>
        <duration>2</duration>
        <type>eighth</type>
        <lyric number="1">
          <text>金</text>
        </lyric>
      </note>
      <note>
        <pitch>
          <step>E</step>
          <octave>4</octave>
        </pitch>
        <duration>2</duration>
        <type>eighth</type>
        <lyric number="1">
          <text>花</text>
        </lyric>
      </note>
      <note>
        <pitch>
          <step>G</step>
          <octave>4</octave>
        </pitch>
        <duration>2</duration>
        <type>eighth</type>
        <lyric number="1">
          <text>掌</text>
        </lyric>
      </note>
      <note>
        <pitch>
          <step>G</step>
          <octave>4</octave>
        </pitch>
        <duration>2</duration>
        <type>eighth</type>
        <lyric number="1">
          <text>羊</text>
        </lyric>
      </note>
    </measure>
    <measure number="42">
      <attributes>
        <time>
          <beats>4</beats>
          <beat-type>4</beat-type>
        </time>
      </attributes>
      <note>
        <pitch>
          <step>E</step>
          <octave>4</octave>
        </pitch>
        <duration>2</duration>
        <type>eighth</type>
        <lyric number="1">
          <text>哭</text>
        </lyric>
      </note>
      <note>
        <pitch>
          <step>E</step>
          <octave>4</octave>
        </pitch>
        <duration>1</duration>
        <type>16th</type>
        <lyric number="1">
          <text>哀</text>
        </lyric>
      </note>
      <note>
        <pitch>
          <step>D</step>
          <octave>4</octave>
        </pitch>
        <duration>1</duration>
        <type>16th</type>
      </note>
      <note>
        <pitch>
          <step>E</step>
          <octave>4</octave>
        </pitch>
        <duration>4</duration>
        <type>quarter</type>
        <lyric number="1">
          <text>哀</text>
        </lyric>
      </note>
    </measure>
    <measure number="43">
      <attributes>
        <time>
          <beats>4</beats>
          <beat-type>4</beat-type>
        </time>
      </attributes>
      <note>
        <pitch>
          <step>A</step>
          <octave>3</octave>
        </pitch>
        <duration>2</duration>
        <type>eighth</type>
        <lyric number="1">
          <text>别</text>
        </lyric>
      </note>
      <note>
        <pitch>
          <step>E</step>
          <octave>4</octave>
        </pitch>
        <duration>2</duration>
        <type>eighth</type>
        <lyric number="1">
          <text>人</text>
        </lyric>
      </note>
      <note>
        <pitch>
          <step>D</step>
          <octave>4</octave>
        </pitch>
        <duration>2</duration>
        <type>eighth</type>
        <lyric number="1">
          <text>做</text>
        </lyric>
      </note>
      <note>
        <pitch>
          <step>D</step>
          <octave>4</octave>
        </pitch>
        <duration>2</duration>
        <type>eighth</type>
        <lyric number="1">
          <text>官</text>
        </lyric>
      </note>
      <note>
        <pitch>
          <step>D</step>
          <octave>4</octave>
        </pitch>
        <duration>2</duration>
        <type>eighth</type>
        <lyric number="1">
          <text>都</text>
        </lyric>
      </note>
      <note>
        <pitch>
          <step>C</step>
          <octave>4</octave>
        </pitch>
        <duration>1</duration>
        <type>16th</type>
        <lyric number="1">
          <text>会</text>
        </lyric>
      </note>
      <note>
        <pitch>
          <step>D</step>
          <octave>4</octave>
        </pitch>
        <duration>1</duration>
        <type>16th</type>
      </note>
      <note>
        <pitch>
          <step>E</step>
          <octave>4</octave>
        </pitch>
        <duration>4</duration>
        <type>quarter</type>
        <lyric number="1">
          <text>返</text>
        </lyric>
      </note>
    </measure>
    <measure number="44">
      <attributes>
        <time>
          <beats>4</beats>
          <beat-type>4</beat-type>
        </time>
      </attributes>
      <note>
        <pitch>
          <step>D</step>
          <octave>4</octave>
        </pitch>
        <duration>4</duration>
        <type>quarter</type>
        <lyric number="1">
          <text>刘永</text>
        </lyric>
      </note>
      <note>
        <pitch>
          <step>E</step>
          <octave>4</octave>
        </pitch>
        <duration>2</duration>
        <type>eighth</type>
        <lyric number="1">
          <text>做</text>
        </lyric>
      </note>
      <note>
        <pitch>
          <step>E</step>
          <octave>4</octave>
        </pitch>
        <duration>1</duration>
        <type>16th</type>
        <lyric number="1">
          <text>官</text>
        </lyric>
      </note>
      <note>
        <pitch>
          <step>D</step>
          <octave>4</octave>
        </pitch>
        <duration>1</duration>
        <type>16th</type>
      </note>
    </measure>
    <measure number="45">
      <attributes>
        <time>
          <beats>4</beats>
          <beat-type>4</beat-type>
        </time>
      </attributes>
      <note>
        <pitch>
          <step>A</step>
          <octave>3</octave>
        </pitch>
        <duration>2</duration>
        <type>eighth</type>
        <lyric number="1">
          <text>nan</text>
        </lyric>
      </note>
      <note>
        <pitch>
          <step>D</step>
          <octave>4</octave>
        </pitch>
        <duration>2</duration>
        <type>eighth</type>
        <lyric number="1">
          <text>返</text>
        </lyric>
      </note>
      <note>
        <pitch>
          <step>D</step>
          <octave>4</octave>
        </pitch>
        <duration>4</duration>
        <type>quarter</type>
        <lyric number="1">
          <text>来</text>
        </lyric>
      </note>
    </measure>
    <measure number="46">
      <attributes>
        <time>
          <beats>4</beats>
          <beat-type>4</beat-type>
        </time>
      </attributes>
      <note>
        <pitch>
          <step>D</step>
          <octave>4</octave>
        </pitch>
        <duration>8</duration>
        <type>half</type>
      </note>
    </measure>
    <measure number="47">
      <attributes>
        <time>
          <beats>4</beats>
          <beat-type>4</beat-type>
        </time>
      </attributes>
      <note>
        <pitch>
          <step>A</step>
          <octave>4</octave>
        </pitch>
        <duration>2</duration>
        <type>eighth</type>
        <lyric number="1">
          <text>蹬</text>
        </lyric>
      </note>
      <note>
        <pitch>
          <step>G</step>
          <octave>4</octave>
        </pitch>
        <duration>2</duration>
        <type>eighth</type>
        <lyric number="1">
          <text>跺</text>
        </lyric>
      </note>
      <note>
        <pitch>
          <step>A</step>
          <octave>4</octave>
        </pitch>
        <duration>1</duration>
        <type>16th</type>
        <lyric number="1">
          <text>官</text>
        </lyric>
      </note>
      <note>
        <pitch>
          <step>G</step>
          <octave>4</octave>
        </pitch>
        <duration>1</duration>
        <type>16th</type>
      </note>
      <note>
        <pitch>
          <step>E</step>
          <octave>4</octave>
        </pitch>
        <duration>2</duration>
        <type>eighth</type>
        <lyric number="1">
          <text>路</text>
        </lyric>
      </note>
      <note>
        <pitch>
          <step>G</step>
          <octave>4</octave>
        </pitch>
        <duration>8</duration>
        <type>half</type>
        <lyric number="1">
          <text>nan</text>
        </lyric>
      </note>
    </measure>
    <measure number="48">
      <attributes>
        <time>
          <beats>4</beats>
          <beat-type>4</beat-type>
        </time>
      </attributes>
      <note>
        <pitch>
          <step>E</step>
          <octave>4</octave>
        </pitch>
        <duration>2</duration>
        <type>eighth</type>
        <lyric number="1">
          <text>金</text>
        </lyric>
      </note>
      <note>
        <pitch>
          <step>E</step>
          <octave>4</octave>
        </pitch>
        <duration>2</duration>
        <type>eighth</type>
        <lyric number="1">
          <text>花</text>
        </lyric>
      </note>
      <note>
        <pitch>
          <step>G</step>
          <octave>4</octave>
        </pitch>
        <duration>2</duration>
        <type>eighth</type>
        <lyric number="1">
          <text>掌</text>
        </lyric>
      </note>
      <note>
        <pitch>
          <step>G</step>
          <octave>4</octave>
        </pitch>
        <duration>2</duration>
        <type>eighth</type>
        <lyric number="1">
          <text>羊</text>
        </lyric>
      </note>
    </measure>
    <measure number="49">
      <attributes>
        <time>
          <beats>4</beats>
          <beat-type>4</beat-type>
        </time>
      </attributes>
      <note>
        <pitch>
          <step>E</step>
          <octave>4</octave>
        </pitch>
        <duration>2</duration>
        <type>eighth</type>
        <lyric number="1">
          <text>哭</text>
        </lyric>
      </note>
      <note>
        <pitch>
          <step>D</step>
          <octave>4</octave>
        </pitch>
        <duration>2</duration>
        <type>eighth</type>
        <lyric number="1">
          <text>啼</text>
        </lyric>
        <lyric number="2">
          <text>nan</text>
        </lyric>
        <lyric number="3">
          <text>nan</text>
        </lyric>
        <lyric number="4">
          <text>nan</text>
        </lyric>
        <lyric number="5">
          <text>欧</text>
        </lyric>
        <lyric number="6">
          <text>嗳[未击中:甲]营</text>
        </lyric>
      </note>
      <note>
        <pitch>
          <step>G</step>
          <octave>4</octave>
        </pitch>
        <duration>4</duration>
        <type>quarter</type>
        <lyric number="1">
          <text>啼</text>
        </lyric>
        <lyric number="2">
          <text>掌羊</text>
        </lyric>
        <lyric number="3">
          <text>[未击中:儾]潮</text>
        </lyric>
        <lyric number="4">
          <text>波</text>
        </lyric>
        <lyric number="5">
          <text>之</text>
        </lyric>
      </note>
    </measure>
    <measure number="50">
      <attributes>
        <time>
          <beats>4</beats>
          <beat-type>4</beat-type>
        </time>
      </attributes>
      <note>
        <pitch>
          <step>A</step>
          <octave>3</octave>
        </pitch>
        <duration>2</duration>
        <type>eighth</type>
        <lyric number="1">
          <text>别</text>
        </lyric>
        <lyric number="2">
          <text>牧羊</text>
        </lyric>
        <lyric number="3">
          <text>语</text>
        </lyric>
        <lyric number="4">
          <text>抱nan毛</text>
        </lyric>
        <lyric number="5">
          <text>此思</text>
        </lyric>
      </note>
      <note>
        <pitch>
          <step>E</step>
          <octave>4</octave>
        </pitch>
        <duration>2</duration>
        <type>eighth</type>
        <lyric number="1">
          <text>人</text>
        </lyric>
        <lyric number="2">
          <text>不会</text>
        </lyric>
        <lyric number="3">
          <text>nannan</text>
        </lyric>
        <lyric number="4">
          <text>nannan</text>
        </lyric>
      </note>
      <note>
        <pitch>
          <step>D</step>
          <octave>4</octave>
        </pitch>
        <duration>2</duration>
        <type>eighth</type>
        <lyric number="1">
          <text>做</text>
        </lyric>
        <lyric number="2">
          <text>掌</text>
        </lyric>
        <lyric number="3">
          <text>的复</text>
        </lyric>
        <lyric number="4">
          <text>夫</text>
        </lyric>
      </note>
      <note>
        <pitch>
          <step>D</step>
          <octave>4</octave>
        </pitch>
        <duration>2</duration>
        <type>eighth</type>
        <lyric number="1">
          <text>官</text>
        </lyric>
        <lyric number="2">
          <text>是守</text>
        </lyric>
        <lyric number="3">
          <text>合字</text>
        </lyric>
        <lyric number="4">
          <text>而</text>
        </lyric>
        <lyric number="5">
          <text>nannannan</text>
        </lyric>
      </note>
    </measure>
    <measure number="51">
      <attributes>
        <time>
          <beats>4</beats>
          <beat-type>4</beat-type>
        </time>
      </attributes>
      <note>
        <pitch>
          <step>D</step>
          <octave>4</octave>
        </pitch>
        <duration>2</duration>
        <type>eighth</type>
        <lyric number="1">
          <text>都</text>
        </lyric>
        <lyric number="2">
          <text>和</text>
        </lyric>
        <lyric number="3">
          <text>音</text>
        </lyric>
        <lyric number="4">
          <text>[未击中:[未击中:旷]]</text>
        </lyric>
      </note>
      <note>
        <pitch>
          <step>C</step>
          <octave>4</octave>
        </pitch>
        <duration>1</duration>
        <type>16th</type>
        <lyric number="1">
          <text>会</text>
        </lyric>
        <lyric number="2">
          <text>看</text>
        </lyric>
        <lyric number="3">
          <text>nannan</text>
        </lyric>
        <lyric number="4">
          <text>nan</text>
        </lyric>
        <lyric number="5">
          <text>哥</text>
        </lyric>
        <lyric number="6">
          <text>鞍</text>
        </lyric>
      </note>
      <note>
        <pitch>
          <step>D</step>
          <octave>4</octave>
        </pitch>
        <duration>1</duration>
        <type>16th</type>
        <lyric number="1">
          <text>管</text>
        </lyric>
        <lyric number="2">
          <text>nannan</text>
        </lyric>
        <lyric number="3">
          <text>刀</text>
        </lyric>
        <lyric number="4">
          <text>nan</text>
        </lyric>
        <lyric number="5">
          <text>世</text>
        </lyric>
        <lyric number="6">
          <text>nan</text>
        </lyric>
      </note>
      <note>
        <pitch>
          <step>E</step>
          <octave>4</octave>
        </pitch>
        <duration>4</duration>
        <type>quarter</type>
        <lyric number="1">
          <text>返</text>
        </lyric>
        <lyric number="2">
          <text>的意思</text>
        </lyric>
        <lyric number="3">
          <text>妥</text>
        </lyric>
        <lyric number="4">
          <text>戈</text>
        </lyric>
      </note>
    </measure>
    <measure number="52">
      <attributes>
        <time>
          <beats>4</beats>
          <beat-type>4</beat-type>
        </time>
      </attributes>
      <note>
        <pitch>
          <step>D</step>
          <octave>4</octave>
        </pitch>
        <duration>2</duration>
        <type>eighth</type>
        <lyric number="1">
          <text>刘</text>
        </lyric>
        <lyric number="2">
          <text>鹅</text>
        </lyric>
        <lyric number="3">
          <text>[未击中:卜]</text>
        </lyric>
        <lyric number="4">
          <text>nannannan</text>
        </lyric>
        <lyric number="5">
          <text>nan云nan</text>
        </lyric>
      </note>
      <note>
        <pitch>
          <step>G</step>
          <octave>4</octave>
        </pitch>
        <duration>2</duration>
        <type>eighth</type>
        <lyric number="1">
          <text>永</text>
        </lyric>
        <lyric number="2">
          <text>挪</text>
        </lyric>
      </note>
      <note>
        <pitch>
          <step>E</step>
          <octave>4</octave>
        </pitch>
        <duration>2</duration>
        <type>eighth</type>
        <lyric number="1">
          <text>做</text>
        </lyric>
        <lyric number="2">
          <text>罗</text>
        </lyric>
        <lyric number="3">
          <text>俄[未击中:卜]</text>
        </lyric>
        <lyric number="4">
          <text>欲nan</text>
        </lyric>
      </note>
      <note>
        <pitch>
          <step>E</step>
          <octave>4</octave>
        </pitch>
        <duration>1</duration>
        <type>16th</type>
        <lyric number="1">
          <text>官</text>
        </lyric>
        <lyric number="2">
          <text>[未击中:[未击中:旷]]去</text>
        </lyric>
        <lyric number="3">
          <text>nannan</text>
        </lyric>
        <lyric number="4">
          <text>[未击中:[未击中:[未击中:[未击中:旷]]]][未击中:[未击中:[未击中:旷]]]</text>
        </lyric>
      </note>
      <note>
        <pitch>
          <step>D</step>
          <octave>4</octave>
        </pitch>
        <duration>1</duration>
        <type>16th</type>
        <lyric number="1">
          <text>哩</text>
        </lyric>
        <lyric number="2">
          <text>何</text>
        </lyric>
        <lyric number="3">
          <text>nan[未击中:卜]</text>
        </lyric>
        <lyric number="4">
          <text>nan</text>
        </lyric>
      </note>
    </measure>
    <measure number="53">
      <attributes>
        <time>
          <beats>4</beats>
          <beat-type>4</beat-type>
        </time>
      </attributes>
      <note>
        <pitch>
          <step>A</step>
          <octave>3</octave>
        </pitch>
        <duration>2</duration>
        <type>eighth</type>
        <lyric number="1">
          <text>nan</text>
        </lyric>
        <lyric number="2">
          <text>益[未击中:卜]</text>
        </lyric>
        <lyric number="3">
          <text>邑</text>
        </lyric>
      </note>
      <note>
        <pitch>
          <step>D</step>
          <octave>4</octave>
        </pitch>
        <duration>2</duration>
        <type>eighth</type>
        <lyric number="1">
          <text>返</text>
        </lyric>
      </note>
      <note>
        <pitch>
          <step>D</step>
          <octave>4</octave>
        </pitch>
        <duration>4</duration>
        <type>quarter</type>
        <lyric number="1">
          <text>圆</text>
        </lyric>
        <lyric number="2">
          <text>示nan</text>
        </lyric>
        <lyric number="3">
          <text>nannan</text>
        </lyric>
      </note>
    </measure>
    <measure number="54">
      <attributes>
        <time>
          <beats>4</beats>
          <beat-type>4</beat-type>
        </time>
      </attributes>
      <note>
        <pitch>
          <step>D</step>
          <octave>4</octave>
        </pitch>
        <duration>8</duration>
        <type>half</type>
      </note>
    </measure>
  </part>
</score-partwise>
