<?xml version='1.0' encoding='utf-8'?>
<score-partwise version="3.1">
  <work>
    <work-title>页面_song_859</work-title>
  </work>
  <part-list>
    <score-part id="P1">
      <part-name>简谱旋律</part-name>
    </score-part>
  </part-list>
  <part id="P1">
    <measure number="1">
      <attributes>
        <divisions>4</divisions>
        <key>
          <fifths>0</fifths>
        </key>
        <time>
          <beats>4</beats>
          <beat-type>4</beat-type>
        </time>
      </attributes>
      <note>
        <pitch>
          <step>D</step>
          <octave>4</octave>
        </pitch>
        <duration>4</duration>
        <type>quarter</type>
        <lyric number="1">
          <text>nan</text>
        </lyric>
        <lyric number="2">
          <text>去</text>
        </lyric>
        <lyric number="3">
          <text>从</text>
        </lyric>
        <lyric number="4">
          <text>一</text>
        </lyric>
        <lyric number="5">
          <text>不</text>
        </lyric>
        <lyric number="6">
          <text>文</text>
        </lyric>
      </note>
      <note>
        <pitch>
          <step>E</step>
          <octave>4</octave>
        </pitch>
        <duration>4</duration>
        <type>quarter</type>
        <lyric number="1">
          <text>海</text>
        </lyric>
        <lyric number="2">
          <text>年</text>
        </lyric>
        <lyric number="3">
          <text>此</text>
        </lyric>
        <lyric number="4">
          <text>横</text>
        </lyric>
        <lyric number="5">
          <text>烦</text>
        </lyric>
        <lyric number="6">
          <text>兰</text>
        </lyric>
      </note>
    </measure>
    <measure number="2">
      <attributes>
        <time>
          <beats>4</beats>
          <beat-type>4</beat-type>
        </time>
      </attributes>
      <note>
        <pitch>
          <step>D</step>
          <octave>4</octave>
        </pitch>
        <duration>4</duration>
        <type>quarter</type>
        <lyric number="1">
          <text>渔</text>
        </lyric>
        <lyric number="2">
          <text>夜</text>
        </lyric>
        <lyric number="3">
          <text>文</text>
        </lyric>
        <lyric number="4">
          <text>一</text>
        </lyric>
        <lyric number="5">
          <text>恼</text>
        </lyric>
        <lyric number="6">
          <text>从</text>
        </lyric>
      </note>
      <note>
        <pitch>
          <step>C</step>
          <octave>4</octave>
        </pitch>
        <duration>3</duration>
        <type>eighth</type>
        <dot />
        <lyric number="1">
          <text>民</text>
        </lyric>
        <lyric number="2">
          <text>校</text>
        </lyric>
        <lyric number="3">
          <text>兰</text>
        </lyric>
        <lyric number="4">
          <text>竖</text>
        </lyric>
        <lyric number="5">
          <text>来</text>
        </lyric>
        <lyric number="6">
          <text>此</text>
        </lyric>
      </note>
      <note>
        <pitch>
          <step>A</step>
          <octave>3</octave>
        </pitch>
        <duration>1</duration>
        <type>16th</type>
      </note>
    </measure>
    <measure number="3">
      <attributes>
        <time>
          <beats>4</beats>
          <beat-type>4</beat-type>
        </time>
      </attributes>
      <note>
        <pitch>
          <step>G</step>
          <octave>3</octave>
        </pitch>
        <duration>4</duration>
        <type>quarter</type>
        <lyric number="1">
          <text>周</text>
        </lyric>
        <lyric number="2">
          <text>动</text>
        </lyric>
        <lyric number="3">
          <text>成</text>
        </lyric>
        <lyric number="4">
          <text>各</text>
        </lyric>
        <lyric number="5">
          <text>不</text>
        </lyric>
        <lyric number="6">
          <text>更</text>
        </lyric>
      </note>
      <note>
        <pitch>
          <step>D</step>
          <octave>4</octave>
        </pitch>
        <duration>2</duration>
        <type>eighth</type>
        <lyric number="1">
          <text>文</text>
        </lyric>
        <lyric number="2">
          <text>员</text>
        </lyric>
        <lyric number="3">
          <text>书</text>
        </lyric>
        <lyric number="4">
          <text>分</text>
        </lyric>
        <lyric number="5">
          <text>灰</text>
        </lyric>
        <lyric number="6">
          <text>贤</text>
        </lyric>
      </note>
      <note>
        <pitch>
          <step>C</step>
          <octave>4</octave>
        </pitch>
        <duration>2</duration>
        <type>eighth</type>
        <lyric number="1">
          <text>啊</text>
        </lyric>
        <lyric number="2">
          <text>啊</text>
        </lyric>
        <lyric number="3">
          <text>啊</text>
        </lyric>
        <lyric number="4">
          <text>啊</text>
        </lyric>
        <lyric number="5">
          <text>啊</text>
        </lyric>
      </note>
    </measure>
    <measure number="4">
      <attributes>
        <time>
          <beats>4</beats>
          <beat-type>4</beat-type>
        </time>
      </attributes>
      <note>
        <pitch>
          <step>D</step>
          <octave>4</octave>
        </pitch>
        <duration>4</duration>
        <type>quarter</type>
        <lyric number="1">
          <text>兰</text>
        </lyric>
        <lyric number="2">
          <text>伊</text>
        </lyric>
        <lyric number="3">
          <text>童</text>
        </lyric>
        <lyric number="4">
          <text>家</text>
        </lyric>
        <lyric number="5">
          <text>心[未击中:[未击中:[未击中:[未击中:[未击中:[未击中:麷]]]]]]</text>
        </lyric>
        <lyric number="6">
          <text>慧</text>
        </lyric>
      </note>
      <note>
        <pitch>
          <step>D</step>
          <octave>4</octave>
        </pitch>
        <duration>4</duration>
        <type>quarter</type>
        <lyric number="1">
          <text>啊</text>
        </lyric>
        <lyric number="2">
          <text>啊</text>
        </lyric>
        <lyric number="3">
          <text>啊</text>
        </lyric>
        <lyric number="4">
          <text>啊</text>
        </lyric>
        <lyric number="5">
          <text>啊</text>
        </lyric>
        <lyric number="6">
          <text>啊</text>
        </lyric>
      </note>
    </measure>
    <measure number="5">
      <attributes>
        <time>
          <beats>4</beats>
          <beat-type>4</beat-type>
        </time>
      </attributes>
      <note>
        <pitch>
          <step>D</step>
          <octave>4</octave>
        </pitch>
        <duration>6</duration>
        <type>quarter</type>
        <dot />
      </note>
      <note>
        <pitch>
          <step>C</step>
          <octave>4</octave>
        </pitch>
        <duration>2</duration>
        <type>eighth</type>
      </note>
    </measure>
    <measure number="6">
      <attributes>
        <time>
          <beats>4</beats>
          <beat-type>4</beat-type>
        </time>
      </attributes>
      <note>
        <pitch>
          <step>A</step>
          <octave>3</octave>
        </pitch>
        <duration>2</duration>
        <type>eighth</type>
        <lyric number="1">
          <text>双</text>
        </lyric>
        <lyric number="2">
          <text>文</text>
        </lyric>
        <lyric number="3">
          <text>日</text>
        </lyric>
        <lyric number="4">
          <text>一</text>
        </lyric>
        <lyric number="5">
          <text>宇</text>
        </lyric>
        <lyric number="6">
          <text>双</text>
        </lyric>
      </note>
      <note>
        <pitch>
          <step>D</step>
          <octave>4</octave>
        </pitch>
        <duration>2</duration>
        <type>eighth</type>
        <lyric number="1">
          <text>目</text>
        </lyric>
        <lyric number="2">
          <text>兰</text>
        </lyric>
        <lyric number="3">
          <text>间</text>
        </lyric>
        <lyric number="4">
          <text>划</text>
        </lyric>
        <lyric number="5">
          <text>宇</text>
        </lyric>
        <lyric number="6">
          <text>目</text>
        </lyric>
      </note>
      <note>
        <pitch>
          <step>C</step>
          <octave>4</octave>
        </pitch>
        <duration>2</duration>
        <type>eighth</type>
        <lyric number="1">
          <text>金</text>
        </lyric>
        <lyric number="2">
          <text>听</text>
        </lyric>
        <lyric number="3">
          <text>劳</text>
        </lyric>
        <lyric number="4">
          <text>一</text>
        </lyric>
        <lyric number="5">
          <text>苦</text>
        </lyric>
        <lyric number="6">
          <text>比</text>
        </lyric>
      </note>
      <note>
        <pitch>
          <step>G</step>
          <octave>3</octave>
        </pitch>
        <duration>2</duration>
        <type>eighth</type>
        <lyric number="1">
          <text>金</text>
        </lyric>
        <lyric number="2">
          <text>着</text>
        </lyric>
        <lyric number="3">
          <text>动</text>
        </lyric>
        <lyric number="4">
          <text>撇</text>
        </lyric>
        <lyric number="5">
          <text>写</text>
        </lyric>
        <lyric number="6">
          <text>前</text>
        </lyric>
      </note>
    </measure>
    <measure number="7">
      <attributes>
        <time>
          <beats>4</beats>
          <beat-type>4</beat-type>
        </time>
      </attributes>
      <note>
        <pitch>
          <step>A</step>
          <octave>3</octave>
        </pitch>
        <duration>6</duration>
        <type>quarter</type>
        <dot />
        <lyric number="1">
          <text>啊</text>
        </lyric>
        <lyric number="2">
          <text>啊</text>
        </lyric>
        <lyric number="3">
          <text>啊</text>
        </lyric>
        <lyric number="4">
          <text>啊</text>
        </lyric>
        <lyric number="5">
          <text>啊</text>
        </lyric>
      </note>
      <note>
        <pitch>
          <step>G</step>
          <octave>3</octave>
        </pitch>
        <duration>2</duration>
        <type>eighth</type>
      </note>
    </measure>
    <measure number="8">
      <attributes>
        <time>
          <beats>4</beats>
          <beat-type>4</beat-type>
        </time>
      </attributes>
      <note>
        <pitch>
          <step>G</step>
          <octave>3</octave>
        </pitch>
        <duration>4</duration>
        <type>quarter</type>
        <lyric number="1">
          <text>做</text>
        </lyric>
        <lyric number="2">
          <text>笑</text>
        </lyric>
        <lyric number="3">
          <text>夜</text>
        </lyric>
        <lyric number="4">
          <text>如</text>
        </lyric>
        <lyric number="5">
          <text>细</text>
        </lyric>
        <lyric number="6">
          <text>光</text>
        </lyric>
      </note>
      <note>
        <pitch>
          <step>D</step>
          <octave>4</octave>
        </pitch>
        <duration>2</duration>
        <type>eighth</type>
        <lyric number="1">
          <text>文</text>
        </lyric>
        <lyric number="2">
          <text>嘻</text>
        </lyric>
        <lyric number="3">
          <text>来</text>
        </lyric>
        <lyric number="4">
          <text>蟹</text>
        </lyric>
        <lyric number="5">
          <text>心</text>
        </lyric>
        <lyric number="6">
          <text>十</text>
        </lyric>
      </note>
      <note>
        <pitch>
          <step>B</step>
          <octave>3</octave>
        </pitch>
        <duration>1</duration>
        <type>16th</type>
        <lyric number="1">
          <text>啊</text>
        </lyric>
        <lyric number="2">
          <text>啊</text>
        </lyric>
        <lyric number="3">
          <text>啊</text>
        </lyric>
        <lyric number="4">
          <text>啊</text>
        </lyric>
        <lyric number="5">
          <text>啊</text>
        </lyric>
        <lyric number="6">
          <text>啊</text>
        </lyric>
      </note>
      <note>
        <pitch>
          <step>C</step>
          <octave>4</octave>
        </pitch>
        <duration>1</duration>
        <type>16th</type>
      </note>
    </measure>
    <measure number="9">
      <attributes>
        <time>
          <beats>4</beats>
          <beat-type>4</beat-type>
        </time>
      </attributes>
      <note>
        <pitch>
          <step>C</step>
          <octave>4</octave>
        </pitch>
        <duration>8</duration>
        <type>half</type>
        <lyric number="1">
          <text>盲</text>
        </lyric>
        <lyric number="2">
          <text>嘻</text>
        </lyric>
        <lyric number="3">
          <text>诵</text>
        </lyric>
        <lyric number="4">
          <text>爬</text>
        </lyric>
        <lyric number="5">
          <text>识</text>
        </lyric>
        <lyric number="6">
          <text>倍</text>
        </lyric>
      </note>
    </measure>
    <measure number="10">
      <attributes>
        <time>
          <beats>4</beats>
          <beat-type>4</beat-type>
        </time>
      </attributes>
      <note>
        <pitch>
          <step>G</step>
          <octave>3</octave>
        </pitch>
        <duration>4</duration>
        <type>quarter</type>
        <lyric number="1">
          <text>nan</text>
        </lyric>
        <lyric number="2">
          <text>我</text>
        </lyric>
        <lyric number="3">
          <text>开</text>
        </lyric>
        <lyric number="4">
          <text>斑</text>
        </lyric>
        <lyric number="5">
          <text>苦</text>
        </lyric>
        <lyric number="6">
          <text>看</text>
        </lyric>
      </note>
      <note>
        <pitch>
          <step>D</step>
          <octave>4</octave>
        </pitch>
        <duration>2</duration>
        <type>eighth</type>
        <lyric number="1">
          <text>读</text>
        </lyric>
        <lyric number="2">
          <text>今</text>
        </lyric>
        <lyric number="3">
          <text>头</text>
        </lyric>
        <lyric number="4">
          <text>点</text>
        </lyric>
        <lyric number="5">
          <text>学nan</text>
        </lyric>
        <lyric number="6">
          <text>报</text>
        </lyric>
      </note>
      <note>
        <pitch>
          <step>C</step>
          <octave>4</octave>
        </pitch>
        <duration>2</duration>
        <type>eighth</type>
        <lyric number="1">
          <text>啊</text>
        </lyric>
        <lyric number="2">
          <text>啊</text>
        </lyric>
        <lyric number="3">
          <text>啊</text>
        </lyric>
        <lyric number="4">
          <text>啊</text>
        </lyric>
        <lyric number="5">
          <text>啊</text>
        </lyric>
        <lyric number="6">
          <text>啊</text>
        </lyric>
      </note>
    </measure>
    <measure number="11">
      <attributes>
        <time>
          <beats>4</beats>
          <beat-type>4</beat-type>
        </time>
      </attributes>
      <note>
        <pitch>
          <step>G</step>
          <octave>3</octave>
        </pitch>
        <duration>2</duration>
        <type>eighth</type>
        <lyric number="1">
          <text>报</text>
        </lyric>
        <lyric number="2">
          <text>三</text>
        </lyric>
        <lyric number="3">
          <text>难</text>
        </lyric>
        <lyric number="4">
          <text>点</text>
        </lyric>
        <lyric number="5">
          <text>一</text>
        </lyric>
        <lyric number="6">
          <text>通</text>
        </lyric>
      </note>
      <note>
        <pitch>
          <step>C</step>
          <octave>4</octave>
        </pitch>
        <duration>2</duration>
        <type>eighth</type>
      </note>
      <note>
        <pitch>
          <step>C</step>
          <octave>4</octave>
        </pitch>
        <duration>2</duration>
        <type>eighth</type>
        <lyric number="1">
          <text>纸</text>
        </lyric>
        <lyric number="2">
          <text>十</text>
        </lyric>
        <lyric number="3">
          <text>写</text>
        </lyric>
        <lyric number="4">
          <text>来</text>
        </lyric>
        <lyric number="5">
          <text>年</text>
        </lyric>
        <lyric number="6">
          <text>晓</text>
        </lyric>
      </note>
      <note>
        <pitch>
          <step>G</step>
          <octave>3</octave>
        </pitch>
        <duration>2</duration>
        <type>eighth</type>
        <lyric number="1">
          <text>哆</text>
        </lyric>
        <lyric number="2">
          <text>哆</text>
        </lyric>
        <lyric number="3">
          <text>哆</text>
        </lyric>
        <lyric number="4">
          <text>哆</text>
        </lyric>
        <lyric number="5">
          <text>哆</text>
        </lyric>
        <lyric number="6">
          <text>哆</text>
        </lyric>
      </note>
    </measure>
    <measure number="12">
      <attributes>
        <time>
          <beats>4</beats>
          <beat-type>4</beat-type>
        </time>
      </attributes>
      <note>
        <pitch>
          <step>G</step>
          <octave>3</octave>
        </pitch>
        <duration>4</duration>
        <type>quarter</type>
        <lyric number="1">
          <text>[未击中:藝]</text>
        </lyric>
        <lyric number="2">
          <text>读</text>
        </lyric>
        <lyric number="3">
          <text>又</text>
        </lyric>
        <lyric number="4">
          <text>像</text>
        </lyric>
        <lyric number="5">
          <text>有</text>
        </lyric>
        <lyric number="6">
          <text>天</text>
        </lyric>
      </note>
      <note>
        <pitch>
          <step>A</step>
          <octave>3</octave>
        </pitch>
        <duration>2</duration>
        <type>eighth</type>
        <lyric number="1">
          <text>读</text>
        </lyric>
        <lyric number="2">
          <text>书</text>
        </lyric>
        <lyric number="3">
          <text>难</text>
        </lyric>
        <lyric number="4">
          <text>蚂</text>
        </lyric>
        <lyric number="5">
          <text>文</text>
        </lyric>
        <lyric number="6">
          <text>下</text>
        </lyric>
      </note>
      <note>
        <pitch>
          <step>C</step>
          <octave>4</octave>
        </pitch>
        <duration>2</duration>
        <type>eighth</type>
        <lyric number="1">
          <text>啊</text>
        </lyric>
        <lyric number="2">
          <text>啊</text>
        </lyric>
        <lyric number="3">
          <text>啊</text>
        </lyric>
        <lyric number="4">
          <text>啊</text>
        </lyric>
        <lyric number="5">
          <text>啊</text>
        </lyric>
      </note>
    </measure>
    <measure number="13">
      <attributes>
        <time>
          <beats>4</beats>
          <beat-type>4</beat-type>
        </time>
      </attributes>
      <note>
        <pitch>
          <step>G</step>
          <octave>3</octave>
        </pitch>
        <duration>2</duration>
        <type>eighth</type>
        <lyric number="1">
          <text>册</text>
        </lyric>
        <lyric number="2">
          <text>去</text>
        </lyric>
        <lyric number="3">
          <text>懂</text>
        </lyric>
        <lyric number="4">
          <text>蚁</text>
        </lyric>
        <lyric number="5">
          <text>墨</text>
        </lyric>
        <lyric number="6">
          <text>事</text>
        </lyric>
      </note>
      <note>
        <pitch>
          <step>A</step>
          <octave>3</octave>
        </pitch>
        <duration>2</duration>
        <type>eighth</type>
      </note>
      <note>
        <pitch>
          <step>G</step>
          <octave>3</octave>
        </pitch>
        <duration>2</duration>
        <type>eighth</type>
        <lyric number="1">
          <text>啊</text>
        </lyric>
        <lyric number="2">
          <text>啊</text>
        </lyric>
        <lyric number="3">
          <text>啊</text>
        </lyric>
        <lyric number="4">
          <text>啊</text>
        </lyric>
        <lyric number="5">
          <text>啊</text>
        </lyric>
        <lyric number="6">
          <text>啊</text>
        </lyric>
      </note>
      <note>
        <rest />
        <duration>2</duration>
        <type>eighth</type>
      </note>
    </measure>
    <measure number="14">
      <attributes>
        <time>
          <beats>4</beats>
          <beat-type>4</beat-type>
        </time>
      </attributes>
      <note>
        <pitch>
          <step>A</step>
          <octave>3</octave>
        </pitch>
        <duration>4</duration>
        <type>quarter</type>
        <lyric number="1">
          <text>一</text>
        </lyric>
        <lyric number="2">
          <text>三</text>
        </lyric>
        <lyric number="3">
          <text>提</text>
        </lyric>
        <lyric number="4">
          <text>黑</text>
        </lyric>
        <lyric number="5">
          <text>会</text>
        </lyric>
        <lyric number="6">
          <text>学</text>
        </lyric>
      </note>
      <note>
        <pitch>
          <step>D</step>
          <octave>4</octave>
        </pitch>
        <duration>4</duration>
        <type>quarter</type>
        <lyric number="1">
          <text>字</text>
        </lyric>
        <lyric number="2">
          <text>十</text>
        </lyric>
        <lyric number="3">
          <text>起</text>
        </lyric>
        <lyric number="4">
          <text>糊</text>
        </lyric>
        <lyric number="5">
          <text>看</text>
        </lyric>
        <lyric number="6">
          <text>习</text>
        </lyric>
      </note>
    </measure>
    <measure number="15">
      <attributes>
        <time>
          <beats>4</beats>
          <beat-type>4</beat-type>
        </time>
      </attributes>
      <note>
        <pitch>
          <step>D</step>
          <octave>4</octave>
        </pitch>
        <duration>2</duration>
        <type>eighth</type>
        <lyric number="1">
          <text>唔</text>
        </lyric>
        <lyric number="2">
          <text>读</text>
        </lyric>
        <lyric number="3">
          <text>笔</text>
        </lyric>
        <lyric number="4">
          <text>糊</text>
        </lyric>
        <lyric number="5">
          <text>报</text>
        </lyric>
        <lyric number="6">
          <text>技</text>
        </lyric>
      </note>
      <note>
        <pitch>
          <step>C</step>
          <octave>4</octave>
        </pitch>
        <duration>4</duration>
        <type>quarter</type>
        <lyric number="1">
          <text>啊</text>
        </lyric>
        <lyric number="2">
          <text>啊</text>
        </lyric>
        <lyric number="3">
          <text>啊</text>
        </lyric>
        <lyric number="4">
          <text>啊</text>
        </lyric>
        <lyric number="5">
          <text>啊</text>
        </lyric>
        <lyric number="6">
          <text>啊</text>
        </lyric>
      </note>
      <note>
        <pitch>
          <step>A</step>
          <octave>3</octave>
        </pitch>
        <duration>2</duration>
        <type>eighth</type>
      </note>
    </measure>
    <measure number="16">
      <attributes>
        <time>
          <beats>4</beats>
          <beat-type>4</beat-type>
        </time>
      </attributes>
      <note>
        <pitch>
          <step>C</step>
          <octave>4</octave>
        </pitch>
        <duration>2</duration>
        <type>eighth</type>
        <lyric number="1">
          <text>识</text>
        </lyric>
        <lyric number="2">
          <text>书</text>
        </lyric>
        <lyric number="3">
          <text>来</text>
        </lyric>
        <lyric number="4">
          <text>来</text>
        </lyric>
        <lyric number="5">
          <text>来</text>
        </lyric>
        <lyric number="6">
          <text>术</text>
        </lyric>
      </note>
      <note>
        <pitch>
          <step>G</step>
          <octave>3</octave>
        </pitch>
        <duration>2</duration>
        <type>eighth</type>
        <lyric number="1">
          <text>啊</text>
        </lyric>
        <lyric number="2">
          <text>啊</text>
        </lyric>
        <lyric number="3">
          <text>啊</text>
        </lyric>
        <lyric number="4">
          <text>啊</text>
        </lyric>
        <lyric number="5">
          <text>啊</text>
        </lyric>
      </note>
      <note>
        <rest />
        <duration>2</duration>
        <type>eighth</type>
      </note>
      <note>
        <pitch>
          <step>A</step>
          <octave>3</octave>
        </pitch>
        <duration>2</duration>
        <type>eighth</type>
        <lyric number="1">
          <text>哆</text>
        </lyric>
        <lyric number="2">
          <text>哆</text>
        </lyric>
        <lyric number="3">
          <text>哆</text>
        </lyric>
        <lyric number="4">
          <text>哆</text>
        </lyric>
        <lyric number="5">
          <text>哆</text>
        </lyric>
        <lyric number="6">
          <text>哆</text>
        </lyric>
      </note>
    </measure>
    <measure number="17">
      <attributes>
        <time>
          <beats>4</beats>
          <beat-type>4</beat-type>
        </time>
      </attributes>
      <note>
        <pitch>
          <step>C</step>
          <octave>4</octave>
        </pitch>
        <duration>2</duration>
        <type>eighth</type>
        <lyric number="1">
          <text>苦</text>
        </lyric>
        <lyric number="2">
          <text>似</text>
        </lyric>
        <lyric number="3">
          <text>千</text>
        </lyric>
        <lyric number="4">
          <text>像</text>
        </lyric>
        <lyric number="5">
          <text>会</text>
        </lyric>
        <lyric number="6">
          <text>也</text>
        </lyric>
      </note>
      <note>
        <pitch>
          <step>A</step>
          <octave>3</octave>
        </pitch>
        <duration>2</duration>
        <type>eighth</type>
      </note>
      <note>
        <pitch>
          <step>G</step>
          <octave>3</octave>
        </pitch>
        <duration>2</duration>
        <type>eighth</type>
        <lyric number="1">
          <text>难</text>
        </lyric>
        <lyric number="2">
          <text>少</text>
        </lyric>
        <lyric number="3">
          <text>斤</text>
        </lyric>
        <lyric number="4">
          <text>田</text>
        </lyric>
        <lyric number="5">
          <text>写</text>
        </lyric>
        <lyric number="6">
          <text>易</text>
        </lyric>
      </note>
      <note>
        <pitch>
          <step>C</step>
          <octave>4</octave>
        </pitch>
        <duration>2</duration>
        <type>eighth</type>
        <lyric number="1">
          <text>啊</text>
        </lyric>
        <lyric number="2">
          <text>啊</text>
        </lyric>
        <lyric number="3">
          <text>啊</text>
        </lyric>
        <lyric number="4">
          <text>啊</text>
        </lyric>
      </note>
    </measure>
    <measure number="18">
      <attributes>
        <time>
          <beats>4</beats>
          <beat-type>4</beat-type>
        </time>
      </attributes>
      <note>
        <pitch>
          <step>C</step>
          <octave>4</octave>
        </pitch>
        <duration>8</duration>
        <type>half</type>
        <lyric number="1">
          <text>言</text>
        </lyric>
        <lyric number="2">
          <text>年</text>
        </lyric>
        <lyric number="3">
          <text>重</text>
        </lyric>
        <lyric number="4">
          <text>螺</text>
        </lyric>
        <lyric number="5">
          <text>信</text>
        </lyric>
        <lyric number="6">
          <text>nan</text>
        </lyric>
      </note>
    </measure>
  </part>
</score-partwise>
