<?xml version='1.0' encoding='utf-8'?>
<score-partwise version="3.1">
  <work>
    <work-title>页面_song_881</work-title>
  </work>
  <part-list>
    <score-part id="P1">
      <part-name>简谱旋律</part-name>
    </score-part>
  </part-list>
  <part id="P1">
    <measure number="1">
      <attributes>
        <divisions>4</divisions>
        <key>
          <fifths>0</fifths>
        </key>
        <time>
          <beats>4</beats>
          <beat-type>4</beat-type>
        </time>
      </attributes>
      <note>
        <rest />
        <duration>2</duration>
        <type>eighth</type>
      </note>
      <note>
        <pitch>
          <step>G</step>
          <octave>4</octave>
        </pitch>
        <duration>1</duration>
        <type>16th</type>
        <lyric number="1">
          <text>我</text>
        </lyric>
        <lyric number="2">
          <text>nan</text>
        </lyric>
      </note>
      <note>
        <pitch>
          <step>A</step>
          <octave>4</octave>
        </pitch>
        <duration>1</duration>
        <type>16th</type>
        <lyric number="1">
          <text>nan</text>
        </lyric>
        <lyric number="2">
          <text>nannan[未击中:[未击中:愊]]nan</text>
        </lyric>
      </note>
    </measure>
    <measure number="2">
      <attributes>
        <time>
          <beats>4</beats>
          <beat-type>4</beat-type>
        </time>
      </attributes>
      <note>
        <pitch>
          <step>G</step>
          <octave>4</octave>
        </pitch>
        <duration>2</duration>
        <type>eighth</type>
        <lyric number="1">
          <text>正</text>
        </lyric>
      </note>
      <note>
        <pitch>
          <step>E</step>
          <octave>4</octave>
        </pitch>
        <duration>2</duration>
        <type>eighth</type>
        <lyric number="1">
          <text>月</text>
        </lyric>
        <lyric number="2">
          <text>[未击中:小]</text>
        </lyric>
        <lyric number="3">
          <text>nan</text>
        </lyric>
      </note>
      <note>
        <pitch>
          <step>A</step>
          <octave>4</octave>
        </pitch>
        <duration>1</duration>
        <type>16th</type>
        <lyric number="1">
          <text>去</text>
        </lyric>
        <lyric number="2">
          <text>[未击中:小]</text>
        </lyric>
        <lyric number="3">
          <text>[未击中:昁]</text>
        </lyric>
      </note>
      <note>
        <pitch>
          <step>G</step>
          <octave>4</octave>
        </pitch>
        <duration>1</duration>
        <type>16th</type>
        <lyric number="1">
          <text>[未击中:[未击中:[未击中:愊]]]</text>
        </lyric>
      </note>
      <note>
        <pitch>
          <step>A</step>
          <octave>4</octave>
        </pitch>
        <duration>2</duration>
        <type>eighth</type>
        <tie type="start" />
        <lyric number="1">
          <text>做</text>
        </lyric>
        <lyric number="2">
          <text>[未击中:[未击中:愊]]</text>
        </lyric>
      </note>
      <note>
        <pitch>
          <step>B</step>
          <octave>4</octave>
        </pitch>
        <duration>1</duration>
        <type>16th</type>
        <lyric number="1">
          <text>[未击中:小][未击中:小][未击中:小]</text>
        </lyric>
        <lyric number="2">
          <text>[未击中:昁][未击中:昁][未击中:昁]</text>
        </lyric>
      </note>
      <note>
        <pitch>
          <step>A</step>
          <octave>4</octave>
        </pitch>
        <duration>1</duration>
        <type>16th</type>
        <tie type="stop" />
      </note>
    </measure>
    <measure number="3">
      <attributes>
        <time>
          <beats>4</beats>
          <beat-type>4</beat-type>
        </time>
      </attributes>
      <note>
        <pitch>
          <step>G</step>
          <octave>4</octave>
        </pitch>
        <duration>6</duration>
        <type>quarter</type>
        <dot />
        <tie type="stop" />
        <lyric number="1">
          <text>工</text>
        </lyric>
      </note>
      <note>
        <pitch>
          <step>E</step>
          <octave>4</octave>
        </pitch>
        <duration>1</duration>
        <type>16th</type>
      </note>
      <note>
        <pitch>
          <step>G</step>
          <octave>4</octave>
        </pitch>
        <duration>7</duration>
        <type>quarter</type>
        <tie type="start" />
        <lyric number="1">
          <text>nannan</text>
        </lyric>
      </note>
    </measure>
    <measure number="4">
      <attributes>
        <time>
          <beats>4</beats>
          <beat-type>4</beat-type>
        </time>
      </attributes>
      <note>
        <pitch>
          <step>D</step>
          <octave>4</octave>
        </pitch>
        <duration>2</duration>
        <type>eighth</type>
        <lyric number="1">
          <text>单</text>
        </lyric>
        <lyric number="2">
          <text>[未击中:小]</text>
        </lyric>
        <lyric number="3">
          <text>[未击中:昁][未击中:[未击中:[未击中:苏]]]</text>
        </lyric>
      </note>
      <note>
        <pitch>
          <step>A</step>
          <octave>3</octave>
        </pitch>
        <duration>1</duration>
        <type>16th</type>
        <lyric number="1">
          <text>手</text>
        </lyric>
      </note>
      <note>
        <pitch>
          <step>B</step>
          <octave>3</octave>
        </pitch>
        <duration>1</duration>
        <type>16th</type>
      </note>
      <note>
        <pitch>
          <step>E</step>
          <octave>4</octave>
        </pitch>
        <duration>1</duration>
        <type>16th</type>
        <lyric number="1">
          <text>舀</text>
        </lyric>
        <lyric number="2">
          <text>[未击中:小]nan</text>
        </lyric>
        <lyric number="3">
          <text>[未击中:昁]</text>
        </lyric>
      </note>
      <note>
        <pitch>
          <step>G</step>
          <octave>4</octave>
        </pitch>
        <duration>1</duration>
        <type>16th</type>
      </note>
      <note>
        <pitch>
          <step>D</step>
          <octave>4</octave>
        </pitch>
        <duration>2</duration>
        <type>eighth</type>
        <lyric number="1">
          <text>饭</text>
        </lyric>
        <lyric number="2">
          <text>nan</text>
        </lyric>
      </note>
    </measure>
    <measure number="5">
      <attributes>
        <time>
          <beats>4</beats>
          <beat-type>4</beat-type>
        </time>
      </attributes>
      <note>
        <pitch>
          <step>D</step>
          <octave>4</octave>
        </pitch>
        <duration>2</duration>
        <type>eighth</type>
        <lyric number="1">
          <text>双</text>
        </lyric>
      </note>
      <note>
        <pitch>
          <step>E</step>
          <octave>4</octave>
        </pitch>
        <duration>1</duration>
        <type>16th</type>
        <lyric number="1">
          <text>手</text>
        </lyric>
        <lyric number="2">
          <text>这</text>
        </lyric>
        <lyric number="3">
          <text>nan</text>
        </lyric>
      </note>
      <note>
        <pitch>
          <step>G</step>
          <octave>4</octave>
        </pitch>
        <duration>1</duration>
        <type>16th</type>
        <lyric number="1">
          <text>是</text>
        </lyric>
        <lyric number="2">
          <text>nan</text>
        </lyric>
      </note>
      <note>
        <pitch>
          <step>G</step>
          <octave>4</octave>
        </pitch>
        <duration>2</duration>
        <type>eighth</type>
        <lyric number="1">
          <text>捧</text>
        </lyric>
        <lyric number="2">
          <text>nan我</text>
        </lyric>
        <lyric number="3">
          <text>nan我</text>
        </lyric>
        <lyric number="4">
          <text>nan我</text>
        </lyric>
        <lyric number="5">
          <text>渔民</text>
        </lyric>
        <lyric number="6">
          <text>nan[未击中:嗬]</text>
        </lyric>
      </note>
      <note>
        <pitch>
          <step>G</step>
          <octave>4</octave>
        </pitch>
        <duration>2</duration>
        <type>eighth</type>
        <lyric number="1">
          <text>啊</text>
        </lyric>
        <lyric number="2">
          <text>三</text>
        </lyric>
        <lyric number="3">
          <text>着</text>
        </lyric>
        <lyric number="4">
          <text>起</text>
        </lyric>
        <lyric number="5">
          <text>着</text>
        </lyric>
        <lyric number="6">
          <text>四</text>
        </lyric>
        <lyric number="7">
          <text>起</text>
        </lyric>
        <lyric number="8">
          <text>索一</text>
        </lyric>
        <lyric number="9">
          <text>五月</text>
        </lyric>
        <lyric number="10">
          <text>芒缚</text>
        </lyric>
        <lyric number="11">
          <text>家大</text>
        </lyric>
        <lyric number="12">
          <text>工阿</text>
        </lyric>
        <lyric number="13">
          <text>在诉</text>
        </lyric>
        <lyric number="14">
          <text>里不</text>
        </lyric>
      </note>
      <note>
        <rest />
        <duration>4</duration>
        <type>quarter</type>
        <lyric number="1">
          <text>月去</text>
        </lyric>
        <lyric number="2">
          <text>雨水</text>
        </lyric>
        <lyric number="3">
          <text>锄头</text>
        </lyric>
        <lyric number="4">
          <text>功夫</text>
        </lyric>
        <lyric number="5">
          <text>月去</text>
        </lyric>
        <lyric number="6">
          <text>藤索</text>
        </lyric>
        <lyric number="7">
          <text>断</text>
        </lyric>
        <lyric number="8">
          <text>割</text>
        </lyric>
        <lyric number="9">
          <text>粽</text>
        </lyric>
        <lyric number="10">
          <text>小吃</text>
        </lyric>
        <lyric number="11">
          <text>哥</text>
        </lyric>
        <lyric number="12">
          <text>苦会</text>
        </lyric>
        <lyric number="13">
          <text>说</text>
        </lyric>
      </note>
    </measure>
    <measure number="6">
      <attributes>
        <time>
          <beats>4</beats>
          <beat-type>4</beat-type>
        </time>
      </attributes>
      <note>
        <pitch>
          <step>C</step>
          <octave>4</octave>
        </pitch>
        <duration>2</duration>
        <type>eighth</type>
        <lyric number="1">
          <text>我</text>
        </lyric>
        <lyric number="2">
          <text>巡</text>
        </lyric>
        <lyric number="3">
          <text>白</text>
        </lyric>
        <lyric number="4">
          <text>对</text>
        </lyric>
        <lyric number="5">
          <text>真</text>
        </lyric>
        <lyric number="6">
          <text>抽</text>
        </lyric>
        <lyric number="7">
          <text>相</text>
        </lyric>
        <lyric number="8">
          <text>吊颈</text>
        </lyric>
        <lyric number="9">
          <text>顿脚</text>
        </lyric>
        <lyric number="10">
          <text>香</text>
        </lyric>
        <lyric number="11">
          <text>粽米</text>
        </lyric>
        <lyric number="12">
          <text>nan到</text>
        </lyric>
        <lyric number="13">
          <text>嘴无</text>
        </lyric>
        <lyric number="14">
          <text>nan唱</text>
        </lyric>
      </note>
      <note>
        <pitch>
          <step>A</step>
          <octave>3</octave>
        </pitch>
        <duration>1</duration>
        <type>16th</type>
        <lyric number="1">
          <text>爸</text>
        </lyric>
        <lyric number="2">
          <text>田</text>
        </lyric>
        <lyric number="3">
          <text>茫</text>
        </lyric>
        <lyric number="4">
          <text>门</text>
        </lyric>
        <lyric number="5">
          <text>艰</text>
        </lyric>
        <lyric number="6">
          <text>藤</text>
        </lyric>
        <lyric number="7">
          <text>留</text>
        </lyric>
        <lyric number="8">
          <text>死</text>
        </lyric>
        <lyric number="9">
          <text>nan</text>
        </lyric>
        <lyric number="10">
          <text>芒</text>
        </lyric>
        <lyric number="11">
          <text>香</text>
        </lyric>
        <lyric number="12">
          <text>饱</text>
        </lyric>
        <lyric number="13">
          <text>呾</text>
        </lyric>
        <lyric number="14">
          <text>nan</text>
        </lyric>
        <lyric number="15">
          <text>的</text>
        </lyric>
      </note>
      <note>
        <pitch>
          <step>C</step>
          <octave>4</octave>
        </pitch>
        <duration>1</duration>
        <type>16th</type>
        <lyric number="1">
          <text>茫</text>
        </lyric>
        <lyric number="2">
          <text>岀</text>
        </lyric>
        <lyric number="3">
          <text>难</text>
        </lyric>
      </note>
      <note>
        <pitch>
          <step>E</step>
          <octave>3</octave>
        </pitch>
        <duration>1</duration>
        <type>16th</type>
        <lyric number="1">
          <text>会</text>
        </lyric>
        <lyric number="2">
          <text>nan</text>
        </lyric>
        <lyric number="3">
          <text>歌</text>
        </lyric>
      </note>
      <note>
        <pitch>
          <step>G</step>
          <octave>3</octave>
        </pitch>
        <duration>1</duration>
        <type>16th</type>
        <lyric number="1">
          <text>故</text>
        </lyric>
      </note>
      <note>
        <pitch>
          <step>A</step>
          <octave>3</octave>
        </pitch>
        <duration>2</duration>
        <type>eighth</type>
        <lyric number="1">
          <text>生</text>
        </lyric>
        <lyric number="2">
          <text>称</text>
        </lyric>
      </note>
      <note>
        <pitch>
          <step>G</step>
          <octave>3</octave>
        </pitch>
        <duration>2</duration>
        <type>eighth</type>
        <lyric number="1">
          <text>又</text>
        </lyric>
        <lyric number="2">
          <text>苦</text>
        </lyric>
      </note>
      <note>
        <pitch>
          <step>A</step>
          <octave>3</octave>
        </pitch>
        <duration>1</duration>
        <type>16th</type>
        <lyric number="1">
          <text>nan</text>
        </lyric>
        <lyric number="2">
          <text>调</text>
        </lyric>
      </note>
      <note>
        <pitch>
          <step>G</step>
          <octave>3</octave>
        </pitch>
        <duration>1</duration>
        <type>16th</type>
      </note>
    </measure>
    <measure number="7">
      <attributes>
        <time>
          <beats>4</beats>
          <beat-type>4</beat-type>
        </time>
      </attributes>
      <note>
        <pitch>
          <step>E</step>
          <octave>4</octave>
        </pitch>
        <duration>1</duration>
        <type>16th</type>
        <lyric number="1">
          <text>养</text>
        </lyric>
      </note>
      <note>
        <pitch>
          <step>A</step>
          <octave>3</octave>
        </pitch>
        <duration>1</duration>
        <type>16th</type>
      </note>
      <note>
        <pitch>
          <step>C</step>
          <octave>4</octave>
        </pitch>
        <duration>4</duration>
        <type>quarter</type>
        <lyric number="1">
          <text>啰</text>
        </lyric>
        <lyric number="2">
          <text>[未击中:[未击中:巾]]</text>
        </lyric>
        <lyric number="3">
          <text>[未击中:[未击中:巾]]田</text>
        </lyric>
      </note>
      <note>
        <pitch>
          <step>A</step>
          <octave>3</octave>
        </pitch>
        <duration>1</duration>
        <type>16th</type>
        <lyric number="1">
          <text>嗒</text>
        </lyric>
        <lyric number="2">
          <text>宽工</text>
        </lyric>
      </note>
      <note>
        <pitch>
          <step>G</step>
          <octave>3</octave>
        </pitch>
        <duration>1</duration>
        <type>16th</type>
        <lyric number="1">
          <text>丝起</text>
        </lyric>
      </note>
    </measure>
    <measure number="8">
      <attributes>
        <time>
          <beats>4</beats>
          <beat-type>4</beat-type>
        </time>
      </attributes>
      <note>
        <pitch>
          <step>E</step>
          <octave>3</octave>
        </pitch>
        <duration>2</duration>
        <type>eighth</type>
        <lyric number="1">
          <text>掠</text>
        </lyric>
        <lyric number="2">
          <text>nan</text>
        </lyric>
        <lyric number="3">
          <text>nan</text>
        </lyric>
        <lyric number="4">
          <text>nan</text>
        </lyric>
        <lyric number="5">
          <text>[未击中:[未击中:卬]]</text>
        </lyric>
        <lyric number="6">
          <text>农</text>
        </lyric>
      </note>
      <note>
        <pitch>
          <step>B</step>
          <octave>3</octave>
        </pitch>
        <duration>2</duration>
        <type>eighth</type>
        <lyric number="1">
          <text>我</text>
        </lyric>
        <lyric number="2">
          <text>九</text>
        </lyric>
        <lyric number="3">
          <text>一</text>
        </lyric>
        <lyric number="4">
          <text>别</text>
        </lyric>
        <lyric number="5">
          <text>自</text>
        </lyric>
        <lyric number="6">
          <text>十</text>
        </lyric>
        <lyric number="7">
          <text>收</text>
        </lyric>
        <lyric number="8">
          <text>大</text>
        </lyric>
        <lyric number="9">
          <text>扛</text>
        </lyric>
        <lyric number="10">
          <text>十</text>
        </lyric>
        <lyric number="11">
          <text>冢</text>
        </lyric>
        <lyric number="12">
          <text>一</text>
        </lyric>
        <lyric number="13">
          <text>我</text>
        </lyric>
        <lyric number="14">
          <text>大</text>
        </lyric>
        <lyric number="15">
          <text>二</text>
        </lyric>
        <lyric number="16">
          <text>等到</text>
        </lyric>
        <lyric number="17">
          <text>历</text>
        </lyric>
      </note>
      <note>
        <pitch>
          <step>B</step>
          <octave>3</octave>
        </pitch>
        <duration>1</duration>
        <type>16th</type>
        <lyric number="1">
          <text>细</text>
        </lyric>
        <lyric number="2">
          <text>月</text>
        </lyric>
        <lyric number="3">
          <text>祥</text>
        </lyric>
        <lyric number="4">
          <text>人</text>
        </lyric>
        <lyric number="5">
          <text>己</text>
        </lyric>
        <lyric number="6">
          <text>月</text>
        </lyric>
        <lyric number="7">
          <text>米</text>
        </lyric>
        <lyric number="8">
          <text>房</text>
        </lyric>
        <lyric number="9">
          <text>工</text>
        </lyric>
        <lyric number="10">
          <text>一</text>
        </lyric>
        <lyric number="11">
          <text>冢</text>
        </lyric>
        <lyric number="12">
          <text>冢</text>
        </lyric>
        <lyric number="13">
          <text>吃</text>
        </lyric>
        <lyric number="14">
          <text>嫂</text>
        </lyric>
        <lyric number="15">
          <text>嫂</text>
        </lyric>
        <lyric number="16">
          <text>nan</text>
        </lyric>
        <lyric number="17">
          <text>七</text>
        </lyric>
      </note>
      <note>
        <pitch>
          <step>A</step>
          <octave>3</octave>
        </pitch>
        <duration>1</duration>
        <type>16th</type>
        <lyric number="1">
          <text>细</text>
        </lyric>
        <lyric number="2">
          <text>仔</text>
        </lyric>
        <lyric number="3">
          <text>子</text>
        </lyric>
        <lyric number="4">
          <text>人</text>
        </lyric>
        <lyric number="5">
          <text>收</text>
        </lyric>
        <lyric number="6">
          <text>细</text>
        </lyric>
        <lyric number="7">
          <text>阿</text>
        </lyric>
        <lyric number="8">
          <text>月</text>
        </lyric>
        <lyric number="9">
          <text>屋</text>
        </lyric>
        <lyric number="10">
          <text>大</text>
        </lyric>
        <lyric number="11">
          <text>三</text>
        </lyric>
        <lyric number="12">
          <text>行</text>
        </lyric>
        <lyric number="13">
          <text>顿</text>
        </lyric>
        <lyric number="14">
          <text>明</text>
        </lyric>
      </note>
      <note>
        <pitch>
          <step>G</step>
          <octave>3</octave>
        </pitch>
        <duration>1</duration>
        <type>16th</type>
        <lyric number="1">
          <text>九</text>
        </lyric>
        <lyric number="2">
          <text>主</text>
        </lyric>
      </note>
      <note>
        <pitch>
          <step>A</step>
          <octave>3</octave>
        </pitch>
        <duration>1</duration>
        <type>16th</type>
        <lyric number="1">
          <text>乌阴</text>
        </lyric>
        <lyric number="2">
          <text>人两样</text>
        </lyric>
        <lyric number="3">
          <text>儿不nan打</text>
        </lyric>
        <lyric number="4">
          <text>儿惜nan如</text>
        </lyric>
        <lyric number="5">
          <text>收冬</text>
        </lyric>
        <lyric number="6">
          <text>谷收入</text>
        </lyric>
        <lyric number="7">
          <text>房放到</text>
        </lyric>
        <lyric number="8">
          <text>哥房内</text>
        </lyric>
        <lyric number="9">
          <text>近冬边</text>
        </lyric>
        <lyric number="10">
          <text>屋人团</text>
        </lyric>
        <lyric number="11">
          <text>小吃[未击中:磗]到nan</text>
        </lyric>
        <lyric number="12">
          <text>碗汤来九</text>
        </lyric>
        <lyric number="13">
          <text>岀喊来</text>
        </lyric>
        <lyric number="14">
          <text>脚等明年</text>
        </lyric>
        <lyric number="15">
          <text>年年冬好</text>
        </lyric>
      </note>
    </measure>
    <measure number="9">
      <attributes>
        <time>
          <beats>4</beats>
          <beat-type>4</beat-type>
        </time>
      </attributes>
      <note>
        <pitch>
          <step>B</step>
          <octave>3</octave>
        </pitch>
        <duration>2</duration>
        <type>eighth</type>
        <lyric number="1">
          <text>做</text>
        </lyric>
        <lyric number="2">
          <text>心</text>
        </lyric>
        <lyric number="3">
          <text>紧</text>
        </lyric>
        <lyric number="4">
          <text>金</text>
        </lyric>
        <lyric number="5">
          <text>房</text>
        </lyric>
        <lyric number="6">
          <text>满</text>
        </lyric>
        <lyric number="7">
          <text>nan</text>
        </lyric>
        <lyric number="8">
          <text>圆</text>
        </lyric>
        <lyric number="9">
          <text>饱</text>
        </lyric>
        <lyric number="10">
          <text>粒</text>
        </lyric>
        <lyric number="11">
          <text>添</text>
        </lyric>
      </note>
      <note>
        <pitch>
          <step>A</step>
          <octave>3</octave>
        </pitch>
        <duration>1</duration>
        <type>16th</type>
        <lyric number="1">
          <text>长</text>
        </lyric>
        <lyric number="2">
          <text>圆</text>
        </lyric>
      </note>
      <note>
        <pitch>
          <step>G</step>
          <octave>3</octave>
        </pitch>
        <duration>1</duration>
        <type>16th</type>
      </note>
      <note>
        <pitch>
          <step>A</step>
          <octave>3</octave>
        </pitch>
        <duration>2</duration>
        <type>eighth</type>
        <lyric number="1">
          <text>工</text>
        </lyric>
      </note>
      <note>
        <pitch>
          <step>G</step>
          <octave>3</octave>
        </pitch>
        <duration>6</duration>
        <type>quarter</type>
        <dot />
        <lyric number="1">
          <text>喂</text>
        </lyric>
      </note>
    </measure>
  </part>
</score-partwise>
