<?xml version='1.0' encoding='utf-8'?>
<score-partwise version="3.1">
  <work>
    <work-title>页面_song_891</work-title>
  </work>
  <part-list>
    <score-part id="P1">
      <part-name>简谱旋律</part-name>
    </score-part>
  </part-list>
  <part id="P1">
    <measure number="1">
      <attributes>
        <divisions>4</divisions>
        <key>
          <fifths>0</fifths>
        </key>
        <time>
          <beats>4</beats>
          <beat-type>4</beat-type>
        </time>
      </attributes>
      <note>
        <pitch>
          <step>D</step>
          <octave>4</octave>
        </pitch>
        <duration>1</duration>
        <type>16th</type>
        <lyric number="1">
          <text>海</text>
        </lyric>
        <lyric number="2">
          <text>宝</text>
        </lyric>
        <lyric number="3">
          <text>海</text>
        </lyric>
        <lyric number="4">
          <text>宝</text>
        </lyric>
      </note>
      <note>
        <pitch>
          <step>E</step>
          <octave>4</octave>
        </pitch>
        <duration>1</duration>
        <type>16th</type>
      </note>
      <note>
        <pitch>
          <step>D</step>
          <octave>4</octave>
        </pitch>
        <duration>2</duration>
        <type>eighth</type>
        <lyric number="1">
          <text>啊</text>
        </lyric>
        <lyric number="2">
          <text>啊</text>
        </lyric>
        <lyric number="3">
          <text>啊</text>
        </lyric>
        <lyric number="4">
          <text>啊</text>
        </lyric>
      </note>
      <note>
        <pitch>
          <step>A</step>
          <octave>4</octave>
        </pitch>
        <duration>2</duration>
        <type>eighth</type>
        <lyric number="1">
          <text>底</text>
        </lyric>
        <lyric number="2">
          <text>塔</text>
        </lyric>
        <lyric number="3">
          <text>底</text>
        </lyric>
        <lyric number="4">
          <text>塔</text>
        </lyric>
      </note>
      <note>
        <pitch>
          <step>A</step>
          <octave>4</octave>
        </pitch>
        <duration>2</duration>
        <type>eighth</type>
        <lyric number="1">
          <text>哩</text>
        </lyric>
        <lyric number="2">
          <text>哩</text>
        </lyric>
        <lyric number="3">
          <text>哩</text>
        </lyric>
        <lyric number="4">
          <text>哩</text>
        </lyric>
      </note>
    </measure>
    <measure number="2">
      <attributes>
        <time>
          <beats>4</beats>
          <beat-type>4</beat-type>
        </time>
      </attributes>
      <note>
        <pitch>
          <step>G</step>
          <octave>4</octave>
        </pitch>
        <duration>1</duration>
        <type>16th</type>
        <lyric number="1">
          <text>岀</text>
        </lyric>
        <lyric number="2">
          <text>起</text>
        </lyric>
        <lyric number="3">
          <text>岀</text>
        </lyric>
        <lyric number="4">
          <text>起</text>
        </lyric>
      </note>
      <note>
        <pitch>
          <step>A</step>
          <octave>4</octave>
        </pitch>
        <duration>1</duration>
        <type>16th</type>
      </note>
      <note>
        <pitch>
          <step>F</step>
          <octave>4</octave>
        </pitch>
        <duration>2</duration>
        <type>eighth</type>
      </note>
      <note>
        <pitch>
          <step>C</step>
          <octave>4</octave>
        </pitch>
        <duration>2</duration>
        <type>eighth</type>
      </note>
      <note>
        <pitch>
          <step>G</step>
          <octave>4</octave>
        </pitch>
        <duration>1</duration>
        <type>16th</type>
        <lyric number="1">
          <text>有</text>
        </lyric>
        <lyric number="2">
          <text>在</text>
        </lyric>
        <lyric number="3">
          <text>有</text>
        </lyric>
        <lyric number="4">
          <text>在</text>
        </lyric>
      </note>
      <note>
        <pitch>
          <step>A</step>
          <octave>4</octave>
        </pitch>
        <duration>1</duration>
        <type>16th</type>
      </note>
      <note>
        <pitch>
          <step>G</step>
          <octave>4</octave>
        </pitch>
        <duration>1</duration>
        <type>16th</type>
        <lyric number="1">
          <text>啊</text>
        </lyric>
        <lyric number="2">
          <text>啊</text>
        </lyric>
      </note>
      <note>
        <pitch>
          <step>F</step>
          <octave>4</octave>
        </pitch>
        <duration>1</duration>
        <type>16th</type>
        <lyric number="1">
          <text>啲</text>
        </lyric>
        <lyric number="2">
          <text>啲</text>
        </lyric>
        <lyric number="3">
          <text>啲</text>
        </lyric>
        <lyric number="4">
          <text>啲</text>
        </lyric>
      </note>
    </measure>
    <measure number="3">
      <attributes>
        <time>
          <beats>4</beats>
          <beat-type>4</beat-type>
        </time>
      </attributes>
      <note>
        <pitch>
          <step>D</step>
          <octave>4</octave>
        </pitch>
        <duration>2</duration>
        <type>eighth</type>
        <lyric number="1">
          <text>鲤</text>
        </lyric>
        <lyric number="2">
          <text>皇</text>
        </lyric>
        <lyric number="3">
          <text>鲤</text>
        </lyric>
        <lyric number="4">
          <text>皇</text>
        </lyric>
      </note>
      <note>
        <pitch>
          <step>A</step>
          <octave>4</octave>
        </pitch>
        <duration>2</duration>
        <type>eighth</type>
        <lyric number="1">
          <text>鱼</text>
        </lyric>
        <lyric number="2">
          <text>宫</text>
        </lyric>
        <lyric number="3">
          <text>鱼</text>
        </lyric>
        <lyric number="4">
          <text>宫</text>
        </lyric>
      </note>
      <note>
        <pitch>
          <step>G</step>
          <octave>4</octave>
        </pitch>
        <duration>1</duration>
        <type>16th</type>
        <lyric number="1">
          <text>哎</text>
        </lyric>
        <lyric number="2">
          <text>哎</text>
        </lyric>
        <lyric number="3">
          <text>哎</text>
        </lyric>
        <lyric number="4">
          <text>哎</text>
        </lyric>
      </note>
      <note>
        <pitch>
          <step>A</step>
          <octave>4</octave>
        </pitch>
        <duration>1</duration>
        <type>16th</type>
      </note>
      <note>
        <pitch>
          <step>E</step>
          <octave>4</octave>
        </pitch>
        <duration>2</duration>
        <type>eighth</type>
        <lyric number="1">
          <text>哎</text>
        </lyric>
        <lyric number="2">
          <text>哎</text>
        </lyric>
        <lyric number="3">
          <text>哎</text>
        </lyric>
        <lyric number="4">
          <text>哎</text>
        </lyric>
      </note>
    </measure>
    <measure number="4">
      <attributes>
        <time>
          <beats>4</beats>
          <beat-type>4</beat-type>
        </time>
      </attributes>
      <note>
        <pitch>
          <step>D</step>
          <octave>4</octave>
        </pitch>
        <duration>8</duration>
        <type>half</type>
        <lyric number="1">
          <text>蚶</text>
        </lyric>
        <lyric number="2">
          <text>底</text>
        </lyric>
        <lyric number="3">
          <text>鲳nan</text>
        </lyric>
        <lyric number="4">
          <text>底</text>
        </lyric>
      </note>
    </measure>
    <measure number="5">
      <attributes>
        <time>
          <beats>4</beats>
          <beat-type>4</beat-type>
        </time>
      </attributes>
      <note>
        <pitch>
          <step>G</step>
          <octave>4</octave>
        </pitch>
        <duration>2</duration>
        <type>eighth</type>
        <lyric number="1">
          <text>山</text>
        </lyric>
        <lyric number="2">
          <text>姐</text>
        </lyric>
        <lyric number="3">
          <text>山</text>
        </lyric>
        <lyric number="4">
          <text>姐</text>
        </lyric>
      </note>
      <note>
        <pitch>
          <step>G</step>
          <octave>4</octave>
        </pitch>
        <duration>1</duration>
        <type>16th</type>
        <lyric number="1">
          <text>啊</text>
        </lyric>
        <lyric number="2">
          <text>啊</text>
        </lyric>
        <lyric number="3">
          <text>啊</text>
        </lyric>
      </note>
      <note>
        <pitch>
          <step>A</step>
          <octave>4</octave>
        </pitch>
        <duration>1</duration>
        <type>16th</type>
      </note>
      <note>
        <pitch>
          <step>C</step>
          <octave>4</octave>
        </pitch>
        <duration>2</duration>
        <type>eighth</type>
        <lyric number="1">
          <text>上</text>
        </lyric>
        <lyric number="2">
          <text>妹</text>
        </lyric>
        <lyric number="3">
          <text>上</text>
        </lyric>
        <lyric number="4">
          <text>妹</text>
        </lyric>
      </note>
      <note>
        <pitch>
          <step>E</step>
          <octave>4</octave>
        </pitch>
        <duration>2</duration>
        <type>eighth</type>
        <lyric number="1">
          <text>个</text>
        </lyric>
        <lyric number="2">
          <text>个</text>
        </lyric>
        <lyric number="3">
          <text>个</text>
        </lyric>
        <lyric number="4">
          <text>个</text>
        </lyric>
      </note>
    </measure>
    <measure number="6">
      <attributes>
        <time>
          <beats>4</beats>
          <beat-type>4</beat-type>
        </time>
      </attributes>
      <note>
        <pitch>
          <step>E</step>
          <octave>4</octave>
        </pitch>
        <duration>1</duration>
        <type>16th</type>
        <lyric number="1">
          <text>岀</text>
        </lyric>
        <lyric number="2">
          <text>亲</text>
        </lyric>
        <lyric number="3">
          <text>岀</text>
        </lyric>
        <lyric number="4">
          <text>岀</text>
        </lyric>
      </note>
      <note>
        <pitch>
          <step>F</step>
          <octave>4</octave>
        </pitch>
        <duration>1</duration>
        <type>16th</type>
      </note>
      <note>
        <pitch>
          <step>C</step>
          <octave>4</octave>
        </pitch>
        <duration>1</duration>
        <type>16th</type>
      </note>
      <note>
        <pitch>
          <step>E</step>
          <octave>4</octave>
        </pitch>
        <duration>1</duration>
        <type>16th</type>
      </note>
      <note>
        <pitch>
          <step>D</step>
          <octave>4</octave>
        </pitch>
        <duration>1</duration>
        <type>16th</type>
      </note>
      <note>
        <pitch>
          <step>C</step>
          <octave>4</octave>
        </pitch>
        <duration>1</duration>
        <type>16th</type>
        <lyric number="1">
          <text>有</text>
        </lyric>
        <lyric number="2">
          <text>象</text>
        </lyric>
        <lyric number="3">
          <text>有</text>
        </lyric>
        <lyric number="4">
          <text>有</text>
        </lyric>
      </note>
      <note>
        <pitch>
          <step>D</step>
          <octave>4</octave>
        </pitch>
        <duration>1</duration>
        <type>16th</type>
      </note>
      <note>
        <pitch>
          <step>E</step>
          <octave>4</octave>
        </pitch>
        <duration>2</duration>
        <type>eighth</type>
        <lyric number="1">
          <text>啊</text>
        </lyric>
        <lyric number="2">
          <text>啊</text>
        </lyric>
        <lyric number="3">
          <text>啊</text>
        </lyric>
        <lyric number="4">
          <text>啊</text>
        </lyric>
      </note>
      <note>
        <pitch>
          <step>D</step>
          <octave>4</octave>
        </pitch>
        <duration>1</duration>
        <type>16th</type>
        <lyric number="1">
          <text>啊</text>
        </lyric>
        <lyric number="2">
          <text>啊</text>
        </lyric>
      </note>
      <note>
        <pitch>
          <step>C</step>
          <octave>4</octave>
        </pitch>
        <duration>1</duration>
        <type>16th</type>
        <lyric number="1">
          <text>咿</text>
        </lyric>
        <lyric number="2">
          <text>咿</text>
        </lyric>
        <lyric number="3">
          <text>咿</text>
        </lyric>
        <lyric number="4">
          <text>咿</text>
        </lyric>
      </note>
      <note>
        <pitch>
          <step>D</step>
          <octave>4</octave>
        </pitch>
        <duration>1</duration>
        <type>16th</type>
        <lyric number="1">
          <text>哎</text>
        </lyric>
        <lyric number="2">
          <text>哎</text>
        </lyric>
        <lyric number="3">
          <text>哎</text>
        </lyric>
        <lyric number="4">
          <text>哎</text>
        </lyric>
      </note>
      <note>
        <pitch>
          <step>E</step>
          <octave>4</octave>
        </pitch>
        <duration>1</duration>
        <type>16th</type>
        <lyric number="1">
          <text>咿</text>
        </lyric>
        <lyric number="2">
          <text>咿</text>
        </lyric>
        <lyric number="3">
          <text>咿</text>
        </lyric>
        <lyric number="4">
          <text>咿</text>
        </lyric>
      </note>
    </measure>
    <measure number="7">
      <attributes>
        <time>
          <beats>4</beats>
          <beat-type>4</beat-type>
        </time>
      </attributes>
      <note>
        <pitch>
          <step>D</step>
          <octave>4</octave>
        </pitch>
        <duration>6</duration>
        <type>quarter</type>
        <dot />
        <lyric number="1">
          <text>哎</text>
        </lyric>
        <lyric number="2">
          <text>哎</text>
        </lyric>
        <lyric number="3">
          <text>哎</text>
        </lyric>
        <lyric number="4">
          <text>哎</text>
        </lyric>
      </note>
      <note>
        <pitch>
          <step>E</step>
          <octave>4</octave>
        </pitch>
        <duration>2</duration>
        <type>eighth</type>
        <lyric number="1">
          <text>哎</text>
        </lyric>
        <lyric number="2">
          <text>哎</text>
        </lyric>
        <lyric number="3">
          <text>哎</text>
        </lyric>
        <lyric number="4">
          <text>哎</text>
        </lyric>
      </note>
    </measure>
    <measure number="8">
      <attributes>
        <time>
          <beats>4</beats>
          <beat-type>4</beat-type>
        </time>
      </attributes>
      <note>
        <pitch>
          <step>G</step>
          <octave>3</octave>
        </pitch>
        <duration>8</duration>
        <type>half</type>
        <lyric number="1">
          <text>虎</text>
        </lyric>
        <lyric number="2">
          <text>双</text>
        </lyric>
        <lyric number="3">
          <text>虎</text>
        </lyric>
        <lyric number="4">
          <text>双</text>
        </lyric>
      </note>
    </measure>
    <measure number="9">
      <attributes>
        <time>
          <beats>4</beats>
          <beat-type>4</beat-type>
        </time>
      </attributes>
      <note>
        <pitch>
          <step>D</step>
          <octave>4</octave>
        </pitch>
        <duration>1</duration>
        <type>16th</type>
        <lyric number="1">
          <text>咬</text>
        </lyric>
        <lyric number="2">
          <text>玉</text>
        </lyric>
        <lyric number="3">
          <text>咬</text>
        </lyric>
        <lyric number="4">
          <text>鸳</text>
        </lyric>
      </note>
      <note>
        <pitch>
          <step>E</step>
          <octave>4</octave>
        </pitch>
        <duration>1</duration>
        <type>16th</type>
      </note>
      <note>
        <pitch>
          <step>D</step>
          <octave>4</octave>
        </pitch>
        <duration>1</duration>
        <type>16th</type>
      </note>
      <note>
        <pitch>
          <step>C</step>
          <octave>4</octave>
        </pitch>
        <duration>1</duration>
        <type>16th</type>
      </note>
      <note>
        <pitch>
          <step>B</step>
          <octave>3</octave>
        </pitch>
        <duration>2</duration>
        <type>eighth</type>
        <lyric number="1">
          <text>哎</text>
        </lyric>
        <lyric number="2">
          <text>哎</text>
        </lyric>
        <lyric number="3">
          <text>哎</text>
        </lyric>
        <lyric number="4">
          <text>哎</text>
        </lyric>
      </note>
      <note>
        <pitch>
          <step>E</step>
          <octave>4</octave>
        </pitch>
        <duration>2</duration>
        <type>eighth</type>
        <lyric number="1">
          <text>哎</text>
        </lyric>
        <lyric number="2">
          <text>哎</text>
        </lyric>
        <lyric number="3">
          <text>哎</text>
        </lyric>
        <lyric number="4">
          <text>哎</text>
        </lyric>
      </note>
    </measure>
    <measure number="10">
      <attributes>
        <time>
          <beats>4</beats>
          <beat-type>4</beat-type>
        </time>
      </attributes>
      <note>
        <pitch>
          <step>D</step>
          <octave>4</octave>
        </pitch>
        <duration>1</duration>
        <type>16th</type>
        <lyric number="1">
          <text>人</text>
        </lyric>
        <lyric number="2">
          <text>兰</text>
        </lyric>
        <lyric number="3">
          <text>人</text>
        </lyric>
        <lyric number="4">
          <text>鸯</text>
        </lyric>
      </note>
      <note>
        <pitch>
          <step>E</step>
          <octave>4</octave>
        </pitch>
        <duration>1</duration>
        <type>16th</type>
      </note>
      <note>
        <pitch>
          <step>D</step>
          <octave>4</octave>
        </pitch>
        <duration>1</duration>
        <type>16th</type>
        <lyric number="1">
          <text>啊</text>
        </lyric>
        <lyric number="2">
          <text>啊</text>
        </lyric>
        <lyric number="3">
          <text>啊</text>
        </lyric>
        <lyric number="4">
          <text>啊</text>
        </lyric>
      </note>
      <note>
        <pitch>
          <step>C</step>
          <octave>4</octave>
        </pitch>
        <duration>1</duration>
        <type>16th</type>
        <lyric number="1">
          <text>啲</text>
        </lyric>
        <lyric number="2">
          <text>啲</text>
        </lyric>
        <lyric number="3">
          <text>啲</text>
        </lyric>
        <lyric number="4">
          <text>啲</text>
        </lyric>
      </note>
      <note>
        <pitch>
          <step>B</step>
          <octave>3</octave>
        </pitch>
        <duration>2</duration>
        <type>eighth</type>
        <lyric number="1">
          <text>哎</text>
        </lyric>
        <lyric number="2">
          <text>哎</text>
        </lyric>
        <lyric number="3">
          <text>哎</text>
        </lyric>
        <lyric number="4">
          <text>哎</text>
        </lyric>
      </note>
      <note>
        <pitch>
          <step>A</step>
          <octave>3</octave>
        </pitch>
        <duration>2</duration>
        <type>eighth</type>
        <lyric number="1">
          <text>哎</text>
        </lyric>
        <lyric number="2">
          <text>哎</text>
        </lyric>
        <lyric number="3">
          <text>哎</text>
        </lyric>
        <lyric number="4">
          <text>哎</text>
        </lyric>
      </note>
    </measure>
    <measure number="11">
      <attributes>
        <time>
          <beats>4</beats>
          <beat-type>4</beat-type>
        </time>
      </attributes>
      <note>
        <pitch>
          <step>G</step>
          <octave>3</octave>
        </pitch>
        <duration>2</duration>
        <type>eighth</type>
        <lyric number="1">
          <text>哎</text>
        </lyric>
        <lyric number="2">
          <text>哎</text>
        </lyric>
        <lyric number="3">
          <text>哎</text>
        </lyric>
        <lyric number="4">
          <text>哎</text>
        </lyric>
      </note>
      <note>
        <pitch>
          <step>G</step>
          <octave>3</octave>
        </pitch>
        <duration>1</duration>
        <type>16th</type>
        <lyric number="1">
          <text>啊</text>
        </lyric>
        <lyric number="2">
          <text>啊</text>
        </lyric>
        <lyric number="3">
          <text>nannan</text>
        </lyric>
      </note>
      <note>
        <pitch>
          <step>A</step>
          <octave>3</octave>
        </pitch>
        <duration>1</duration>
        <type>16th</type>
        <lyric number="1">
          <text>嘟</text>
        </lyric>
        <lyric number="2">
          <text>嘟</text>
        </lyric>
        <lyric number="3">
          <text>嘟</text>
        </lyric>
        <lyric number="4">
          <text>嘟</text>
        </lyric>
        <lyric number="5">
          <text>nannan</text>
        </lyric>
      </note>
      <note>
        <pitch>
          <step>C</step>
          <octave>4</octave>
        </pitch>
        <duration>1</duration>
        <type>16th</type>
        <lyric number="1">
          <text>乙</text>
        </lyric>
        <lyric number="2">
          <text>乙</text>
        </lyric>
        <lyric number="3">
          <text>乙</text>
        </lyric>
        <lyric number="4">
          <text>乙</text>
        </lyric>
      </note>
      <note>
        <pitch>
          <step>C</step>
          <octave>4</octave>
        </pitch>
        <duration>1</duration>
        <type>16th</type>
        <lyric number="1">
          <text>啊</text>
        </lyric>
        <lyric number="2">
          <text>啊</text>
        </lyric>
        <lyric number="3">
          <text>[未击中:苏]</text>
        </lyric>
      </note>
      <note>
        <pitch>
          <step>D</step>
          <octave>4</octave>
        </pitch>
        <duration>1</duration>
        <type>16th</type>
        <lyric number="1">
          <text>尺</text>
        </lyric>
        <lyric number="2">
          <text>尺</text>
        </lyric>
        <lyric number="3">
          <text>尺</text>
        </lyric>
        <lyric number="4">
          <text>尺</text>
        </lyric>
        <lyric number="5">
          <text>nan</text>
        </lyric>
      </note>
      <note>
        <pitch>
          <step>E</step>
          <octave>4</octave>
        </pitch>
        <duration>1</duration>
        <type>16th</type>
        <lyric number="1">
          <text>nannannan</text>
        </lyric>
      </note>
    </measure>
    <measure number="12">
      <attributes>
        <time>
          <beats>4</beats>
          <beat-type>4</beat-type>
        </time>
      </attributes>
      <note>
        <pitch>
          <step>G</step>
          <octave>3</octave>
        </pitch>
        <duration>8</duration>
        <type>half</type>
        <lyric number="1">
          <text>上</text>
        </lyric>
        <lyric number="2">
          <text>上[未击中:[未击中:刀]]</text>
        </lyric>
        <lyric number="3">
          <text>上</text>
        </lyric>
        <lyric number="4">
          <text>上</text>
        </lyric>
        <lyric number="5">
          <text>nannannan</text>
        </lyric>
      </note>
    </measure>
  </part>
</score-partwise>
