<?xml version='1.0' encoding='utf-8'?>
<score-partwise version="3.1">
  <work>
    <work-title>页面_song_97</work-title>
  </work>
  <part-list>
    <score-part id="P1">
      <part-name>简谱旋律</part-name>
    </score-part>
  </part-list>
  <part id="P1">
    <measure number="1">
      <attributes>
        <divisions>4</divisions>
        <key>
          <fifths>0</fifths>
        </key>
        <time>
          <beats>4</beats>
          <beat-type>4</beat-type>
        </time>
      </attributes>
      <note>
        <pitch>
          <step>E</step>
          <octave>5</octave>
        </pitch>
        <duration>2</duration>
        <type>eighth</type>
        <lyric number="1">
          <text>初</text>
        </lyric>
      </note>
      <note>
        <pitch>
          <step>E</step>
          <octave>5</octave>
        </pitch>
        <duration>1</duration>
        <type>16th</type>
        <lyric number="1">
          <text>杯</text>
        </lyric>
        <lyric number="2">
          <text>[未击中:[未击中:匚]]</text>
        </lyric>
      </note>
      <note>
        <pitch>
          <step>D</step>
          <octave>5</octave>
        </pitch>
        <duration>1</duration>
        <type>16th</type>
      </note>
      <note>
        <pitch>
          <step>C</step>
          <octave>5</octave>
        </pitch>
        <duration>2</duration>
        <type>eighth</type>
        <lyric number="1">
          <text>酒</text>
        </lyric>
      </note>
      <note>
        <pitch>
          <step>D</step>
          <octave>5</octave>
        </pitch>
        <duration>1</duration>
        <type>16th</type>
        <lyric number="1">
          <text>来</text>
        </lyric>
      </note>
      <note>
        <pitch>
          <step>E</step>
          <octave>5</octave>
        </pitch>
        <duration>1</duration>
        <type>16th</type>
        <tie type="stop" />
      </note>
      <note>
        <pitch>
          <step>E</step>
          <octave>5</octave>
        </pitch>
        <duration>5</duration>
        <type>quarter</type>
        <tie type="start" />
      </note>
    </measure>
    <measure number="2">
      <attributes>
        <time>
          <beats>4</beats>
          <beat-type>4</beat-type>
        </time>
      </attributes>
      <note>
        <pitch>
          <step>D</step>
          <octave>5</octave>
        </pitch>
        <duration>1</duration>
        <type>16th</type>
        <lyric number="1">
          <text>桂</text>
        </lyric>
      </note>
      <note>
        <pitch>
          <step>E</step>
          <octave>5</octave>
        </pitch>
        <duration>1</duration>
        <type>16th</type>
      </note>
      <note>
        <pitch>
          <step>D</step>
          <octave>5</octave>
        </pitch>
        <duration>1</duration>
        <type>16th</type>
        <lyric number="1">
          <text>花</text>
        </lyric>
      </note>
      <note>
        <pitch>
          <step>C</step>
          <octave>5</octave>
        </pitch>
        <duration>1</duration>
        <type>16th</type>
      </note>
      <note>
        <pitch>
          <step>A</step>
          <octave>4</octave>
        </pitch>
        <duration>2</duration>
        <type>eighth</type>
        <lyric number="1">
          <text>烧</text>
        </lyric>
        <lyric number="2">
          <text>[未击中:[未击中:匚]]</text>
        </lyric>
      </note>
      <note>
        <pitch>
          <step>G</step>
          <octave>4</octave>
        </pitch>
        <duration>2</duration>
        <type>eighth</type>
        <lyric number="1">
          <text>咧</text>
        </lyric>
        <lyric number="2">
          <text>[未击中:[未击中:匚]]</text>
        </lyric>
      </note>
    </measure>
    <measure number="3">
      <attributes>
        <time>
          <beats>4</beats>
          <beat-type>4</beat-type>
        </time>
      </attributes>
      <note>
        <pitch>
          <step>G</step>
          <octave>4</octave>
        </pitch>
        <duration>2</duration>
        <type>eighth</type>
        <lyric number="1">
          <text>兄</text>
        </lyric>
        <lyric number="2">
          <text>[未击中:[未击中:匚]]</text>
        </lyric>
      </note>
      <note>
        <pitch>
          <step>G</step>
          <octave>4</octave>
        </pitch>
        <duration>1</duration>
        <type>16th</type>
        <lyric number="1">
          <text>来</text>
        </lyric>
      </note>
      <note>
        <pitch>
          <step>A</step>
          <octave>4</octave>
        </pitch>
        <duration>1</duration>
        <type>16th</type>
      </note>
      <note>
        <pitch>
          <step>C</step>
          <octave>5</octave>
        </pitch>
        <duration>4</duration>
        <type>quarter</type>
        <lyric number="1">
          <text>呀</text>
        </lyric>
      </note>
    </measure>
    <measure number="4">
      <attributes>
        <time>
          <beats>4</beats>
          <beat-type>4</beat-type>
        </time>
      </attributes>
      <note>
        <pitch>
          <step>C</step>
          <octave>5</octave>
        </pitch>
        <duration>2</duration>
        <type>eighth</type>
        <lyric number="1">
          <text>访</text>
        </lyric>
      </note>
      <note>
        <pitch>
          <step>D</step>
          <octave>5</octave>
        </pitch>
        <duration>1</duration>
        <type>16th</type>
        <lyric number="1">
          <text>nan</text>
        </lyric>
        <lyric number="2">
          <text>我</text>
        </lyric>
        <lyric number="3">
          <text>nan</text>
        </lyric>
        <lyric number="4">
          <text>nan</text>
        </lyric>
        <lyric number="5">
          <text>[未击中:[未击中:巾]]</text>
        </lyric>
      </note>
      <note>
        <pitch>
          <step>E</step>
          <octave>5</octave>
        </pitch>
        <duration>1</duration>
        <type>16th</type>
      </note>
      <note>
        <pitch>
          <step>D</step>
          <octave>5</octave>
        </pitch>
        <duration>1</duration>
        <type>16th</type>
        <lyric number="1">
          <text>nan</text>
        </lyric>
        <lyric number="2">
          <text>路</text>
        </lyric>
        <lyric number="3">
          <text>nan</text>
        </lyric>
        <lyric number="4">
          <text>nan</text>
        </lyric>
        <lyric number="5">
          <text>未</text>
        </lyric>
      </note>
      <note>
        <pitch>
          <step>C</step>
          <octave>5</octave>
        </pitch>
        <duration>1</duration>
        <type>16th</type>
      </note>
      <note>
        <pitch>
          <step>D</step>
          <octave>5</octave>
        </pitch>
        <duration>1</duration>
        <type>16th</type>
        <lyric number="1">
          <text>[未击中:[未击中:胐]]</text>
        </lyric>
        <lyric number="2">
          <text>远</text>
        </lyric>
      </note>
      <note>
        <pitch>
          <step>E</step>
          <octave>5</octave>
        </pitch>
        <duration>1</duration>
        <type>16th</type>
        <lyric number="1">
          <text>让</text>
        </lyric>
        <lyric number="2">
          <text>从</text>
        </lyric>
        <lyric number="3">
          <text>二</text>
        </lyric>
        <lyric number="4">
          <text>怨</text>
        </lyric>
        <lyric number="5">
          <text>今</text>
        </lyric>
        <lyric number="6">
          <text>哥</text>
        </lyric>
        <lyric number="7">
          <text>临</text>
        </lyric>
        <lyric number="8">
          <text>日</text>
        </lyric>
        <lyric number="9">
          <text>nan</text>
        </lyric>
        <lyric number="10">
          <text>双杯</text>
        </lyric>
        <lyric number="11">
          <text>媒</text>
        </lyric>
      </note>
    </measure>
    <measure number="5">
      <attributes>
        <time>
          <beats>4</beats>
          <beat-type>4</beat-type>
        </time>
      </attributes>
      <note>
        <pitch>
          <step>G</step>
          <octave>4</octave>
        </pitch>
        <duration>8</duration>
        <type>half</type>
        <lyric number="1">
          <text>nan</text>
        </lyric>
        <lyric number="2">
          <text>遥</text>
        </lyric>
        <lyric number="3">
          <text>过马家nan</text>
        </lyric>
        <lyric number="4">
          <text>今无聊点</text>
        </lyric>
        <lyric number="5">
          <text>杯酒劝</text>
        </lyric>
        <lyric number="6">
          <text>恨姻缘路</text>
        </lyric>
        <lyric number="7">
          <text>日隔断姻</text>
        </lyric>
        <lyric number="8">
          <text>在西时妺</text>
        </lyric>
        <lyric number="9">
          <text>行之时多</text>
        </lyric>
        <lyric number="10">
          <text>后鸡啼皿</text>
        </lyric>
        <lyric number="11">
          <text>nan</text>
        </lyric>
        <lyric number="12">
          <text>群找nan</text>
        </lyric>
      </note>
    </measure>
    <measure number="6">
      <attributes>
        <time>
          <beats>4</beats>
          <beat-type>4</beat-type>
        </time>
      </attributes>
      <note>
        <pitch>
          <step>A</step>
          <octave>4</octave>
        </pitch>
        <duration>1</duration>
        <type>16th</type>
        <lyric number="1">
          <text>nan</text>
        </lyric>
        <lyric number="2">
          <text>无</text>
        </lyric>
        <lyric number="3">
          <text>夫</text>
        </lyric>
        <lyric number="4">
          <text>新</text>
        </lyric>
        <lyric number="5">
          <text>双</text>
        </lyric>
        <lyric number="6">
          <text>不</text>
        </lyric>
        <lyric number="7">
          <text>缘</text>
        </lyric>
        <lyric number="8">
          <text>在</text>
        </lyric>
        <lyric number="9">
          <text>至</text>
        </lyric>
        <lyric number="10">
          <text>泪</text>
        </lyric>
        <lyric number="11">
          <text>人</text>
        </lyric>
      </note>
      <note>
        <pitch>
          <step>C</step>
          <octave>5</octave>
        </pitch>
        <duration>1</duration>
        <type>16th</type>
        <lyric number="1">
          <text>妇</text>
        </lyric>
        <lyric number="2">
          <text>歌等</text>
        </lyric>
        <lyric number="3">
          <text>盅等</text>
        </lyric>
        <lyric number="4">
          <text>逢等</text>
        </lyric>
        <lyric number="5">
          <text>路</text>
        </lyric>
        <lyric number="6">
          <text>东心</text>
        </lyric>
        <lyric number="7">
          <text>嘱爹</text>
        </lyric>
        <lyric number="8">
          <text>nan</text>
        </lyric>
      </note>
      <note>
        <pitch>
          <step>A</step>
          <octave>4</octave>
        </pitch>
        <duration>1</duration>
        <type>16th</type>
        <lyric number="1">
          <text>nan</text>
        </lyric>
        <lyric number="2">
          <text>缘</text>
        </lyric>
        <lyric number="3">
          <text>红将</text>
        </lyric>
      </note>
      <note>
        <pitch>
          <step>G</step>
          <octave>4</octave>
        </pitch>
        <duration>1</duration>
        <type>16th</type>
      </note>
      <note>
        <pitch>
          <step>E</step>
          <octave>4</octave>
        </pitch>
        <duration>2</duration>
        <type>eighth</type>
        <lyric number="1">
          <text>nan</text>
        </lyric>
        <lyric number="2">
          <text>海</text>
        </lyric>
      </note>
      <note>
        <pitch>
          <step>G</step>
          <octave>4</octave>
        </pitch>
        <duration>2</duration>
        <type>eighth</type>
        <lyric number="1">
          <text>[未击中:阝]</text>
        </lyric>
        <lyric number="2">
          <text>路</text>
        </lyric>
      </note>
    </measure>
    <measure number="7">
      <attributes>
        <time>
          <beats>4</beats>
          <beat-type>4</beat-type>
        </time>
      </attributes>
      <note>
        <pitch>
          <step>G</step>
          <octave>4</octave>
        </pitch>
        <duration>2</duration>
        <type>eighth</type>
        <lyric number="1">
          <text>[未击中:阝]</text>
        </lyric>
      </note>
      <note>
        <pitch>
          <step>E</step>
          <octave>5</octave>
        </pitch>
        <duration>2</duration>
        <type>eighth</type>
        <lyric number="1">
          <text>[未击中:[未击中:阝]]</text>
        </lyric>
      </note>
      <note>
        <pitch>
          <step>D</step>
          <octave>5</octave>
        </pitch>
        <duration>1</duration>
        <type>16th</type>
        <lyric number="1">
          <text>江</text>
        </lyric>
      </note>
      <note>
        <pitch>
          <step>E</step>
          <octave>5</octave>
        </pitch>
        <duration>1</duration>
        <type>16th</type>
        <lyric number="1">
          <text>nan</text>
        </lyric>
        <lyric number="2">
          <text>山</text>
        </lyric>
      </note>
      <note>
        <pitch>
          <step>D</step>
          <octave>5</octave>
        </pitch>
        <duration>1</duration>
        <type>16th</type>
      </note>
      <note>
        <pitch>
          <step>C</step>
          <octave>5</octave>
        </pitch>
        <duration>1</duration>
        <type>16th</type>
      </note>
      <note>
        <pitch>
          <step>D</step>
          <octave>5</octave>
        </pitch>
        <duration>1</duration>
        <type>16th</type>
        <lyric number="1">
          <text>[未击中:銅]</text>
        </lyric>
        <lyric number="2">
          <text>隔</text>
        </lyric>
      </note>
      <note>
        <pitch>
          <step>C</step>
          <octave>5</octave>
        </pitch>
        <duration>1</duration>
        <type>16th</type>
      </note>
      <note>
        <pitch>
          <step>A</step>
          <octave>4</octave>
        </pitch>
        <duration>2</duration>
        <type>eighth</type>
        <lyric number="1">
          <text>nan</text>
        </lyric>
        <lyric number="2">
          <text>nan实</text>
        </lyric>
        <lyric number="3">
          <text>nan日</text>
        </lyric>
        <lyric number="4">
          <text>[未击中:巾]择问</text>
        </lyric>
        <lyric number="5">
          <text>[未击中:[未击中:巾]]迟迟</text>
        </lyric>
        <lyric number="6">
          <text>[未击中:[未击中:巾]]到</text>
        </lyric>
      </note>
    </measure>
    <measure number="8">
      <attributes>
        <time>
          <beats>4</beats>
          <beat-type>4</beat-type>
        </time>
      </attributes>
      <note>
        <pitch>
          <step>C</step>
          <octave>5</octave>
        </pitch>
        <duration>2</duration>
        <type>eighth</type>
        <lyric number="1">
          <text>唔</text>
        </lyric>
        <lyric number="2">
          <text>在</text>
        </lyric>
        <lyric number="3">
          <text>了</text>
        </lyric>
        <lyric number="4">
          <text>了</text>
        </lyric>
        <lyric number="5">
          <text>了</text>
        </lyric>
        <lyric number="6">
          <text>期过</text>
        </lyric>
        <lyric number="7">
          <text>nan如</text>
        </lyric>
        <lyric number="8">
          <text>娘</text>
        </lyric>
        <lyric number="9">
          <text>我许</text>
        </lyric>
        <lyric number="10">
          <text>未</text>
        </lyric>
        <lyric number="11">
          <text>nan</text>
        </lyric>
      </note>
      <note>
        <pitch>
          <step>G</step>
          <octave>4</octave>
        </pitch>
        <duration>1</duration>
        <type>16th</type>
        <lyric number="1">
          <text>nan</text>
        </lyric>
        <lyric number="2">
          <text>连</text>
        </lyric>
        <lyric number="3">
          <text>难</text>
        </lyric>
        <lyric number="4">
          <text>一</text>
        </lyric>
        <lyric number="5">
          <text>二</text>
        </lyric>
        <lyric number="6">
          <text>三</text>
        </lyric>
        <lyric number="7">
          <text>了</text>
        </lyric>
        <lyric number="8">
          <text>焚</text>
        </lyric>
        <lyric number="9">
          <text>叫</text>
        </lyric>
        <lyric number="10">
          <text>配</text>
        </lyric>
        <lyric number="11">
          <text>探</text>
        </lyric>
        <lyric number="12">
          <text>得</text>
        </lyric>
      </note>
      <note>
        <pitch>
          <step>A</step>
          <octave>4</octave>
        </pitch>
        <duration>1</duration>
        <type>16th</type>
        <lyric number="1">
          <text>[未击中:为]</text>
        </lyric>
        <lyric number="2">
          <text>期</text>
        </lyric>
        <lyric number="3">
          <text>期</text>
        </lyric>
        <lyric number="4">
          <text>期</text>
        </lyric>
        <lyric number="5">
          <text>我</text>
        </lyric>
        <lyric number="6">
          <text>冋</text>
        </lyric>
        <lyric number="7">
          <text>简</text>
        </lyric>
      </note>
      <note>
        <pitch>
          <step>C</step>
          <octave>5</octave>
        </pitch>
        <duration>4</duration>
        <type>quarter</type>
        <lyric number="1">
          <text>你妹</text>
        </lyric>
        <lyric number="2">
          <text>又没</text>
        </lyric>
        <lyric number="3">
          <text>杳无</text>
        </lyric>
        <lyric number="4">
          <text>都已</text>
        </lyric>
        <lyric number="5">
          <text>实情</text>
        </lyric>
        <lyric number="6">
          <text>nan盼</text>
        </lyric>
        <lyric number="7">
          <text>丢nan</text>
        </lyric>
        <lyric number="8">
          <text>马俊</text>
        </lyric>
        <lyric number="9">
          <text>车堂</text>
        </lyric>
      </note>
    </measure>
    <measure number="9">
      <attributes>
        <time>
          <beats>4</beats>
          <beat-type>4</beat-type>
        </time>
      </attributes>
      <note>
        <pitch>
          <step>C</step>
          <octave>5</octave>
        </pitch>
        <duration>2</duration>
        <type>eighth</type>
        <lyric number="1">
          <text>金</text>
        </lyric>
        <lyric number="2">
          <text>等</text>
        </lyric>
        <lyric number="3">
          <text>到nan</text>
        </lyric>
        <lyric number="4">
          <text>音</text>
        </lyric>
        <lyric number="5">
          <text>到</text>
        </lyric>
        <lyric number="6">
          <text>虚</text>
        </lyric>
        <lyric number="7">
          <text>望</text>
        </lyric>
        <lyric number="8">
          <text>想</text>
        </lyric>
        <lyric number="9">
          <text>郎</text>
        </lyric>
      </note>
      <note>
        <pitch>
          <step>D</step>
          <octave>5</octave>
        </pitch>
        <duration>1</duration>
        <type>16th</type>
        <lyric number="1">
          <text>[未击中:[未击中:胐]]</text>
        </lyric>
        <lyric number="2">
          <text>屋</text>
        </lyric>
        <lyric number="3">
          <text>nan</text>
        </lyric>
        <lyric number="4">
          <text>nan</text>
        </lyric>
      </note>
      <note>
        <pitch>
          <step>E</step>
          <octave>5</octave>
        </pitch>
        <duration>1</duration>
        <type>16th</type>
      </note>
      <note>
        <pitch>
          <step>D</step>
          <octave>5</octave>
        </pitch>
        <duration>1</duration>
        <type>16th</type>
        <lyric number="1">
          <text>[未击中:銅]</text>
        </lyric>
        <lyric number="2">
          <text>守</text>
        </lyric>
        <lyric number="3">
          <text>能</text>
        </lyric>
      </note>
      <note>
        <pitch>
          <step>C</step>
          <octave>5</octave>
        </pitch>
        <duration>1</duration>
        <type>16th</type>
        <lyric number="1">
          <text>与</text>
        </lyric>
      </note>
      <note>
        <pitch>
          <step>D</step>
          <octave>5</octave>
        </pitch>
        <duration>1</duration>
        <type>16th</type>
        <lyric number="1">
          <text>[未击中:[未击中:胐]]</text>
        </lyric>
        <lyric number="2">
          <text>阿</text>
        </lyric>
      </note>
      <note>
        <pitch>
          <step>E</step>
          <octave>5</octave>
        </pitch>
        <duration>1</duration>
        <type>16th</type>
      </note>
    </measure>
    <measure number="10">
      <attributes>
        <time>
          <beats>4</beats>
          <beat-type>4</beat-type>
        </time>
      </attributes>
      <note>
        <pitch>
          <step>G</step>
          <octave>5</octave>
        </pitch>
        <duration>16</duration>
        <type>whole</type>
        <tie type="start" />
        <tie type="stop" />
        <lyric number="1">
          <text>[未击中:阝]</text>
        </lyric>
        <lyric number="2">
          <text>娇</text>
        </lyric>
        <lyric number="3">
          <text>nan</text>
        </lyric>
      </note>
    </measure>
  </part>
</score-partwise>
